M48
;DRILL file {KiCad 4.0.7} date Wednesday, May 30, 2018 'PMt' 02:51:12 PM
;FORMAT={-:-/ absolute / inch / decimal}
FMAT,2
INCH,TZ
T1C0.012
T2C0.028
T3C0.031
T4C0.035
T5C0.036
T6C0.036
T7C0.039
T8C0.043
T9C0.091
T10C0.126
%
G90
G05
M72
T1
X1.008Y-5.3249
X1.32Y-5.6369
X1.344Y-5.4209
X1.664Y-5.2449
X1.672Y-3.8529
X1.6998Y-2.6346
X1.7222Y-2.6611
X1.751Y-2.6771
X1.7826Y-2.6835
X1.784Y-3.8929
X1.9526Y-2.5934
X2.Y-2.5969
X2.064Y-2.2689
X2.072Y-5.2849
X2.096Y-5.3089
X2.12Y-4.0369
X2.128Y-5.3249
X2.136Y-4.4529
X2.1408Y-4.2001
X2.152Y-4.2449
X2.32Y-2.8769
X2.4Y-4.4529
X2.512Y-2.5409
X2.5678Y-2.506
X2.584Y-3.4049
X2.712Y-4.6449
X2.736Y-4.1169
X2.784Y-4.1169
X2.792Y-3.8369
X2.88Y-3.8449
X2.88Y-4.0974
X2.92Y-3.4369
X2.9524Y-3.8289
X2.984Y-3.8283
X2.984Y-3.8599
X3.0386Y-5.0305
X3.112Y-4.4369
X3.2Y-3.8289
X3.216Y-3.4129
X3.2489Y-3.4377
X3.288Y-3.4369
X3.32Y-4.3249
X3.344Y-3.7809
X3.344Y-3.8529
X3.36Y-4.3409
X3.416Y-3.4369
X3.472Y-2.9569
X3.496Y-2.5649
X3.504Y-3.4369
X3.512Y-3.2929
X3.544Y-3.7009
X3.576Y-4.7489
X3.576Y-4.7889
X3.8Y-2.5649
X3.8Y-5.0609
X3.832Y-4.7569
X3.848Y-3.1089
X3.88Y-4.4449
X3.904Y-5.0602
X3.968Y-3.9009
X4.048Y-3.9249
X4.152Y-5.1249
X4.2246Y-5.1477
X4.232Y-4.7809
X4.2673Y-4.173
X4.296Y-4.0689
X4.3088Y-3.8498
X4.344Y-5.1249
X4.352Y-3.4209
X4.3995Y-3.8457
X4.4013Y-5.1697
X4.464Y-4.1729
X4.488Y-3.4529
X4.496Y-4.1409
X4.5023Y-3.8108
X4.616Y-4.2049
X4.824Y-3.2739
X4.84Y-4.1089
X4.864Y-4.2289
X4.888Y-4.1409
X4.888Y-4.1729
X4.888Y-4.2049
X4.928Y-4.2529
X4.9302Y-5.0587
X4.9853Y-4.669
X4.992Y-3.4929
X5.Y-4.6289
X5.3726Y-3.6671
X5.4Y-3.3089
X5.4Y-3.5649
X5.616Y-4.1409
X5.672Y-3.9569
X5.712Y-4.0369
X5.928Y-3.7969
X5.976Y-3.5889
X5.976Y-3.9089
X6.Y-3.4769
T2
X0.8Y-1.4909
X1.Y-1.4909
X1.5Y-1.4909
X1.7Y-1.4909
X1.95Y-1.3909
X2.15Y-1.3909
X2.3Y-1.1909
X2.3Y-1.3909
X2.4718Y-6.4769
X2.4718Y-6.5809
X2.472Y-6.2689
X2.472Y-6.3729
X2.472Y-6.6849
X2.6718Y-6.4769
X2.6718Y-6.5809
X2.672Y-6.2689
X2.672Y-6.3729
X2.672Y-6.6849
X4.3191Y-6.1409
X4.3191Y-6.3489
X4.3191Y-6.4496
X4.32Y-6.0369
X4.32Y-6.2449
X4.5191Y-6.1409
X4.5191Y-6.3489
X4.5191Y-6.4496
X4.52Y-6.0369
X4.52Y-6.2449
X5.05Y-4.1909
X5.05Y-4.3909
X5.25Y-4.4909
X5.25Y-4.6909
X5.25Y-5.5909
X5.25Y-5.7909
X5.35Y-4.4909
X5.35Y-4.6909
X5.35Y-5.5909
X5.35Y-5.7909
X5.45Y-4.4909
X5.45Y-4.6909
X5.45Y-5.5909
X5.45Y-5.7909
X5.55Y-4.4909
X5.55Y-4.6909
X5.55Y-5.5909
X5.55Y-5.7909
X5.65Y-5.5909
X5.65Y-5.7909
X5.75Y-5.5909
X5.75Y-5.7909
X5.85Y-4.4909
X5.85Y-4.6909
X5.85Y-5.5909
X5.85Y-5.7909
X5.95Y-4.4909
X5.95Y-4.6909
X5.95Y-5.5909
X5.95Y-5.7909
X6.05Y-4.4909
X6.05Y-4.6909
X6.05Y-5.5909
X6.05Y-5.7909
T3
X0.95Y-3.7409
X0.95Y-3.8409
X0.95Y-3.9409
X0.95Y-4.0409
X0.95Y-4.1409
X0.95Y-4.2409
X0.95Y-4.3409
X0.95Y-4.4409
X0.95Y-4.5409
X0.95Y-4.6409
X0.95Y-4.7409
X0.95Y-4.8409
X0.95Y-4.9409
X0.95Y-5.0409
X0.95Y-5.1409
X0.95Y-5.2409
X0.95Y-5.5409
X0.95Y-5.8409
X1.05Y-5.5409
X1.05Y-5.8409
X1.05Y-6.0909
X1.05Y-6.2878
X1.15Y-1.4909
X1.15Y-5.5409
X1.15Y-5.8409
X1.1531Y-3.5909
X1.2Y-6.0409
X1.2Y-6.3409
X1.25Y-5.5409
X1.25Y-5.8409
X1.3Y-2.6909
X1.3Y-2.7909
X1.3Y-2.8909
X1.3Y-2.9909
X1.3Y-3.0909
X1.3Y-3.1909
X1.3Y-3.2909
X1.3Y-6.0409
X1.3Y-6.3409
X1.3469Y-1.4909
X1.35Y-3.5909
X1.35Y-5.5409
X1.35Y-5.8409
X1.352Y-2.3649
X1.3531Y-3.4289
X1.4Y-6.0409
X1.4Y-6.3409
X1.45Y-5.5409
X1.45Y-5.8409
X1.5Y-6.0409
X1.5Y-6.3409
X1.5489Y-2.3649
X1.55Y-3.4289
X1.55Y-3.7409
X1.55Y-3.8409
X1.55Y-3.9409
X1.55Y-4.0409
X1.55Y-4.1409
X1.55Y-4.2409
X1.55Y-4.3409
X1.55Y-4.4409
X1.55Y-4.5409
X1.55Y-4.6409
X1.55Y-4.7409
X1.55Y-4.8409
X1.55Y-4.9409
X1.55Y-5.0409
X1.55Y-5.1409
X1.55Y-5.2409
X1.55Y-5.5409
X1.55Y-5.8409
X1.6Y-2.6909
X1.6Y-2.7909
X1.6Y-2.8909
X1.6Y-2.9909
X1.6Y-3.0909
X1.6Y-3.1909
X1.6Y-3.2909
X1.6Y-6.0409
X1.6Y-6.3409
X1.7Y-5.5941
X1.7Y-5.7909
X1.7Y-6.0409
X1.7Y-6.3409
X1.8Y-6.0409
X1.8Y-6.3409
X1.85Y-2.6909
X1.85Y-2.7909
X1.85Y-2.8909
X1.85Y-2.9909
X1.85Y-3.0909
X1.85Y-3.1909
X1.85Y-3.2909
X1.9Y-6.0409
X1.9Y-6.3409
X1.9071Y-3.4289
X1.95Y-1.6409
X1.95Y-1.7409
X1.95Y-1.8409
X1.95Y-1.9409
X1.95Y-2.0409
X1.95Y-2.1409
X1.95Y-2.2409
X1.95Y-3.7409
X1.95Y-3.8409
X1.95Y-3.9409
X1.95Y-4.0409
X1.95Y-4.1409
X1.95Y-4.2409
X1.95Y-4.3409
X1.95Y-4.4409
X1.95Y-4.5409
X1.95Y-4.6409
X1.95Y-4.7409
X1.95Y-4.8409
X1.95Y-4.9409
X1.95Y-5.0409
X1.95Y-5.1409
X1.95Y-5.2409
X2.Y-6.0409
X2.Y-6.3409
X2.0031Y-2.3909
X2.1Y-6.0409
X2.1Y-6.3409
X2.104Y-3.4289
X2.15Y-2.6909
X2.15Y-2.7909
X2.15Y-2.8909
X2.15Y-2.9909
X2.15Y-3.0909
X2.15Y-3.1909
X2.15Y-3.2909
X2.1531Y-3.5909
X2.2Y-2.3909
X2.25Y-1.6409
X2.25Y-1.7409
X2.25Y-1.8409
X2.25Y-1.9409
X2.25Y-2.0409
X2.25Y-2.1409
X2.25Y-2.2409
X2.35Y-3.5909
X2.4Y-2.6909
X2.4Y-2.7909
X2.4Y-2.8909
X2.4Y-2.9909
X2.4Y-3.0909
X2.4Y-3.1909
X2.4Y-3.2909
X2.4531Y-3.4289
X2.55Y-3.7409
X2.55Y-3.8409
X2.55Y-3.9409
X2.55Y-4.0409
X2.55Y-4.1409
X2.55Y-4.2409
X2.55Y-4.3409
X2.55Y-4.4409
X2.55Y-4.5409
X2.55Y-4.6409
X2.55Y-4.7409
X2.55Y-4.8409
X2.55Y-4.9409
X2.55Y-5.0409
X2.55Y-5.1409
X2.55Y-5.2409
X2.6Y-1.5009
X2.6Y-1.6978
X2.65Y-3.4289
X2.7Y-1.3009
X2.7Y-2.6909
X2.7Y-2.7909
X2.7Y-2.8909
X2.7Y-2.9909
X2.7Y-3.0909
X2.7Y-3.1909
X2.7Y-3.2909
X2.75Y-1.4509
X2.75Y-1.7509
X2.75Y-1.9009
X2.85Y-1.4509
X2.85Y-1.7509
X2.85Y-2.2941
X2.85Y-2.4909
X2.85Y-4.1941
X2.85Y-4.3909
X2.8969Y-1.3009
X2.9469Y-1.9009
X2.95Y-1.4509
X2.95Y-1.7509
X2.95Y-5.3409
X2.95Y-5.6409
X2.95Y-6.0909
X2.95Y-6.2878
X3.Y-2.0909
X3.Y-2.6909
X3.Y-3.0409
X3.Y-3.6409
X3.Y-3.9909
X3.Y-4.5909
X3.05Y-1.4509
X3.05Y-1.7509
X3.05Y-1.9009
X3.1Y-2.0909
X3.1Y-2.6909
X3.1Y-3.0409
X3.1Y-3.6409
X3.1Y-3.9909
X3.1Y-4.5909
X3.1Y-6.0409
X3.1Y-6.3409
X3.15Y-1.4509
X3.15Y-1.7509
X3.2Y-2.0909
X3.2Y-2.6909
X3.2Y-3.0409
X3.2Y-3.6409
X3.2Y-3.9909
X3.2Y-4.5909
X3.2Y-6.0409
X3.2Y-6.3409
X3.2469Y-1.9009
X3.25Y-1.4509
X3.25Y-1.7509
X3.25Y-5.3409
X3.25Y-5.6409
X3.3Y-2.0909
X3.3Y-2.6909
X3.3Y-3.0409
X3.3Y-3.6409
X3.3Y-3.9909
X3.3Y-4.5909
X3.3Y-6.0409
X3.3Y-6.3409
X3.35Y-1.4509
X3.35Y-1.7509
X3.35Y-1.9009
X3.4Y-2.0909
X3.4Y-2.6909
X3.4Y-3.0409
X3.4Y-3.6409
X3.4Y-3.9909
X3.4Y-4.5909
X3.4Y-6.0409
X3.4Y-6.3409
X3.45Y-1.4509
X3.45Y-1.7509
X3.5Y-2.0909
X3.5Y-2.6909
X3.5Y-3.0409
X3.5Y-3.6409
X3.5Y-3.9909
X3.5Y-4.5909
X3.5Y-6.0409
X3.5Y-6.3409
X3.5469Y-1.9009
X3.6Y-2.0909
X3.6Y-2.6909
X3.6Y-3.0409
X3.6Y-3.6409
X3.6Y-3.9909
X3.6Y-4.5909
X3.6Y-5.3809
X3.6Y-5.6809
X3.6Y-6.0409
X3.6Y-6.3409
X3.7Y-2.0909
X3.7Y-2.6909
X3.7Y-3.0409
X3.7Y-3.6409
X3.7Y-3.9909
X3.7Y-4.5909
X3.7Y-5.3809
X3.7Y-5.6809
X3.7Y-6.0409
X3.7Y-6.3409
X3.8Y-2.0909
X3.8Y-2.6909
X3.8Y-3.0409
X3.8Y-3.6409
X3.8Y-3.9909
X3.8Y-4.5909
X3.8Y-5.3809
X3.8Y-5.6809
X3.8Y-6.0409
X3.8Y-6.3409
X3.9Y-2.0909
X3.9Y-2.6909
X3.9Y-3.0409
X3.9Y-3.6409
X3.9Y-3.9909
X3.9Y-4.5909
X3.9Y-5.3809
X3.9Y-5.6809
X3.9Y-6.0409
X3.9Y-6.3409
X4.Y-2.0909
X4.Y-2.6909
X4.Y-3.0409
X4.Y-3.6409
X4.Y-3.9909
X4.Y-4.5909
X4.Y-5.3809
X4.Y-5.6809
X4.Y-6.0409
X4.Y-6.3409
X4.072Y-1.5009
X4.072Y-1.6978
X4.1Y-2.0909
X4.1Y-2.6909
X4.1Y-3.0409
X4.1Y-3.6409
X4.1Y-3.9909
X4.1Y-4.5909
X4.1Y-5.3809
X4.1Y-5.6809
X4.172Y-1.3009
X4.2Y-2.0909
X4.2Y-2.6909
X4.2Y-3.0409
X4.2Y-3.6409
X4.2Y-3.9909
X4.2Y-4.5909
X4.2Y-5.3809
X4.2Y-5.6809
X4.222Y-1.4509
X4.222Y-1.7509
X4.222Y-1.9009
X4.3Y-2.0909
X4.3Y-2.6909
X4.3Y-3.0409
X4.3Y-3.6409
X4.3Y-3.9909
X4.3Y-4.5909
X4.3Y-5.3809
X4.3Y-5.6809
X4.322Y-1.4509
X4.322Y-1.7509
X4.3689Y-1.3009
X4.4Y-2.0909
X4.4Y-2.6909
X4.4Y-3.0409
X4.4Y-3.6409
X4.4Y-3.9909
X4.4Y-4.5909
X4.4189Y-1.9009
X4.422Y-1.4509
X4.422Y-1.7509
X4.432Y-5.4369
X4.432Y-5.6338
X4.5Y-2.0909
X4.5Y-2.6909
X4.5Y-3.0409
X4.5Y-3.6409
X4.5Y-3.9909
X4.5Y-4.5909
X4.522Y-1.4509
X4.522Y-1.7509
X4.522Y-1.9009
X4.6Y-2.0909
X4.6Y-2.6909
X4.6Y-3.0409
X4.6Y-3.6409
X4.6Y-3.9909
X4.6Y-4.5909
X4.622Y-1.4509
X4.622Y-1.7509
X4.7Y-2.0909
X4.7Y-2.6909
X4.7Y-3.0409
X4.7Y-3.6409
X4.7Y-3.9909
X4.7Y-4.5909
X4.7Y-5.2909
X4.7Y-5.3909
X4.7Y-5.4909
X4.7Y-5.5909
X4.7Y-5.6909
X4.7Y-5.7909
X4.7Y-5.8909
X4.7189Y-1.9009
X4.722Y-1.4509
X4.722Y-1.7509
X4.75Y-6.0409
X4.8Y-2.0909
X4.8Y-2.6909
X4.8Y-3.0409
X4.8Y-3.6409
X4.8Y-3.9909
X4.8Y-4.5909
X4.822Y-1.4509
X4.822Y-1.7509
X4.822Y-1.9009
X4.9Y-2.0909
X4.9Y-2.6909
X4.9Y-3.0409
X4.9Y-3.6409
X4.9Y-3.9909
X4.9Y-4.5909
X4.922Y-1.4509
X4.922Y-1.7509
X4.9469Y-6.0409
X5.Y-5.2909
X5.Y-5.3909
X5.Y-5.4909
X5.Y-5.5909
X5.Y-5.6909
X5.Y-5.7909
X5.Y-5.8909
X5.0189Y-1.9009
X5.1Y-3.2441
X5.1Y-3.4409
X5.25Y-3.0909
X5.25Y-3.1909
X5.25Y-3.2909
X5.25Y-3.3909
X5.25Y-3.4909
X5.25Y-3.5909
X5.25Y-3.6909
X5.25Y-3.7909
X5.25Y-3.8909
X5.25Y-3.9909
X5.3Y-2.1909
X5.3Y-2.2909
X5.3Y-2.3909
X5.3Y-2.4909
X5.3Y-2.5909
X5.3Y-2.6909
X5.3031Y-4.1409
X5.4Y-2.0909
X5.4Y-2.1909
X5.4Y-2.2909
X5.4Y-2.3909
X5.4Y-2.4909
X5.4Y-2.5909
X5.4Y-2.6909
X5.4Y-2.7909
X5.5Y-2.0909
X5.5Y-2.1909
X5.5Y-2.6909
X5.5Y-2.7909
X5.5Y-4.1409
X5.524Y-1.3729
X5.524Y-1.6729
X5.55Y-3.0909
X5.55Y-3.1909
X5.55Y-3.2909
X5.55Y-3.3909
X5.55Y-3.4909
X5.55Y-3.5909
X5.55Y-3.6909
X5.55Y-3.7909
X5.55Y-3.8909
X5.55Y-3.9909
X5.5531Y-1.8909
X5.6Y-2.0909
X5.6Y-2.1909
X5.6Y-2.6909
X5.6Y-2.7909
X5.7Y-2.0909
X5.7Y-2.1909
X5.7Y-2.6909
X5.7Y-2.7909
X5.75Y-1.8909
X5.8Y-2.0909
X5.8Y-2.1909
X5.8Y-2.6909
X5.8Y-2.7909
X5.8Y-3.0909
X5.8Y-3.1909
X5.8Y-3.2909
X5.8Y-3.3909
X5.8Y-3.4909
X5.8Y-3.5909
X5.8Y-3.6909
X5.8Y-3.7909
X5.8Y-3.8909
X5.8Y-3.9909
X5.824Y-1.3729
X5.824Y-1.6729
X5.8531Y-4.1409
X5.9Y-2.0909
X5.9Y-2.1909
X5.9Y-2.2909
X5.9Y-2.3909
X5.9Y-2.4909
X5.9Y-2.5909
X5.9Y-2.6909
X5.9Y-2.7909
X6.Y-2.1909
X6.Y-2.2909
X6.Y-2.3909
X6.Y-2.4909
X6.Y-2.5909
X6.Y-2.6909
X6.05Y-4.1409
X6.1Y-3.0909
X6.1Y-3.1909
X6.1Y-3.2909
X6.1Y-3.3909
X6.1Y-3.4909
X6.1Y-3.5909
X6.1Y-3.6909
X6.1Y-3.7909
X6.1Y-3.8909
X6.1Y-3.9909
T4
X0.95Y-1.6909
X0.95Y-1.7909
T5
X5.25Y-4.8409
X5.25Y-5.4409
X5.35Y-4.8409
X5.35Y-5.4409
X5.45Y-4.8409
X5.45Y-5.4409
X5.55Y-4.8409
X5.55Y-5.4409
X5.65Y-4.8409
X5.65Y-5.4409
X5.75Y-4.8409
X5.75Y-5.4409
X5.85Y-4.8409
X5.85Y-5.4409
X5.95Y-4.8409
X5.95Y-5.4409
X6.05Y-4.8409
X6.05Y-5.4409
T6
X1.2272Y-1.1035
X1.2272Y-1.1823
X1.3256Y-1.1035
X1.3256Y-1.1823
T7
X0.9Y-2.2409
X0.9Y-2.6409
X0.9Y-2.7409
X0.9Y-2.8409
X0.9Y-2.9409
X0.9Y-3.0409
X0.9Y-3.1409
X0.9Y-3.2409
X0.9Y-3.3409
X1.Y-2.2409
X1.Y-2.6409
X1.Y-2.7409
X1.Y-2.8409
X1.Y-2.9409
X1.Y-3.0409
X1.Y-3.1409
X1.Y-3.2409
X1.Y-3.3409
X1.5104Y-6.7362
X1.5644Y-6.8362
X1.6183Y-6.7362
X1.6723Y-6.8362
X1.7262Y-6.7362
X1.7801Y-6.8362
X1.8341Y-6.7362
X1.888Y-6.8362
X1.8949Y-0.9257
X1.9419Y-6.7362
X1.9776Y-0.9257
X2.0799Y-0.9257
X2.1626Y-0.9257
X2.9185Y-1.0969
X2.9724Y-0.9969
X3.Y-4.8909
X3.Y-4.9909
X3.0264Y-1.0969
X3.0803Y-0.9969
X3.1Y-4.8909
X3.1Y-4.9909
X3.1343Y-1.0969
X3.1882Y-0.9969
X3.2Y-4.8909
X3.2Y-4.9909
X3.2421Y-1.0969
X3.2961Y-0.9969
X3.2965Y-6.7369
X3.3Y-4.8909
X3.3Y-4.9909
X3.35Y-1.0969
X3.3504Y-6.8369
X3.4Y-4.8909
X3.4Y-4.9909
X3.4044Y-6.7369
X3.4583Y-6.8369
X3.5Y-4.8909
X3.5Y-4.9909
X3.5123Y-6.7369
X3.5662Y-6.8369
X3.6Y-4.8909
X3.6Y-4.9909
X3.6201Y-6.7369
X3.6741Y-6.8369
X3.7Y-4.8909
X3.7Y-4.9909
X3.728Y-6.7369
X3.8Y-4.8909
X3.8Y-4.9909
X3.9Y-4.8909
X3.9Y-4.9909
X4.Y-4.8909
X4.Y-4.9909
X4.1Y-4.8909
X4.1Y-4.9909
X4.2Y-4.8909
X4.2Y-4.9909
X4.3Y-4.8909
X4.3Y-4.9909
X4.4Y-4.8909
X4.4Y-4.9909
X4.5Y-4.8909
X4.5Y-4.9909
X4.5143Y-1.0969
X4.5683Y-0.9969
X4.6Y-4.8909
X4.6Y-4.9909
X4.6222Y-1.0969
X4.6761Y-0.9969
X4.7Y-4.8909
X4.7Y-4.9909
X4.7301Y-1.0969
X4.784Y-0.9969
X4.8Y-4.8909
X4.8Y-4.9909
X4.8379Y-1.0969
X4.8919Y-0.9969
X4.9Y-4.8909
X4.9Y-4.9909
X4.9458Y-1.0969
T8
X1.3516Y-1.8425
X1.3516Y-2.0394
X1.5484Y-1.8425
X1.5484Y-2.0394
X1.8949Y-1.0241
X2.1626Y-1.0241
T9
X1.0394Y-0.9968
X1.5134Y-0.9968
X1.763Y-0.8076
X2.0287Y-0.7761
X2.2945Y-0.8076
T10
X0.7874Y-0.7874
X0.7874Y-7.0472
X1.2343Y-6.7862
X2.2181Y-6.7862
X2.6423Y-1.0469
X3.0203Y-6.7869
X3.6262Y-1.0469
X4.0042Y-6.7869
X4.2381Y-1.0469
X5.222Y-1.0469
X6.1024Y-0.7874
X6.1024Y-7.0472
T0
M30
