M48
; DRILL file {KiCad (5.1.0-0)} date Monday, April 15, 2019 at 10:52:52 pm
; FORMAT={-:-/ absolute / inch / decimal}
; #@! TF.CreationDate,2019-04-15T22:52:52-04:00
; #@! TF.GenerationSoftware,Kicad,Pcbnew,(5.1.0-0)
FMAT,2
INCH
T1C0.0118
T2C0.0276
T3C0.0295
T4C0.0315
T5C0.0354
T6C0.0360
T7C0.0362
T8C0.0394
T9C0.0433
T10C0.0906
T11C0.1260
T12C0.0472
%
G90
G05
T1
X0.8051Y-5.4134
X0.8287Y-6.5118
X0.937Y-3.2382
X0.9386Y-3.208
X1.0276Y-3.1496
X1.0278Y-3.1865
X1.0315Y-6.8484
X1.144Y-3.2343
X1.2264Y-2.6516
X1.252Y-2.6929
X1.4882Y-4.8425
X1.6161Y-5.7146
X1.6603Y-5.0433
X1.685Y-5.3858
X1.7075Y-5.1409
X1.7303Y-5.3327
X1.7479Y-5.3592
X1.7984Y-5.6652
X1.8051Y-5.3839
X1.8259Y-5.2411
X1.8287Y-5.4646
X1.8642Y-4.9409
X1.935Y-5.565
X2.0176Y-3.6694
X2.0197Y-1.687
X2.0197Y-1.8406
X2.0197Y-3.5591
X2.0204Y-1.5098
X2.0689Y-5.252
X2.0945Y-5.2776
X2.1213Y-5.3121
X2.122Y-1.7126
X2.1457Y-5.4744
X2.2323Y-4.0118
X2.2618Y-1.5354
X2.2656Y-2.3092
X2.2746Y-2.0876
X2.2776Y-3.876
X2.3228Y-2.8524
X2.3465Y-3.2913
X2.3484Y-1.8406
X2.374Y-2.0886
X2.376Y-5.8209
X2.3846Y-4.2409
X2.385Y-4.1409
X2.4646Y-3.5276
X2.4698Y-2.3386
X2.4913Y-2.3152
X2.498Y-2.0866
X2.503Y-5.5502
X2.511Y-2.2907
X2.5177Y-5.2913
X2.554Y-5.32
X2.5846Y-5.9629
X2.606Y-2.1358
X2.6077Y-2.2171
X2.6083Y-2.1654
X2.6099Y-2.3192
X2.6102Y-2.2677
X2.6224Y-5.2405
X2.6457Y-2.1909
X2.6555Y-2.2357
X2.6642Y-2.2793
X2.6645Y-5.2334
X2.712Y-4.6449
X2.7126Y-5.2185
X2.7185Y-4.0748
X2.7369Y-5.667
X2.7539Y-4.1043
X2.7609Y-5.3956
X2.7609Y-5.5492
X2.777Y-5.6293
X2.7797Y-4.1509
X2.7953Y-3.4705
X2.7959Y-4.1242
X2.7989Y-5.2964
X2.811Y-3.8268
X2.8262Y-5.2848
X2.8504Y-5.2657
X2.8535Y-3.8701
X2.8563Y-3.8346
X2.8661Y-3.6516
X2.8835Y-3.8465
X2.8858Y-5.372
X2.8917Y-5.5748
X2.9029Y-5.8614
X2.92Y-3.4369
X2.9508Y-5.748
X2.9524Y-3.8289
X2.9558Y-5.5543
X2.9626Y-5.919
X2.984Y-3.8283
X2.984Y-3.8599
X3.0Y-3.4114
X3.0197Y-5.3602
X3.0197Y-5.5779
X3.0811Y-5.7414
X3.1Y-3.418
X3.1258Y-5.4705
X3.1261Y-5.5977
X3.128Y-5.5
X3.1336Y-5.6533
X3.185Y-5.8425
X3.185Y-6.0728
X3.189Y-3.3937
X3.2Y-3.8289
X3.2143Y-5.8614
X3.216Y-3.4129
X3.2305Y-5.9591
X3.2343Y-5.0394
X3.2489Y-3.4377
X3.2539Y-5.2047
X3.2579Y-5.8642
X3.2638Y-5.9567
X3.288Y-3.4369
X3.2992Y-4.1867
X3.3246Y-3.8003
X3.3374Y-6.5304
X3.344Y-3.853
X3.3504Y-5.2146
X3.3602Y-3.4429
X3.3632Y-5.7089
X3.372Y-4.3524
X3.3951Y-3.7427
X3.3968Y-5.0602
X3.4094Y-4.3307
X3.416Y-3.4369
X3.4232Y-2.9843
X3.4252Y-5.2728
X3.4272Y-3.7146
X3.496Y-2.5649
X3.4961Y-3.435
X3.498Y-5.252
X3.498Y-3.5807
X3.5131Y-5.4495
X3.5391Y-6.604
X3.5472Y-3.437
X3.5737Y-5.0835
X3.576Y-4.7489
X3.576Y-4.7889
X3.5768Y-5.9469
X3.5818Y-5.055
X3.5866Y-2.9764
X3.5962Y-5.7913
X3.6474Y-6.4856
X3.6693Y-6.7913
X3.7303Y-6.6102
X3.7313Y-6.2851
X3.7452Y-6.3505
X3.7461Y-3.5489
X3.75Y-3.4449
X3.7963Y-5.056
X3.8Y-2.5649
X3.832Y-4.7569
X3.8583Y-6.3229
X3.8779Y-3.5373
X3.88Y-4.4449
X3.8976Y-3.4843
X3.9027Y-5.0662
X3.9429Y-6.2984
X3.9583Y-6.3566
X4.0039Y-3.8465
X4.0689Y-6.2776
X4.1024Y-5.7362
X4.152Y-5.1249
X4.1634Y-3.4764
X4.1713Y-5.372
X4.1886Y-5.1315
X4.1941Y-5.1721
X4.232Y-4.7809
X4.2487Y-5.1844
X4.2717Y-5.124
X4.2717Y-5.4213
X4.2717Y-6.0453
X4.2951Y-5.197
X4.3228Y-4.1831
X4.3445Y-5.9272
X4.3681Y-5.9016
X4.3912Y-5.8794
X4.3917Y-5.128
X4.3995Y-3.8457
X4.4261Y-5.1801
X4.4469Y-5.6339
X4.4488Y-3.2224
X4.4508Y-4.1623
X4.4766Y-5.1617
X4.5Y-3.4823
X4.5023Y-3.8108
X4.5039Y-5.4134
X4.5039Y-5.5768
X4.5177Y-4.1378
X4.5522Y-5.1388
X4.5581Y-5.9026
X4.5602Y-5.873
X4.563Y-4.0846
X4.5778Y-5.9281
X4.5953Y-5.5344
X4.6147Y-5.5614
X4.626Y-4.1122
X4.6267Y-4.058
X4.689Y-4.3799
X4.7205Y-5.9783
X4.7303Y-5.1181
X4.7953Y-3.7539
X4.8228Y-3.8031
X4.8406Y-1.2894
X4.8642Y-5.4075
X4.8858Y-4.0551
X4.8976Y-3.4783
X4.8976Y-6.0728
X4.8996Y-3.8327
X4.8996Y-5.1378
X4.9075Y-4.0807
X4.9252Y-4.1063
X4.9272Y-2.7835
X4.939Y-4.1398
X4.939Y-5.0413
X4.9409Y-5.1378
X4.9557Y-4.4813
X4.9606Y-4.1619
X4.9665Y-5.7303
X4.9764Y-4.187
X4.9775Y-4.5177
X4.9913Y-4.669
X5.0Y-4.6289
X5.0039Y-5.6642
X5.0472Y-4.2815
X5.0945Y-6.1949
X5.122Y-5.2402
X5.1429Y-5.2126
X5.1457Y-5.811
X5.1909Y-6.0748
X5.2185Y-6.2008
X5.2382Y-3.752
X5.2382Y-3.8031
X5.241Y-3.8326
X5.2418Y-3.9002
X5.2421Y-3.9298
X5.3406Y-3.7776
X5.3406Y-3.8543
X5.3507Y-3.9185
X5.4122Y-3.8571
X5.4703Y-3.9034
X5.4705Y-3.8287
X5.4705Y-3.9331
X5.4726Y-3.7992
X5.5079Y-1.2382
X5.5945Y-3.7815
X5.624Y-4.0118
X6.0098Y-3.9311
X6.0118Y-3.8287
X6.0127Y-3.7991
X6.0143Y-3.9018
X6.1122Y-3.752
X6.1142Y-3.9803
X6.1192Y-6.4873
T2
X5.25Y-5.5909
X5.25Y-5.7909
X5.35Y-5.5909
X5.35Y-5.7909
X5.25Y-4.4909
X5.25Y-4.6909
X5.55Y-5.5909
X5.55Y-5.7909
X6.05Y-4.4909
X6.05Y-4.6909
X5.85Y-5.5909
X5.85Y-5.7909
X5.65Y-5.5909
X5.65Y-5.7909
X5.55Y-4.4909
X5.55Y-4.6909
X5.85Y-4.4909
X5.85Y-4.6909
X5.45Y-5.5909
X5.45Y-5.7909
X5.95Y-5.5909
X5.95Y-5.7909
X6.05Y-5.5909
X6.05Y-5.7909
X5.45Y-4.4909
X5.45Y-4.6909
X5.35Y-4.4909
X5.35Y-4.6909
X5.95Y-4.4909
X5.95Y-4.6909
X1.6654Y-0.9547
X1.6654Y-1.1547
X5.75Y-5.5909
X5.75Y-5.7909
T4
X4.0394Y-6.5787
X4.0394Y-6.7756
X2.8169Y-5.7894
X2.8169Y-5.9862
X2.7Y-1.3009
X2.8969Y-1.3009
X5.1Y-3.2441
X5.1Y-3.4409
X5.4646Y-3.2087
X5.6614Y-3.2087
X1.565Y-2.3189
X1.7618Y-2.3189
X0.7539Y-3.1476
X4.4724Y-5.3248
X4.6693Y-5.3248
X2.4Y-2.6909
X2.4Y-2.7909
X0.7539Y-3.3445
X2.4Y-2.8909
X2.4Y-2.9909
X2.4Y-3.0909
X2.4Y-3.1909
X2.4Y-3.2909
X2.7Y-2.6909
X2.7Y-2.7909
X2.7Y-2.8909
X2.7Y-2.9909
X2.7Y-3.0909
X2.7Y-3.1909
X2.7Y-3.2909
X2.85Y-2.2941
X2.85Y-2.4909
X1.3185Y-2.6083
X1.3185Y-2.7083
X1.3185Y-2.8083
X2.75Y-1.9009
X2.9469Y-1.9009
X0.9449Y-5.7264
X0.9449Y-5.8264
X0.9449Y-5.9264
X0.9449Y-6.0264
X1.3185Y-2.9083
X1.3185Y-3.0083
X1.3185Y-3.1083
X1.4185Y-2.5083
X0.9449Y-6.1264
X0.9449Y-6.2264
X1.2449Y-5.7264
X1.2449Y-5.8264
X1.2449Y-5.9264
X1.2449Y-6.0264
X1.2449Y-6.1264
X1.2449Y-6.2264
X1.2449Y-6.3264
X1.4185Y-2.6083
X0.9449Y-6.3264
X1.4185Y-2.7083
X1.4185Y-2.8083
X1.4185Y-2.9083
X1.4185Y-3.0083
X1.4185Y-3.1083
X1.4185Y-3.2083
X1.5185Y-2.5083
X1.5185Y-2.6083
X1.5185Y-3.1083
X1.5185Y-3.2083
X1.6185Y-2.5083
X1.6185Y-2.6083
X1.6185Y-3.1083
X1.6185Y-3.2083
X1.7185Y-2.5083
X1.7185Y-2.6083
X1.7185Y-3.1083
X1.7185Y-3.2083
X1.8185Y-2.5083
X1.8185Y-2.6083
X1.8185Y-3.1083
X1.8185Y-3.2083
X1.9185Y-2.5083
X1.9185Y-2.6083
X1.9185Y-2.7083
X1.9185Y-2.8083
X1.9185Y-2.9083
X1.9185Y-3.0083
X1.9185Y-3.1083
X1.9185Y-3.2083
X2.0185Y-2.6083
X2.0185Y-2.7083
X2.0185Y-2.8083
X2.0185Y-2.9083
X2.0185Y-3.0083
X2.0185Y-3.1083
X5.8531Y-4.1409
X6.05Y-4.1409
X3.05Y-1.9009
X3.2469Y-1.9009
X0.95Y-3.7409
X2.85Y-4.1941
X2.85Y-4.3909
X2.3406Y-2.0059
X2.5374Y-2.0059
X2.0866Y-1.5984
X2.2835Y-1.5984
X3.35Y-1.9009
X3.5469Y-1.9009
X4.8327Y-5.2894
X1.95Y-3.7409
X1.95Y-3.8409
X1.95Y-3.9409
X1.95Y-4.0409
X1.95Y-4.1409
X1.95Y-4.2409
X1.95Y-4.3409
X0.95Y-3.8409
X0.95Y-3.9409
X0.95Y-4.0409
X0.95Y-4.1409
X5.0295Y-5.2894
X0.95Y-4.2409
X0.95Y-4.3409
X0.95Y-4.4409
X0.95Y-4.5409
X0.95Y-4.6409
X0.95Y-4.7409
X0.95Y-4.8409
X0.95Y-4.9409
X0.95Y-5.0409
X0.95Y-5.1409
X0.95Y-5.2409
X1.55Y-3.7409
X1.55Y-3.8409
X1.55Y-3.9409
X1.55Y-4.0409
X1.55Y-4.1409
X1.55Y-4.2409
X1.55Y-4.3409
X1.55Y-4.4409
X1.55Y-4.5409
X1.55Y-4.6409
X1.55Y-4.7409
X1.55Y-4.8409
X1.55Y-4.9409
X1.55Y-5.0409
X1.55Y-5.1409
X1.55Y-5.2409
X2.4531Y-3.4289
X2.65Y-3.4289
X2.0866Y-1.2677
X2.2835Y-1.2677
X3.7905Y-1.5009
X3.7905Y-1.6978
X3.4311Y-6.1083
X3.4311Y-6.3051
X3.3917Y-5.8071
X3.3917Y-6.0039
X3.0Y-2.0909
X3.0Y-2.6909
X3.1Y-2.0909
X3.1Y-2.6909
X3.2Y-2.0909
X3.2Y-2.6909
X3.3Y-2.0909
X3.3Y-2.6909
X3.4Y-2.0909
X3.4Y-2.6909
X3.5Y-2.0909
X3.5Y-2.6909
X3.6Y-2.0909
X3.6Y-2.6909
X3.7Y-2.0909
X3.7Y-2.6909
X3.8Y-2.0909
X3.8Y-2.6909
X3.9Y-2.0909
X3.9Y-2.6909
X4.0Y-2.0909
X4.0Y-2.6909
X4.1Y-2.0909
X4.1Y-2.6909
X4.2Y-2.0909
X4.2Y-2.6909
X4.3Y-2.0909
X4.3Y-2.6909
X4.4Y-2.0909
X4.4Y-2.6909
X4.5Y-2.0909
X4.5Y-2.6909
X4.6Y-2.0909
X4.6Y-2.6909
X4.7Y-2.0909
X4.7Y-2.6909
X4.8Y-2.0909
X4.8Y-2.6909
X4.9Y-2.0909
X4.9Y-2.6909
X2.8583Y-5.6811
X3.0551Y-5.6811
X1.95Y-4.4409
X1.95Y-4.5409
X1.95Y-4.6409
X1.95Y-4.7409
X1.95Y-4.8409
X1.95Y-4.9409
X1.95Y-5.0409
X1.95Y-5.1409
X1.95Y-5.2409
X2.55Y-3.7409
X2.55Y-3.8409
X2.55Y-3.9409
X2.55Y-4.0409
X2.55Y-4.1409
X2.55Y-4.2409
X2.55Y-4.3409
X2.55Y-4.4409
X2.55Y-4.5409
X2.55Y-4.6409
X2.55Y-4.7409
X2.55Y-4.8409
X2.55Y-4.9409
X2.55Y-5.0409
X2.55Y-5.1409
X2.55Y-5.2409
X3.9405Y-1.9009
X4.1374Y-1.9009
X1.1535Y-1.8878
X1.3504Y-1.8878
X3.9405Y-1.4509
X4.0405Y-1.4509
X4.0405Y-1.7509
X4.1405Y-1.4509
X4.1405Y-1.7509
X4.2405Y-1.4509
X4.2405Y-1.7509
X4.3405Y-1.4509
X4.4405Y-1.4509
X1.6319Y-2.0512
X1.8287Y-2.0512
X2.1531Y-3.5909
X2.35Y-3.5909
X5.2642Y-1.1906
X5.2642Y-1.2906
X5.2642Y-1.3906
X5.2642Y-1.4906
X4.3405Y-1.7509
X5.2642Y-1.5906
X5.2642Y-1.6906
X5.2642Y-1.7906
X5.2642Y-1.8906
X5.2642Y-1.9906
X5.2642Y-2.0906
X5.2642Y-2.1906
X5.2642Y-2.2906
X5.2642Y-2.3906
X5.2642Y-2.4906
X5.2642Y-2.5906
X5.2642Y-2.6906
X5.2642Y-2.7906
X5.2642Y-2.8906
X5.2642Y-3.0906
X5.8642Y-1.1906
X5.8642Y-1.2906
X5.8642Y-1.3906
X5.8642Y-1.4906
X5.8642Y-1.5906
X5.8642Y-1.6906
X5.8642Y-1.7906
X5.8642Y-1.8906
X5.8642Y-1.9906
X3.9405Y-1.7509
X5.8642Y-2.0906
X5.8642Y-2.1906
X5.8642Y-2.2906
X5.8642Y-2.3906
X5.8642Y-2.4906
X5.8642Y-2.5906
X5.8642Y-2.6906
X5.8642Y-2.7906
X5.8642Y-2.8906
X5.8642Y-2.9906
X5.8642Y-3.0906
X6.1535Y-3.3661
X6.1535Y-3.563
X4.4405Y-1.7509
X4.5405Y-1.4509
X4.5405Y-1.7509
X4.6405Y-1.4509
X4.6405Y-1.7509
X5.437Y-3.3063
X5.437Y-3.6063
X5.537Y-3.3063
X5.537Y-3.6063
X5.637Y-3.3063
X5.637Y-3.6063
X5.737Y-3.3063
X5.737Y-3.6063
X5.837Y-3.3063
X5.837Y-3.6063
X5.937Y-3.3063
X5.937Y-3.6063
X6.037Y-3.3063
X6.037Y-3.6063
X4.5405Y-1.9009
X5.2642Y-2.9906
X0.7579Y-2.6693
X0.7579Y-2.9693
X1.0579Y-2.6693
X4.7374Y-1.9009
X3.0Y-3.0409
X3.0Y-3.6409
X3.1Y-3.0409
X3.1Y-3.6409
X3.2Y-3.0409
X3.2Y-3.6409
X3.3Y-3.0409
X1.0579Y-2.9693
X2.6Y-1.5009
X2.6Y-1.6978
X0.7579Y-2.0709
X0.7579Y-2.3709
X1.0579Y-2.0709
X1.0579Y-2.3709
X3.3Y-3.6409
X3.4Y-3.0409
X3.4Y-3.6409
X3.5Y-3.0409
X3.5Y-3.6409
X3.6Y-3.0409
X3.6Y-3.6409
X3.7Y-3.0409
X3.7Y-3.6409
X3.8Y-3.0409
X3.8Y-3.6409
X3.9Y-3.0409
X3.9Y-3.6409
X4.0Y-3.0409
X4.0Y-3.6409
X4.1Y-3.0409
X4.1Y-3.6409
X4.2Y-3.0409
X4.2Y-3.6409
X4.3Y-3.0409
X4.3Y-3.6409
X4.4Y-3.0409
X4.4Y-3.6409
X4.5Y-3.0409
X4.5Y-3.6409
X4.6Y-3.0409
X4.6Y-3.6409
X4.7Y-3.0409
X4.7Y-3.6409
X4.8Y-3.0409
X4.8Y-3.6409
X4.9Y-3.0409
X4.9Y-3.6409
X4.2405Y-1.9009
X4.4374Y-1.9009
X3.4488Y-6.4154
X3.4488Y-6.5138
X1.6772Y-5.9035
X1.874Y-5.9035
X5.0433Y-5.7953
X5.0433Y-5.9921
X2.7106Y-5.7894
X2.7106Y-5.9862
X2.75Y-1.4509
X2.75Y-1.7509
X2.85Y-1.4509
X2.85Y-1.7509
X2.95Y-1.4509
X2.95Y-1.7509
X3.05Y-1.4509
X3.05Y-1.7509
X3.15Y-1.4509
X3.15Y-1.7509
X3.25Y-1.4509
X3.25Y-1.7509
X3.35Y-1.4509
X3.35Y-1.7509
X3.45Y-1.4509
X3.45Y-1.7509
X0.998Y-5.6102
X1.1949Y-5.6102
X0.7224Y-6.5807
X0.7224Y-6.7776
X1.5728Y-1.3366
X1.5728Y-1.4366
X1.5728Y-1.5366
X1.5728Y-1.6366
X1.5728Y-1.7366
X1.5728Y-1.8366
X1.5728Y-1.9366
X1.8728Y-1.3366
X1.8728Y-1.4366
X1.8728Y-1.5366
X1.8728Y-1.6366
X1.8728Y-1.7366
X1.8728Y-1.8366
X1.8728Y-1.9366
X1.1531Y-3.5909
X1.35Y-3.5909
X3.8878Y-6.1339
X4.0846Y-6.1339
X4.9823Y-1.3307
X4.9823Y-1.4291
X3.0Y-3.9909
X3.0Y-4.5909
X3.1Y-3.9909
X3.1Y-4.5909
X3.2Y-3.9909
X3.2Y-4.5909
X4.0874Y-1.3009
X3.3Y-3.9909
X3.3Y-4.5909
X3.4Y-3.9909
X3.4Y-4.5909
X3.5Y-3.9909
X3.5Y-4.5909
X3.6Y-3.9909
X3.6Y-4.5909
X3.7Y-3.9909
X3.7Y-4.5909
X3.8905Y-1.3009
X3.8Y-3.9909
X3.8Y-4.5909
X3.9Y-3.9909
X3.9Y-4.5909
X4.0Y-3.9909
X4.0Y-4.5909
X4.1Y-3.9909
X4.1Y-4.5909
X4.2Y-3.9909
X4.2Y-4.5909
X4.3Y-3.9909
X4.3Y-4.5909
X4.4Y-3.9909
X4.4Y-4.5909
X4.5Y-3.9909
X4.5Y-4.5909
X4.6Y-3.9909
X4.6Y-4.5909
X4.7Y-3.9909
X4.7Y-4.5909
X4.8Y-3.9909
X4.8Y-4.5909
X4.9Y-3.9909
X4.9Y-4.5909
X5.3031Y-4.1409
X5.5Y-4.1409
T5
X0.8071Y-1.2736
X0.9071Y-1.2736
T6
X5.25Y-4.8409
X5.25Y-5.4409
X5.35Y-4.8409
X5.35Y-5.4409
X5.45Y-4.8409
X5.45Y-5.4409
X5.55Y-4.8409
X5.55Y-5.4409
X5.65Y-4.8409
X5.65Y-5.4409
X5.75Y-4.8409
X5.75Y-5.4409
X5.85Y-4.8409
X5.85Y-5.4409
X5.95Y-4.8409
X5.95Y-5.4409
X6.05Y-4.8409
X6.05Y-5.4409
T7
X1.2362Y-1.1024
X1.2362Y-1.1811
X1.3346Y-1.1024
X1.3346Y-1.1811
T8
X0.7382Y-1.0689
X0.8382Y-1.0689
X2.9185Y-1.0969
X2.9724Y-0.9969
X3.0264Y-1.0969
X3.0803Y-0.9969
X3.1343Y-1.0969
X6.0177Y-1.0925
X6.0177Y-1.1925
X6.0177Y-1.2925
X6.0177Y-1.4925
X6.0177Y-1.5925
X6.0177Y-1.6925
X6.0177Y-1.7925
X6.0177Y-1.8925
X6.1177Y-1.0925
X6.1177Y-1.1925
X6.1177Y-1.2925
X6.1177Y-1.3925
X6.1177Y-1.4925
X6.1177Y-1.5925
X6.1177Y-1.6925
X3.1882Y-0.9969
X3.2421Y-1.0969
X3.2961Y-0.9969
X3.35Y-1.0969
X1.4051Y-6.1654
X1.4051Y-6.2654
X1.5051Y-6.1654
X6.0177Y-1.3925
X1.5051Y-6.2654
X1.6051Y-6.1654
X1.6051Y-6.2654
X1.7051Y-6.1654
X1.7051Y-6.2654
X1.8051Y-6.1654
X1.8051Y-6.2654
X1.9051Y-6.1654
X1.9051Y-6.2654
X2.0051Y-6.1654
X2.0051Y-6.2654
X2.1051Y-6.1654
X2.1051Y-6.2654
X2.2051Y-6.1654
X2.2051Y-6.2654
X2.3051Y-6.1654
X2.3051Y-6.2654
X2.4051Y-6.1654
X2.4051Y-6.2654
X2.5051Y-6.1654
X2.5051Y-6.2654
X2.6051Y-6.1654
X2.6051Y-6.2654
X2.7051Y-6.1654
X2.7051Y-6.2654
X2.8051Y-6.1654
X2.8051Y-6.2654
X2.9051Y-6.1654
X2.9051Y-6.2654
X2.8307Y-6.7362
X2.9386Y-6.7362
X2.9925Y-6.8362
X3.0465Y-6.7362
X3.1004Y-6.8362
X3.1543Y-6.7362
X3.2083Y-6.8362
X3.2622Y-6.7362
X3.0051Y-6.1654
X3.0051Y-6.2654
X3.1051Y-6.1654
X3.1051Y-6.2654
X3.2051Y-6.1654
X3.2051Y-6.2654
X3.3051Y-6.1654
X3.3051Y-6.2654
X2.8846Y-6.8362
X6.1177Y-1.7925
X6.1177Y-1.8925
X4.2328Y-1.0969
X3.0Y-4.8909
X3.0Y-4.9909
X3.1Y-4.8909
X3.1Y-4.9909
X3.2Y-4.8909
X3.2Y-4.9909
X3.3Y-4.8909
X3.3Y-4.9909
X4.2868Y-0.9969
X4.3407Y-1.0969
X4.3946Y-0.9969
X4.4486Y-1.0969
X4.5025Y-0.9969
X4.5564Y-1.0969
X4.6104Y-0.9969
X4.6643Y-1.0969
X3.4Y-4.8909
X3.4Y-4.9909
X3.5Y-4.8909
X3.5Y-4.9909
X3.6Y-4.8909
X3.6Y-4.9909
X3.7Y-4.8909
X3.7Y-4.9909
X3.8Y-4.8909
X3.8Y-4.9909
X3.9Y-4.8909
X3.9Y-4.9909
X4.0Y-4.8909
X4.0Y-4.9909
X4.1Y-4.8909
X4.1Y-4.9909
X4.2Y-4.8909
X4.2Y-4.9909
X4.3Y-4.8909
X4.3Y-4.9909
X4.4Y-4.8909
X4.4Y-4.9909
X4.5Y-4.8909
X4.5Y-4.9909
X4.6Y-4.8909
X4.6Y-4.9909
X4.7Y-4.8909
X4.7Y-4.9909
X4.8Y-4.8909
X4.8Y-4.9909
X4.9Y-4.8909
X4.9Y-4.9909
X1.8949Y-0.9257
X1.9776Y-0.9257
X2.0799Y-0.9257
X2.1626Y-0.9257
X1.5104Y-6.7362
X1.5644Y-6.8362
X1.6183Y-6.7362
X1.6723Y-6.8362
X1.7262Y-6.7362
X1.7801Y-6.8362
X1.8341Y-6.7362
X1.888Y-6.8362
X1.9419Y-6.7362
T9
X1.8949Y-1.0241
X1.1535Y-1.4646
X1.1535Y-1.6614
X2.1626Y-1.0241
X1.3504Y-1.4646
X1.3504Y-1.6614
T10
X1.763Y-0.8076
X2.0287Y-0.7761
X2.2945Y-0.8076
X1.0484Y-0.9957
X1.5224Y-0.9957
T11
X3.9566Y-1.0469
X4.9405Y-1.0469
X3.6262Y-1.0469
X2.2181Y-6.7862
X2.5545Y-6.7862
X3.5384Y-6.7862
X2.6423Y-1.0469
X1.2343Y-6.7862
X6.1024Y-0.7874
X6.1024Y-7.0472
X0.7874Y-7.0472
X0.7874Y-0.7874
T12
X5.4055Y-0.6693
X5.4055Y-0.7677
X5.6024Y-0.9646
X5.7992Y-0.6693
X5.7992Y-0.7677
X4.752Y-6.2087
X5.7205Y-6.2087
T3
G00X5.4055Y-0.9498
M15
G01X5.4055Y-0.9793
M16
G05
G00X5.5039Y-0.9498
M15
G01X5.5039Y-0.9793
M16
G05
G00X5.6171Y-0.7677
M15
G01X5.5876Y-0.7677
M16
G05
G00X5.7008Y-0.9498
M15
G01X5.7008Y-0.9793
M16
G05
G00X5.7992Y-0.9498
M15
G01X5.7992Y-0.9793
M16
G05
T0
M30
