%TF.GenerationSoftware,KiCad,Pcbnew,(5.1.0-0)*%
%TF.CreationDate,2019-04-15T22:40:15-04:00*%
%TF.ProjectId,zed-80,7a65642d-3830-42e6-9b69-6361645f7063,1*%
%TF.SameCoordinates,Original*%
%TF.FileFunction,Legend,Top*%
%TF.FilePolarity,Positive*%
%FSLAX46Y46*%
G04 Gerber Fmt 4.6, Leading zero omitted, Abs format (unit mm)*
G04 Created by KiCad (PCBNEW (5.1.0-0)) date 2019-04-15 22:40:15*
%MOMM*%
%LPD*%
G04 APERTURE LIST*
%ADD10C,0.180000*%
%ADD11C,0.150000*%
%ADD12C,0.120000*%
G04 APERTURE END LIST*
D10*
X95238428Y-176862857D02*
X96038428Y-176862857D01*
X95238428Y-178062857D01*
X96038428Y-178062857D01*
X96495571Y-177434285D02*
X96895571Y-177434285D01*
X97067000Y-178062857D02*
X96495571Y-178062857D01*
X96495571Y-176862857D01*
X97067000Y-176862857D01*
X97581285Y-178062857D02*
X97581285Y-176862857D01*
X97867000Y-176862857D01*
X98038428Y-176920000D01*
X98152714Y-177034285D01*
X98209857Y-177148571D01*
X98267000Y-177377142D01*
X98267000Y-177548571D01*
X98209857Y-177777142D01*
X98152714Y-177891428D01*
X98038428Y-178005714D01*
X97867000Y-178062857D01*
X97581285Y-178062857D01*
X98781285Y-177605714D02*
X99695571Y-177605714D01*
X100438428Y-177377142D02*
X100324142Y-177320000D01*
X100267000Y-177262857D01*
X100209857Y-177148571D01*
X100209857Y-177091428D01*
X100267000Y-176977142D01*
X100324142Y-176920000D01*
X100438428Y-176862857D01*
X100667000Y-176862857D01*
X100781285Y-176920000D01*
X100838428Y-176977142D01*
X100895571Y-177091428D01*
X100895571Y-177148571D01*
X100838428Y-177262857D01*
X100781285Y-177320000D01*
X100667000Y-177377142D01*
X100438428Y-177377142D01*
X100324142Y-177434285D01*
X100267000Y-177491428D01*
X100209857Y-177605714D01*
X100209857Y-177834285D01*
X100267000Y-177948571D01*
X100324142Y-178005714D01*
X100438428Y-178062857D01*
X100667000Y-178062857D01*
X100781285Y-178005714D01*
X100838428Y-177948571D01*
X100895571Y-177834285D01*
X100895571Y-177605714D01*
X100838428Y-177491428D01*
X100781285Y-177434285D01*
X100667000Y-177377142D01*
X101638428Y-176862857D02*
X101752714Y-176862857D01*
X101867000Y-176920000D01*
X101924142Y-176977142D01*
X101981285Y-177091428D01*
X102038428Y-177320000D01*
X102038428Y-177605714D01*
X101981285Y-177834285D01*
X101924142Y-177948571D01*
X101867000Y-178005714D01*
X101752714Y-178062857D01*
X101638428Y-178062857D01*
X101524142Y-178005714D01*
X101467000Y-177948571D01*
X101409857Y-177834285D01*
X101352714Y-177605714D01*
X101352714Y-177320000D01*
X101409857Y-177091428D01*
X101467000Y-176977142D01*
X101524142Y-176920000D01*
X101638428Y-176862857D01*
X103467000Y-178062857D02*
X103467000Y-177262857D01*
X103467000Y-177491428D02*
X103524142Y-177377142D01*
X103581285Y-177320000D01*
X103695571Y-177262857D01*
X103809857Y-177262857D01*
X104667000Y-178005714D02*
X104552714Y-178062857D01*
X104324142Y-178062857D01*
X104209857Y-178005714D01*
X104152714Y-177891428D01*
X104152714Y-177434285D01*
X104209857Y-177320000D01*
X104324142Y-177262857D01*
X104552714Y-177262857D01*
X104667000Y-177320000D01*
X104724142Y-177434285D01*
X104724142Y-177548571D01*
X104152714Y-177662857D01*
X105124142Y-177262857D02*
X105409857Y-178062857D01*
X105695571Y-177262857D01*
X106152714Y-177948571D02*
X106209857Y-178005714D01*
X106152714Y-178062857D01*
X106095571Y-178005714D01*
X106152714Y-177948571D01*
X106152714Y-178062857D01*
X108267000Y-178062857D02*
X107581285Y-178062857D01*
X107924142Y-178062857D02*
X107924142Y-176862857D01*
X107809857Y-177034285D01*
X107695571Y-177148571D01*
X107581285Y-177205714D01*
X95295571Y-178957142D02*
X95352714Y-178900000D01*
X95467000Y-178842857D01*
X95752714Y-178842857D01*
X95867000Y-178900000D01*
X95924142Y-178957142D01*
X95981285Y-179071428D01*
X95981285Y-179185714D01*
X95924142Y-179357142D01*
X95238428Y-180042857D01*
X95981285Y-180042857D01*
X96724142Y-178842857D02*
X96838428Y-178842857D01*
X96952714Y-178900000D01*
X97009857Y-178957142D01*
X97067000Y-179071428D01*
X97124142Y-179300000D01*
X97124142Y-179585714D01*
X97067000Y-179814285D01*
X97009857Y-179928571D01*
X96952714Y-179985714D01*
X96838428Y-180042857D01*
X96724142Y-180042857D01*
X96609857Y-179985714D01*
X96552714Y-179928571D01*
X96495571Y-179814285D01*
X96438428Y-179585714D01*
X96438428Y-179300000D01*
X96495571Y-179071428D01*
X96552714Y-178957142D01*
X96609857Y-178900000D01*
X96724142Y-178842857D01*
X98267000Y-180042857D02*
X97581285Y-180042857D01*
X97924142Y-180042857D02*
X97924142Y-178842857D01*
X97809857Y-179014285D01*
X97695571Y-179128571D01*
X97581285Y-179185714D01*
X98838428Y-180042857D02*
X99067000Y-180042857D01*
X99181285Y-179985714D01*
X99238428Y-179928571D01*
X99352714Y-179757142D01*
X99409857Y-179528571D01*
X99409857Y-179071428D01*
X99352714Y-178957142D01*
X99295571Y-178900000D01*
X99181285Y-178842857D01*
X98952714Y-178842857D01*
X98838428Y-178900000D01*
X98781285Y-178957142D01*
X98724142Y-179071428D01*
X98724142Y-179357142D01*
X98781285Y-179471428D01*
X98838428Y-179528571D01*
X98952714Y-179585714D01*
X99181285Y-179585714D01*
X99295571Y-179528571D01*
X99352714Y-179471428D01*
X99409857Y-179357142D01*
X100781285Y-178785714D02*
X99752714Y-180328571D01*
X101409857Y-178842857D02*
X101524142Y-178842857D01*
X101638428Y-178900000D01*
X101695571Y-178957142D01*
X101752714Y-179071428D01*
X101809857Y-179300000D01*
X101809857Y-179585714D01*
X101752714Y-179814285D01*
X101695571Y-179928571D01*
X101638428Y-179985714D01*
X101524142Y-180042857D01*
X101409857Y-180042857D01*
X101295571Y-179985714D01*
X101238428Y-179928571D01*
X101181285Y-179814285D01*
X101124142Y-179585714D01*
X101124142Y-179300000D01*
X101181285Y-179071428D01*
X101238428Y-178957142D01*
X101295571Y-178900000D01*
X101409857Y-178842857D01*
X102838428Y-179242857D02*
X102838428Y-180042857D01*
X102552714Y-178785714D02*
X102267000Y-179642857D01*
X103009857Y-179642857D01*
X104324142Y-178785714D02*
X103295571Y-180328571D01*
X105352714Y-180042857D02*
X104667000Y-180042857D01*
X105009857Y-180042857D02*
X105009857Y-178842857D01*
X104895571Y-179014285D01*
X104781285Y-179128571D01*
X104667000Y-179185714D01*
X106438428Y-178842857D02*
X105867000Y-178842857D01*
X105809857Y-179414285D01*
X105867000Y-179357142D01*
X105981285Y-179300000D01*
X106267000Y-179300000D01*
X106381285Y-179357142D01*
X106438428Y-179414285D01*
X106495571Y-179528571D01*
X106495571Y-179814285D01*
X106438428Y-179928571D01*
X106381285Y-179985714D01*
X106267000Y-180042857D01*
X105981285Y-180042857D01*
X105867000Y-179985714D01*
X105809857Y-179928571D01*
X95867000Y-182022857D02*
X95867000Y-180822857D01*
X95867000Y-181965714D02*
X95752714Y-182022857D01*
X95524142Y-182022857D01*
X95409857Y-181965714D01*
X95352714Y-181908571D01*
X95295571Y-181794285D01*
X95295571Y-181451428D01*
X95352714Y-181337142D01*
X95409857Y-181280000D01*
X95524142Y-181222857D01*
X95752714Y-181222857D01*
X95867000Y-181280000D01*
X96952714Y-182022857D02*
X96952714Y-181394285D01*
X96895571Y-181280000D01*
X96781285Y-181222857D01*
X96552714Y-181222857D01*
X96438428Y-181280000D01*
X96952714Y-181965714D02*
X96838428Y-182022857D01*
X96552714Y-182022857D01*
X96438428Y-181965714D01*
X96381285Y-181851428D01*
X96381285Y-181737142D01*
X96438428Y-181622857D01*
X96552714Y-181565714D01*
X96838428Y-181565714D01*
X96952714Y-181508571D01*
X97524142Y-181222857D02*
X97524142Y-182022857D01*
X97524142Y-181337142D02*
X97581285Y-181280000D01*
X97695571Y-181222857D01*
X97867000Y-181222857D01*
X97981285Y-181280000D01*
X98038428Y-181394285D01*
X98038428Y-182022857D01*
X98609857Y-181908571D02*
X98667000Y-181965714D01*
X98609857Y-182022857D01*
X98552714Y-181965714D01*
X98609857Y-181908571D01*
X98609857Y-182022857D01*
X99695571Y-181965714D02*
X99581285Y-182022857D01*
X99352714Y-182022857D01*
X99238428Y-181965714D01*
X99181285Y-181908571D01*
X99124142Y-181794285D01*
X99124142Y-181451428D01*
X99181285Y-181337142D01*
X99238428Y-181280000D01*
X99352714Y-181222857D01*
X99581285Y-181222857D01*
X99695571Y-181280000D01*
X100381285Y-182022857D02*
X100267000Y-181965714D01*
X100209857Y-181908571D01*
X100152714Y-181794285D01*
X100152714Y-181451428D01*
X100209857Y-181337142D01*
X100267000Y-181280000D01*
X100381285Y-181222857D01*
X100552714Y-181222857D01*
X100667000Y-181280000D01*
X100724142Y-181337142D01*
X100781285Y-181451428D01*
X100781285Y-181794285D01*
X100724142Y-181908571D01*
X100667000Y-181965714D01*
X100552714Y-182022857D01*
X100381285Y-182022857D01*
X101467000Y-182022857D02*
X101352714Y-181965714D01*
X101295571Y-181851428D01*
X101295571Y-180822857D01*
X102095571Y-182022857D02*
X101981285Y-181965714D01*
X101924142Y-181851428D01*
X101924142Y-180822857D01*
X103009857Y-181965714D02*
X102895571Y-182022857D01*
X102667000Y-182022857D01*
X102552714Y-181965714D01*
X102495571Y-181851428D01*
X102495571Y-181394285D01*
X102552714Y-181280000D01*
X102667000Y-181222857D01*
X102895571Y-181222857D01*
X103009857Y-181280000D01*
X103067000Y-181394285D01*
X103067000Y-181508571D01*
X102495571Y-181622857D01*
X103581285Y-181222857D02*
X103581285Y-182022857D01*
X103581285Y-181337142D02*
X103638428Y-181280000D01*
X103752714Y-181222857D01*
X103924142Y-181222857D01*
X104038428Y-181280000D01*
X104095571Y-181394285D01*
X104095571Y-182022857D01*
X104609857Y-181965714D02*
X104724142Y-182022857D01*
X104952714Y-182022857D01*
X105067000Y-181965714D01*
X105124142Y-181851428D01*
X105124142Y-181794285D01*
X105067000Y-181680000D01*
X104952714Y-181622857D01*
X104781285Y-181622857D01*
X104667000Y-181565714D01*
X104609857Y-181451428D01*
X104609857Y-181394285D01*
X104667000Y-181280000D01*
X104781285Y-181222857D01*
X104952714Y-181222857D01*
X105067000Y-181280000D01*
X106381285Y-181451428D02*
X106324142Y-181394285D01*
X106209857Y-181337142D01*
X106095571Y-181337142D01*
X105981285Y-181394285D01*
X105924142Y-181451428D01*
X105867000Y-181565714D01*
X105867000Y-181680000D01*
X105924142Y-181794285D01*
X105981285Y-181851428D01*
X106095571Y-181908571D01*
X106209857Y-181908571D01*
X106324142Y-181851428D01*
X106381285Y-181794285D01*
X106381285Y-181337142D02*
X106381285Y-181794285D01*
X106438428Y-181851428D01*
X106495571Y-181851428D01*
X106609857Y-181794285D01*
X106667000Y-181680000D01*
X106667000Y-181394285D01*
X106552714Y-181222857D01*
X106381285Y-181108571D01*
X106152714Y-181051428D01*
X105924142Y-181108571D01*
X105752714Y-181222857D01*
X105638428Y-181394285D01*
X105581285Y-181622857D01*
X105638428Y-181851428D01*
X105752714Y-182022857D01*
X105924142Y-182137142D01*
X106152714Y-182194285D01*
X106381285Y-182137142D01*
X106552714Y-182022857D01*
X107695571Y-181222857D02*
X107695571Y-182194285D01*
X107638428Y-182308571D01*
X107581285Y-182365714D01*
X107467000Y-182422857D01*
X107295571Y-182422857D01*
X107181285Y-182365714D01*
X107695571Y-181965714D02*
X107581285Y-182022857D01*
X107352714Y-182022857D01*
X107238428Y-181965714D01*
X107181285Y-181908571D01*
X107124142Y-181794285D01*
X107124142Y-181451428D01*
X107181285Y-181337142D01*
X107238428Y-181280000D01*
X107352714Y-181222857D01*
X107581285Y-181222857D01*
X107695571Y-181280000D01*
X108267000Y-182022857D02*
X108267000Y-181222857D01*
X108267000Y-181337142D02*
X108324142Y-181280000D01*
X108438428Y-181222857D01*
X108609857Y-181222857D01*
X108724142Y-181280000D01*
X108781285Y-181394285D01*
X108781285Y-182022857D01*
X108781285Y-181394285D02*
X108838428Y-181280000D01*
X108952714Y-181222857D01*
X109124142Y-181222857D01*
X109238428Y-181280000D01*
X109295571Y-181394285D01*
X109295571Y-182022857D01*
X110381285Y-182022857D02*
X110381285Y-181394285D01*
X110324142Y-181280000D01*
X110209857Y-181222857D01*
X109981285Y-181222857D01*
X109867000Y-181280000D01*
X110381285Y-181965714D02*
X110267000Y-182022857D01*
X109981285Y-182022857D01*
X109867000Y-181965714D01*
X109809857Y-181851428D01*
X109809857Y-181737142D01*
X109867000Y-181622857D01*
X109981285Y-181565714D01*
X110267000Y-181565714D01*
X110381285Y-181508571D01*
X110952714Y-182022857D02*
X110952714Y-181222857D01*
X110952714Y-180822857D02*
X110895571Y-180880000D01*
X110952714Y-180937142D01*
X111009857Y-180880000D01*
X110952714Y-180822857D01*
X110952714Y-180937142D01*
X111695571Y-182022857D02*
X111581285Y-181965714D01*
X111524142Y-181851428D01*
X111524142Y-180822857D01*
X112152714Y-181908571D02*
X112209857Y-181965714D01*
X112152714Y-182022857D01*
X112095571Y-181965714D01*
X112152714Y-181908571D01*
X112152714Y-182022857D01*
X113238428Y-181965714D02*
X113124142Y-182022857D01*
X112895571Y-182022857D01*
X112781285Y-181965714D01*
X112724142Y-181908571D01*
X112667000Y-181794285D01*
X112667000Y-181451428D01*
X112724142Y-181337142D01*
X112781285Y-181280000D01*
X112895571Y-181222857D01*
X113124142Y-181222857D01*
X113238428Y-181280000D01*
X113924142Y-182022857D02*
X113809857Y-181965714D01*
X113752714Y-181908571D01*
X113695571Y-181794285D01*
X113695571Y-181451428D01*
X113752714Y-181337142D01*
X113809857Y-181280000D01*
X113924142Y-181222857D01*
X114095571Y-181222857D01*
X114209857Y-181280000D01*
X114267000Y-181337142D01*
X114324142Y-181451428D01*
X114324142Y-181794285D01*
X114267000Y-181908571D01*
X114209857Y-181965714D01*
X114095571Y-182022857D01*
X113924142Y-182022857D01*
X114838428Y-182022857D02*
X114838428Y-181222857D01*
X114838428Y-181337142D02*
X114895571Y-181280000D01*
X115009857Y-181222857D01*
X115181285Y-181222857D01*
X115295571Y-181280000D01*
X115352714Y-181394285D01*
X115352714Y-182022857D01*
X115352714Y-181394285D02*
X115409857Y-181280000D01*
X115524142Y-181222857D01*
X115695571Y-181222857D01*
X115809857Y-181280000D01*
X115867000Y-181394285D01*
X115867000Y-182022857D01*
D11*
X135900000Y-27600000D02*
X135900000Y-16200000D01*
X148700000Y-27600000D02*
X135900000Y-27600000D01*
X148700000Y-16200000D02*
X148700000Y-27600000D01*
D12*
X28760000Y-65160000D02*
X16610000Y-65160000D01*
X29510000Y-77310000D02*
X29510000Y-65910000D01*
X17360000Y-78060000D02*
X28760000Y-78060000D01*
X16610000Y-65160000D02*
X16610000Y-77310000D01*
X16610000Y-77310000D02*
G75*
G03X17360000Y-78060000I750000J0D01*
G01*
X28760000Y-78060000D02*
G75*
G03X29510000Y-77310000I0J750000D01*
G01*
X29510000Y-65910000D02*
G75*
G03X28760000Y-65160000I-750000J0D01*
G01*
D11*
X59725000Y-59400000D02*
X64175000Y-59400000D01*
X58200000Y-52500000D02*
X64175000Y-52500000D01*
D12*
X140330000Y-79830000D02*
G75*
G02X142330000Y-79830000I1000000J0D01*
G01*
X142330000Y-79830000D02*
X147790000Y-79830000D01*
X147790000Y-79830000D02*
X147790000Y-28910000D01*
X147790000Y-28910000D02*
X134870000Y-28910000D01*
X134870000Y-28910000D02*
X134870000Y-79830000D01*
X134870000Y-79830000D02*
X140330000Y-79830000D01*
X150280000Y-79890000D02*
X150280000Y-28850000D01*
X150280000Y-28850000D02*
X132380000Y-28850000D01*
X132380000Y-28850000D02*
X132380000Y-79890000D01*
X132380000Y-79890000D02*
X150280000Y-79890000D01*
D11*
X22400000Y-85275000D02*
X26800000Y-85275000D01*
X20825000Y-79750000D02*
X26800000Y-79750000D01*
X119450000Y-152325000D02*
X123850000Y-152325000D01*
X117875000Y-146800000D02*
X123850000Y-146800000D01*
X123025000Y-143700000D02*
X127475000Y-143700000D01*
X121500000Y-136800000D02*
X127475000Y-136800000D01*
X113775000Y-136825000D02*
X113775000Y-136950000D01*
X118425000Y-136825000D02*
X118425000Y-137050000D01*
X118425000Y-142075000D02*
X118425000Y-141850000D01*
X113775000Y-142075000D02*
X113775000Y-141850000D01*
X113775000Y-136825000D02*
X118425000Y-136825000D01*
X113775000Y-142075000D02*
X118425000Y-142075000D01*
X113775000Y-136950000D02*
X112425000Y-136950000D01*
X43025000Y-138175000D02*
X43025000Y-138200000D01*
X47175000Y-138175000D02*
X47175000Y-138280000D01*
X47175000Y-148325000D02*
X47175000Y-148220000D01*
X43025000Y-148325000D02*
X43025000Y-148220000D01*
X43025000Y-138175000D02*
X47175000Y-138175000D01*
X43025000Y-148325000D02*
X47175000Y-148325000D01*
X43025000Y-138200000D02*
X41650000Y-138200000D01*
X72875000Y-142800000D02*
X77325000Y-142800000D01*
X71350000Y-135900000D02*
X77325000Y-135900000D01*
X77750000Y-147775000D02*
X77750000Y-152225000D01*
X84650000Y-146250000D02*
X84650000Y-152225000D01*
X67275000Y-151925000D02*
X67250000Y-151925000D01*
X59225000Y-151925000D02*
X59250000Y-151925000D01*
X59225000Y-147275000D02*
X59250000Y-147275000D01*
X67325000Y-146200000D02*
X67325000Y-151925000D01*
X59225000Y-147275000D02*
X59225000Y-151925000D01*
D12*
X24010000Y-38190000D02*
X22750000Y-38190000D01*
X17190000Y-38190000D02*
X18450000Y-38190000D01*
X24010000Y-41950000D02*
X24010000Y-38190000D01*
X17190000Y-44200000D02*
X17190000Y-38190000D01*
D11*
X53175000Y-33775000D02*
X53175000Y-33900000D01*
X57825000Y-33775000D02*
X57825000Y-34000000D01*
X57825000Y-39025000D02*
X57825000Y-38800000D01*
X53175000Y-39025000D02*
X53175000Y-38800000D01*
X53175000Y-33775000D02*
X57825000Y-33775000D01*
X53175000Y-39025000D02*
X57825000Y-39025000D01*
X53175000Y-33900000D02*
X51825000Y-33900000D01*
X53225000Y-42175000D02*
X53225000Y-42300000D01*
X57875000Y-42175000D02*
X57875000Y-42400000D01*
X57875000Y-47425000D02*
X57875000Y-47200000D01*
X53225000Y-47425000D02*
X53225000Y-47200000D01*
X53225000Y-42175000D02*
X57875000Y-42175000D01*
X53225000Y-47425000D02*
X57875000Y-47425000D01*
X53225000Y-42300000D02*
X51875000Y-42300000D01*
D12*
X65770000Y-67020000D02*
G75*
G02X63770000Y-67020000I-1000000J0D01*
G01*
X63770000Y-67020000D02*
X62120000Y-67020000D01*
X62120000Y-67020000D02*
X62120000Y-84920000D01*
X62120000Y-84920000D02*
X67420000Y-84920000D01*
X67420000Y-84920000D02*
X67420000Y-67020000D01*
X67420000Y-67020000D02*
X65770000Y-67020000D01*
X74870000Y-83860000D02*
G75*
G02X74870000Y-85860000I0J-1000000D01*
G01*
X74870000Y-85860000D02*
X74870000Y-91320000D01*
X74870000Y-91320000D02*
X125790000Y-91320000D01*
X125790000Y-91320000D02*
X125790000Y-78400000D01*
X125790000Y-78400000D02*
X74870000Y-78400000D01*
X74870000Y-78400000D02*
X74870000Y-83860000D01*
X74810000Y-93810000D02*
X125850000Y-93810000D01*
X125850000Y-93810000D02*
X125850000Y-75910000D01*
X125850000Y-75910000D02*
X74810000Y-75910000D01*
X74810000Y-75910000D02*
X74810000Y-93810000D01*
D11*
X101100000Y-171825000D02*
X101100000Y-167375000D01*
X94200000Y-173350000D02*
X94200000Y-167375000D01*
X26750000Y-171925000D02*
X26750000Y-167475000D01*
X19850000Y-173450000D02*
X19850000Y-167475000D01*
D12*
X98758800Y-39664000D02*
G75*
G02X98758800Y-41664000I0J-1000000D01*
G01*
X98758800Y-41664000D02*
X98758800Y-43314000D01*
X98758800Y-43314000D02*
X119198800Y-43314000D01*
X119198800Y-43314000D02*
X119198800Y-38014000D01*
X119198800Y-38014000D02*
X98758800Y-38014000D01*
X98758800Y-38014000D02*
X98758800Y-39664000D01*
X68520000Y-39664000D02*
G75*
G02X68520000Y-41664000I0J-1000000D01*
G01*
X68520000Y-41664000D02*
X68520000Y-43314000D01*
X68520000Y-43314000D02*
X88960000Y-43314000D01*
X88960000Y-43314000D02*
X88960000Y-38014000D01*
X88960000Y-38014000D02*
X68520000Y-38014000D01*
X68520000Y-38014000D02*
X68520000Y-39664000D01*
X74870000Y-59730000D02*
G75*
G02X74870000Y-61730000I0J-1000000D01*
G01*
X74870000Y-61730000D02*
X74870000Y-67190000D01*
X74870000Y-67190000D02*
X125790000Y-67190000D01*
X125790000Y-67190000D02*
X125790000Y-54270000D01*
X125790000Y-54270000D02*
X74870000Y-54270000D01*
X74870000Y-54270000D02*
X74870000Y-59730000D01*
X74810000Y-69680000D02*
X125850000Y-69680000D01*
X125850000Y-69680000D02*
X125850000Y-51780000D01*
X125850000Y-51780000D02*
X74810000Y-51780000D01*
X74810000Y-51780000D02*
X74810000Y-69680000D01*
X136770000Y-86790000D02*
G75*
G02X136770000Y-88790000I0J-1000000D01*
G01*
X136770000Y-88790000D02*
X136770000Y-90440000D01*
X136770000Y-90440000D02*
X154670000Y-90440000D01*
X154670000Y-90440000D02*
X154670000Y-85140000D01*
X154670000Y-85140000D02*
X136770000Y-85140000D01*
X136770000Y-85140000D02*
X136770000Y-86790000D01*
D11*
X148825000Y-101650000D02*
X153275000Y-101650000D01*
X147300000Y-94750000D02*
X153275000Y-94750000D01*
X135125000Y-101650000D02*
X139575000Y-101650000D01*
X133600000Y-94750000D02*
X139575000Y-94750000D01*
X97275000Y-138475000D02*
X97275000Y-138750000D01*
X105025000Y-138475000D02*
X105025000Y-138840000D01*
X105025000Y-154225000D02*
X105025000Y-153860000D01*
X97275000Y-154225000D02*
X97275000Y-153860000D01*
X97275000Y-138475000D02*
X105025000Y-138475000D01*
X97275000Y-154225000D02*
X105025000Y-154225000D01*
X97275000Y-138750000D02*
X95450000Y-138750000D01*
D12*
X58150000Y-93690000D02*
G75*
G02X56150000Y-93690000I-1000000J0D01*
G01*
X56150000Y-93690000D02*
X50690000Y-93690000D01*
X50690000Y-93690000D02*
X50690000Y-134450000D01*
X50690000Y-134450000D02*
X63610000Y-134450000D01*
X63610000Y-134450000D02*
X63610000Y-93690000D01*
X63610000Y-93690000D02*
X58150000Y-93690000D01*
X48200000Y-93630000D02*
X48200000Y-134510000D01*
X48200000Y-134510000D02*
X66100000Y-134510000D01*
X66100000Y-134510000D02*
X66100000Y-93630000D01*
X66100000Y-93630000D02*
X48200000Y-93630000D01*
X28810000Y-144120000D02*
G75*
G02X26810000Y-144120000I-1000000J0D01*
G01*
X26810000Y-144120000D02*
X25160000Y-144120000D01*
X25160000Y-144120000D02*
X25160000Y-162020000D01*
X25160000Y-162020000D02*
X30460000Y-162020000D01*
X30460000Y-162020000D02*
X30460000Y-144120000D01*
X30460000Y-144120000D02*
X28810000Y-144120000D01*
X32750000Y-93690000D02*
G75*
G02X30750000Y-93690000I-1000000J0D01*
G01*
X30750000Y-93690000D02*
X25290000Y-93690000D01*
X25290000Y-93690000D02*
X25290000Y-134450000D01*
X25290000Y-134450000D02*
X38210000Y-134450000D01*
X38210000Y-134450000D02*
X38210000Y-93690000D01*
X38210000Y-93690000D02*
X32750000Y-93690000D01*
X22800000Y-93630000D02*
X22800000Y-134510000D01*
X22800000Y-134510000D02*
X40700000Y-134510000D01*
X40700000Y-134510000D02*
X40700000Y-93630000D01*
X40700000Y-93630000D02*
X22800000Y-93630000D01*
X44760000Y-32620000D02*
G75*
G02X42760000Y-32620000I-1000000J0D01*
G01*
X42760000Y-32620000D02*
X41110000Y-32620000D01*
X41110000Y-32620000D02*
X41110000Y-50520000D01*
X41110000Y-50520000D02*
X46410000Y-50520000D01*
X46410000Y-50520000D02*
X46410000Y-32620000D01*
X46410000Y-32620000D02*
X44760000Y-32620000D01*
X74870000Y-107990000D02*
G75*
G02X74870000Y-109990000I0J-1000000D01*
G01*
X74870000Y-109990000D02*
X74870000Y-115450000D01*
X74870000Y-115450000D02*
X125790000Y-115450000D01*
X125790000Y-115450000D02*
X125790000Y-102530000D01*
X125790000Y-102530000D02*
X74870000Y-102530000D01*
X74870000Y-102530000D02*
X74870000Y-107990000D01*
X74810000Y-117940000D02*
X125850000Y-117940000D01*
X125850000Y-117940000D02*
X125850000Y-100040000D01*
X125850000Y-100040000D02*
X74810000Y-100040000D01*
X74810000Y-100040000D02*
X74810000Y-117940000D01*
D11*
X28813632Y-33693203D02*
G75*
G03X34800000Y-33700000I2986368J-6006797D01*
G01*
X28800000Y-33700000D02*
X34800000Y-33700000D01*
D12*
X133350000Y-19580000D02*
X132150000Y-19580000D01*
X132150000Y-17820000D02*
X133350000Y-17820000D01*
X133350000Y-23330000D02*
X132150000Y-23330000D01*
X132150000Y-21570000D02*
X133350000Y-21570000D01*
X133350000Y-27180000D02*
X132150000Y-27180000D01*
X132150000Y-25420000D02*
X133350000Y-25420000D01*
X122480000Y-33500000D02*
X122480000Y-34700000D01*
X120720000Y-34700000D02*
X120720000Y-33500000D01*
X152450000Y-158970000D02*
X153650000Y-158970000D01*
X153650000Y-160730000D02*
X152450000Y-160730000D01*
X152500000Y-165820000D02*
X153700000Y-165820000D01*
X153700000Y-167580000D02*
X152500000Y-167580000D01*
X153700000Y-164130000D02*
X152500000Y-164130000D01*
X152500000Y-162370000D02*
X153700000Y-162370000D01*
X74880000Y-151750000D02*
X74880000Y-152950000D01*
X73120000Y-152950000D02*
X73120000Y-151750000D01*
X54900000Y-29020000D02*
X56100000Y-29020000D01*
X56100000Y-30780000D02*
X54900000Y-30780000D01*
X48000000Y-30780000D02*
X46800000Y-30780000D01*
X46800000Y-29020000D02*
X48000000Y-29020000D01*
X129150000Y-110930000D02*
X129150000Y-112130000D01*
X127390000Y-112130000D02*
X127390000Y-110930000D01*
X18430000Y-30800000D02*
X18430000Y-32000000D01*
X16670000Y-32000000D02*
X16670000Y-30800000D01*
X68470000Y-165600000D02*
X68470000Y-164400000D01*
X70230000Y-164400000D02*
X70230000Y-165600000D01*
X45570000Y-165600000D02*
X45570000Y-164400000D01*
X47330000Y-164400000D02*
X47330000Y-165600000D01*
X79033200Y-165614760D02*
X79033200Y-164414760D01*
X80793200Y-164414760D02*
X80793200Y-165614760D01*
X48220000Y-165600000D02*
X48220000Y-164400000D01*
X49980000Y-164400000D02*
X49980000Y-165600000D01*
X76391600Y-165592000D02*
X76391600Y-164392000D01*
X78151600Y-164392000D02*
X78151600Y-165592000D01*
X42884400Y-165585664D02*
X42884400Y-164385664D01*
X44644400Y-164385664D02*
X44644400Y-165585664D01*
X73750000Y-165614760D02*
X73750000Y-164414760D01*
X75510000Y-164414760D02*
X75510000Y-165614760D01*
X40242800Y-165581200D02*
X40242800Y-164381200D01*
X42002800Y-164381200D02*
X42002800Y-165581200D01*
X71108400Y-165592000D02*
X71108400Y-164392000D01*
X72868400Y-164392000D02*
X72868400Y-165592000D01*
X37601200Y-165581200D02*
X37601200Y-164381200D01*
X39361200Y-164381200D02*
X39361200Y-165581200D01*
X43160000Y-24930000D02*
X43160000Y-28650000D01*
X41440000Y-24930000D02*
X41440000Y-28650000D01*
X151520000Y-49400000D02*
X156720000Y-49400000D01*
X151520000Y-29020000D02*
X151520000Y-49400000D01*
X156720000Y-26420000D02*
X156720000Y-49400000D01*
X151520000Y-29020000D02*
X154120000Y-29020000D01*
X154120000Y-29020000D02*
X154120000Y-26420000D01*
X154120000Y-26420000D02*
X156720000Y-26420000D01*
X151520000Y-27750000D02*
X151520000Y-26420000D01*
X151520000Y-26420000D02*
X152850000Y-26420000D01*
D11*
X149100000Y-154100000D02*
X149100000Y-183950000D01*
X116900000Y-154100000D02*
X149100000Y-154100000D01*
X116900000Y-183950000D02*
X116900000Y-154100000D01*
D12*
X17420000Y-28480000D02*
X22620000Y-28480000D01*
X17420000Y-28420000D02*
X17420000Y-28480000D01*
X22620000Y-25820000D02*
X22620000Y-28480000D01*
X17420000Y-28420000D02*
X20020000Y-28420000D01*
X20020000Y-28420000D02*
X20020000Y-25820000D01*
X20020000Y-25820000D02*
X22620000Y-25820000D01*
X17420000Y-27150000D02*
X17420000Y-25820000D01*
X17420000Y-25820000D02*
X18750000Y-25820000D01*
X38770000Y-23650000D02*
X38770000Y-15010000D01*
X38770000Y-32030000D02*
X38770000Y-26950000D01*
X26570000Y-23650000D02*
X26570000Y-15010000D01*
X26570000Y-32030000D02*
X26570000Y-26950000D01*
X26570000Y-15010000D02*
X38770000Y-15010000D01*
X38770000Y-32030000D02*
X26570000Y-32030000D01*
X34360000Y-155270000D02*
X34360000Y-160470000D01*
X82680000Y-155270000D02*
X34360000Y-155270000D01*
X85280000Y-160470000D02*
X34360000Y-160470000D01*
X82680000Y-155270000D02*
X82680000Y-157870000D01*
X82680000Y-157870000D02*
X85280000Y-157870000D01*
X85280000Y-157870000D02*
X85280000Y-160470000D01*
X83950000Y-155270000D02*
X85280000Y-155270000D01*
X85280000Y-155270000D02*
X85280000Y-156600000D01*
X53110000Y-140630000D02*
X53110000Y-139700000D01*
X53110000Y-137470000D02*
X53110000Y-138400000D01*
X53110000Y-137470000D02*
X50950000Y-137470000D01*
X53110000Y-140630000D02*
X51650000Y-140630000D01*
X54660000Y-144180000D02*
X54660000Y-143250000D01*
X54660000Y-141020000D02*
X54660000Y-141950000D01*
X54660000Y-141020000D02*
X52500000Y-141020000D01*
X54660000Y-144180000D02*
X53200000Y-144180000D01*
X53060000Y-147730000D02*
X53060000Y-146800000D01*
X53060000Y-144570000D02*
X53060000Y-145500000D01*
X53060000Y-144570000D02*
X50900000Y-144570000D01*
X53060000Y-147730000D02*
X51600000Y-147730000D01*
X56510000Y-151280000D02*
X56510000Y-150350000D01*
X56510000Y-148120000D02*
X56510000Y-149050000D01*
X56510000Y-148120000D02*
X54350000Y-148120000D01*
X56510000Y-151280000D02*
X55050000Y-151280000D01*
X24760000Y-32350462D02*
G75*
G03X19210000Y-30805170I-2990000J462D01*
G01*
X24760000Y-32349538D02*
G75*
G02X19210000Y-33894830I-2990000J-462D01*
G01*
X24270000Y-32350000D02*
G75*
G03X24270000Y-32350000I-2500000J0D01*
G01*
X19210000Y-30805000D02*
X19210000Y-33895000D01*
X18800000Y-44650000D02*
X17800000Y-44650000D01*
X17800000Y-46350000D02*
X18800000Y-46350000D01*
X125370864Y-32032180D02*
G75*
G03X125370000Y-38067482I1179136J-3017820D01*
G01*
X127729136Y-32032180D02*
G75*
G02X127730000Y-38067482I-1179136J-3017820D01*
G01*
X127729136Y-32032180D02*
G75*
G03X125370000Y-32032518I-1179136J-3017820D01*
G01*
X123350000Y-35050000D02*
X129750000Y-35050000D01*
X123350000Y-35010000D02*
X129750000Y-35010000D01*
X123350000Y-34970000D02*
X129750000Y-34970000D01*
X123352000Y-34930000D02*
X129748000Y-34930000D01*
X123353000Y-34890000D02*
X129747000Y-34890000D01*
X123356000Y-34850000D02*
X129744000Y-34850000D01*
X123358000Y-34810000D02*
X129742000Y-34810000D01*
X123362000Y-34770000D02*
X125570000Y-34770000D01*
X127530000Y-34770000D02*
X129738000Y-34770000D01*
X123365000Y-34730000D02*
X125570000Y-34730000D01*
X127530000Y-34730000D02*
X129735000Y-34730000D01*
X123370000Y-34690000D02*
X125570000Y-34690000D01*
X127530000Y-34690000D02*
X129730000Y-34690000D01*
X123374000Y-34650000D02*
X125570000Y-34650000D01*
X127530000Y-34650000D02*
X129726000Y-34650000D01*
X123380000Y-34610000D02*
X125570000Y-34610000D01*
X127530000Y-34610000D02*
X129720000Y-34610000D01*
X123385000Y-34570000D02*
X125570000Y-34570000D01*
X127530000Y-34570000D02*
X129715000Y-34570000D01*
X123392000Y-34530000D02*
X125570000Y-34530000D01*
X127530000Y-34530000D02*
X129708000Y-34530000D01*
X123398000Y-34490000D02*
X125570000Y-34490000D01*
X127530000Y-34490000D02*
X129702000Y-34490000D01*
X123406000Y-34450000D02*
X125570000Y-34450000D01*
X127530000Y-34450000D02*
X129694000Y-34450000D01*
X123413000Y-34410000D02*
X125570000Y-34410000D01*
X127530000Y-34410000D02*
X129687000Y-34410000D01*
X123422000Y-34370000D02*
X125570000Y-34370000D01*
X127530000Y-34370000D02*
X129678000Y-34370000D01*
X123431000Y-34329000D02*
X125570000Y-34329000D01*
X127530000Y-34329000D02*
X129669000Y-34329000D01*
X123440000Y-34289000D02*
X125570000Y-34289000D01*
X127530000Y-34289000D02*
X129660000Y-34289000D01*
X123450000Y-34249000D02*
X125570000Y-34249000D01*
X127530000Y-34249000D02*
X129650000Y-34249000D01*
X123460000Y-34209000D02*
X125570000Y-34209000D01*
X127530000Y-34209000D02*
X129640000Y-34209000D01*
X123471000Y-34169000D02*
X125570000Y-34169000D01*
X127530000Y-34169000D02*
X129629000Y-34169000D01*
X123483000Y-34129000D02*
X125570000Y-34129000D01*
X127530000Y-34129000D02*
X129617000Y-34129000D01*
X123495000Y-34089000D02*
X125570000Y-34089000D01*
X127530000Y-34089000D02*
X129605000Y-34089000D01*
X123508000Y-34049000D02*
X125570000Y-34049000D01*
X127530000Y-34049000D02*
X129592000Y-34049000D01*
X123521000Y-34009000D02*
X125570000Y-34009000D01*
X127530000Y-34009000D02*
X129579000Y-34009000D01*
X123535000Y-33969000D02*
X125570000Y-33969000D01*
X127530000Y-33969000D02*
X129565000Y-33969000D01*
X123549000Y-33929000D02*
X125570000Y-33929000D01*
X127530000Y-33929000D02*
X129551000Y-33929000D01*
X123564000Y-33889000D02*
X125570000Y-33889000D01*
X127530000Y-33889000D02*
X129536000Y-33889000D01*
X123580000Y-33849000D02*
X125570000Y-33849000D01*
X127530000Y-33849000D02*
X129520000Y-33849000D01*
X123596000Y-33809000D02*
X125570000Y-33809000D01*
X127530000Y-33809000D02*
X129504000Y-33809000D01*
X123613000Y-33769000D02*
X125570000Y-33769000D01*
X127530000Y-33769000D02*
X129487000Y-33769000D01*
X123631000Y-33729000D02*
X125570000Y-33729000D01*
X127530000Y-33729000D02*
X129469000Y-33729000D01*
X123649000Y-33689000D02*
X125570000Y-33689000D01*
X127530000Y-33689000D02*
X129451000Y-33689000D01*
X123668000Y-33649000D02*
X125570000Y-33649000D01*
X127530000Y-33649000D02*
X129432000Y-33649000D01*
X123687000Y-33609000D02*
X125570000Y-33609000D01*
X127530000Y-33609000D02*
X129413000Y-33609000D01*
X123707000Y-33569000D02*
X125570000Y-33569000D01*
X127530000Y-33569000D02*
X129393000Y-33569000D01*
X123728000Y-33529000D02*
X125570000Y-33529000D01*
X127530000Y-33529000D02*
X129372000Y-33529000D01*
X123750000Y-33489000D02*
X125570000Y-33489000D01*
X127530000Y-33489000D02*
X129350000Y-33489000D01*
X123772000Y-33449000D02*
X125570000Y-33449000D01*
X127530000Y-33449000D02*
X129328000Y-33449000D01*
X123795000Y-33409000D02*
X125570000Y-33409000D01*
X127530000Y-33409000D02*
X129305000Y-33409000D01*
X123819000Y-33369000D02*
X125570000Y-33369000D01*
X127530000Y-33369000D02*
X129281000Y-33369000D01*
X123844000Y-33329000D02*
X125570000Y-33329000D01*
X127530000Y-33329000D02*
X129256000Y-33329000D01*
X123869000Y-33289000D02*
X125570000Y-33289000D01*
X127530000Y-33289000D02*
X129231000Y-33289000D01*
X123896000Y-33249000D02*
X125570000Y-33249000D01*
X127530000Y-33249000D02*
X129204000Y-33249000D01*
X123923000Y-33209000D02*
X125570000Y-33209000D01*
X127530000Y-33209000D02*
X129177000Y-33209000D01*
X123951000Y-33169000D02*
X125570000Y-33169000D01*
X127530000Y-33169000D02*
X129149000Y-33169000D01*
X123980000Y-33129000D02*
X125570000Y-33129000D01*
X127530000Y-33129000D02*
X129120000Y-33129000D01*
X124010000Y-33089000D02*
X125570000Y-33089000D01*
X127530000Y-33089000D02*
X129090000Y-33089000D01*
X124040000Y-33049000D02*
X125570000Y-33049000D01*
X127530000Y-33049000D02*
X129060000Y-33049000D01*
X124072000Y-33009000D02*
X125570000Y-33009000D01*
X127530000Y-33009000D02*
X129028000Y-33009000D01*
X124105000Y-32969000D02*
X125570000Y-32969000D01*
X127530000Y-32969000D02*
X128995000Y-32969000D01*
X124139000Y-32929000D02*
X125570000Y-32929000D01*
X127530000Y-32929000D02*
X128961000Y-32929000D01*
X124175000Y-32889000D02*
X125570000Y-32889000D01*
X127530000Y-32889000D02*
X128925000Y-32889000D01*
X124211000Y-32849000D02*
X125570000Y-32849000D01*
X127530000Y-32849000D02*
X128889000Y-32849000D01*
X124249000Y-32809000D02*
X128851000Y-32809000D01*
X124288000Y-32769000D02*
X128812000Y-32769000D01*
X124328000Y-32729000D02*
X128772000Y-32729000D01*
X124370000Y-32689000D02*
X128730000Y-32689000D01*
X124413000Y-32649000D02*
X128687000Y-32649000D01*
X124458000Y-32609000D02*
X128642000Y-32609000D01*
X124505000Y-32569000D02*
X128595000Y-32569000D01*
X124553000Y-32529000D02*
X128547000Y-32529000D01*
X124604000Y-32489000D02*
X128496000Y-32489000D01*
X124656000Y-32449000D02*
X128444000Y-32449000D01*
X124711000Y-32409000D02*
X128389000Y-32409000D01*
X124769000Y-32369000D02*
X128331000Y-32369000D01*
X124829000Y-32329000D02*
X128271000Y-32329000D01*
X124892000Y-32289000D02*
X128208000Y-32289000D01*
X124959000Y-32249000D02*
X128141000Y-32249000D01*
X125030000Y-32209000D02*
X128070000Y-32209000D01*
X125105000Y-32169000D02*
X127995000Y-32169000D01*
X125186000Y-32129000D02*
X127914000Y-32129000D01*
X125272000Y-32089000D02*
X127828000Y-32089000D01*
X125366000Y-32049000D02*
X127734000Y-32049000D01*
X125469000Y-32009000D02*
X127631000Y-32009000D01*
X125584000Y-31969000D02*
X127516000Y-31969000D01*
X125716000Y-31929000D02*
X127384000Y-31929000D01*
X125874000Y-31889000D02*
X127226000Y-31889000D01*
X126082000Y-31849000D02*
X127018000Y-31849000D01*
X126550000Y-38500000D02*
X126550000Y-37300000D01*
X125900000Y-37900000D02*
X127200000Y-37900000D01*
X64160000Y-51960000D02*
X59740000Y-51960000D01*
X64160000Y-49940000D02*
X59740000Y-49940000D01*
X64160000Y-51960000D02*
X64160000Y-51946000D01*
X64160000Y-49954000D02*
X64160000Y-49940000D01*
X59740000Y-51960000D02*
X59740000Y-51946000D01*
X59740000Y-49954000D02*
X59740000Y-49940000D01*
X139090000Y-80490000D02*
X143510000Y-80490000D01*
X139090000Y-82510000D02*
X143510000Y-82510000D01*
X139090000Y-80490000D02*
X139090000Y-80504000D01*
X139090000Y-82496000D02*
X139090000Y-82510000D01*
X143510000Y-80490000D02*
X143510000Y-80504000D01*
X143510000Y-82496000D02*
X143510000Y-82510000D01*
X20160000Y-80240000D02*
X20160000Y-84660000D01*
X18140000Y-80240000D02*
X18140000Y-84660000D01*
X20160000Y-80240000D02*
X20146000Y-80240000D01*
X18154000Y-80240000D02*
X18140000Y-80240000D01*
X20160000Y-84660000D02*
X20146000Y-84660000D01*
X18154000Y-84660000D02*
X18140000Y-84660000D01*
X127460000Y-135360000D02*
X123040000Y-135360000D01*
X127460000Y-133340000D02*
X123040000Y-133340000D01*
X127460000Y-135360000D02*
X127460000Y-135346000D01*
X127460000Y-133354000D02*
X127460000Y-133340000D01*
X123040000Y-135360000D02*
X123040000Y-135346000D01*
X123040000Y-133354000D02*
X123040000Y-133340000D01*
X118310000Y-136260000D02*
X113890000Y-136260000D01*
X118310000Y-134240000D02*
X113890000Y-134240000D01*
X118310000Y-136260000D02*
X118310000Y-136246000D01*
X118310000Y-134254000D02*
X118310000Y-134240000D01*
X113890000Y-136260000D02*
X113890000Y-136246000D01*
X113890000Y-134254000D02*
X113890000Y-134240000D01*
X77310000Y-145310000D02*
X72890000Y-145310000D01*
X77310000Y-143290000D02*
X72890000Y-143290000D01*
X77310000Y-145310000D02*
X77310000Y-145296000D01*
X77310000Y-143304000D02*
X77310000Y-143290000D01*
X72890000Y-145310000D02*
X72890000Y-145296000D01*
X72890000Y-143304000D02*
X72890000Y-143290000D01*
X47310000Y-150960000D02*
X42890000Y-150960000D01*
X47310000Y-148940000D02*
X42890000Y-148940000D01*
X47310000Y-150960000D02*
X47310000Y-150946000D01*
X47310000Y-148954000D02*
X47310000Y-148940000D01*
X42890000Y-150960000D02*
X42890000Y-150946000D01*
X42890000Y-148954000D02*
X42890000Y-148940000D01*
X129110000Y-147490000D02*
X129110000Y-151910000D01*
X127090000Y-147490000D02*
X127090000Y-151910000D01*
X129110000Y-147490000D02*
X129096000Y-147490000D01*
X127104000Y-147490000D02*
X127090000Y-147490000D01*
X129110000Y-151910000D02*
X129096000Y-151910000D01*
X127104000Y-151910000D02*
X127090000Y-151910000D01*
X85140000Y-152210000D02*
X85140000Y-147790000D01*
X87160000Y-152210000D02*
X87160000Y-147790000D01*
X85140000Y-152210000D02*
X85154000Y-152210000D01*
X87146000Y-152210000D02*
X87160000Y-152210000D01*
X85140000Y-147790000D02*
X85154000Y-147790000D01*
X87146000Y-147790000D02*
X87160000Y-147790000D01*
X88779723Y-166505722D02*
G75*
G03X88780000Y-161894420I-1179723J2305722D01*
G01*
X86420277Y-166505722D02*
G75*
G02X86420000Y-161894420I1179723J2305722D01*
G01*
X86420277Y-166505722D02*
G75*
G03X88780000Y-166505580I1179723J2305722D01*
G01*
X90150000Y-164200000D02*
X85050000Y-164200000D01*
X90150000Y-164240000D02*
X85050000Y-164240000D01*
X90149000Y-164280000D02*
X85051000Y-164280000D01*
X90148000Y-164320000D02*
X85052000Y-164320000D01*
X90146000Y-164360000D02*
X85054000Y-164360000D01*
X90143000Y-164400000D02*
X85057000Y-164400000D01*
X90139000Y-164440000D02*
X85061000Y-164440000D01*
X90135000Y-164480000D02*
X88580000Y-164480000D01*
X86620000Y-164480000D02*
X85065000Y-164480000D01*
X90131000Y-164520000D02*
X88580000Y-164520000D01*
X86620000Y-164520000D02*
X85069000Y-164520000D01*
X90125000Y-164560000D02*
X88580000Y-164560000D01*
X86620000Y-164560000D02*
X85075000Y-164560000D01*
X90119000Y-164600000D02*
X88580000Y-164600000D01*
X86620000Y-164600000D02*
X85081000Y-164600000D01*
X90113000Y-164640000D02*
X88580000Y-164640000D01*
X86620000Y-164640000D02*
X85087000Y-164640000D01*
X90106000Y-164680000D02*
X88580000Y-164680000D01*
X86620000Y-164680000D02*
X85094000Y-164680000D01*
X90098000Y-164720000D02*
X88580000Y-164720000D01*
X86620000Y-164720000D02*
X85102000Y-164720000D01*
X90089000Y-164760000D02*
X88580000Y-164760000D01*
X86620000Y-164760000D02*
X85111000Y-164760000D01*
X90080000Y-164800000D02*
X88580000Y-164800000D01*
X86620000Y-164800000D02*
X85120000Y-164800000D01*
X90070000Y-164840000D02*
X88580000Y-164840000D01*
X86620000Y-164840000D02*
X85130000Y-164840000D01*
X90060000Y-164880000D02*
X88580000Y-164880000D01*
X86620000Y-164880000D02*
X85140000Y-164880000D01*
X90048000Y-164921000D02*
X88580000Y-164921000D01*
X86620000Y-164921000D02*
X85152000Y-164921000D01*
X90036000Y-164961000D02*
X88580000Y-164961000D01*
X86620000Y-164961000D02*
X85164000Y-164961000D01*
X90024000Y-165001000D02*
X88580000Y-165001000D01*
X86620000Y-165001000D02*
X85176000Y-165001000D01*
X90010000Y-165041000D02*
X88580000Y-165041000D01*
X86620000Y-165041000D02*
X85190000Y-165041000D01*
X89996000Y-165081000D02*
X88580000Y-165081000D01*
X86620000Y-165081000D02*
X85204000Y-165081000D01*
X89982000Y-165121000D02*
X88580000Y-165121000D01*
X86620000Y-165121000D02*
X85218000Y-165121000D01*
X89966000Y-165161000D02*
X88580000Y-165161000D01*
X86620000Y-165161000D02*
X85234000Y-165161000D01*
X89950000Y-165201000D02*
X88580000Y-165201000D01*
X86620000Y-165201000D02*
X85250000Y-165201000D01*
X89933000Y-165241000D02*
X88580000Y-165241000D01*
X86620000Y-165241000D02*
X85267000Y-165241000D01*
X89915000Y-165281000D02*
X88580000Y-165281000D01*
X86620000Y-165281000D02*
X85285000Y-165281000D01*
X89896000Y-165321000D02*
X88580000Y-165321000D01*
X86620000Y-165321000D02*
X85304000Y-165321000D01*
X89876000Y-165361000D02*
X88580000Y-165361000D01*
X86620000Y-165361000D02*
X85324000Y-165361000D01*
X89856000Y-165401000D02*
X88580000Y-165401000D01*
X86620000Y-165401000D02*
X85344000Y-165401000D01*
X89834000Y-165441000D02*
X88580000Y-165441000D01*
X86620000Y-165441000D02*
X85366000Y-165441000D01*
X89812000Y-165481000D02*
X88580000Y-165481000D01*
X86620000Y-165481000D02*
X85388000Y-165481000D01*
X89789000Y-165521000D02*
X88580000Y-165521000D01*
X86620000Y-165521000D02*
X85411000Y-165521000D01*
X89765000Y-165561000D02*
X88580000Y-165561000D01*
X86620000Y-165561000D02*
X85435000Y-165561000D01*
X89740000Y-165601000D02*
X88580000Y-165601000D01*
X86620000Y-165601000D02*
X85460000Y-165601000D01*
X89713000Y-165641000D02*
X88580000Y-165641000D01*
X86620000Y-165641000D02*
X85487000Y-165641000D01*
X89686000Y-165681000D02*
X88580000Y-165681000D01*
X86620000Y-165681000D02*
X85514000Y-165681000D01*
X89658000Y-165721000D02*
X88580000Y-165721000D01*
X86620000Y-165721000D02*
X85542000Y-165721000D01*
X89628000Y-165761000D02*
X88580000Y-165761000D01*
X86620000Y-165761000D02*
X85572000Y-165761000D01*
X89597000Y-165801000D02*
X88580000Y-165801000D01*
X86620000Y-165801000D02*
X85603000Y-165801000D01*
X89565000Y-165841000D02*
X88580000Y-165841000D01*
X86620000Y-165841000D02*
X85635000Y-165841000D01*
X89532000Y-165881000D02*
X88580000Y-165881000D01*
X86620000Y-165881000D02*
X85668000Y-165881000D01*
X89497000Y-165921000D02*
X88580000Y-165921000D01*
X86620000Y-165921000D02*
X85703000Y-165921000D01*
X89461000Y-165961000D02*
X88580000Y-165961000D01*
X86620000Y-165961000D02*
X85739000Y-165961000D01*
X89423000Y-166001000D02*
X88580000Y-166001000D01*
X86620000Y-166001000D02*
X85777000Y-166001000D01*
X89383000Y-166041000D02*
X88580000Y-166041000D01*
X86620000Y-166041000D02*
X85817000Y-166041000D01*
X89342000Y-166081000D02*
X88580000Y-166081000D01*
X86620000Y-166081000D02*
X85858000Y-166081000D01*
X89299000Y-166121000D02*
X88580000Y-166121000D01*
X86620000Y-166121000D02*
X85901000Y-166121000D01*
X89254000Y-166161000D02*
X88580000Y-166161000D01*
X86620000Y-166161000D02*
X85946000Y-166161000D01*
X89206000Y-166201000D02*
X88580000Y-166201000D01*
X86620000Y-166201000D02*
X85994000Y-166201000D01*
X89156000Y-166241000D02*
X88580000Y-166241000D01*
X86620000Y-166241000D02*
X86044000Y-166241000D01*
X89104000Y-166281000D02*
X88580000Y-166281000D01*
X86620000Y-166281000D02*
X86096000Y-166281000D01*
X89048000Y-166321000D02*
X88580000Y-166321000D01*
X86620000Y-166321000D02*
X86152000Y-166321000D01*
X88990000Y-166361000D02*
X88580000Y-166361000D01*
X86620000Y-166361000D02*
X86210000Y-166361000D01*
X88927000Y-166401000D02*
X88580000Y-166401000D01*
X86620000Y-166401000D02*
X86273000Y-166401000D01*
X88861000Y-166441000D02*
X86339000Y-166441000D01*
X88789000Y-166481000D02*
X86411000Y-166481000D01*
X88712000Y-166521000D02*
X86488000Y-166521000D01*
X88628000Y-166561000D02*
X86572000Y-166561000D01*
X88534000Y-166601000D02*
X86666000Y-166601000D01*
X88429000Y-166641000D02*
X86771000Y-166641000D01*
X88307000Y-166681000D02*
X86893000Y-166681000D01*
X88159000Y-166721000D02*
X87041000Y-166721000D01*
X87954000Y-166761000D02*
X87246000Y-166761000D01*
X87600000Y-160750000D02*
X87600000Y-161950000D01*
X88250000Y-161350000D02*
X86950000Y-161350000D01*
X86140000Y-159860000D02*
X86140000Y-155440000D01*
X88160000Y-159860000D02*
X88160000Y-155440000D01*
X86140000Y-159860000D02*
X86154000Y-159860000D01*
X88146000Y-159860000D02*
X88160000Y-159860000D01*
X86140000Y-155440000D02*
X86154000Y-155440000D01*
X88146000Y-155440000D02*
X88160000Y-155440000D01*
X70540000Y-151760000D02*
X70540000Y-147340000D01*
X72560000Y-151760000D02*
X72560000Y-147340000D01*
X70540000Y-151760000D02*
X70554000Y-151760000D01*
X72546000Y-151760000D02*
X72560000Y-151760000D01*
X70540000Y-147340000D02*
X70554000Y-147340000D01*
X72546000Y-147340000D02*
X72560000Y-147340000D01*
X69860000Y-147340000D02*
X69860000Y-151760000D01*
X67840000Y-147340000D02*
X67840000Y-151760000D01*
X69860000Y-147340000D02*
X69846000Y-147340000D01*
X67854000Y-147340000D02*
X67840000Y-147340000D01*
X69860000Y-151760000D02*
X69846000Y-151760000D01*
X67854000Y-151760000D02*
X67840000Y-151760000D01*
X22450000Y-46350000D02*
X23450000Y-46350000D01*
X23450000Y-44650000D02*
X22450000Y-44650000D01*
X34010000Y-48960000D02*
X29590000Y-48960000D01*
X34010000Y-46940000D02*
X29590000Y-46940000D01*
X34010000Y-48960000D02*
X34010000Y-48946000D01*
X34010000Y-46954000D02*
X34010000Y-46940000D01*
X29590000Y-48960000D02*
X29590000Y-48946000D01*
X29590000Y-46954000D02*
X29590000Y-46940000D01*
D11*
X137160000Y-124865000D02*
X141605000Y-124865000D01*
X140970000Y-129945000D02*
X142240000Y-124865000D01*
X135255000Y-129945000D02*
X136525000Y-124865000D01*
X134620000Y-136295000D02*
X139065000Y-136295000D01*
X135255000Y-131215000D02*
X133985000Y-136295000D01*
X140970000Y-131215000D02*
X139700000Y-136295000D01*
X153035000Y-135660000D02*
G75*
G03X153035000Y-135660000I-635000J0D01*
G01*
X147320000Y-124865000D02*
X151765000Y-124865000D01*
X144780000Y-136295000D02*
X149225000Y-136295000D01*
X151130000Y-131215000D02*
X149860000Y-136295000D01*
X144145000Y-136295000D02*
X145415000Y-131215000D01*
X151130000Y-129945000D02*
X152400000Y-124865000D01*
X145415000Y-129945000D02*
X146685000Y-124865000D01*
X146050000Y-130580000D02*
X150495000Y-130580000D01*
X143510000Y-121055000D02*
X156210000Y-121055000D01*
X156210000Y-121055000D02*
X156210000Y-140105000D01*
X156210000Y-140105000D02*
X143510000Y-140105000D01*
X136144000Y-130580000D02*
X140208000Y-130580000D01*
X142875000Y-135660000D02*
G75*
G03X142875000Y-135660000I-635000J0D01*
G01*
X132080000Y-121055000D02*
X130810000Y-121055000D01*
X130810000Y-121055000D02*
X130810000Y-140105000D01*
X130810000Y-140105000D02*
X132080000Y-140105000D01*
X142240000Y-140105000D02*
X143510000Y-140105000D01*
X143510000Y-121055000D02*
X142240000Y-121055000D01*
X132080000Y-140105000D02*
X142240000Y-140105000D01*
X142240000Y-121055000D02*
X132080000Y-121055000D01*
X136017000Y-130580000D02*
X140335000Y-130580000D01*
D12*
X71380000Y-111240000D02*
X71380000Y-106820000D01*
X73400000Y-111240000D02*
X73400000Y-106820000D01*
X71380000Y-111240000D02*
X71394000Y-111240000D01*
X73386000Y-111240000D02*
X73400000Y-111240000D01*
X71380000Y-106820000D02*
X71394000Y-106820000D01*
X73386000Y-106820000D02*
X73400000Y-106820000D01*
X46160000Y-53110000D02*
X41740000Y-53110000D01*
X46160000Y-51090000D02*
X41740000Y-51090000D01*
X46160000Y-53110000D02*
X46160000Y-53096000D01*
X46160000Y-51104000D02*
X46160000Y-51090000D01*
X41740000Y-53110000D02*
X41740000Y-53096000D01*
X41740000Y-51104000D02*
X41740000Y-51090000D01*
X34000000Y-92220000D02*
X29580000Y-92220000D01*
X34000000Y-90200000D02*
X29580000Y-90200000D01*
X34000000Y-92220000D02*
X34000000Y-92206000D01*
X34000000Y-90214000D02*
X34000000Y-90200000D01*
X29580000Y-92220000D02*
X29580000Y-92206000D01*
X29580000Y-90214000D02*
X29580000Y-90200000D01*
X30060000Y-143510000D02*
X25640000Y-143510000D01*
X30060000Y-141490000D02*
X25640000Y-141490000D01*
X30060000Y-143510000D02*
X30060000Y-143496000D01*
X30060000Y-141504000D02*
X30060000Y-141490000D01*
X25640000Y-143510000D02*
X25640000Y-143496000D01*
X25640000Y-141504000D02*
X25640000Y-141490000D01*
X59400000Y-92220000D02*
X54980000Y-92220000D01*
X59400000Y-90200000D02*
X54980000Y-90200000D01*
X59400000Y-92220000D02*
X59400000Y-92206000D01*
X59400000Y-90214000D02*
X59400000Y-90200000D01*
X54980000Y-92220000D02*
X54980000Y-92206000D01*
X54980000Y-90214000D02*
X54980000Y-90200000D01*
X103460000Y-156810000D02*
X99040000Y-156810000D01*
X103460000Y-154790000D02*
X99040000Y-154790000D01*
X103460000Y-156810000D02*
X103460000Y-156796000D01*
X103460000Y-154804000D02*
X103460000Y-154790000D01*
X99040000Y-156810000D02*
X99040000Y-156796000D01*
X99040000Y-154804000D02*
X99040000Y-154790000D01*
X19360000Y-167440000D02*
X19360000Y-171860000D01*
X17340000Y-167440000D02*
X17340000Y-171860000D01*
X19360000Y-167440000D02*
X19346000Y-167440000D01*
X17354000Y-167440000D02*
X17340000Y-167440000D01*
X19360000Y-171860000D02*
X19346000Y-171860000D01*
X17354000Y-171860000D02*
X17340000Y-171860000D01*
X103610000Y-167390000D02*
X103610000Y-171810000D01*
X101590000Y-167390000D02*
X101590000Y-171810000D01*
X103610000Y-167390000D02*
X103596000Y-167390000D01*
X101604000Y-167390000D02*
X101590000Y-167390000D01*
X103610000Y-171810000D02*
X103596000Y-171810000D01*
X101604000Y-171810000D02*
X101590000Y-171810000D01*
X139410000Y-106190000D02*
X134990000Y-106190000D01*
X139410000Y-104170000D02*
X134990000Y-104170000D01*
X139410000Y-106190000D02*
X139410000Y-106176000D01*
X139410000Y-104184000D02*
X139410000Y-104170000D01*
X134990000Y-106190000D02*
X134990000Y-106176000D01*
X134990000Y-104184000D02*
X134990000Y-104170000D01*
X153380000Y-106190000D02*
X148960000Y-106190000D01*
X153380000Y-104170000D02*
X148960000Y-104170000D01*
X153380000Y-106190000D02*
X153380000Y-106176000D01*
X153380000Y-104184000D02*
X153380000Y-104170000D01*
X148960000Y-106190000D02*
X148960000Y-106176000D01*
X148960000Y-104184000D02*
X148960000Y-104170000D01*
X70140000Y-47274000D02*
X74560000Y-47274000D01*
X70140000Y-49294000D02*
X74560000Y-49294000D01*
X70140000Y-47274000D02*
X70140000Y-47288000D01*
X70140000Y-49280000D02*
X70140000Y-49294000D01*
X74560000Y-47274000D02*
X74560000Y-47288000D01*
X74560000Y-49280000D02*
X74560000Y-49294000D01*
X100378800Y-47274000D02*
X104798800Y-47274000D01*
X100378800Y-49294000D02*
X104798800Y-49294000D01*
X100378800Y-47274000D02*
X100378800Y-47288000D01*
X100378800Y-49280000D02*
X100378800Y-49294000D01*
X104798800Y-47274000D02*
X104798800Y-47288000D01*
X104798800Y-49280000D02*
X104798800Y-49294000D01*
X77760000Y-47274000D02*
X82180000Y-47274000D01*
X77760000Y-49294000D02*
X82180000Y-49294000D01*
X77760000Y-47274000D02*
X77760000Y-47288000D01*
X77760000Y-49280000D02*
X77760000Y-49294000D01*
X82180000Y-47274000D02*
X82180000Y-47288000D01*
X82180000Y-49280000D02*
X82180000Y-49294000D01*
X107998800Y-47274000D02*
X112418800Y-47274000D01*
X107998800Y-49294000D02*
X112418800Y-49294000D01*
X107998800Y-47274000D02*
X107998800Y-47288000D01*
X107998800Y-49280000D02*
X107998800Y-49294000D01*
X112418800Y-47274000D02*
X112418800Y-47288000D01*
X112418800Y-49280000D02*
X112418800Y-49294000D01*
X67050000Y-38414000D02*
X67050000Y-42834000D01*
X65030000Y-38414000D02*
X65030000Y-42834000D01*
X67050000Y-38414000D02*
X67036000Y-38414000D01*
X65044000Y-38414000D02*
X65030000Y-38414000D01*
X67050000Y-42834000D02*
X67036000Y-42834000D01*
X65044000Y-42834000D02*
X65030000Y-42834000D01*
X85380000Y-47274000D02*
X89800000Y-47274000D01*
X85380000Y-49294000D02*
X89800000Y-49294000D01*
X85380000Y-47274000D02*
X85380000Y-47288000D01*
X85380000Y-49280000D02*
X85380000Y-49294000D01*
X89800000Y-47274000D02*
X89800000Y-47288000D01*
X89800000Y-49280000D02*
X89800000Y-49294000D01*
X97288800Y-38414000D02*
X97288800Y-42834000D01*
X95268800Y-38414000D02*
X95268800Y-42834000D01*
X97288800Y-38414000D02*
X97274800Y-38414000D01*
X95282800Y-38414000D02*
X95268800Y-38414000D01*
X97288800Y-42834000D02*
X97274800Y-42834000D01*
X95282800Y-42834000D02*
X95268800Y-42834000D01*
X115618800Y-47274000D02*
X120038800Y-47274000D01*
X115618800Y-49294000D02*
X120038800Y-49294000D01*
X115618800Y-47274000D02*
X115618800Y-47288000D01*
X115618800Y-49280000D02*
X115618800Y-49294000D01*
X120038800Y-47274000D02*
X120038800Y-47288000D01*
X120038800Y-49280000D02*
X120038800Y-49294000D01*
X157310000Y-85790000D02*
X157310000Y-90210000D01*
X155290000Y-85790000D02*
X155290000Y-90210000D01*
X157310000Y-85790000D02*
X157296000Y-85790000D01*
X155304000Y-85790000D02*
X155290000Y-85790000D01*
X157310000Y-90210000D02*
X157296000Y-90210000D01*
X155304000Y-90210000D02*
X155290000Y-90210000D01*
X71380000Y-62980000D02*
X71380000Y-58560000D01*
X73400000Y-62980000D02*
X73400000Y-58560000D01*
X71380000Y-62980000D02*
X71394000Y-62980000D01*
X73386000Y-62980000D02*
X73400000Y-62980000D01*
X71380000Y-58560000D02*
X71394000Y-58560000D01*
X73386000Y-58560000D02*
X73400000Y-58560000D01*
X68870000Y-32034000D02*
X73290000Y-32034000D01*
X68870000Y-34054000D02*
X73290000Y-34054000D01*
X68870000Y-32034000D02*
X68870000Y-32048000D01*
X68870000Y-34040000D02*
X68870000Y-34054000D01*
X73290000Y-32034000D02*
X73290000Y-32048000D01*
X73290000Y-34040000D02*
X73290000Y-34054000D01*
X99108800Y-32034000D02*
X103528800Y-32034000D01*
X99108800Y-34054000D02*
X103528800Y-34054000D01*
X99108800Y-32034000D02*
X99108800Y-32048000D01*
X99108800Y-34040000D02*
X99108800Y-34054000D01*
X103528800Y-32034000D02*
X103528800Y-32048000D01*
X103528800Y-34040000D02*
X103528800Y-34054000D01*
X130550000Y-82690000D02*
X130550000Y-87110000D01*
X128530000Y-82690000D02*
X128530000Y-87110000D01*
X130550000Y-82690000D02*
X130536000Y-82690000D01*
X128544000Y-82690000D02*
X128530000Y-82690000D01*
X130550000Y-87110000D02*
X130536000Y-87110000D01*
X128544000Y-87110000D02*
X128530000Y-87110000D01*
X67020000Y-88105200D02*
X62600000Y-88105200D01*
X67020000Y-86085200D02*
X62600000Y-86085200D01*
X67020000Y-88105200D02*
X67020000Y-88091200D01*
X67020000Y-86099200D02*
X67020000Y-86085200D01*
X62600000Y-88105200D02*
X62600000Y-88091200D01*
X62600000Y-86099200D02*
X62600000Y-86085200D01*
X44460000Y-59910000D02*
X40040000Y-59910000D01*
X44460000Y-57890000D02*
X40040000Y-57890000D01*
X44460000Y-59910000D02*
X44460000Y-59896000D01*
X44460000Y-57904000D02*
X44460000Y-57890000D01*
X40040000Y-59910000D02*
X40040000Y-59896000D01*
X40040000Y-57904000D02*
X40040000Y-57890000D01*
X57710000Y-41610000D02*
X53290000Y-41610000D01*
X57710000Y-39590000D02*
X53290000Y-39590000D01*
X57710000Y-41610000D02*
X57710000Y-41596000D01*
X57710000Y-39604000D02*
X57710000Y-39590000D01*
X53290000Y-41610000D02*
X53290000Y-41596000D01*
X53290000Y-39604000D02*
X53290000Y-39590000D01*
X57710000Y-33210000D02*
X53290000Y-33210000D01*
X57710000Y-31190000D02*
X53290000Y-31190000D01*
X57710000Y-33210000D02*
X57710000Y-33196000D01*
X57710000Y-31204000D02*
X57710000Y-31190000D01*
X53290000Y-33210000D02*
X53290000Y-33196000D01*
X53290000Y-31204000D02*
X53290000Y-31190000D01*
X74870000Y-122900000D02*
X74870000Y-128100000D01*
X123190000Y-122900000D02*
X74870000Y-122900000D01*
X125790000Y-128100000D02*
X74870000Y-128100000D01*
X123190000Y-122900000D02*
X123190000Y-125500000D01*
X123190000Y-125500000D02*
X125790000Y-125500000D01*
X125790000Y-125500000D02*
X125790000Y-128100000D01*
X124460000Y-122900000D02*
X125790000Y-122900000D01*
X125790000Y-122900000D02*
X125790000Y-124230000D01*
X137570000Y-118470000D02*
X137570000Y-114750000D01*
X139290000Y-118470000D02*
X139290000Y-114750000D01*
X140110000Y-118470000D02*
X140110000Y-114750000D01*
X141830000Y-118470000D02*
X141830000Y-114750000D01*
X139290000Y-142690000D02*
X139290000Y-146410000D01*
X137570000Y-142690000D02*
X137570000Y-146410000D01*
X136750000Y-142690000D02*
X136750000Y-146410000D01*
X135030000Y-142690000D02*
X135030000Y-146410000D01*
X134210000Y-142690000D02*
X134210000Y-146410000D01*
X132490000Y-142690000D02*
X132490000Y-146410000D01*
X132490000Y-118470000D02*
X132490000Y-114750000D01*
X134210000Y-118470000D02*
X134210000Y-114750000D01*
X135030000Y-118470000D02*
X135030000Y-114750000D01*
X136750000Y-118470000D02*
X136750000Y-114750000D01*
X141830000Y-142690000D02*
X141830000Y-146410000D01*
X140110000Y-142690000D02*
X140110000Y-146410000D01*
X150270000Y-118470000D02*
X150270000Y-114750000D01*
X151990000Y-118470000D02*
X151990000Y-114750000D01*
X152810000Y-118470000D02*
X152810000Y-114750000D01*
X154530000Y-118470000D02*
X154530000Y-114750000D01*
X151990000Y-142690000D02*
X151990000Y-146410000D01*
X150270000Y-142690000D02*
X150270000Y-146410000D01*
X146910000Y-142690000D02*
X146910000Y-146410000D01*
X145190000Y-142690000D02*
X145190000Y-146410000D01*
X144370000Y-142690000D02*
X144370000Y-146410000D01*
X142650000Y-142690000D02*
X142650000Y-146410000D01*
X147730000Y-118470000D02*
X147730000Y-114750000D01*
X149450000Y-118470000D02*
X149450000Y-114750000D01*
X149450000Y-142690000D02*
X149450000Y-146410000D01*
X147730000Y-142690000D02*
X147730000Y-146410000D01*
X154530000Y-142690000D02*
X154530000Y-146410000D01*
X152810000Y-142690000D02*
X152810000Y-146410000D01*
X41380000Y-60750000D02*
X31530000Y-60750000D01*
X31530000Y-60750000D02*
X30530000Y-61750000D01*
X30530000Y-61750000D02*
X30530000Y-84450000D01*
X30530000Y-84450000D02*
X54230000Y-84450000D01*
X54230000Y-84450000D02*
X54230000Y-60750000D01*
X54230000Y-60750000D02*
X43380000Y-60750000D01*
X28760000Y-49960000D02*
X16610000Y-49960000D01*
X29510000Y-62110000D02*
X29510000Y-50710000D01*
X17360000Y-62860000D02*
X28760000Y-62860000D01*
X16610000Y-49960000D02*
X16610000Y-62110000D01*
X16610000Y-62110000D02*
G75*
G03X17360000Y-62860000I750000J0D01*
G01*
X28760000Y-62860000D02*
G75*
G03X29510000Y-62110000I0J750000D01*
G01*
X29510000Y-50710000D02*
G75*
G03X28760000Y-49960000I-750000J0D01*
G01*
D11*
X96090000Y-31362400D02*
X63130000Y-31362400D01*
X63130000Y-31362400D02*
X63130000Y-22862400D01*
X96090000Y-31362400D02*
X96090000Y-22862400D01*
X129473600Y-31362400D02*
X96513600Y-31362400D01*
X96513600Y-31362400D02*
X96513600Y-22862400D01*
X129473600Y-31362400D02*
X129473600Y-22862400D01*
X60900000Y-167600000D02*
X93860000Y-167600000D01*
X93860000Y-167600000D02*
X93860000Y-176100000D01*
X60900000Y-167600000D02*
X60900000Y-176100000D01*
X27365200Y-167600000D02*
X60325200Y-167600000D01*
X60325200Y-167600000D02*
X60325200Y-176100000D01*
X27365200Y-167600000D02*
X27365200Y-176100000D01*
D12*
X58930000Y-14612400D02*
X58930000Y-28312400D01*
X44130000Y-14612400D02*
X44130000Y-28312400D01*
X44130000Y-14612400D02*
X58930000Y-14612400D01*
X44130000Y-28312400D02*
X58930000Y-28312400D01*
D11*
X149366666Y-21702380D02*
X149366666Y-22416666D01*
X149319047Y-22559523D01*
X149223809Y-22654761D01*
X149080952Y-22702380D01*
X148985714Y-22702380D01*
X149985714Y-22130952D02*
X149890476Y-22083333D01*
X149842857Y-22035714D01*
X149795238Y-21940476D01*
X149795238Y-21892857D01*
X149842857Y-21797619D01*
X149890476Y-21750000D01*
X149985714Y-21702380D01*
X150176190Y-21702380D01*
X150271428Y-21750000D01*
X150319047Y-21797619D01*
X150366666Y-21892857D01*
X150366666Y-21940476D01*
X150319047Y-22035714D01*
X150271428Y-22083333D01*
X150176190Y-22130952D01*
X149985714Y-22130952D01*
X149890476Y-22178571D01*
X149842857Y-22226190D01*
X149795238Y-22321428D01*
X149795238Y-22511904D01*
X149842857Y-22607142D01*
X149890476Y-22654761D01*
X149985714Y-22702380D01*
X150176190Y-22702380D01*
X150271428Y-22654761D01*
X150319047Y-22607142D01*
X150366666Y-22511904D01*
X150366666Y-22321428D01*
X150319047Y-22226190D01*
X150271428Y-22178571D01*
X150176190Y-22130952D01*
X22290476Y-63802380D02*
X22957142Y-64802380D01*
X22957142Y-63802380D02*
X22290476Y-64802380D01*
X23861904Y-64802380D02*
X23290476Y-64802380D01*
X23576190Y-64802380D02*
X23576190Y-63802380D01*
X23480952Y-63945238D01*
X23385714Y-64040476D01*
X23290476Y-64088095D01*
X60511904Y-59752380D02*
X60511904Y-60561904D01*
X60559523Y-60657142D01*
X60607142Y-60704761D01*
X60702380Y-60752380D01*
X60892857Y-60752380D01*
X60988095Y-60704761D01*
X61035714Y-60657142D01*
X61083333Y-60561904D01*
X61083333Y-59752380D01*
X61464285Y-59752380D02*
X62083333Y-59752380D01*
X61750000Y-60133333D01*
X61892857Y-60133333D01*
X61988095Y-60180952D01*
X62035714Y-60228571D01*
X62083333Y-60323809D01*
X62083333Y-60561904D01*
X62035714Y-60657142D01*
X61988095Y-60704761D01*
X61892857Y-60752380D01*
X61607142Y-60752380D01*
X61511904Y-60704761D01*
X61464285Y-60657142D01*
X62702380Y-59752380D02*
X62797619Y-59752380D01*
X62892857Y-59800000D01*
X62940476Y-59847619D01*
X62988095Y-59942857D01*
X63035714Y-60133333D01*
X63035714Y-60371428D01*
X62988095Y-60561904D01*
X62940476Y-60657142D01*
X62892857Y-60704761D01*
X62797619Y-60752380D01*
X62702380Y-60752380D01*
X62607142Y-60704761D01*
X62559523Y-60657142D01*
X62511904Y-60561904D01*
X62464285Y-60371428D01*
X62464285Y-60133333D01*
X62511904Y-59942857D01*
X62559523Y-59847619D01*
X62607142Y-59800000D01*
X62702380Y-59752380D01*
X147011904Y-80252380D02*
X147011904Y-81061904D01*
X147059523Y-81157142D01*
X147107142Y-81204761D01*
X147202380Y-81252380D01*
X147392857Y-81252380D01*
X147488095Y-81204761D01*
X147535714Y-81157142D01*
X147583333Y-81061904D01*
X147583333Y-80252380D01*
X148011904Y-80347619D02*
X148059523Y-80300000D01*
X148154761Y-80252380D01*
X148392857Y-80252380D01*
X148488095Y-80300000D01*
X148535714Y-80347619D01*
X148583333Y-80442857D01*
X148583333Y-80538095D01*
X148535714Y-80680952D01*
X147964285Y-81252380D01*
X148583333Y-81252380D01*
X149059523Y-81252380D02*
X149250000Y-81252380D01*
X149345238Y-81204761D01*
X149392857Y-81157142D01*
X149488095Y-81014285D01*
X149535714Y-80823809D01*
X149535714Y-80442857D01*
X149488095Y-80347619D01*
X149440476Y-80300000D01*
X149345238Y-80252380D01*
X149154761Y-80252380D01*
X149059523Y-80300000D01*
X149011904Y-80347619D01*
X148964285Y-80442857D01*
X148964285Y-80680952D01*
X149011904Y-80776190D01*
X149059523Y-80823809D01*
X149154761Y-80871428D01*
X149345238Y-80871428D01*
X149440476Y-80823809D01*
X149488095Y-80776190D01*
X149535714Y-80680952D01*
X23361904Y-78452380D02*
X23361904Y-79261904D01*
X23409523Y-79357142D01*
X23457142Y-79404761D01*
X23552380Y-79452380D01*
X23742857Y-79452380D01*
X23838095Y-79404761D01*
X23885714Y-79357142D01*
X23933333Y-79261904D01*
X23933333Y-78452380D01*
X24361904Y-78547619D02*
X24409523Y-78500000D01*
X24504761Y-78452380D01*
X24742857Y-78452380D01*
X24838095Y-78500000D01*
X24885714Y-78547619D01*
X24933333Y-78642857D01*
X24933333Y-78738095D01*
X24885714Y-78880952D01*
X24314285Y-79452380D01*
X24933333Y-79452380D01*
X25504761Y-78880952D02*
X25409523Y-78833333D01*
X25361904Y-78785714D01*
X25314285Y-78690476D01*
X25314285Y-78642857D01*
X25361904Y-78547619D01*
X25409523Y-78500000D01*
X25504761Y-78452380D01*
X25695238Y-78452380D01*
X25790476Y-78500000D01*
X25838095Y-78547619D01*
X25885714Y-78642857D01*
X25885714Y-78690476D01*
X25838095Y-78785714D01*
X25790476Y-78833333D01*
X25695238Y-78880952D01*
X25504761Y-78880952D01*
X25409523Y-78928571D01*
X25361904Y-78976190D01*
X25314285Y-79071428D01*
X25314285Y-79261904D01*
X25361904Y-79357142D01*
X25409523Y-79404761D01*
X25504761Y-79452380D01*
X25695238Y-79452380D01*
X25790476Y-79404761D01*
X25838095Y-79357142D01*
X25885714Y-79261904D01*
X25885714Y-79071428D01*
X25838095Y-78976190D01*
X25790476Y-78928571D01*
X25695238Y-78880952D01*
X120411904Y-145502380D02*
X120411904Y-146311904D01*
X120459523Y-146407142D01*
X120507142Y-146454761D01*
X120602380Y-146502380D01*
X120792857Y-146502380D01*
X120888095Y-146454761D01*
X120935714Y-146407142D01*
X120983333Y-146311904D01*
X120983333Y-145502380D01*
X121411904Y-145597619D02*
X121459523Y-145550000D01*
X121554761Y-145502380D01*
X121792857Y-145502380D01*
X121888095Y-145550000D01*
X121935714Y-145597619D01*
X121983333Y-145692857D01*
X121983333Y-145788095D01*
X121935714Y-145930952D01*
X121364285Y-146502380D01*
X121983333Y-146502380D01*
X122316666Y-145502380D02*
X122983333Y-145502380D01*
X122554761Y-146502380D01*
X124111904Y-144002380D02*
X124111904Y-144811904D01*
X124159523Y-144907142D01*
X124207142Y-144954761D01*
X124302380Y-145002380D01*
X124492857Y-145002380D01*
X124588095Y-144954761D01*
X124635714Y-144907142D01*
X124683333Y-144811904D01*
X124683333Y-144002380D01*
X125111904Y-144097619D02*
X125159523Y-144050000D01*
X125254761Y-144002380D01*
X125492857Y-144002380D01*
X125588095Y-144050000D01*
X125635714Y-144097619D01*
X125683333Y-144192857D01*
X125683333Y-144288095D01*
X125635714Y-144430952D01*
X125064285Y-145002380D01*
X125683333Y-145002380D01*
X126540476Y-144002380D02*
X126350000Y-144002380D01*
X126254761Y-144050000D01*
X126207142Y-144097619D01*
X126111904Y-144240476D01*
X126064285Y-144430952D01*
X126064285Y-144811904D01*
X126111904Y-144907142D01*
X126159523Y-144954761D01*
X126254761Y-145002380D01*
X126445238Y-145002380D01*
X126540476Y-144954761D01*
X126588095Y-144907142D01*
X126635714Y-144811904D01*
X126635714Y-144573809D01*
X126588095Y-144478571D01*
X126540476Y-144430952D01*
X126445238Y-144383333D01*
X126254761Y-144383333D01*
X126159523Y-144430952D01*
X126111904Y-144478571D01*
X126064285Y-144573809D01*
X114861904Y-142552380D02*
X114861904Y-143361904D01*
X114909523Y-143457142D01*
X114957142Y-143504761D01*
X115052380Y-143552380D01*
X115242857Y-143552380D01*
X115338095Y-143504761D01*
X115385714Y-143457142D01*
X115433333Y-143361904D01*
X115433333Y-142552380D01*
X115861904Y-142647619D02*
X115909523Y-142600000D01*
X116004761Y-142552380D01*
X116242857Y-142552380D01*
X116338095Y-142600000D01*
X116385714Y-142647619D01*
X116433333Y-142742857D01*
X116433333Y-142838095D01*
X116385714Y-142980952D01*
X115814285Y-143552380D01*
X116433333Y-143552380D01*
X117338095Y-142552380D02*
X116861904Y-142552380D01*
X116814285Y-143028571D01*
X116861904Y-142980952D01*
X116957142Y-142933333D01*
X117195238Y-142933333D01*
X117290476Y-142980952D01*
X117338095Y-143028571D01*
X117385714Y-143123809D01*
X117385714Y-143361904D01*
X117338095Y-143457142D01*
X117290476Y-143504761D01*
X117195238Y-143552380D01*
X116957142Y-143552380D01*
X116861904Y-143504761D01*
X116814285Y-143457142D01*
X43861904Y-136702380D02*
X43861904Y-137511904D01*
X43909523Y-137607142D01*
X43957142Y-137654761D01*
X44052380Y-137702380D01*
X44242857Y-137702380D01*
X44338095Y-137654761D01*
X44385714Y-137607142D01*
X44433333Y-137511904D01*
X44433333Y-136702380D01*
X44861904Y-136797619D02*
X44909523Y-136750000D01*
X45004761Y-136702380D01*
X45242857Y-136702380D01*
X45338095Y-136750000D01*
X45385714Y-136797619D01*
X45433333Y-136892857D01*
X45433333Y-136988095D01*
X45385714Y-137130952D01*
X44814285Y-137702380D01*
X45433333Y-137702380D01*
X46290476Y-137035714D02*
X46290476Y-137702380D01*
X46052380Y-136654761D02*
X45814285Y-137369047D01*
X46433333Y-137369047D01*
X73861904Y-134502380D02*
X73861904Y-135311904D01*
X73909523Y-135407142D01*
X73957142Y-135454761D01*
X74052380Y-135502380D01*
X74242857Y-135502380D01*
X74338095Y-135454761D01*
X74385714Y-135407142D01*
X74433333Y-135311904D01*
X74433333Y-134502380D01*
X74861904Y-134597619D02*
X74909523Y-134550000D01*
X75004761Y-134502380D01*
X75242857Y-134502380D01*
X75338095Y-134550000D01*
X75385714Y-134597619D01*
X75433333Y-134692857D01*
X75433333Y-134788095D01*
X75385714Y-134930952D01*
X74814285Y-135502380D01*
X75433333Y-135502380D01*
X75766666Y-134502380D02*
X76385714Y-134502380D01*
X76052380Y-134883333D01*
X76195238Y-134883333D01*
X76290476Y-134930952D01*
X76338095Y-134978571D01*
X76385714Y-135073809D01*
X76385714Y-135311904D01*
X76338095Y-135407142D01*
X76290476Y-135454761D01*
X76195238Y-135502380D01*
X75909523Y-135502380D01*
X75814285Y-135454761D01*
X75766666Y-135407142D01*
X76402380Y-151288095D02*
X77211904Y-151288095D01*
X77307142Y-151240476D01*
X77354761Y-151192857D01*
X77402380Y-151097619D01*
X77402380Y-150907142D01*
X77354761Y-150811904D01*
X77307142Y-150764285D01*
X77211904Y-150716666D01*
X76402380Y-150716666D01*
X76497619Y-150288095D02*
X76450000Y-150240476D01*
X76402380Y-150145238D01*
X76402380Y-149907142D01*
X76450000Y-149811904D01*
X76497619Y-149764285D01*
X76592857Y-149716666D01*
X76688095Y-149716666D01*
X76830952Y-149764285D01*
X77402380Y-150335714D01*
X77402380Y-149716666D01*
X76497619Y-149335714D02*
X76450000Y-149288095D01*
X76402380Y-149192857D01*
X76402380Y-148954761D01*
X76450000Y-148859523D01*
X76497619Y-148811904D01*
X76592857Y-148764285D01*
X76688095Y-148764285D01*
X76830952Y-148811904D01*
X77402380Y-149383333D01*
X77402380Y-148764285D01*
X57852380Y-150738095D02*
X58661904Y-150738095D01*
X58757142Y-150690476D01*
X58804761Y-150642857D01*
X58852380Y-150547619D01*
X58852380Y-150357142D01*
X58804761Y-150261904D01*
X58757142Y-150214285D01*
X58661904Y-150166666D01*
X57852380Y-150166666D01*
X57947619Y-149738095D02*
X57900000Y-149690476D01*
X57852380Y-149595238D01*
X57852380Y-149357142D01*
X57900000Y-149261904D01*
X57947619Y-149214285D01*
X58042857Y-149166666D01*
X58138095Y-149166666D01*
X58280952Y-149214285D01*
X58852380Y-149785714D01*
X58852380Y-149166666D01*
X58852380Y-148214285D02*
X58852380Y-148785714D01*
X58852380Y-148500000D02*
X57852380Y-148500000D01*
X57995238Y-148595238D01*
X58090476Y-148690476D01*
X58138095Y-148785714D01*
X15552380Y-41338095D02*
X16361904Y-41338095D01*
X16457142Y-41290476D01*
X16504761Y-41242857D01*
X16552380Y-41147619D01*
X16552380Y-40957142D01*
X16504761Y-40861904D01*
X16457142Y-40814285D01*
X16361904Y-40766666D01*
X15552380Y-40766666D01*
X15647619Y-40338095D02*
X15600000Y-40290476D01*
X15552380Y-40195238D01*
X15552380Y-39957142D01*
X15600000Y-39861904D01*
X15647619Y-39814285D01*
X15742857Y-39766666D01*
X15838095Y-39766666D01*
X15980952Y-39814285D01*
X16552380Y-40385714D01*
X16552380Y-39766666D01*
X15552380Y-39147619D02*
X15552380Y-39052380D01*
X15600000Y-38957142D01*
X15647619Y-38909523D01*
X15742857Y-38861904D01*
X15933333Y-38814285D01*
X16171428Y-38814285D01*
X16361904Y-38861904D01*
X16457142Y-38909523D01*
X16504761Y-38957142D01*
X16552380Y-39052380D01*
X16552380Y-39147619D01*
X16504761Y-39242857D01*
X16457142Y-39290476D01*
X16361904Y-39338095D01*
X16171428Y-39385714D01*
X15933333Y-39385714D01*
X15742857Y-39338095D01*
X15647619Y-39290476D01*
X15600000Y-39242857D01*
X15552380Y-39147619D01*
X50302380Y-37638095D02*
X51111904Y-37638095D01*
X51207142Y-37590476D01*
X51254761Y-37542857D01*
X51302380Y-37447619D01*
X51302380Y-37257142D01*
X51254761Y-37161904D01*
X51207142Y-37114285D01*
X51111904Y-37066666D01*
X50302380Y-37066666D01*
X51302380Y-36066666D02*
X51302380Y-36638095D01*
X51302380Y-36352380D02*
X50302380Y-36352380D01*
X50445238Y-36447619D01*
X50540476Y-36542857D01*
X50588095Y-36638095D01*
X51302380Y-35590476D02*
X51302380Y-35400000D01*
X51254761Y-35304761D01*
X51207142Y-35257142D01*
X51064285Y-35161904D01*
X50873809Y-35114285D01*
X50492857Y-35114285D01*
X50397619Y-35161904D01*
X50350000Y-35209523D01*
X50302380Y-35304761D01*
X50302380Y-35495238D01*
X50350000Y-35590476D01*
X50397619Y-35638095D01*
X50492857Y-35685714D01*
X50730952Y-35685714D01*
X50826190Y-35638095D01*
X50873809Y-35590476D01*
X50921428Y-35495238D01*
X50921428Y-35304761D01*
X50873809Y-35209523D01*
X50826190Y-35161904D01*
X50730952Y-35114285D01*
X50352380Y-46038095D02*
X51161904Y-46038095D01*
X51257142Y-45990476D01*
X51304761Y-45942857D01*
X51352380Y-45847619D01*
X51352380Y-45657142D01*
X51304761Y-45561904D01*
X51257142Y-45514285D01*
X51161904Y-45466666D01*
X50352380Y-45466666D01*
X51352380Y-44466666D02*
X51352380Y-45038095D01*
X51352380Y-44752380D02*
X50352380Y-44752380D01*
X50495238Y-44847619D01*
X50590476Y-44942857D01*
X50638095Y-45038095D01*
X50780952Y-43895238D02*
X50733333Y-43990476D01*
X50685714Y-44038095D01*
X50590476Y-44085714D01*
X50542857Y-44085714D01*
X50447619Y-44038095D01*
X50400000Y-43990476D01*
X50352380Y-43895238D01*
X50352380Y-43704761D01*
X50400000Y-43609523D01*
X50447619Y-43561904D01*
X50542857Y-43514285D01*
X50590476Y-43514285D01*
X50685714Y-43561904D01*
X50733333Y-43609523D01*
X50780952Y-43704761D01*
X50780952Y-43895238D01*
X50828571Y-43990476D01*
X50876190Y-44038095D01*
X50971428Y-44085714D01*
X51161904Y-44085714D01*
X51257142Y-44038095D01*
X51304761Y-43990476D01*
X51352380Y-43895238D01*
X51352380Y-43704761D01*
X51304761Y-43609523D01*
X51257142Y-43561904D01*
X51161904Y-43514285D01*
X50971428Y-43514285D01*
X50876190Y-43561904D01*
X50828571Y-43609523D01*
X50780952Y-43704761D01*
X63531904Y-65472380D02*
X63531904Y-66281904D01*
X63579523Y-66377142D01*
X63627142Y-66424761D01*
X63722380Y-66472380D01*
X63912857Y-66472380D01*
X64008095Y-66424761D01*
X64055714Y-66377142D01*
X64103333Y-66281904D01*
X64103333Y-65472380D01*
X65103333Y-66472380D02*
X64531904Y-66472380D01*
X64817619Y-66472380D02*
X64817619Y-65472380D01*
X64722380Y-65615238D01*
X64627142Y-65710476D01*
X64531904Y-65758095D01*
X65960476Y-65472380D02*
X65770000Y-65472380D01*
X65674761Y-65520000D01*
X65627142Y-65567619D01*
X65531904Y-65710476D01*
X65484285Y-65900952D01*
X65484285Y-66281904D01*
X65531904Y-66377142D01*
X65579523Y-66424761D01*
X65674761Y-66472380D01*
X65865238Y-66472380D01*
X65960476Y-66424761D01*
X66008095Y-66377142D01*
X66055714Y-66281904D01*
X66055714Y-66043809D01*
X66008095Y-65948571D01*
X65960476Y-65900952D01*
X65865238Y-65853333D01*
X65674761Y-65853333D01*
X65579523Y-65900952D01*
X65531904Y-65948571D01*
X65484285Y-66043809D01*
X73322380Y-86098095D02*
X74131904Y-86098095D01*
X74227142Y-86050476D01*
X74274761Y-86002857D01*
X74322380Y-85907619D01*
X74322380Y-85717142D01*
X74274761Y-85621904D01*
X74227142Y-85574285D01*
X74131904Y-85526666D01*
X73322380Y-85526666D01*
X74322380Y-84526666D02*
X74322380Y-85098095D01*
X74322380Y-84812380D02*
X73322380Y-84812380D01*
X73465238Y-84907619D01*
X73560476Y-85002857D01*
X73608095Y-85098095D01*
X73322380Y-83621904D02*
X73322380Y-84098095D01*
X73798571Y-84145714D01*
X73750952Y-84098095D01*
X73703333Y-84002857D01*
X73703333Y-83764761D01*
X73750952Y-83669523D01*
X73798571Y-83621904D01*
X73893809Y-83574285D01*
X74131904Y-83574285D01*
X74227142Y-83621904D01*
X74274761Y-83669523D01*
X74322380Y-83764761D01*
X74322380Y-84002857D01*
X74274761Y-84098095D01*
X74227142Y-84145714D01*
X96611904Y-173902380D02*
X96611904Y-174711904D01*
X96659523Y-174807142D01*
X96707142Y-174854761D01*
X96802380Y-174902380D01*
X96992857Y-174902380D01*
X97088095Y-174854761D01*
X97135714Y-174807142D01*
X97183333Y-174711904D01*
X97183333Y-173902380D01*
X98183333Y-174902380D02*
X97611904Y-174902380D01*
X97897619Y-174902380D02*
X97897619Y-173902380D01*
X97802380Y-174045238D01*
X97707142Y-174140476D01*
X97611904Y-174188095D01*
X99040476Y-174235714D02*
X99040476Y-174902380D01*
X98802380Y-173854761D02*
X98564285Y-174569047D01*
X99183333Y-174569047D01*
X24111904Y-173952380D02*
X24111904Y-174761904D01*
X24159523Y-174857142D01*
X24207142Y-174904761D01*
X24302380Y-174952380D01*
X24492857Y-174952380D01*
X24588095Y-174904761D01*
X24635714Y-174857142D01*
X24683333Y-174761904D01*
X24683333Y-173952380D01*
X25683333Y-174952380D02*
X25111904Y-174952380D01*
X25397619Y-174952380D02*
X25397619Y-173952380D01*
X25302380Y-174095238D01*
X25207142Y-174190476D01*
X25111904Y-174238095D01*
X26016666Y-173952380D02*
X26635714Y-173952380D01*
X26302380Y-174333333D01*
X26445238Y-174333333D01*
X26540476Y-174380952D01*
X26588095Y-174428571D01*
X26635714Y-174523809D01*
X26635714Y-174761904D01*
X26588095Y-174857142D01*
X26540476Y-174904761D01*
X26445238Y-174952380D01*
X26159523Y-174952380D01*
X26064285Y-174904761D01*
X26016666Y-174857142D01*
X119652380Y-41838095D02*
X120461904Y-41838095D01*
X120557142Y-41790476D01*
X120604761Y-41742857D01*
X120652380Y-41647619D01*
X120652380Y-41457142D01*
X120604761Y-41361904D01*
X120557142Y-41314285D01*
X120461904Y-41266666D01*
X119652380Y-41266666D01*
X120652380Y-40266666D02*
X120652380Y-40838095D01*
X120652380Y-40552380D02*
X119652380Y-40552380D01*
X119795238Y-40647619D01*
X119890476Y-40742857D01*
X119938095Y-40838095D01*
X119747619Y-39885714D02*
X119700000Y-39838095D01*
X119652380Y-39742857D01*
X119652380Y-39504761D01*
X119700000Y-39409523D01*
X119747619Y-39361904D01*
X119842857Y-39314285D01*
X119938095Y-39314285D01*
X120080952Y-39361904D01*
X120652380Y-39933333D01*
X120652380Y-39314285D01*
X89352380Y-41888095D02*
X90161904Y-41888095D01*
X90257142Y-41840476D01*
X90304761Y-41792857D01*
X90352380Y-41697619D01*
X90352380Y-41507142D01*
X90304761Y-41411904D01*
X90257142Y-41364285D01*
X90161904Y-41316666D01*
X89352380Y-41316666D01*
X90352380Y-40316666D02*
X90352380Y-40888095D01*
X90352380Y-40602380D02*
X89352380Y-40602380D01*
X89495238Y-40697619D01*
X89590476Y-40792857D01*
X89638095Y-40888095D01*
X90352380Y-39364285D02*
X90352380Y-39935714D01*
X90352380Y-39650000D02*
X89352380Y-39650000D01*
X89495238Y-39745238D01*
X89590476Y-39840476D01*
X89638095Y-39935714D01*
X73252380Y-67788095D02*
X74061904Y-67788095D01*
X74157142Y-67740476D01*
X74204761Y-67692857D01*
X74252380Y-67597619D01*
X74252380Y-67407142D01*
X74204761Y-67311904D01*
X74157142Y-67264285D01*
X74061904Y-67216666D01*
X73252380Y-67216666D01*
X74252380Y-66216666D02*
X74252380Y-66788095D01*
X74252380Y-66502380D02*
X73252380Y-66502380D01*
X73395238Y-66597619D01*
X73490476Y-66692857D01*
X73538095Y-66788095D01*
X73252380Y-65597619D02*
X73252380Y-65502380D01*
X73300000Y-65407142D01*
X73347619Y-65359523D01*
X73442857Y-65311904D01*
X73633333Y-65264285D01*
X73871428Y-65264285D01*
X74061904Y-65311904D01*
X74157142Y-65359523D01*
X74204761Y-65407142D01*
X74252380Y-65502380D01*
X74252380Y-65597619D01*
X74204761Y-65692857D01*
X74157142Y-65740476D01*
X74061904Y-65788095D01*
X73871428Y-65835714D01*
X73633333Y-65835714D01*
X73442857Y-65788095D01*
X73347619Y-65740476D01*
X73300000Y-65692857D01*
X73252380Y-65597619D01*
X135222380Y-88551904D02*
X136031904Y-88551904D01*
X136127142Y-88504285D01*
X136174761Y-88456666D01*
X136222380Y-88361428D01*
X136222380Y-88170952D01*
X136174761Y-88075714D01*
X136127142Y-88028095D01*
X136031904Y-87980476D01*
X135222380Y-87980476D01*
X136222380Y-87456666D02*
X136222380Y-87266190D01*
X136174761Y-87170952D01*
X136127142Y-87123333D01*
X135984285Y-87028095D01*
X135793809Y-86980476D01*
X135412857Y-86980476D01*
X135317619Y-87028095D01*
X135270000Y-87075714D01*
X135222380Y-87170952D01*
X135222380Y-87361428D01*
X135270000Y-87456666D01*
X135317619Y-87504285D01*
X135412857Y-87551904D01*
X135650952Y-87551904D01*
X135746190Y-87504285D01*
X135793809Y-87456666D01*
X135841428Y-87361428D01*
X135841428Y-87170952D01*
X135793809Y-87075714D01*
X135746190Y-87028095D01*
X135650952Y-86980476D01*
X150288095Y-93352380D02*
X150288095Y-94161904D01*
X150335714Y-94257142D01*
X150383333Y-94304761D01*
X150478571Y-94352380D01*
X150669047Y-94352380D01*
X150764285Y-94304761D01*
X150811904Y-94257142D01*
X150859523Y-94161904D01*
X150859523Y-93352380D01*
X151478571Y-93780952D02*
X151383333Y-93733333D01*
X151335714Y-93685714D01*
X151288095Y-93590476D01*
X151288095Y-93542857D01*
X151335714Y-93447619D01*
X151383333Y-93400000D01*
X151478571Y-93352380D01*
X151669047Y-93352380D01*
X151764285Y-93400000D01*
X151811904Y-93447619D01*
X151859523Y-93542857D01*
X151859523Y-93590476D01*
X151811904Y-93685714D01*
X151764285Y-93733333D01*
X151669047Y-93780952D01*
X151478571Y-93780952D01*
X151383333Y-93828571D01*
X151335714Y-93876190D01*
X151288095Y-93971428D01*
X151288095Y-94161904D01*
X151335714Y-94257142D01*
X151383333Y-94304761D01*
X151478571Y-94352380D01*
X151669047Y-94352380D01*
X151764285Y-94304761D01*
X151811904Y-94257142D01*
X151859523Y-94161904D01*
X151859523Y-93971428D01*
X151811904Y-93876190D01*
X151764285Y-93828571D01*
X151669047Y-93780952D01*
X136588095Y-93352380D02*
X136588095Y-94161904D01*
X136635714Y-94257142D01*
X136683333Y-94304761D01*
X136778571Y-94352380D01*
X136969047Y-94352380D01*
X137064285Y-94304761D01*
X137111904Y-94257142D01*
X137159523Y-94161904D01*
X137159523Y-93352380D01*
X137540476Y-93352380D02*
X138207142Y-93352380D01*
X137778571Y-94352380D01*
X100388095Y-137002380D02*
X100388095Y-137811904D01*
X100435714Y-137907142D01*
X100483333Y-137954761D01*
X100578571Y-138002380D01*
X100769047Y-138002380D01*
X100864285Y-137954761D01*
X100911904Y-137907142D01*
X100959523Y-137811904D01*
X100959523Y-137002380D01*
X101864285Y-137002380D02*
X101673809Y-137002380D01*
X101578571Y-137050000D01*
X101530952Y-137097619D01*
X101435714Y-137240476D01*
X101388095Y-137430952D01*
X101388095Y-137811904D01*
X101435714Y-137907142D01*
X101483333Y-137954761D01*
X101578571Y-138002380D01*
X101769047Y-138002380D01*
X101864285Y-137954761D01*
X101911904Y-137907142D01*
X101959523Y-137811904D01*
X101959523Y-137573809D01*
X101911904Y-137478571D01*
X101864285Y-137430952D01*
X101769047Y-137383333D01*
X101578571Y-137383333D01*
X101483333Y-137430952D01*
X101435714Y-137478571D01*
X101388095Y-137573809D01*
X56388095Y-135102380D02*
X56388095Y-135911904D01*
X56435714Y-136007142D01*
X56483333Y-136054761D01*
X56578571Y-136102380D01*
X56769047Y-136102380D01*
X56864285Y-136054761D01*
X56911904Y-136007142D01*
X56959523Y-135911904D01*
X56959523Y-135102380D01*
X57911904Y-135102380D02*
X57435714Y-135102380D01*
X57388095Y-135578571D01*
X57435714Y-135530952D01*
X57530952Y-135483333D01*
X57769047Y-135483333D01*
X57864285Y-135530952D01*
X57911904Y-135578571D01*
X57959523Y-135673809D01*
X57959523Y-135911904D01*
X57911904Y-136007142D01*
X57864285Y-136054761D01*
X57769047Y-136102380D01*
X57530952Y-136102380D01*
X57435714Y-136054761D01*
X57388095Y-136007142D01*
X27088095Y-162452380D02*
X27088095Y-163261904D01*
X27135714Y-163357142D01*
X27183333Y-163404761D01*
X27278571Y-163452380D01*
X27469047Y-163452380D01*
X27564285Y-163404761D01*
X27611904Y-163357142D01*
X27659523Y-163261904D01*
X27659523Y-162452380D01*
X28564285Y-162785714D02*
X28564285Y-163452380D01*
X28326190Y-162404761D02*
X28088095Y-163119047D01*
X28707142Y-163119047D01*
X31038095Y-135302380D02*
X31038095Y-136111904D01*
X31085714Y-136207142D01*
X31133333Y-136254761D01*
X31228571Y-136302380D01*
X31419047Y-136302380D01*
X31514285Y-136254761D01*
X31561904Y-136207142D01*
X31609523Y-136111904D01*
X31609523Y-135302380D01*
X31990476Y-135302380D02*
X32609523Y-135302380D01*
X32276190Y-135683333D01*
X32419047Y-135683333D01*
X32514285Y-135730952D01*
X32561904Y-135778571D01*
X32609523Y-135873809D01*
X32609523Y-136111904D01*
X32561904Y-136207142D01*
X32514285Y-136254761D01*
X32419047Y-136302380D01*
X32133333Y-136302380D01*
X32038095Y-136254761D01*
X31990476Y-136207142D01*
X42998095Y-31072380D02*
X42998095Y-31881904D01*
X43045714Y-31977142D01*
X43093333Y-32024761D01*
X43188571Y-32072380D01*
X43379047Y-32072380D01*
X43474285Y-32024761D01*
X43521904Y-31977142D01*
X43569523Y-31881904D01*
X43569523Y-31072380D01*
X43998095Y-31167619D02*
X44045714Y-31120000D01*
X44140952Y-31072380D01*
X44379047Y-31072380D01*
X44474285Y-31120000D01*
X44521904Y-31167619D01*
X44569523Y-31262857D01*
X44569523Y-31358095D01*
X44521904Y-31500952D01*
X43950476Y-32072380D01*
X44569523Y-32072380D01*
X73302380Y-114711904D02*
X74111904Y-114711904D01*
X74207142Y-114664285D01*
X74254761Y-114616666D01*
X74302380Y-114521428D01*
X74302380Y-114330952D01*
X74254761Y-114235714D01*
X74207142Y-114188095D01*
X74111904Y-114140476D01*
X73302380Y-114140476D01*
X74302380Y-113140476D02*
X74302380Y-113711904D01*
X74302380Y-113426190D02*
X73302380Y-113426190D01*
X73445238Y-113521428D01*
X73540476Y-113616666D01*
X73588095Y-113711904D01*
X30466666Y-33354761D02*
X30609523Y-33402380D01*
X30847619Y-33402380D01*
X30942857Y-33354761D01*
X30990476Y-33307142D01*
X31038095Y-33211904D01*
X31038095Y-33116666D01*
X30990476Y-33021428D01*
X30942857Y-32973809D01*
X30847619Y-32926190D01*
X30657142Y-32878571D01*
X30561904Y-32830952D01*
X30514285Y-32783333D01*
X30466666Y-32688095D01*
X30466666Y-32592857D01*
X30514285Y-32497619D01*
X30561904Y-32450000D01*
X30657142Y-32402380D01*
X30895238Y-32402380D01*
X31038095Y-32450000D01*
X31371428Y-32402380D02*
X31609523Y-33402380D01*
X31800000Y-32688095D01*
X31990476Y-33402380D01*
X32228571Y-32402380D01*
X33133333Y-33402380D02*
X32561904Y-33402380D01*
X32847619Y-33402380D02*
X32847619Y-32402380D01*
X32752380Y-32545238D01*
X32657142Y-32640476D01*
X32561904Y-32688095D01*
X132107142Y-17452380D02*
X131773809Y-16976190D01*
X131535714Y-17452380D02*
X131535714Y-16452380D01*
X131916666Y-16452380D01*
X132011904Y-16500000D01*
X132059523Y-16547619D01*
X132107142Y-16642857D01*
X132107142Y-16785714D01*
X132059523Y-16880952D01*
X132011904Y-16928571D01*
X131916666Y-16976190D01*
X131535714Y-16976190D01*
X132440476Y-16452380D02*
X133059523Y-16452380D01*
X132726190Y-16833333D01*
X132869047Y-16833333D01*
X132964285Y-16880952D01*
X133011904Y-16928571D01*
X133059523Y-17023809D01*
X133059523Y-17261904D01*
X133011904Y-17357142D01*
X132964285Y-17404761D01*
X132869047Y-17452380D01*
X132583333Y-17452380D01*
X132488095Y-17404761D01*
X132440476Y-17357142D01*
X133535714Y-17452380D02*
X133726190Y-17452380D01*
X133821428Y-17404761D01*
X133869047Y-17357142D01*
X133964285Y-17214285D01*
X134011904Y-17023809D01*
X134011904Y-16642857D01*
X133964285Y-16547619D01*
X133916666Y-16500000D01*
X133821428Y-16452380D01*
X133630952Y-16452380D01*
X133535714Y-16500000D01*
X133488095Y-16547619D01*
X133440476Y-16642857D01*
X133440476Y-16880952D01*
X133488095Y-16976190D01*
X133535714Y-17023809D01*
X133630952Y-17071428D01*
X133821428Y-17071428D01*
X133916666Y-17023809D01*
X133964285Y-16976190D01*
X134011904Y-16880952D01*
X132107142Y-21202380D02*
X131773809Y-20726190D01*
X131535714Y-21202380D02*
X131535714Y-20202380D01*
X131916666Y-20202380D01*
X132011904Y-20250000D01*
X132059523Y-20297619D01*
X132107142Y-20392857D01*
X132107142Y-20535714D01*
X132059523Y-20630952D01*
X132011904Y-20678571D01*
X131916666Y-20726190D01*
X131535714Y-20726190D01*
X132440476Y-20202380D02*
X133059523Y-20202380D01*
X132726190Y-20583333D01*
X132869047Y-20583333D01*
X132964285Y-20630952D01*
X133011904Y-20678571D01*
X133059523Y-20773809D01*
X133059523Y-21011904D01*
X133011904Y-21107142D01*
X132964285Y-21154761D01*
X132869047Y-21202380D01*
X132583333Y-21202380D01*
X132488095Y-21154761D01*
X132440476Y-21107142D01*
X133630952Y-20630952D02*
X133535714Y-20583333D01*
X133488095Y-20535714D01*
X133440476Y-20440476D01*
X133440476Y-20392857D01*
X133488095Y-20297619D01*
X133535714Y-20250000D01*
X133630952Y-20202380D01*
X133821428Y-20202380D01*
X133916666Y-20250000D01*
X133964285Y-20297619D01*
X134011904Y-20392857D01*
X134011904Y-20440476D01*
X133964285Y-20535714D01*
X133916666Y-20583333D01*
X133821428Y-20630952D01*
X133630952Y-20630952D01*
X133535714Y-20678571D01*
X133488095Y-20726190D01*
X133440476Y-20821428D01*
X133440476Y-21011904D01*
X133488095Y-21107142D01*
X133535714Y-21154761D01*
X133630952Y-21202380D01*
X133821428Y-21202380D01*
X133916666Y-21154761D01*
X133964285Y-21107142D01*
X134011904Y-21011904D01*
X134011904Y-20821428D01*
X133964285Y-20726190D01*
X133916666Y-20678571D01*
X133821428Y-20630952D01*
X132107142Y-25052380D02*
X131773809Y-24576190D01*
X131535714Y-25052380D02*
X131535714Y-24052380D01*
X131916666Y-24052380D01*
X132011904Y-24100000D01*
X132059523Y-24147619D01*
X132107142Y-24242857D01*
X132107142Y-24385714D01*
X132059523Y-24480952D01*
X132011904Y-24528571D01*
X131916666Y-24576190D01*
X131535714Y-24576190D01*
X132440476Y-24052380D02*
X133059523Y-24052380D01*
X132726190Y-24433333D01*
X132869047Y-24433333D01*
X132964285Y-24480952D01*
X133011904Y-24528571D01*
X133059523Y-24623809D01*
X133059523Y-24861904D01*
X133011904Y-24957142D01*
X132964285Y-25004761D01*
X132869047Y-25052380D01*
X132583333Y-25052380D01*
X132488095Y-25004761D01*
X132440476Y-24957142D01*
X133392857Y-24052380D02*
X134059523Y-24052380D01*
X133630952Y-25052380D01*
X120352380Y-34742857D02*
X119876190Y-35076190D01*
X120352380Y-35314285D02*
X119352380Y-35314285D01*
X119352380Y-34933333D01*
X119400000Y-34838095D01*
X119447619Y-34790476D01*
X119542857Y-34742857D01*
X119685714Y-34742857D01*
X119780952Y-34790476D01*
X119828571Y-34838095D01*
X119876190Y-34933333D01*
X119876190Y-35314285D01*
X119352380Y-34409523D02*
X119352380Y-33790476D01*
X119733333Y-34123809D01*
X119733333Y-33980952D01*
X119780952Y-33885714D01*
X119828571Y-33838095D01*
X119923809Y-33790476D01*
X120161904Y-33790476D01*
X120257142Y-33838095D01*
X120304761Y-33885714D01*
X120352380Y-33980952D01*
X120352380Y-34266666D01*
X120304761Y-34361904D01*
X120257142Y-34409523D01*
X119352380Y-32933333D02*
X119352380Y-33123809D01*
X119400000Y-33219047D01*
X119447619Y-33266666D01*
X119590476Y-33361904D01*
X119780952Y-33409523D01*
X120161904Y-33409523D01*
X120257142Y-33361904D01*
X120304761Y-33314285D01*
X120352380Y-33219047D01*
X120352380Y-33028571D01*
X120304761Y-32933333D01*
X120257142Y-32885714D01*
X120161904Y-32838095D01*
X119923809Y-32838095D01*
X119828571Y-32885714D01*
X119780952Y-32933333D01*
X119733333Y-33028571D01*
X119733333Y-33219047D01*
X119780952Y-33314285D01*
X119828571Y-33361904D01*
X119923809Y-33409523D01*
X152407142Y-162002380D02*
X152073809Y-161526190D01*
X151835714Y-162002380D02*
X151835714Y-161002380D01*
X152216666Y-161002380D01*
X152311904Y-161050000D01*
X152359523Y-161097619D01*
X152407142Y-161192857D01*
X152407142Y-161335714D01*
X152359523Y-161430952D01*
X152311904Y-161478571D01*
X152216666Y-161526190D01*
X151835714Y-161526190D01*
X152740476Y-161002380D02*
X153359523Y-161002380D01*
X153026190Y-161383333D01*
X153169047Y-161383333D01*
X153264285Y-161430952D01*
X153311904Y-161478571D01*
X153359523Y-161573809D01*
X153359523Y-161811904D01*
X153311904Y-161907142D01*
X153264285Y-161954761D01*
X153169047Y-162002380D01*
X152883333Y-162002380D01*
X152788095Y-161954761D01*
X152740476Y-161907142D01*
X154264285Y-161002380D02*
X153788095Y-161002380D01*
X153740476Y-161478571D01*
X153788095Y-161430952D01*
X153883333Y-161383333D01*
X154121428Y-161383333D01*
X154216666Y-161430952D01*
X154264285Y-161478571D01*
X154311904Y-161573809D01*
X154311904Y-161811904D01*
X154264285Y-161907142D01*
X154216666Y-161954761D01*
X154121428Y-162002380D01*
X153883333Y-162002380D01*
X153788095Y-161954761D01*
X153740476Y-161907142D01*
X152457142Y-168852380D02*
X152123809Y-168376190D01*
X151885714Y-168852380D02*
X151885714Y-167852380D01*
X152266666Y-167852380D01*
X152361904Y-167900000D01*
X152409523Y-167947619D01*
X152457142Y-168042857D01*
X152457142Y-168185714D01*
X152409523Y-168280952D01*
X152361904Y-168328571D01*
X152266666Y-168376190D01*
X151885714Y-168376190D01*
X152790476Y-167852380D02*
X153409523Y-167852380D01*
X153076190Y-168233333D01*
X153219047Y-168233333D01*
X153314285Y-168280952D01*
X153361904Y-168328571D01*
X153409523Y-168423809D01*
X153409523Y-168661904D01*
X153361904Y-168757142D01*
X153314285Y-168804761D01*
X153219047Y-168852380D01*
X152933333Y-168852380D01*
X152838095Y-168804761D01*
X152790476Y-168757142D01*
X154266666Y-168185714D02*
X154266666Y-168852380D01*
X154028571Y-167804761D02*
X153790476Y-168519047D01*
X154409523Y-168519047D01*
X152457142Y-165502380D02*
X152123809Y-165026190D01*
X151885714Y-165502380D02*
X151885714Y-164502380D01*
X152266666Y-164502380D01*
X152361904Y-164550000D01*
X152409523Y-164597619D01*
X152457142Y-164692857D01*
X152457142Y-164835714D01*
X152409523Y-164930952D01*
X152361904Y-164978571D01*
X152266666Y-165026190D01*
X151885714Y-165026190D01*
X152790476Y-164502380D02*
X153409523Y-164502380D01*
X153076190Y-164883333D01*
X153219047Y-164883333D01*
X153314285Y-164930952D01*
X153361904Y-164978571D01*
X153409523Y-165073809D01*
X153409523Y-165311904D01*
X153361904Y-165407142D01*
X153314285Y-165454761D01*
X153219047Y-165502380D01*
X152933333Y-165502380D01*
X152838095Y-165454761D01*
X152790476Y-165407142D01*
X153742857Y-164502380D02*
X154361904Y-164502380D01*
X154028571Y-164883333D01*
X154171428Y-164883333D01*
X154266666Y-164930952D01*
X154314285Y-164978571D01*
X154361904Y-165073809D01*
X154361904Y-165311904D01*
X154314285Y-165407142D01*
X154266666Y-165454761D01*
X154171428Y-165502380D01*
X153885714Y-165502380D01*
X153790476Y-165454761D01*
X153742857Y-165407142D01*
X74502380Y-149192857D02*
X74026190Y-149526190D01*
X74502380Y-149764285D02*
X73502380Y-149764285D01*
X73502380Y-149383333D01*
X73550000Y-149288095D01*
X73597619Y-149240476D01*
X73692857Y-149192857D01*
X73835714Y-149192857D01*
X73930952Y-149240476D01*
X73978571Y-149288095D01*
X74026190Y-149383333D01*
X74026190Y-149764285D01*
X73502380Y-148859523D02*
X73502380Y-148240476D01*
X73883333Y-148573809D01*
X73883333Y-148430952D01*
X73930952Y-148335714D01*
X73978571Y-148288095D01*
X74073809Y-148240476D01*
X74311904Y-148240476D01*
X74407142Y-148288095D01*
X74454761Y-148335714D01*
X74502380Y-148430952D01*
X74502380Y-148716666D01*
X74454761Y-148811904D01*
X74407142Y-148859523D01*
X73597619Y-147859523D02*
X73550000Y-147811904D01*
X73502380Y-147716666D01*
X73502380Y-147478571D01*
X73550000Y-147383333D01*
X73597619Y-147335714D01*
X73692857Y-147288095D01*
X73788095Y-147288095D01*
X73930952Y-147335714D01*
X74502380Y-147907142D01*
X74502380Y-147288095D01*
X58707142Y-30252380D02*
X58373809Y-29776190D01*
X58135714Y-30252380D02*
X58135714Y-29252380D01*
X58516666Y-29252380D01*
X58611904Y-29300000D01*
X58659523Y-29347619D01*
X58707142Y-29442857D01*
X58707142Y-29585714D01*
X58659523Y-29680952D01*
X58611904Y-29728571D01*
X58516666Y-29776190D01*
X58135714Y-29776190D01*
X59040476Y-29252380D02*
X59659523Y-29252380D01*
X59326190Y-29633333D01*
X59469047Y-29633333D01*
X59564285Y-29680952D01*
X59611904Y-29728571D01*
X59659523Y-29823809D01*
X59659523Y-30061904D01*
X59611904Y-30157142D01*
X59564285Y-30204761D01*
X59469047Y-30252380D01*
X59183333Y-30252380D01*
X59088095Y-30204761D01*
X59040476Y-30157142D01*
X60611904Y-30252380D02*
X60040476Y-30252380D01*
X60326190Y-30252380D02*
X60326190Y-29252380D01*
X60230952Y-29395238D01*
X60135714Y-29490476D01*
X60040476Y-29538095D01*
X46757142Y-28652380D02*
X46423809Y-28176190D01*
X46185714Y-28652380D02*
X46185714Y-27652380D01*
X46566666Y-27652380D01*
X46661904Y-27700000D01*
X46709523Y-27747619D01*
X46757142Y-27842857D01*
X46757142Y-27985714D01*
X46709523Y-28080952D01*
X46661904Y-28128571D01*
X46566666Y-28176190D01*
X46185714Y-28176190D01*
X47090476Y-27652380D02*
X47709523Y-27652380D01*
X47376190Y-28033333D01*
X47519047Y-28033333D01*
X47614285Y-28080952D01*
X47661904Y-28128571D01*
X47709523Y-28223809D01*
X47709523Y-28461904D01*
X47661904Y-28557142D01*
X47614285Y-28604761D01*
X47519047Y-28652380D01*
X47233333Y-28652380D01*
X47138095Y-28604761D01*
X47090476Y-28557142D01*
X48328571Y-27652380D02*
X48423809Y-27652380D01*
X48519047Y-27700000D01*
X48566666Y-27747619D01*
X48614285Y-27842857D01*
X48661904Y-28033333D01*
X48661904Y-28271428D01*
X48614285Y-28461904D01*
X48566666Y-28557142D01*
X48519047Y-28604761D01*
X48423809Y-28652380D01*
X48328571Y-28652380D01*
X48233333Y-28604761D01*
X48185714Y-28557142D01*
X48138095Y-28461904D01*
X48090476Y-28271428D01*
X48090476Y-28033333D01*
X48138095Y-27842857D01*
X48185714Y-27747619D01*
X48233333Y-27700000D01*
X48328571Y-27652380D01*
X130402380Y-112192857D02*
X129926190Y-112526190D01*
X130402380Y-112764285D02*
X129402380Y-112764285D01*
X129402380Y-112383333D01*
X129450000Y-112288095D01*
X129497619Y-112240476D01*
X129592857Y-112192857D01*
X129735714Y-112192857D01*
X129830952Y-112240476D01*
X129878571Y-112288095D01*
X129926190Y-112383333D01*
X129926190Y-112764285D01*
X129497619Y-111811904D02*
X129450000Y-111764285D01*
X129402380Y-111669047D01*
X129402380Y-111430952D01*
X129450000Y-111335714D01*
X129497619Y-111288095D01*
X129592857Y-111240476D01*
X129688095Y-111240476D01*
X129830952Y-111288095D01*
X130402380Y-111859523D01*
X130402380Y-111240476D01*
X130402380Y-110764285D02*
X130402380Y-110573809D01*
X130354761Y-110478571D01*
X130307142Y-110430952D01*
X130164285Y-110335714D01*
X129973809Y-110288095D01*
X129592857Y-110288095D01*
X129497619Y-110335714D01*
X129450000Y-110383333D01*
X129402380Y-110478571D01*
X129402380Y-110669047D01*
X129450000Y-110764285D01*
X129497619Y-110811904D01*
X129592857Y-110859523D01*
X129830952Y-110859523D01*
X129926190Y-110811904D01*
X129973809Y-110764285D01*
X130021428Y-110669047D01*
X130021428Y-110478571D01*
X129973809Y-110383333D01*
X129926190Y-110335714D01*
X129830952Y-110288095D01*
X16452380Y-32092857D02*
X15976190Y-32426190D01*
X16452380Y-32664285D02*
X15452380Y-32664285D01*
X15452380Y-32283333D01*
X15500000Y-32188095D01*
X15547619Y-32140476D01*
X15642857Y-32092857D01*
X15785714Y-32092857D01*
X15880952Y-32140476D01*
X15928571Y-32188095D01*
X15976190Y-32283333D01*
X15976190Y-32664285D01*
X16452380Y-31140476D02*
X16452380Y-31711904D01*
X16452380Y-31426190D02*
X15452380Y-31426190D01*
X15595238Y-31521428D01*
X15690476Y-31616666D01*
X15738095Y-31711904D01*
X15880952Y-30569047D02*
X15833333Y-30664285D01*
X15785714Y-30711904D01*
X15690476Y-30759523D01*
X15642857Y-30759523D01*
X15547619Y-30711904D01*
X15500000Y-30664285D01*
X15452380Y-30569047D01*
X15452380Y-30378571D01*
X15500000Y-30283333D01*
X15547619Y-30235714D01*
X15642857Y-30188095D01*
X15690476Y-30188095D01*
X15785714Y-30235714D01*
X15833333Y-30283333D01*
X15880952Y-30378571D01*
X15880952Y-30569047D01*
X15928571Y-30664285D01*
X15976190Y-30711904D01*
X16071428Y-30759523D01*
X16261904Y-30759523D01*
X16357142Y-30711904D01*
X16404761Y-30664285D01*
X16452380Y-30569047D01*
X16452380Y-30378571D01*
X16404761Y-30283333D01*
X16357142Y-30235714D01*
X16261904Y-30188095D01*
X16071428Y-30188095D01*
X15976190Y-30235714D01*
X15928571Y-30283333D01*
X15880952Y-30378571D01*
X68252380Y-165378097D02*
X67776190Y-165711430D01*
X68252380Y-165949525D02*
X67252380Y-165949525D01*
X67252380Y-165568573D01*
X67300000Y-165473335D01*
X67347619Y-165425716D01*
X67442857Y-165378097D01*
X67585714Y-165378097D01*
X67680952Y-165425716D01*
X67728571Y-165473335D01*
X67776190Y-165568573D01*
X67776190Y-165949525D01*
X68252380Y-164425716D02*
X68252380Y-164997144D01*
X68252380Y-164711430D02*
X67252380Y-164711430D01*
X67395238Y-164806668D01*
X67490476Y-164901906D01*
X67538095Y-164997144D01*
X68252380Y-163473335D02*
X68252380Y-164044763D01*
X68252380Y-163759049D02*
X67252380Y-163759049D01*
X67395238Y-163854287D01*
X67490476Y-163949525D01*
X67538095Y-164044763D01*
X45302380Y-165611657D02*
X44826190Y-165944990D01*
X45302380Y-166183085D02*
X44302380Y-166183085D01*
X44302380Y-165802133D01*
X44350000Y-165706895D01*
X44397619Y-165659276D01*
X44492857Y-165611657D01*
X44635714Y-165611657D01*
X44730952Y-165659276D01*
X44778571Y-165706895D01*
X44826190Y-165802133D01*
X44826190Y-166183085D01*
X45302380Y-164659276D02*
X45302380Y-165230704D01*
X45302380Y-164944990D02*
X44302380Y-164944990D01*
X44445238Y-165040228D01*
X44540476Y-165135466D01*
X44588095Y-165230704D01*
X44302380Y-164040228D02*
X44302380Y-163944990D01*
X44350000Y-163849752D01*
X44397619Y-163802133D01*
X44492857Y-163754514D01*
X44683333Y-163706895D01*
X44921428Y-163706895D01*
X45111904Y-163754514D01*
X45207142Y-163802133D01*
X45254761Y-163849752D01*
X45302380Y-163944990D01*
X45302380Y-164040228D01*
X45254761Y-164135466D01*
X45207142Y-164183085D01*
X45111904Y-164230704D01*
X44921428Y-164278323D01*
X44683333Y-164278323D01*
X44492857Y-164230704D01*
X44397619Y-164183085D01*
X44350000Y-164135466D01*
X44302380Y-164040228D01*
X80452380Y-161816666D02*
X79976190Y-162150000D01*
X80452380Y-162388095D02*
X79452380Y-162388095D01*
X79452380Y-162007142D01*
X79500000Y-161911904D01*
X79547619Y-161864285D01*
X79642857Y-161816666D01*
X79785714Y-161816666D01*
X79880952Y-161864285D01*
X79928571Y-161911904D01*
X79976190Y-162007142D01*
X79976190Y-162388095D01*
X80452380Y-161340476D02*
X80452380Y-161150000D01*
X80404761Y-161054761D01*
X80357142Y-161007142D01*
X80214285Y-160911904D01*
X80023809Y-160864285D01*
X79642857Y-160864285D01*
X79547619Y-160911904D01*
X79500000Y-160959523D01*
X79452380Y-161054761D01*
X79452380Y-161245238D01*
X79500000Y-161340476D01*
X79547619Y-161388095D01*
X79642857Y-161435714D01*
X79880952Y-161435714D01*
X79976190Y-161388095D01*
X80023809Y-161340476D01*
X80071428Y-161245238D01*
X80071428Y-161054761D01*
X80023809Y-160959523D01*
X79976190Y-160911904D01*
X79880952Y-160864285D01*
X49646380Y-161831002D02*
X49170190Y-162164336D01*
X49646380Y-162402431D02*
X48646380Y-162402431D01*
X48646380Y-162021478D01*
X48694000Y-161926240D01*
X48741619Y-161878621D01*
X48836857Y-161831002D01*
X48979714Y-161831002D01*
X49074952Y-161878621D01*
X49122571Y-161926240D01*
X49170190Y-162021478D01*
X49170190Y-162402431D01*
X49074952Y-161259574D02*
X49027333Y-161354812D01*
X48979714Y-161402431D01*
X48884476Y-161450050D01*
X48836857Y-161450050D01*
X48741619Y-161402431D01*
X48694000Y-161354812D01*
X48646380Y-161259574D01*
X48646380Y-161069097D01*
X48694000Y-160973859D01*
X48741619Y-160926240D01*
X48836857Y-160878621D01*
X48884476Y-160878621D01*
X48979714Y-160926240D01*
X49027333Y-160973859D01*
X49074952Y-161069097D01*
X49074952Y-161259574D01*
X49122571Y-161354812D01*
X49170190Y-161402431D01*
X49265428Y-161450050D01*
X49455904Y-161450050D01*
X49551142Y-161402431D01*
X49598761Y-161354812D01*
X49646380Y-161259574D01*
X49646380Y-161069097D01*
X49598761Y-160973859D01*
X49551142Y-160926240D01*
X49455904Y-160878621D01*
X49265428Y-160878621D01*
X49170190Y-160926240D01*
X49122571Y-160973859D01*
X49074952Y-161069097D01*
X77752380Y-161816666D02*
X77276190Y-162150000D01*
X77752380Y-162388095D02*
X76752380Y-162388095D01*
X76752380Y-162007142D01*
X76800000Y-161911904D01*
X76847619Y-161864285D01*
X76942857Y-161816666D01*
X77085714Y-161816666D01*
X77180952Y-161864285D01*
X77228571Y-161911904D01*
X77276190Y-162007142D01*
X77276190Y-162388095D01*
X76752380Y-161483333D02*
X76752380Y-160816666D01*
X77752380Y-161245238D01*
X44252380Y-161816666D02*
X43776190Y-162150000D01*
X44252380Y-162388095D02*
X43252380Y-162388095D01*
X43252380Y-162007142D01*
X43300000Y-161911904D01*
X43347619Y-161864285D01*
X43442857Y-161816666D01*
X43585714Y-161816666D01*
X43680952Y-161864285D01*
X43728571Y-161911904D01*
X43776190Y-162007142D01*
X43776190Y-162388095D01*
X43252380Y-160959523D02*
X43252380Y-161150000D01*
X43300000Y-161245238D01*
X43347619Y-161292857D01*
X43490476Y-161388095D01*
X43680952Y-161435714D01*
X44061904Y-161435714D01*
X44157142Y-161388095D01*
X44204761Y-161340476D01*
X44252380Y-161245238D01*
X44252380Y-161054761D01*
X44204761Y-160959523D01*
X44157142Y-160911904D01*
X44061904Y-160864285D01*
X43823809Y-160864285D01*
X43728571Y-160911904D01*
X43680952Y-160959523D01*
X43633333Y-161054761D01*
X43633333Y-161245238D01*
X43680952Y-161340476D01*
X43728571Y-161388095D01*
X43823809Y-161435714D01*
X75102380Y-161816666D02*
X74626190Y-162150000D01*
X75102380Y-162388095D02*
X74102380Y-162388095D01*
X74102380Y-162007142D01*
X74150000Y-161911904D01*
X74197619Y-161864285D01*
X74292857Y-161816666D01*
X74435714Y-161816666D01*
X74530952Y-161864285D01*
X74578571Y-161911904D01*
X74626190Y-162007142D01*
X74626190Y-162388095D01*
X74102380Y-160911904D02*
X74102380Y-161388095D01*
X74578571Y-161435714D01*
X74530952Y-161388095D01*
X74483333Y-161292857D01*
X74483333Y-161054761D01*
X74530952Y-160959523D01*
X74578571Y-160911904D01*
X74673809Y-160864285D01*
X74911904Y-160864285D01*
X75007142Y-160911904D01*
X75054761Y-160959523D01*
X75102380Y-161054761D01*
X75102380Y-161292857D01*
X75054761Y-161388095D01*
X75007142Y-161435714D01*
X41602380Y-161816666D02*
X41126190Y-162150000D01*
X41602380Y-162388095D02*
X40602380Y-162388095D01*
X40602380Y-162007142D01*
X40650000Y-161911904D01*
X40697619Y-161864285D01*
X40792857Y-161816666D01*
X40935714Y-161816666D01*
X41030952Y-161864285D01*
X41078571Y-161911904D01*
X41126190Y-162007142D01*
X41126190Y-162388095D01*
X40935714Y-160959523D02*
X41602380Y-160959523D01*
X40554761Y-161197619D02*
X41269047Y-161435714D01*
X41269047Y-160816666D01*
X72502380Y-161816666D02*
X72026190Y-162150000D01*
X72502380Y-162388095D02*
X71502380Y-162388095D01*
X71502380Y-162007142D01*
X71550000Y-161911904D01*
X71597619Y-161864285D01*
X71692857Y-161816666D01*
X71835714Y-161816666D01*
X71930952Y-161864285D01*
X71978571Y-161911904D01*
X72026190Y-162007142D01*
X72026190Y-162388095D01*
X71502380Y-161483333D02*
X71502380Y-160864285D01*
X71883333Y-161197619D01*
X71883333Y-161054761D01*
X71930952Y-160959523D01*
X71978571Y-160911904D01*
X72073809Y-160864285D01*
X72311904Y-160864285D01*
X72407142Y-160911904D01*
X72454761Y-160959523D01*
X72502380Y-161054761D01*
X72502380Y-161340476D01*
X72454761Y-161435714D01*
X72407142Y-161483333D01*
X39002380Y-161816666D02*
X38526190Y-162150000D01*
X39002380Y-162388095D02*
X38002380Y-162388095D01*
X38002380Y-162007142D01*
X38050000Y-161911904D01*
X38097619Y-161864285D01*
X38192857Y-161816666D01*
X38335714Y-161816666D01*
X38430952Y-161864285D01*
X38478571Y-161911904D01*
X38526190Y-162007142D01*
X38526190Y-162388095D01*
X38097619Y-161435714D02*
X38050000Y-161388095D01*
X38002380Y-161292857D01*
X38002380Y-161054761D01*
X38050000Y-160959523D01*
X38097619Y-160911904D01*
X38192857Y-160864285D01*
X38288095Y-160864285D01*
X38430952Y-160911904D01*
X39002380Y-161483333D01*
X39002380Y-160864285D01*
X41433333Y-22952380D02*
X41100000Y-22476190D01*
X40861904Y-22952380D02*
X40861904Y-21952380D01*
X41242857Y-21952380D01*
X41338095Y-22000000D01*
X41385714Y-22047619D01*
X41433333Y-22142857D01*
X41433333Y-22285714D01*
X41385714Y-22380952D01*
X41338095Y-22428571D01*
X41242857Y-22476190D01*
X40861904Y-22476190D01*
X42385714Y-22952380D02*
X41814285Y-22952380D01*
X42100000Y-22952380D02*
X42100000Y-21952380D01*
X42004761Y-22095238D01*
X41909523Y-22190476D01*
X41814285Y-22238095D01*
X153786666Y-24872380D02*
X153786666Y-25586666D01*
X153739047Y-25729523D01*
X153643809Y-25824761D01*
X153500952Y-25872380D01*
X153405714Y-25872380D01*
X154310476Y-25872380D02*
X154500952Y-25872380D01*
X154596190Y-25824761D01*
X154643809Y-25777142D01*
X154739047Y-25634285D01*
X154786666Y-25443809D01*
X154786666Y-25062857D01*
X154739047Y-24967619D01*
X154691428Y-24920000D01*
X154596190Y-24872380D01*
X154405714Y-24872380D01*
X154310476Y-24920000D01*
X154262857Y-24967619D01*
X154215238Y-25062857D01*
X154215238Y-25300952D01*
X154262857Y-25396190D01*
X154310476Y-25443809D01*
X154405714Y-25491428D01*
X154596190Y-25491428D01*
X154691428Y-25443809D01*
X154739047Y-25396190D01*
X154786666Y-25300952D01*
X132666666Y-152652380D02*
X132666666Y-153366666D01*
X132619047Y-153509523D01*
X132523809Y-153604761D01*
X132380952Y-153652380D01*
X132285714Y-153652380D01*
X133047619Y-152652380D02*
X133714285Y-152652380D01*
X133285714Y-153652380D01*
X19686666Y-24272380D02*
X19686666Y-24986666D01*
X19639047Y-25129523D01*
X19543809Y-25224761D01*
X19400952Y-25272380D01*
X19305714Y-25272380D01*
X20591428Y-24272380D02*
X20400952Y-24272380D01*
X20305714Y-24320000D01*
X20258095Y-24367619D01*
X20162857Y-24510476D01*
X20115238Y-24700952D01*
X20115238Y-25081904D01*
X20162857Y-25177142D01*
X20210476Y-25224761D01*
X20305714Y-25272380D01*
X20496190Y-25272380D01*
X20591428Y-25224761D01*
X20639047Y-25177142D01*
X20686666Y-25081904D01*
X20686666Y-24843809D01*
X20639047Y-24748571D01*
X20591428Y-24700952D01*
X20496190Y-24653333D01*
X20305714Y-24653333D01*
X20210476Y-24700952D01*
X20162857Y-24748571D01*
X20115238Y-24843809D01*
X25016666Y-27902380D02*
X25016666Y-28616666D01*
X24969047Y-28759523D01*
X24873809Y-28854761D01*
X24730952Y-28902380D01*
X24635714Y-28902380D01*
X25969047Y-27902380D02*
X25492857Y-27902380D01*
X25445238Y-28378571D01*
X25492857Y-28330952D01*
X25588095Y-28283333D01*
X25826190Y-28283333D01*
X25921428Y-28330952D01*
X25969047Y-28378571D01*
X26016666Y-28473809D01*
X26016666Y-28711904D01*
X25969047Y-28807142D01*
X25921428Y-28854761D01*
X25826190Y-28902380D01*
X25588095Y-28902380D01*
X25492857Y-28854761D01*
X25445238Y-28807142D01*
X85732380Y-158203333D02*
X86446666Y-158203333D01*
X86589523Y-158250952D01*
X86684761Y-158346190D01*
X86732380Y-158489047D01*
X86732380Y-158584285D01*
X86065714Y-157298571D02*
X86732380Y-157298571D01*
X85684761Y-157536666D02*
X86399047Y-157774761D01*
X86399047Y-157155714D01*
X51611904Y-137002380D02*
X51611904Y-136002380D01*
X51850000Y-136002380D01*
X51992857Y-136050000D01*
X52088095Y-136145238D01*
X52135714Y-136240476D01*
X52183333Y-136430952D01*
X52183333Y-136573809D01*
X52135714Y-136764285D01*
X52088095Y-136859523D01*
X51992857Y-136954761D01*
X51850000Y-137002380D01*
X51611904Y-137002380D01*
X53088095Y-136002380D02*
X52611904Y-136002380D01*
X52564285Y-136478571D01*
X52611904Y-136430952D01*
X52707142Y-136383333D01*
X52945238Y-136383333D01*
X53040476Y-136430952D01*
X53088095Y-136478571D01*
X53135714Y-136573809D01*
X53135714Y-136811904D01*
X53088095Y-136907142D01*
X53040476Y-136954761D01*
X52945238Y-137002380D01*
X52707142Y-137002380D01*
X52611904Y-136954761D01*
X52564285Y-136907142D01*
X53161904Y-140552380D02*
X53161904Y-139552380D01*
X53400000Y-139552380D01*
X53542857Y-139600000D01*
X53638095Y-139695238D01*
X53685714Y-139790476D01*
X53733333Y-139980952D01*
X53733333Y-140123809D01*
X53685714Y-140314285D01*
X53638095Y-140409523D01*
X53542857Y-140504761D01*
X53400000Y-140552380D01*
X53161904Y-140552380D01*
X54590476Y-139885714D02*
X54590476Y-140552380D01*
X54352380Y-139504761D02*
X54114285Y-140219047D01*
X54733333Y-140219047D01*
X51561904Y-144102380D02*
X51561904Y-143102380D01*
X51800000Y-143102380D01*
X51942857Y-143150000D01*
X52038095Y-143245238D01*
X52085714Y-143340476D01*
X52133333Y-143530952D01*
X52133333Y-143673809D01*
X52085714Y-143864285D01*
X52038095Y-143959523D01*
X51942857Y-144054761D01*
X51800000Y-144102380D01*
X51561904Y-144102380D01*
X52466666Y-143102380D02*
X53085714Y-143102380D01*
X52752380Y-143483333D01*
X52895238Y-143483333D01*
X52990476Y-143530952D01*
X53038095Y-143578571D01*
X53085714Y-143673809D01*
X53085714Y-143911904D01*
X53038095Y-144007142D01*
X52990476Y-144054761D01*
X52895238Y-144102380D01*
X52609523Y-144102380D01*
X52514285Y-144054761D01*
X52466666Y-144007142D01*
X55011904Y-147652380D02*
X55011904Y-146652380D01*
X55250000Y-146652380D01*
X55392857Y-146700000D01*
X55488095Y-146795238D01*
X55535714Y-146890476D01*
X55583333Y-147080952D01*
X55583333Y-147223809D01*
X55535714Y-147414285D01*
X55488095Y-147509523D01*
X55392857Y-147604761D01*
X55250000Y-147652380D01*
X55011904Y-147652380D01*
X55964285Y-146747619D02*
X56011904Y-146700000D01*
X56107142Y-146652380D01*
X56345238Y-146652380D01*
X56440476Y-146700000D01*
X56488095Y-146747619D01*
X56535714Y-146842857D01*
X56535714Y-146938095D01*
X56488095Y-147080952D01*
X55916666Y-147652380D01*
X56535714Y-147652380D01*
X18061904Y-35502380D02*
X18061904Y-34502380D01*
X18300000Y-34502380D01*
X18442857Y-34550000D01*
X18538095Y-34645238D01*
X18585714Y-34740476D01*
X18633333Y-34930952D01*
X18633333Y-35073809D01*
X18585714Y-35264285D01*
X18538095Y-35359523D01*
X18442857Y-35454761D01*
X18300000Y-35502380D01*
X18061904Y-35502380D01*
X19585714Y-35502380D02*
X19014285Y-35502380D01*
X19300000Y-35502380D02*
X19300000Y-34502380D01*
X19204761Y-34645238D01*
X19109523Y-34740476D01*
X19014285Y-34788095D01*
X17707142Y-47607142D02*
X17659523Y-47654761D01*
X17516666Y-47702380D01*
X17421428Y-47702380D01*
X17278571Y-47654761D01*
X17183333Y-47559523D01*
X17135714Y-47464285D01*
X17088095Y-47273809D01*
X17088095Y-47130952D01*
X17135714Y-46940476D01*
X17183333Y-46845238D01*
X17278571Y-46750000D01*
X17421428Y-46702380D01*
X17516666Y-46702380D01*
X17659523Y-46750000D01*
X17707142Y-46797619D01*
X18564285Y-47035714D02*
X18564285Y-47702380D01*
X18326190Y-46654761D02*
X18088095Y-47369047D01*
X18707142Y-47369047D01*
X19564285Y-46702380D02*
X19088095Y-46702380D01*
X19040476Y-47178571D01*
X19088095Y-47130952D01*
X19183333Y-47083333D01*
X19421428Y-47083333D01*
X19516666Y-47130952D01*
X19564285Y-47178571D01*
X19611904Y-47273809D01*
X19611904Y-47511904D01*
X19564285Y-47607142D01*
X19516666Y-47654761D01*
X19421428Y-47702380D01*
X19183333Y-47702380D01*
X19088095Y-47654761D01*
X19040476Y-47607142D01*
X125857142Y-39757142D02*
X125809523Y-39804761D01*
X125666666Y-39852380D01*
X125571428Y-39852380D01*
X125428571Y-39804761D01*
X125333333Y-39709523D01*
X125285714Y-39614285D01*
X125238095Y-39423809D01*
X125238095Y-39280952D01*
X125285714Y-39090476D01*
X125333333Y-38995238D01*
X125428571Y-38900000D01*
X125571428Y-38852380D01*
X125666666Y-38852380D01*
X125809523Y-38900000D01*
X125857142Y-38947619D01*
X126714285Y-39185714D02*
X126714285Y-39852380D01*
X126476190Y-38804761D02*
X126238095Y-39519047D01*
X126857142Y-39519047D01*
X127666666Y-39185714D02*
X127666666Y-39852380D01*
X127428571Y-38804761D02*
X127190476Y-39519047D01*
X127809523Y-39519047D01*
X61307142Y-49557142D02*
X61259523Y-49604761D01*
X61116666Y-49652380D01*
X61021428Y-49652380D01*
X60878571Y-49604761D01*
X60783333Y-49509523D01*
X60735714Y-49414285D01*
X60688095Y-49223809D01*
X60688095Y-49080952D01*
X60735714Y-48890476D01*
X60783333Y-48795238D01*
X60878571Y-48700000D01*
X61021428Y-48652380D01*
X61116666Y-48652380D01*
X61259523Y-48700000D01*
X61307142Y-48747619D01*
X62164285Y-48985714D02*
X62164285Y-49652380D01*
X61926190Y-48604761D02*
X61688095Y-49319047D01*
X62307142Y-49319047D01*
X62592857Y-48652380D02*
X63211904Y-48652380D01*
X62878571Y-49033333D01*
X63021428Y-49033333D01*
X63116666Y-49080952D01*
X63164285Y-49128571D01*
X63211904Y-49223809D01*
X63211904Y-49461904D01*
X63164285Y-49557142D01*
X63116666Y-49604761D01*
X63021428Y-49652380D01*
X62735714Y-49652380D01*
X62640476Y-49604761D01*
X62592857Y-49557142D01*
X135707142Y-81807142D02*
X135659523Y-81854761D01*
X135516666Y-81902380D01*
X135421428Y-81902380D01*
X135278571Y-81854761D01*
X135183333Y-81759523D01*
X135135714Y-81664285D01*
X135088095Y-81473809D01*
X135088095Y-81330952D01*
X135135714Y-81140476D01*
X135183333Y-81045238D01*
X135278571Y-80950000D01*
X135421428Y-80902380D01*
X135516666Y-80902380D01*
X135659523Y-80950000D01*
X135707142Y-80997619D01*
X136564285Y-81235714D02*
X136564285Y-81902380D01*
X136326190Y-80854761D02*
X136088095Y-81569047D01*
X136707142Y-81569047D01*
X137040476Y-80997619D02*
X137088095Y-80950000D01*
X137183333Y-80902380D01*
X137421428Y-80902380D01*
X137516666Y-80950000D01*
X137564285Y-80997619D01*
X137611904Y-81092857D01*
X137611904Y-81188095D01*
X137564285Y-81330952D01*
X136992857Y-81902380D01*
X137611904Y-81902380D01*
X17757142Y-83142857D02*
X17804761Y-83190476D01*
X17852380Y-83333333D01*
X17852380Y-83428571D01*
X17804761Y-83571428D01*
X17709523Y-83666666D01*
X17614285Y-83714285D01*
X17423809Y-83761904D01*
X17280952Y-83761904D01*
X17090476Y-83714285D01*
X16995238Y-83666666D01*
X16900000Y-83571428D01*
X16852380Y-83428571D01*
X16852380Y-83333333D01*
X16900000Y-83190476D01*
X16947619Y-83142857D01*
X17185714Y-82285714D02*
X17852380Y-82285714D01*
X16804761Y-82523809D02*
X17519047Y-82761904D01*
X17519047Y-82142857D01*
X17852380Y-81238095D02*
X17852380Y-81809523D01*
X17852380Y-81523809D02*
X16852380Y-81523809D01*
X16995238Y-81619047D01*
X17090476Y-81714285D01*
X17138095Y-81809523D01*
X124607142Y-132907142D02*
X124559523Y-132954761D01*
X124416666Y-133002380D01*
X124321428Y-133002380D01*
X124178571Y-132954761D01*
X124083333Y-132859523D01*
X124035714Y-132764285D01*
X123988095Y-132573809D01*
X123988095Y-132430952D01*
X124035714Y-132240476D01*
X124083333Y-132145238D01*
X124178571Y-132050000D01*
X124321428Y-132002380D01*
X124416666Y-132002380D01*
X124559523Y-132050000D01*
X124607142Y-132097619D01*
X125464285Y-132335714D02*
X125464285Y-133002380D01*
X125226190Y-131954761D02*
X124988095Y-132669047D01*
X125607142Y-132669047D01*
X126178571Y-132002380D02*
X126273809Y-132002380D01*
X126369047Y-132050000D01*
X126416666Y-132097619D01*
X126464285Y-132192857D01*
X126511904Y-132383333D01*
X126511904Y-132621428D01*
X126464285Y-132811904D01*
X126416666Y-132907142D01*
X126369047Y-132954761D01*
X126273809Y-133002380D01*
X126178571Y-133002380D01*
X126083333Y-132954761D01*
X126035714Y-132907142D01*
X125988095Y-132811904D01*
X125940476Y-132621428D01*
X125940476Y-132383333D01*
X125988095Y-132192857D01*
X126035714Y-132097619D01*
X126083333Y-132050000D01*
X126178571Y-132002380D01*
X115557142Y-133857142D02*
X115509523Y-133904761D01*
X115366666Y-133952380D01*
X115271428Y-133952380D01*
X115128571Y-133904761D01*
X115033333Y-133809523D01*
X114985714Y-133714285D01*
X114938095Y-133523809D01*
X114938095Y-133380952D01*
X114985714Y-133190476D01*
X115033333Y-133095238D01*
X115128571Y-133000000D01*
X115271428Y-132952380D01*
X115366666Y-132952380D01*
X115509523Y-133000000D01*
X115557142Y-133047619D01*
X115890476Y-132952380D02*
X116509523Y-132952380D01*
X116176190Y-133333333D01*
X116319047Y-133333333D01*
X116414285Y-133380952D01*
X116461904Y-133428571D01*
X116509523Y-133523809D01*
X116509523Y-133761904D01*
X116461904Y-133857142D01*
X116414285Y-133904761D01*
X116319047Y-133952380D01*
X116033333Y-133952380D01*
X115938095Y-133904761D01*
X115890476Y-133857142D01*
X116985714Y-133952380D02*
X117176190Y-133952380D01*
X117271428Y-133904761D01*
X117319047Y-133857142D01*
X117414285Y-133714285D01*
X117461904Y-133523809D01*
X117461904Y-133142857D01*
X117414285Y-133047619D01*
X117366666Y-133000000D01*
X117271428Y-132952380D01*
X117080952Y-132952380D01*
X116985714Y-133000000D01*
X116938095Y-133047619D01*
X116890476Y-133142857D01*
X116890476Y-133380952D01*
X116938095Y-133476190D01*
X116985714Y-133523809D01*
X117080952Y-133571428D01*
X117271428Y-133571428D01*
X117366666Y-133523809D01*
X117414285Y-133476190D01*
X117461904Y-133380952D01*
X74457142Y-146557142D02*
X74409523Y-146604761D01*
X74266666Y-146652380D01*
X74171428Y-146652380D01*
X74028571Y-146604761D01*
X73933333Y-146509523D01*
X73885714Y-146414285D01*
X73838095Y-146223809D01*
X73838095Y-146080952D01*
X73885714Y-145890476D01*
X73933333Y-145795238D01*
X74028571Y-145700000D01*
X74171428Y-145652380D01*
X74266666Y-145652380D01*
X74409523Y-145700000D01*
X74457142Y-145747619D01*
X74790476Y-145652380D02*
X75409523Y-145652380D01*
X75076190Y-146033333D01*
X75219047Y-146033333D01*
X75314285Y-146080952D01*
X75361904Y-146128571D01*
X75409523Y-146223809D01*
X75409523Y-146461904D01*
X75361904Y-146557142D01*
X75314285Y-146604761D01*
X75219047Y-146652380D01*
X74933333Y-146652380D01*
X74838095Y-146604761D01*
X74790476Y-146557142D01*
X75980952Y-146080952D02*
X75885714Y-146033333D01*
X75838095Y-145985714D01*
X75790476Y-145890476D01*
X75790476Y-145842857D01*
X75838095Y-145747619D01*
X75885714Y-145700000D01*
X75980952Y-145652380D01*
X76171428Y-145652380D01*
X76266666Y-145700000D01*
X76314285Y-145747619D01*
X76361904Y-145842857D01*
X76361904Y-145890476D01*
X76314285Y-145985714D01*
X76266666Y-146033333D01*
X76171428Y-146080952D01*
X75980952Y-146080952D01*
X75885714Y-146128571D01*
X75838095Y-146176190D01*
X75790476Y-146271428D01*
X75790476Y-146461904D01*
X75838095Y-146557142D01*
X75885714Y-146604761D01*
X75980952Y-146652380D01*
X76171428Y-146652380D01*
X76266666Y-146604761D01*
X76314285Y-146557142D01*
X76361904Y-146461904D01*
X76361904Y-146271428D01*
X76314285Y-146176190D01*
X76266666Y-146128571D01*
X76171428Y-146080952D01*
X44507142Y-152207142D02*
X44459523Y-152254761D01*
X44316666Y-152302380D01*
X44221428Y-152302380D01*
X44078571Y-152254761D01*
X43983333Y-152159523D01*
X43935714Y-152064285D01*
X43888095Y-151873809D01*
X43888095Y-151730952D01*
X43935714Y-151540476D01*
X43983333Y-151445238D01*
X44078571Y-151350000D01*
X44221428Y-151302380D01*
X44316666Y-151302380D01*
X44459523Y-151350000D01*
X44507142Y-151397619D01*
X44840476Y-151302380D02*
X45459523Y-151302380D01*
X45126190Y-151683333D01*
X45269047Y-151683333D01*
X45364285Y-151730952D01*
X45411904Y-151778571D01*
X45459523Y-151873809D01*
X45459523Y-152111904D01*
X45411904Y-152207142D01*
X45364285Y-152254761D01*
X45269047Y-152302380D01*
X44983333Y-152302380D01*
X44888095Y-152254761D01*
X44840476Y-152207142D01*
X45792857Y-151302380D02*
X46459523Y-151302380D01*
X46030952Y-152302380D01*
X130717142Y-150342857D02*
X130764761Y-150390476D01*
X130812380Y-150533333D01*
X130812380Y-150628571D01*
X130764761Y-150771428D01*
X130669523Y-150866666D01*
X130574285Y-150914285D01*
X130383809Y-150961904D01*
X130240952Y-150961904D01*
X130050476Y-150914285D01*
X129955238Y-150866666D01*
X129860000Y-150771428D01*
X129812380Y-150628571D01*
X129812380Y-150533333D01*
X129860000Y-150390476D01*
X129907619Y-150342857D01*
X129812380Y-150009523D02*
X129812380Y-149390476D01*
X130193333Y-149723809D01*
X130193333Y-149580952D01*
X130240952Y-149485714D01*
X130288571Y-149438095D01*
X130383809Y-149390476D01*
X130621904Y-149390476D01*
X130717142Y-149438095D01*
X130764761Y-149485714D01*
X130812380Y-149580952D01*
X130812380Y-149866666D01*
X130764761Y-149961904D01*
X130717142Y-150009523D01*
X129812380Y-148533333D02*
X129812380Y-148723809D01*
X129860000Y-148819047D01*
X129907619Y-148866666D01*
X130050476Y-148961904D01*
X130240952Y-149009523D01*
X130621904Y-149009523D01*
X130717142Y-148961904D01*
X130764761Y-148914285D01*
X130812380Y-148819047D01*
X130812380Y-148628571D01*
X130764761Y-148533333D01*
X130717142Y-148485714D01*
X130621904Y-148438095D01*
X130383809Y-148438095D01*
X130288571Y-148485714D01*
X130240952Y-148533333D01*
X130193333Y-148628571D01*
X130193333Y-148819047D01*
X130240952Y-148914285D01*
X130288571Y-148961904D01*
X130383809Y-149009523D01*
X88307142Y-150792857D02*
X88354761Y-150840476D01*
X88402380Y-150983333D01*
X88402380Y-151078571D01*
X88354761Y-151221428D01*
X88259523Y-151316666D01*
X88164285Y-151364285D01*
X87973809Y-151411904D01*
X87830952Y-151411904D01*
X87640476Y-151364285D01*
X87545238Y-151316666D01*
X87450000Y-151221428D01*
X87402380Y-151078571D01*
X87402380Y-150983333D01*
X87450000Y-150840476D01*
X87497619Y-150792857D01*
X87402380Y-150459523D02*
X87402380Y-149840476D01*
X87783333Y-150173809D01*
X87783333Y-150030952D01*
X87830952Y-149935714D01*
X87878571Y-149888095D01*
X87973809Y-149840476D01*
X88211904Y-149840476D01*
X88307142Y-149888095D01*
X88354761Y-149935714D01*
X88402380Y-150030952D01*
X88402380Y-150316666D01*
X88354761Y-150411904D01*
X88307142Y-150459523D01*
X87402380Y-148935714D02*
X87402380Y-149411904D01*
X87878571Y-149459523D01*
X87830952Y-149411904D01*
X87783333Y-149316666D01*
X87783333Y-149078571D01*
X87830952Y-148983333D01*
X87878571Y-148935714D01*
X87973809Y-148888095D01*
X88211904Y-148888095D01*
X88307142Y-148935714D01*
X88354761Y-148983333D01*
X88402380Y-149078571D01*
X88402380Y-149316666D01*
X88354761Y-149411904D01*
X88307142Y-149459523D01*
X91557142Y-164942857D02*
X91604761Y-164990476D01*
X91652380Y-165133333D01*
X91652380Y-165228571D01*
X91604761Y-165371428D01*
X91509523Y-165466666D01*
X91414285Y-165514285D01*
X91223809Y-165561904D01*
X91080952Y-165561904D01*
X90890476Y-165514285D01*
X90795238Y-165466666D01*
X90700000Y-165371428D01*
X90652380Y-165228571D01*
X90652380Y-165133333D01*
X90700000Y-164990476D01*
X90747619Y-164942857D01*
X90652380Y-164609523D02*
X90652380Y-163990476D01*
X91033333Y-164323809D01*
X91033333Y-164180952D01*
X91080952Y-164085714D01*
X91128571Y-164038095D01*
X91223809Y-163990476D01*
X91461904Y-163990476D01*
X91557142Y-164038095D01*
X91604761Y-164085714D01*
X91652380Y-164180952D01*
X91652380Y-164466666D01*
X91604761Y-164561904D01*
X91557142Y-164609523D01*
X90985714Y-163133333D02*
X91652380Y-163133333D01*
X90604761Y-163371428D02*
X91319047Y-163609523D01*
X91319047Y-162990476D01*
X89457142Y-158242857D02*
X89504761Y-158290476D01*
X89552380Y-158433333D01*
X89552380Y-158528571D01*
X89504761Y-158671428D01*
X89409523Y-158766666D01*
X89314285Y-158814285D01*
X89123809Y-158861904D01*
X88980952Y-158861904D01*
X88790476Y-158814285D01*
X88695238Y-158766666D01*
X88600000Y-158671428D01*
X88552380Y-158528571D01*
X88552380Y-158433333D01*
X88600000Y-158290476D01*
X88647619Y-158242857D01*
X88552380Y-157909523D02*
X88552380Y-157290476D01*
X88933333Y-157623809D01*
X88933333Y-157480952D01*
X88980952Y-157385714D01*
X89028571Y-157338095D01*
X89123809Y-157290476D01*
X89361904Y-157290476D01*
X89457142Y-157338095D01*
X89504761Y-157385714D01*
X89552380Y-157480952D01*
X89552380Y-157766666D01*
X89504761Y-157861904D01*
X89457142Y-157909523D01*
X88552380Y-156957142D02*
X88552380Y-156338095D01*
X88933333Y-156671428D01*
X88933333Y-156528571D01*
X88980952Y-156433333D01*
X89028571Y-156385714D01*
X89123809Y-156338095D01*
X89361904Y-156338095D01*
X89457142Y-156385714D01*
X89504761Y-156433333D01*
X89552380Y-156528571D01*
X89552380Y-156814285D01*
X89504761Y-156909523D01*
X89457142Y-156957142D01*
X68157142Y-154257142D02*
X68109523Y-154304761D01*
X67966666Y-154352380D01*
X67871428Y-154352380D01*
X67728571Y-154304761D01*
X67633333Y-154209523D01*
X67585714Y-154114285D01*
X67538095Y-153923809D01*
X67538095Y-153780952D01*
X67585714Y-153590476D01*
X67633333Y-153495238D01*
X67728571Y-153400000D01*
X67871428Y-153352380D01*
X67966666Y-153352380D01*
X68109523Y-153400000D01*
X68157142Y-153447619D01*
X68490476Y-153352380D02*
X69109523Y-153352380D01*
X68776190Y-153733333D01*
X68919047Y-153733333D01*
X69014285Y-153780952D01*
X69061904Y-153828571D01*
X69109523Y-153923809D01*
X69109523Y-154161904D01*
X69061904Y-154257142D01*
X69014285Y-154304761D01*
X68919047Y-154352380D01*
X68633333Y-154352380D01*
X68538095Y-154304761D01*
X68490476Y-154257142D01*
X69490476Y-153447619D02*
X69538095Y-153400000D01*
X69633333Y-153352380D01*
X69871428Y-153352380D01*
X69966666Y-153400000D01*
X70014285Y-153447619D01*
X70061904Y-153542857D01*
X70061904Y-153638095D01*
X70014285Y-153780952D01*
X69442857Y-154352380D01*
X70061904Y-154352380D01*
X71007142Y-154257142D02*
X70959523Y-154304761D01*
X70816666Y-154352380D01*
X70721428Y-154352380D01*
X70578571Y-154304761D01*
X70483333Y-154209523D01*
X70435714Y-154114285D01*
X70388095Y-153923809D01*
X70388095Y-153780952D01*
X70435714Y-153590476D01*
X70483333Y-153495238D01*
X70578571Y-153400000D01*
X70721428Y-153352380D01*
X70816666Y-153352380D01*
X70959523Y-153400000D01*
X71007142Y-153447619D01*
X71340476Y-153352380D02*
X71959523Y-153352380D01*
X71626190Y-153733333D01*
X71769047Y-153733333D01*
X71864285Y-153780952D01*
X71911904Y-153828571D01*
X71959523Y-153923809D01*
X71959523Y-154161904D01*
X71911904Y-154257142D01*
X71864285Y-154304761D01*
X71769047Y-154352380D01*
X71483333Y-154352380D01*
X71388095Y-154304761D01*
X71340476Y-154257142D01*
X72911904Y-154352380D02*
X72340476Y-154352380D01*
X72626190Y-154352380D02*
X72626190Y-153352380D01*
X72530952Y-153495238D01*
X72435714Y-153590476D01*
X72340476Y-153638095D01*
X22307142Y-47607142D02*
X22259523Y-47654761D01*
X22116666Y-47702380D01*
X22021428Y-47702380D01*
X21878571Y-47654761D01*
X21783333Y-47559523D01*
X21735714Y-47464285D01*
X21688095Y-47273809D01*
X21688095Y-47130952D01*
X21735714Y-46940476D01*
X21783333Y-46845238D01*
X21878571Y-46750000D01*
X22021428Y-46702380D01*
X22116666Y-46702380D01*
X22259523Y-46750000D01*
X22307142Y-46797619D01*
X22640476Y-46702380D02*
X23259523Y-46702380D01*
X22926190Y-47083333D01*
X23069047Y-47083333D01*
X23164285Y-47130952D01*
X23211904Y-47178571D01*
X23259523Y-47273809D01*
X23259523Y-47511904D01*
X23211904Y-47607142D01*
X23164285Y-47654761D01*
X23069047Y-47702380D01*
X22783333Y-47702380D01*
X22688095Y-47654761D01*
X22640476Y-47607142D01*
X23878571Y-46702380D02*
X23973809Y-46702380D01*
X24069047Y-46750000D01*
X24116666Y-46797619D01*
X24164285Y-46892857D01*
X24211904Y-47083333D01*
X24211904Y-47321428D01*
X24164285Y-47511904D01*
X24116666Y-47607142D01*
X24069047Y-47654761D01*
X23973809Y-47702380D01*
X23878571Y-47702380D01*
X23783333Y-47654761D01*
X23735714Y-47607142D01*
X23688095Y-47511904D01*
X23640476Y-47321428D01*
X23640476Y-47083333D01*
X23688095Y-46892857D01*
X23735714Y-46797619D01*
X23783333Y-46750000D01*
X23878571Y-46702380D01*
X27183333Y-48207142D02*
X27135714Y-48254761D01*
X26992857Y-48302380D01*
X26897619Y-48302380D01*
X26754761Y-48254761D01*
X26659523Y-48159523D01*
X26611904Y-48064285D01*
X26564285Y-47873809D01*
X26564285Y-47730952D01*
X26611904Y-47540476D01*
X26659523Y-47445238D01*
X26754761Y-47350000D01*
X26897619Y-47302380D01*
X26992857Y-47302380D01*
X27135714Y-47350000D01*
X27183333Y-47397619D01*
X28135714Y-48302380D02*
X27564285Y-48302380D01*
X27850000Y-48302380D02*
X27850000Y-47302380D01*
X27754761Y-47445238D01*
X27659523Y-47540476D01*
X27564285Y-47588095D01*
X143310171Y-119977066D02*
X143786361Y-119977066D01*
X143214933Y-120262780D02*
X143548266Y-119262780D01*
X143881600Y-120262780D01*
X144548266Y-119738971D02*
X144214933Y-119738971D01*
X144214933Y-120262780D02*
X144214933Y-119262780D01*
X144691123Y-119262780D01*
X145405409Y-119738971D02*
X145072076Y-119738971D01*
X145072076Y-120262780D02*
X145072076Y-119262780D01*
X145548266Y-119262780D01*
X146453028Y-120262780D02*
X145881600Y-120262780D01*
X146167314Y-120262780D02*
X146167314Y-119262780D01*
X146072076Y-119405638D01*
X145976838Y-119500876D01*
X145881600Y-119548495D01*
X70487142Y-109196666D02*
X70534761Y-109244285D01*
X70582380Y-109387142D01*
X70582380Y-109482380D01*
X70534761Y-109625238D01*
X70439523Y-109720476D01*
X70344285Y-109768095D01*
X70153809Y-109815714D01*
X70010952Y-109815714D01*
X69820476Y-109768095D01*
X69725238Y-109720476D01*
X69630000Y-109625238D01*
X69582380Y-109482380D01*
X69582380Y-109387142D01*
X69630000Y-109244285D01*
X69677619Y-109196666D01*
X69677619Y-108815714D02*
X69630000Y-108768095D01*
X69582380Y-108672857D01*
X69582380Y-108434761D01*
X69630000Y-108339523D01*
X69677619Y-108291904D01*
X69772857Y-108244285D01*
X69868095Y-108244285D01*
X70010952Y-108291904D01*
X70582380Y-108863333D01*
X70582380Y-108244285D01*
X48333333Y-52507142D02*
X48285714Y-52554761D01*
X48142857Y-52602380D01*
X48047619Y-52602380D01*
X47904761Y-52554761D01*
X47809523Y-52459523D01*
X47761904Y-52364285D01*
X47714285Y-52173809D01*
X47714285Y-52030952D01*
X47761904Y-51840476D01*
X47809523Y-51745238D01*
X47904761Y-51650000D01*
X48047619Y-51602380D01*
X48142857Y-51602380D01*
X48285714Y-51650000D01*
X48333333Y-51697619D01*
X48666666Y-51602380D02*
X49285714Y-51602380D01*
X48952380Y-51983333D01*
X49095238Y-51983333D01*
X49190476Y-52030952D01*
X49238095Y-52078571D01*
X49285714Y-52173809D01*
X49285714Y-52411904D01*
X49238095Y-52507142D01*
X49190476Y-52554761D01*
X49095238Y-52602380D01*
X48809523Y-52602380D01*
X48714285Y-52554761D01*
X48666666Y-52507142D01*
X31623333Y-89484342D02*
X31575714Y-89531961D01*
X31432857Y-89579580D01*
X31337619Y-89579580D01*
X31194761Y-89531961D01*
X31099523Y-89436723D01*
X31051904Y-89341485D01*
X31004285Y-89151009D01*
X31004285Y-89008152D01*
X31051904Y-88817676D01*
X31099523Y-88722438D01*
X31194761Y-88627200D01*
X31337619Y-88579580D01*
X31432857Y-88579580D01*
X31575714Y-88627200D01*
X31623333Y-88674819D01*
X32480476Y-88912914D02*
X32480476Y-89579580D01*
X32242380Y-88531961D02*
X32004285Y-89246247D01*
X32623333Y-89246247D01*
X27683333Y-141007142D02*
X27635714Y-141054761D01*
X27492857Y-141102380D01*
X27397619Y-141102380D01*
X27254761Y-141054761D01*
X27159523Y-140959523D01*
X27111904Y-140864285D01*
X27064285Y-140673809D01*
X27064285Y-140530952D01*
X27111904Y-140340476D01*
X27159523Y-140245238D01*
X27254761Y-140150000D01*
X27397619Y-140102380D01*
X27492857Y-140102380D01*
X27635714Y-140150000D01*
X27683333Y-140197619D01*
X28588095Y-140102380D02*
X28111904Y-140102380D01*
X28064285Y-140578571D01*
X28111904Y-140530952D01*
X28207142Y-140483333D01*
X28445238Y-140483333D01*
X28540476Y-140530952D01*
X28588095Y-140578571D01*
X28635714Y-140673809D01*
X28635714Y-140911904D01*
X28588095Y-141007142D01*
X28540476Y-141054761D01*
X28445238Y-141102380D01*
X28207142Y-141102380D01*
X28111904Y-141054761D01*
X28064285Y-141007142D01*
X57023333Y-89484342D02*
X56975714Y-89531961D01*
X56832857Y-89579580D01*
X56737619Y-89579580D01*
X56594761Y-89531961D01*
X56499523Y-89436723D01*
X56451904Y-89341485D01*
X56404285Y-89151009D01*
X56404285Y-89008152D01*
X56451904Y-88817676D01*
X56499523Y-88722438D01*
X56594761Y-88627200D01*
X56737619Y-88579580D01*
X56832857Y-88579580D01*
X56975714Y-88627200D01*
X57023333Y-88674819D01*
X57880476Y-88579580D02*
X57690000Y-88579580D01*
X57594761Y-88627200D01*
X57547142Y-88674819D01*
X57451904Y-88817676D01*
X57404285Y-89008152D01*
X57404285Y-89389104D01*
X57451904Y-89484342D01*
X57499523Y-89531961D01*
X57594761Y-89579580D01*
X57785238Y-89579580D01*
X57880476Y-89531961D01*
X57928095Y-89484342D01*
X57975714Y-89389104D01*
X57975714Y-89151009D01*
X57928095Y-89055771D01*
X57880476Y-89008152D01*
X57785238Y-88960533D01*
X57594761Y-88960533D01*
X57499523Y-89008152D01*
X57451904Y-89055771D01*
X57404285Y-89151009D01*
X101033333Y-158057142D02*
X100985714Y-158104761D01*
X100842857Y-158152380D01*
X100747619Y-158152380D01*
X100604761Y-158104761D01*
X100509523Y-158009523D01*
X100461904Y-157914285D01*
X100414285Y-157723809D01*
X100414285Y-157580952D01*
X100461904Y-157390476D01*
X100509523Y-157295238D01*
X100604761Y-157200000D01*
X100747619Y-157152380D01*
X100842857Y-157152380D01*
X100985714Y-157200000D01*
X101033333Y-157247619D01*
X101366666Y-157152380D02*
X102033333Y-157152380D01*
X101604761Y-158152380D01*
X16624342Y-169805866D02*
X16671961Y-169853485D01*
X16719580Y-169996342D01*
X16719580Y-170091580D01*
X16671961Y-170234438D01*
X16576723Y-170329676D01*
X16481485Y-170377295D01*
X16291009Y-170424914D01*
X16148152Y-170424914D01*
X15957676Y-170377295D01*
X15862438Y-170329676D01*
X15767200Y-170234438D01*
X15719580Y-170091580D01*
X15719580Y-169996342D01*
X15767200Y-169853485D01*
X15814819Y-169805866D01*
X16148152Y-169234438D02*
X16100533Y-169329676D01*
X16052914Y-169377295D01*
X15957676Y-169424914D01*
X15910057Y-169424914D01*
X15814819Y-169377295D01*
X15767200Y-169329676D01*
X15719580Y-169234438D01*
X15719580Y-169043961D01*
X15767200Y-168948723D01*
X15814819Y-168901104D01*
X15910057Y-168853485D01*
X15957676Y-168853485D01*
X16052914Y-168901104D01*
X16100533Y-168948723D01*
X16148152Y-169043961D01*
X16148152Y-169234438D01*
X16195771Y-169329676D01*
X16243390Y-169377295D01*
X16338628Y-169424914D01*
X16529104Y-169424914D01*
X16624342Y-169377295D01*
X16671961Y-169329676D01*
X16719580Y-169234438D01*
X16719580Y-169043961D01*
X16671961Y-168948723D01*
X16624342Y-168901104D01*
X16529104Y-168853485D01*
X16338628Y-168853485D01*
X16243390Y-168901104D01*
X16195771Y-168948723D01*
X16148152Y-169043961D01*
X104807142Y-169755866D02*
X104854761Y-169803485D01*
X104902380Y-169946342D01*
X104902380Y-170041580D01*
X104854761Y-170184438D01*
X104759523Y-170279676D01*
X104664285Y-170327295D01*
X104473809Y-170374914D01*
X104330952Y-170374914D01*
X104140476Y-170327295D01*
X104045238Y-170279676D01*
X103950000Y-170184438D01*
X103902380Y-170041580D01*
X103902380Y-169946342D01*
X103950000Y-169803485D01*
X103997619Y-169755866D01*
X104902380Y-169279676D02*
X104902380Y-169089200D01*
X104854761Y-168993961D01*
X104807142Y-168946342D01*
X104664285Y-168851104D01*
X104473809Y-168803485D01*
X104092857Y-168803485D01*
X103997619Y-168851104D01*
X103950000Y-168898723D01*
X103902380Y-168993961D01*
X103902380Y-169184438D01*
X103950000Y-169279676D01*
X103997619Y-169327295D01*
X104092857Y-169374914D01*
X104330952Y-169374914D01*
X104426190Y-169327295D01*
X104473809Y-169279676D01*
X104521428Y-169184438D01*
X104521428Y-168993961D01*
X104473809Y-168898723D01*
X104426190Y-168851104D01*
X104330952Y-168803485D01*
X136557142Y-107797142D02*
X136509523Y-107844761D01*
X136366666Y-107892380D01*
X136271428Y-107892380D01*
X136128571Y-107844761D01*
X136033333Y-107749523D01*
X135985714Y-107654285D01*
X135938095Y-107463809D01*
X135938095Y-107320952D01*
X135985714Y-107130476D01*
X136033333Y-107035238D01*
X136128571Y-106940000D01*
X136271428Y-106892380D01*
X136366666Y-106892380D01*
X136509523Y-106940000D01*
X136557142Y-106987619D01*
X137509523Y-107892380D02*
X136938095Y-107892380D01*
X137223809Y-107892380D02*
X137223809Y-106892380D01*
X137128571Y-107035238D01*
X137033333Y-107130476D01*
X136938095Y-107178095D01*
X138128571Y-106892380D02*
X138223809Y-106892380D01*
X138319047Y-106940000D01*
X138366666Y-106987619D01*
X138414285Y-107082857D01*
X138461904Y-107273333D01*
X138461904Y-107511428D01*
X138414285Y-107701904D01*
X138366666Y-107797142D01*
X138319047Y-107844761D01*
X138223809Y-107892380D01*
X138128571Y-107892380D01*
X138033333Y-107844761D01*
X137985714Y-107797142D01*
X137938095Y-107701904D01*
X137890476Y-107511428D01*
X137890476Y-107273333D01*
X137938095Y-107082857D01*
X137985714Y-106987619D01*
X138033333Y-106940000D01*
X138128571Y-106892380D01*
X150527142Y-107797142D02*
X150479523Y-107844761D01*
X150336666Y-107892380D01*
X150241428Y-107892380D01*
X150098571Y-107844761D01*
X150003333Y-107749523D01*
X149955714Y-107654285D01*
X149908095Y-107463809D01*
X149908095Y-107320952D01*
X149955714Y-107130476D01*
X150003333Y-107035238D01*
X150098571Y-106940000D01*
X150241428Y-106892380D01*
X150336666Y-106892380D01*
X150479523Y-106940000D01*
X150527142Y-106987619D01*
X151479523Y-107892380D02*
X150908095Y-107892380D01*
X151193809Y-107892380D02*
X151193809Y-106892380D01*
X151098571Y-107035238D01*
X151003333Y-107130476D01*
X150908095Y-107178095D01*
X152431904Y-107892380D02*
X151860476Y-107892380D01*
X152146190Y-107892380D02*
X152146190Y-106892380D01*
X152050952Y-107035238D01*
X151955714Y-107130476D01*
X151860476Y-107178095D01*
X71696342Y-50876342D02*
X71648723Y-50923961D01*
X71505866Y-50971580D01*
X71410628Y-50971580D01*
X71267771Y-50923961D01*
X71172533Y-50828723D01*
X71124914Y-50733485D01*
X71077295Y-50543009D01*
X71077295Y-50400152D01*
X71124914Y-50209676D01*
X71172533Y-50114438D01*
X71267771Y-50019200D01*
X71410628Y-49971580D01*
X71505866Y-49971580D01*
X71648723Y-50019200D01*
X71696342Y-50066819D01*
X72648723Y-50971580D02*
X72077295Y-50971580D01*
X72363009Y-50971580D02*
X72363009Y-49971580D01*
X72267771Y-50114438D01*
X72172533Y-50209676D01*
X72077295Y-50257295D01*
X73029676Y-50066819D02*
X73077295Y-50019200D01*
X73172533Y-49971580D01*
X73410628Y-49971580D01*
X73505866Y-50019200D01*
X73553485Y-50066819D01*
X73601104Y-50162057D01*
X73601104Y-50257295D01*
X73553485Y-50400152D01*
X72982057Y-50971580D01*
X73601104Y-50971580D01*
X101935142Y-50876342D02*
X101887523Y-50923961D01*
X101744666Y-50971580D01*
X101649428Y-50971580D01*
X101506571Y-50923961D01*
X101411333Y-50828723D01*
X101363714Y-50733485D01*
X101316095Y-50543009D01*
X101316095Y-50400152D01*
X101363714Y-50209676D01*
X101411333Y-50114438D01*
X101506571Y-50019200D01*
X101649428Y-49971580D01*
X101744666Y-49971580D01*
X101887523Y-50019200D01*
X101935142Y-50066819D01*
X102887523Y-50971580D02*
X102316095Y-50971580D01*
X102601809Y-50971580D02*
X102601809Y-49971580D01*
X102506571Y-50114438D01*
X102411333Y-50209676D01*
X102316095Y-50257295D01*
X103220857Y-49971580D02*
X103839904Y-49971580D01*
X103506571Y-50352533D01*
X103649428Y-50352533D01*
X103744666Y-50400152D01*
X103792285Y-50447771D01*
X103839904Y-50543009D01*
X103839904Y-50781104D01*
X103792285Y-50876342D01*
X103744666Y-50923961D01*
X103649428Y-50971580D01*
X103363714Y-50971580D01*
X103268476Y-50923961D01*
X103220857Y-50876342D01*
X79214742Y-50876342D02*
X79167123Y-50923961D01*
X79024266Y-50971580D01*
X78929028Y-50971580D01*
X78786171Y-50923961D01*
X78690933Y-50828723D01*
X78643314Y-50733485D01*
X78595695Y-50543009D01*
X78595695Y-50400152D01*
X78643314Y-50209676D01*
X78690933Y-50114438D01*
X78786171Y-50019200D01*
X78929028Y-49971580D01*
X79024266Y-49971580D01*
X79167123Y-50019200D01*
X79214742Y-50066819D01*
X80167123Y-50971580D02*
X79595695Y-50971580D01*
X79881409Y-50971580D02*
X79881409Y-49971580D01*
X79786171Y-50114438D01*
X79690933Y-50209676D01*
X79595695Y-50257295D01*
X81024266Y-50304914D02*
X81024266Y-50971580D01*
X80786171Y-49923961D02*
X80548076Y-50638247D01*
X81167123Y-50638247D01*
X109656742Y-50876342D02*
X109609123Y-50923961D01*
X109466266Y-50971580D01*
X109371028Y-50971580D01*
X109228171Y-50923961D01*
X109132933Y-50828723D01*
X109085314Y-50733485D01*
X109037695Y-50543009D01*
X109037695Y-50400152D01*
X109085314Y-50209676D01*
X109132933Y-50114438D01*
X109228171Y-50019200D01*
X109371028Y-49971580D01*
X109466266Y-49971580D01*
X109609123Y-50019200D01*
X109656742Y-50066819D01*
X110609123Y-50971580D02*
X110037695Y-50971580D01*
X110323409Y-50971580D02*
X110323409Y-49971580D01*
X110228171Y-50114438D01*
X110132933Y-50209676D01*
X110037695Y-50257295D01*
X111513885Y-49971580D02*
X111037695Y-49971580D01*
X110990076Y-50447771D01*
X111037695Y-50400152D01*
X111132933Y-50352533D01*
X111371028Y-50352533D01*
X111466266Y-50400152D01*
X111513885Y-50447771D01*
X111561504Y-50543009D01*
X111561504Y-50781104D01*
X111513885Y-50876342D01*
X111466266Y-50923961D01*
X111371028Y-50971580D01*
X111132933Y-50971580D01*
X111037695Y-50923961D01*
X110990076Y-50876342D01*
X64365142Y-41205257D02*
X64412761Y-41252876D01*
X64460380Y-41395733D01*
X64460380Y-41490971D01*
X64412761Y-41633828D01*
X64317523Y-41729066D01*
X64222285Y-41776685D01*
X64031809Y-41824304D01*
X63888952Y-41824304D01*
X63698476Y-41776685D01*
X63603238Y-41729066D01*
X63508000Y-41633828D01*
X63460380Y-41490971D01*
X63460380Y-41395733D01*
X63508000Y-41252876D01*
X63555619Y-41205257D01*
X64460380Y-40252876D02*
X64460380Y-40824304D01*
X64460380Y-40538590D02*
X63460380Y-40538590D01*
X63603238Y-40633828D01*
X63698476Y-40729066D01*
X63746095Y-40824304D01*
X63460380Y-39395733D02*
X63460380Y-39586209D01*
X63508000Y-39681447D01*
X63555619Y-39729066D01*
X63698476Y-39824304D01*
X63888952Y-39871923D01*
X64269904Y-39871923D01*
X64365142Y-39824304D01*
X64412761Y-39776685D01*
X64460380Y-39681447D01*
X64460380Y-39490971D01*
X64412761Y-39395733D01*
X64365142Y-39348114D01*
X64269904Y-39300495D01*
X64031809Y-39300495D01*
X63936571Y-39348114D01*
X63888952Y-39395733D01*
X63841333Y-39490971D01*
X63841333Y-39681447D01*
X63888952Y-39776685D01*
X63936571Y-39824304D01*
X64031809Y-39871923D01*
X86936342Y-50876342D02*
X86888723Y-50923961D01*
X86745866Y-50971580D01*
X86650628Y-50971580D01*
X86507771Y-50923961D01*
X86412533Y-50828723D01*
X86364914Y-50733485D01*
X86317295Y-50543009D01*
X86317295Y-50400152D01*
X86364914Y-50209676D01*
X86412533Y-50114438D01*
X86507771Y-50019200D01*
X86650628Y-49971580D01*
X86745866Y-49971580D01*
X86888723Y-50019200D01*
X86936342Y-50066819D01*
X87888723Y-50971580D02*
X87317295Y-50971580D01*
X87603009Y-50971580D02*
X87603009Y-49971580D01*
X87507771Y-50114438D01*
X87412533Y-50209676D01*
X87317295Y-50257295D01*
X88222057Y-49971580D02*
X88888723Y-49971580D01*
X88460152Y-50971580D01*
X94603942Y-41205257D02*
X94651561Y-41252876D01*
X94699180Y-41395733D01*
X94699180Y-41490971D01*
X94651561Y-41633828D01*
X94556323Y-41729066D01*
X94461085Y-41776685D01*
X94270609Y-41824304D01*
X94127752Y-41824304D01*
X93937276Y-41776685D01*
X93842038Y-41729066D01*
X93746800Y-41633828D01*
X93699180Y-41490971D01*
X93699180Y-41395733D01*
X93746800Y-41252876D01*
X93794419Y-41205257D01*
X94699180Y-40252876D02*
X94699180Y-40824304D01*
X94699180Y-40538590D02*
X93699180Y-40538590D01*
X93842038Y-40633828D01*
X93937276Y-40729066D01*
X93984895Y-40824304D01*
X94127752Y-39681447D02*
X94080133Y-39776685D01*
X94032514Y-39824304D01*
X93937276Y-39871923D01*
X93889657Y-39871923D01*
X93794419Y-39824304D01*
X93746800Y-39776685D01*
X93699180Y-39681447D01*
X93699180Y-39490971D01*
X93746800Y-39395733D01*
X93794419Y-39348114D01*
X93889657Y-39300495D01*
X93937276Y-39300495D01*
X94032514Y-39348114D01*
X94080133Y-39395733D01*
X94127752Y-39490971D01*
X94127752Y-39681447D01*
X94175371Y-39776685D01*
X94222990Y-39824304D01*
X94318228Y-39871923D01*
X94508704Y-39871923D01*
X94603942Y-39824304D01*
X94651561Y-39776685D01*
X94699180Y-39681447D01*
X94699180Y-39490971D01*
X94651561Y-39395733D01*
X94603942Y-39348114D01*
X94508704Y-39300495D01*
X94318228Y-39300495D01*
X94222990Y-39348114D01*
X94175371Y-39395733D01*
X94127752Y-39490971D01*
X117175142Y-50876342D02*
X117127523Y-50923961D01*
X116984666Y-50971580D01*
X116889428Y-50971580D01*
X116746571Y-50923961D01*
X116651333Y-50828723D01*
X116603714Y-50733485D01*
X116556095Y-50543009D01*
X116556095Y-50400152D01*
X116603714Y-50209676D01*
X116651333Y-50114438D01*
X116746571Y-50019200D01*
X116889428Y-49971580D01*
X116984666Y-49971580D01*
X117127523Y-50019200D01*
X117175142Y-50066819D01*
X118127523Y-50971580D02*
X117556095Y-50971580D01*
X117841809Y-50971580D02*
X117841809Y-49971580D01*
X117746571Y-50114438D01*
X117651333Y-50209676D01*
X117556095Y-50257295D01*
X118603714Y-50971580D02*
X118794190Y-50971580D01*
X118889428Y-50923961D01*
X118937047Y-50876342D01*
X119032285Y-50733485D01*
X119079904Y-50543009D01*
X119079904Y-50162057D01*
X119032285Y-50066819D01*
X118984666Y-50019200D01*
X118889428Y-49971580D01*
X118698952Y-49971580D01*
X118603714Y-50019200D01*
X118556095Y-50066819D01*
X118508476Y-50162057D01*
X118508476Y-50400152D01*
X118556095Y-50495390D01*
X118603714Y-50543009D01*
X118698952Y-50590628D01*
X118889428Y-50590628D01*
X118984666Y-50543009D01*
X119032285Y-50495390D01*
X119079904Y-50400152D01*
X158607142Y-88542857D02*
X158654761Y-88590476D01*
X158702380Y-88733333D01*
X158702380Y-88828571D01*
X158654761Y-88971428D01*
X158559523Y-89066666D01*
X158464285Y-89114285D01*
X158273809Y-89161904D01*
X158130952Y-89161904D01*
X157940476Y-89114285D01*
X157845238Y-89066666D01*
X157750000Y-88971428D01*
X157702380Y-88828571D01*
X157702380Y-88733333D01*
X157750000Y-88590476D01*
X157797619Y-88542857D01*
X157797619Y-88161904D02*
X157750000Y-88114285D01*
X157702380Y-88019047D01*
X157702380Y-87780952D01*
X157750000Y-87685714D01*
X157797619Y-87638095D01*
X157892857Y-87590476D01*
X157988095Y-87590476D01*
X158130952Y-87638095D01*
X158702380Y-88209523D01*
X158702380Y-87590476D01*
X157702380Y-86971428D02*
X157702380Y-86876190D01*
X157750000Y-86780952D01*
X157797619Y-86733333D01*
X157892857Y-86685714D01*
X158083333Y-86638095D01*
X158321428Y-86638095D01*
X158511904Y-86685714D01*
X158607142Y-86733333D01*
X158654761Y-86780952D01*
X158702380Y-86876190D01*
X158702380Y-86971428D01*
X158654761Y-87066666D01*
X158607142Y-87114285D01*
X158511904Y-87161904D01*
X158321428Y-87209523D01*
X158083333Y-87209523D01*
X157892857Y-87161904D01*
X157797619Y-87114285D01*
X157750000Y-87066666D01*
X157702380Y-86971428D01*
X70487142Y-61412857D02*
X70534761Y-61460476D01*
X70582380Y-61603333D01*
X70582380Y-61698571D01*
X70534761Y-61841428D01*
X70439523Y-61936666D01*
X70344285Y-61984285D01*
X70153809Y-62031904D01*
X70010952Y-62031904D01*
X69820476Y-61984285D01*
X69725238Y-61936666D01*
X69630000Y-61841428D01*
X69582380Y-61698571D01*
X69582380Y-61603333D01*
X69630000Y-61460476D01*
X69677619Y-61412857D01*
X69677619Y-61031904D02*
X69630000Y-60984285D01*
X69582380Y-60889047D01*
X69582380Y-60650952D01*
X69630000Y-60555714D01*
X69677619Y-60508095D01*
X69772857Y-60460476D01*
X69868095Y-60460476D01*
X70010952Y-60508095D01*
X70582380Y-61079523D01*
X70582380Y-60460476D01*
X70582380Y-59508095D02*
X70582380Y-60079523D01*
X70582380Y-59793809D02*
X69582380Y-59793809D01*
X69725238Y-59889047D01*
X69820476Y-59984285D01*
X69868095Y-60079523D01*
X65193942Y-33401142D02*
X65146323Y-33448761D01*
X65003466Y-33496380D01*
X64908228Y-33496380D01*
X64765371Y-33448761D01*
X64670133Y-33353523D01*
X64622514Y-33258285D01*
X64574895Y-33067809D01*
X64574895Y-32924952D01*
X64622514Y-32734476D01*
X64670133Y-32639238D01*
X64765371Y-32544000D01*
X64908228Y-32496380D01*
X65003466Y-32496380D01*
X65146323Y-32544000D01*
X65193942Y-32591619D01*
X65574895Y-32591619D02*
X65622514Y-32544000D01*
X65717752Y-32496380D01*
X65955847Y-32496380D01*
X66051085Y-32544000D01*
X66098704Y-32591619D01*
X66146323Y-32686857D01*
X66146323Y-32782095D01*
X66098704Y-32924952D01*
X65527276Y-33496380D01*
X66146323Y-33496380D01*
X66527276Y-32591619D02*
X66574895Y-32544000D01*
X66670133Y-32496380D01*
X66908228Y-32496380D01*
X67003466Y-32544000D01*
X67051085Y-32591619D01*
X67098704Y-32686857D01*
X67098704Y-32782095D01*
X67051085Y-32924952D01*
X66479657Y-33496380D01*
X67098704Y-33496380D01*
X95432742Y-33401142D02*
X95385123Y-33448761D01*
X95242266Y-33496380D01*
X95147028Y-33496380D01*
X95004171Y-33448761D01*
X94908933Y-33353523D01*
X94861314Y-33258285D01*
X94813695Y-33067809D01*
X94813695Y-32924952D01*
X94861314Y-32734476D01*
X94908933Y-32639238D01*
X95004171Y-32544000D01*
X95147028Y-32496380D01*
X95242266Y-32496380D01*
X95385123Y-32544000D01*
X95432742Y-32591619D01*
X95813695Y-32591619D02*
X95861314Y-32544000D01*
X95956552Y-32496380D01*
X96194647Y-32496380D01*
X96289885Y-32544000D01*
X96337504Y-32591619D01*
X96385123Y-32686857D01*
X96385123Y-32782095D01*
X96337504Y-32924952D01*
X95766076Y-33496380D01*
X96385123Y-33496380D01*
X96718457Y-32496380D02*
X97337504Y-32496380D01*
X97004171Y-32877333D01*
X97147028Y-32877333D01*
X97242266Y-32924952D01*
X97289885Y-32972571D01*
X97337504Y-33067809D01*
X97337504Y-33305904D01*
X97289885Y-33401142D01*
X97242266Y-33448761D01*
X97147028Y-33496380D01*
X96861314Y-33496380D01*
X96766076Y-33448761D01*
X96718457Y-33401142D01*
X127966742Y-85502857D02*
X128014361Y-85550476D01*
X128061980Y-85693333D01*
X128061980Y-85788571D01*
X128014361Y-85931428D01*
X127919123Y-86026666D01*
X127823885Y-86074285D01*
X127633409Y-86121904D01*
X127490552Y-86121904D01*
X127300076Y-86074285D01*
X127204838Y-86026666D01*
X127109600Y-85931428D01*
X127061980Y-85788571D01*
X127061980Y-85693333D01*
X127109600Y-85550476D01*
X127157219Y-85502857D01*
X127157219Y-85121904D02*
X127109600Y-85074285D01*
X127061980Y-84979047D01*
X127061980Y-84740952D01*
X127109600Y-84645714D01*
X127157219Y-84598095D01*
X127252457Y-84550476D01*
X127347695Y-84550476D01*
X127490552Y-84598095D01*
X128061980Y-85169523D01*
X128061980Y-84550476D01*
X127061980Y-83645714D02*
X127061980Y-84121904D01*
X127538171Y-84169523D01*
X127490552Y-84121904D01*
X127442933Y-84026666D01*
X127442933Y-83788571D01*
X127490552Y-83693333D01*
X127538171Y-83645714D01*
X127633409Y-83598095D01*
X127871504Y-83598095D01*
X127966742Y-83645714D01*
X128014361Y-83693333D01*
X128061980Y-83788571D01*
X128061980Y-84026666D01*
X128014361Y-84121904D01*
X127966742Y-84169523D01*
X64167142Y-89712342D02*
X64119523Y-89759961D01*
X63976666Y-89807580D01*
X63881428Y-89807580D01*
X63738571Y-89759961D01*
X63643333Y-89664723D01*
X63595714Y-89569485D01*
X63548095Y-89379009D01*
X63548095Y-89236152D01*
X63595714Y-89045676D01*
X63643333Y-88950438D01*
X63738571Y-88855200D01*
X63881428Y-88807580D01*
X63976666Y-88807580D01*
X64119523Y-88855200D01*
X64167142Y-88902819D01*
X64548095Y-88902819D02*
X64595714Y-88855200D01*
X64690952Y-88807580D01*
X64929047Y-88807580D01*
X65024285Y-88855200D01*
X65071904Y-88902819D01*
X65119523Y-88998057D01*
X65119523Y-89093295D01*
X65071904Y-89236152D01*
X64500476Y-89807580D01*
X65119523Y-89807580D01*
X65976666Y-88807580D02*
X65786190Y-88807580D01*
X65690952Y-88855200D01*
X65643333Y-88902819D01*
X65548095Y-89045676D01*
X65500476Y-89236152D01*
X65500476Y-89617104D01*
X65548095Y-89712342D01*
X65595714Y-89759961D01*
X65690952Y-89807580D01*
X65881428Y-89807580D01*
X65976666Y-89759961D01*
X66024285Y-89712342D01*
X66071904Y-89617104D01*
X66071904Y-89379009D01*
X66024285Y-89283771D01*
X65976666Y-89236152D01*
X65881428Y-89188533D01*
X65690952Y-89188533D01*
X65595714Y-89236152D01*
X65548095Y-89283771D01*
X65500476Y-89379009D01*
X46799542Y-59307942D02*
X46751923Y-59355561D01*
X46609066Y-59403180D01*
X46513828Y-59403180D01*
X46370971Y-59355561D01*
X46275733Y-59260323D01*
X46228114Y-59165085D01*
X46180495Y-58974609D01*
X46180495Y-58831752D01*
X46228114Y-58641276D01*
X46275733Y-58546038D01*
X46370971Y-58450800D01*
X46513828Y-58403180D01*
X46609066Y-58403180D01*
X46751923Y-58450800D01*
X46799542Y-58498419D01*
X47180495Y-58498419D02*
X47228114Y-58450800D01*
X47323352Y-58403180D01*
X47561447Y-58403180D01*
X47656685Y-58450800D01*
X47704304Y-58498419D01*
X47751923Y-58593657D01*
X47751923Y-58688895D01*
X47704304Y-58831752D01*
X47132876Y-59403180D01*
X47751923Y-59403180D01*
X48085257Y-58403180D02*
X48751923Y-58403180D01*
X48323352Y-59403180D01*
X49807142Y-41107142D02*
X49759523Y-41154761D01*
X49616666Y-41202380D01*
X49521428Y-41202380D01*
X49378571Y-41154761D01*
X49283333Y-41059523D01*
X49235714Y-40964285D01*
X49188095Y-40773809D01*
X49188095Y-40630952D01*
X49235714Y-40440476D01*
X49283333Y-40345238D01*
X49378571Y-40250000D01*
X49521428Y-40202380D01*
X49616666Y-40202380D01*
X49759523Y-40250000D01*
X49807142Y-40297619D01*
X50188095Y-40297619D02*
X50235714Y-40250000D01*
X50330952Y-40202380D01*
X50569047Y-40202380D01*
X50664285Y-40250000D01*
X50711904Y-40297619D01*
X50759523Y-40392857D01*
X50759523Y-40488095D01*
X50711904Y-40630952D01*
X50140476Y-41202380D01*
X50759523Y-41202380D01*
X51330952Y-40630952D02*
X51235714Y-40583333D01*
X51188095Y-40535714D01*
X51140476Y-40440476D01*
X51140476Y-40392857D01*
X51188095Y-40297619D01*
X51235714Y-40250000D01*
X51330952Y-40202380D01*
X51521428Y-40202380D01*
X51616666Y-40250000D01*
X51664285Y-40297619D01*
X51711904Y-40392857D01*
X51711904Y-40440476D01*
X51664285Y-40535714D01*
X51616666Y-40583333D01*
X51521428Y-40630952D01*
X51330952Y-40630952D01*
X51235714Y-40678571D01*
X51188095Y-40726190D01*
X51140476Y-40821428D01*
X51140476Y-41011904D01*
X51188095Y-41107142D01*
X51235714Y-41154761D01*
X51330952Y-41202380D01*
X51521428Y-41202380D01*
X51616666Y-41154761D01*
X51664285Y-41107142D01*
X51711904Y-41011904D01*
X51711904Y-40821428D01*
X51664285Y-40726190D01*
X51616666Y-40678571D01*
X51521428Y-40630952D01*
X49907142Y-32757142D02*
X49859523Y-32804761D01*
X49716666Y-32852380D01*
X49621428Y-32852380D01*
X49478571Y-32804761D01*
X49383333Y-32709523D01*
X49335714Y-32614285D01*
X49288095Y-32423809D01*
X49288095Y-32280952D01*
X49335714Y-32090476D01*
X49383333Y-31995238D01*
X49478571Y-31900000D01*
X49621428Y-31852380D01*
X49716666Y-31852380D01*
X49859523Y-31900000D01*
X49907142Y-31947619D01*
X50288095Y-31947619D02*
X50335714Y-31900000D01*
X50430952Y-31852380D01*
X50669047Y-31852380D01*
X50764285Y-31900000D01*
X50811904Y-31947619D01*
X50859523Y-32042857D01*
X50859523Y-32138095D01*
X50811904Y-32280952D01*
X50240476Y-32852380D01*
X50859523Y-32852380D01*
X51335714Y-32852380D02*
X51526190Y-32852380D01*
X51621428Y-32804761D01*
X51669047Y-32757142D01*
X51764285Y-32614285D01*
X51811904Y-32423809D01*
X51811904Y-32042857D01*
X51764285Y-31947619D01*
X51716666Y-31900000D01*
X51621428Y-31852380D01*
X51430952Y-31852380D01*
X51335714Y-31900000D01*
X51288095Y-31947619D01*
X51240476Y-32042857D01*
X51240476Y-32280952D01*
X51288095Y-32376190D01*
X51335714Y-32423809D01*
X51430952Y-32471428D01*
X51621428Y-32471428D01*
X51716666Y-32423809D01*
X51764285Y-32376190D01*
X51811904Y-32280952D01*
X126242380Y-125833333D02*
X126956666Y-125833333D01*
X127099523Y-125880952D01*
X127194761Y-125976190D01*
X127242380Y-126119047D01*
X127242380Y-126214285D01*
X126242380Y-125452380D02*
X126242380Y-124833333D01*
X126623333Y-125166666D01*
X126623333Y-125023809D01*
X126670952Y-124928571D01*
X126718571Y-124880952D01*
X126813809Y-124833333D01*
X127051904Y-124833333D01*
X127147142Y-124880952D01*
X127194761Y-124928571D01*
X127242380Y-125023809D01*
X127242380Y-125309523D01*
X127194761Y-125404761D01*
X127147142Y-125452380D01*
X138831580Y-112325257D02*
X138355390Y-112658590D01*
X138831580Y-112896685D02*
X137831580Y-112896685D01*
X137831580Y-112515733D01*
X137879200Y-112420495D01*
X137926819Y-112372876D01*
X138022057Y-112325257D01*
X138164914Y-112325257D01*
X138260152Y-112372876D01*
X138307771Y-112420495D01*
X138355390Y-112515733D01*
X138355390Y-112896685D01*
X138831580Y-111372876D02*
X138831580Y-111944304D01*
X138831580Y-111658590D02*
X137831580Y-111658590D01*
X137974438Y-111753828D01*
X138069676Y-111849066D01*
X138117295Y-111944304D01*
X137926819Y-110991923D02*
X137879200Y-110944304D01*
X137831580Y-110849066D01*
X137831580Y-110610971D01*
X137879200Y-110515733D01*
X137926819Y-110468114D01*
X138022057Y-110420495D01*
X138117295Y-110420495D01*
X138260152Y-110468114D01*
X138831580Y-111039542D01*
X138831580Y-110420495D01*
X141269980Y-112325257D02*
X140793790Y-112658590D01*
X141269980Y-112896685D02*
X140269980Y-112896685D01*
X140269980Y-112515733D01*
X140317600Y-112420495D01*
X140365219Y-112372876D01*
X140460457Y-112325257D01*
X140603314Y-112325257D01*
X140698552Y-112372876D01*
X140746171Y-112420495D01*
X140793790Y-112515733D01*
X140793790Y-112896685D01*
X141269980Y-111372876D02*
X141269980Y-111944304D01*
X141269980Y-111658590D02*
X140269980Y-111658590D01*
X140412838Y-111753828D01*
X140508076Y-111849066D01*
X140555695Y-111944304D01*
X140269980Y-111039542D02*
X140269980Y-110420495D01*
X140650933Y-110753828D01*
X140650933Y-110610971D01*
X140698552Y-110515733D01*
X140746171Y-110468114D01*
X140841409Y-110420495D01*
X141079504Y-110420495D01*
X141174742Y-110468114D01*
X141222361Y-110515733D01*
X141269980Y-110610971D01*
X141269980Y-110896685D01*
X141222361Y-110991923D01*
X141174742Y-111039542D01*
X138831580Y-150323657D02*
X138355390Y-150656990D01*
X138831580Y-150895085D02*
X137831580Y-150895085D01*
X137831580Y-150514133D01*
X137879200Y-150418895D01*
X137926819Y-150371276D01*
X138022057Y-150323657D01*
X138164914Y-150323657D01*
X138260152Y-150371276D01*
X138307771Y-150418895D01*
X138355390Y-150514133D01*
X138355390Y-150895085D01*
X138831580Y-149371276D02*
X138831580Y-149942704D01*
X138831580Y-149656990D02*
X137831580Y-149656990D01*
X137974438Y-149752228D01*
X138069676Y-149847466D01*
X138117295Y-149942704D01*
X138164914Y-148514133D02*
X138831580Y-148514133D01*
X137783961Y-148752228D02*
X138498247Y-148990323D01*
X138498247Y-148371276D01*
X136393180Y-150323657D02*
X135916990Y-150656990D01*
X136393180Y-150895085D02*
X135393180Y-150895085D01*
X135393180Y-150514133D01*
X135440800Y-150418895D01*
X135488419Y-150371276D01*
X135583657Y-150323657D01*
X135726514Y-150323657D01*
X135821752Y-150371276D01*
X135869371Y-150418895D01*
X135916990Y-150514133D01*
X135916990Y-150895085D01*
X136393180Y-149371276D02*
X136393180Y-149942704D01*
X136393180Y-149656990D02*
X135393180Y-149656990D01*
X135536038Y-149752228D01*
X135631276Y-149847466D01*
X135678895Y-149942704D01*
X135393180Y-148466514D02*
X135393180Y-148942704D01*
X135869371Y-148990323D01*
X135821752Y-148942704D01*
X135774133Y-148847466D01*
X135774133Y-148609371D01*
X135821752Y-148514133D01*
X135869371Y-148466514D01*
X135964609Y-148418895D01*
X136202704Y-148418895D01*
X136297942Y-148466514D01*
X136345561Y-148514133D01*
X136393180Y-148609371D01*
X136393180Y-148847466D01*
X136345561Y-148942704D01*
X136297942Y-148990323D01*
X133954780Y-150323657D02*
X133478590Y-150656990D01*
X133954780Y-150895085D02*
X132954780Y-150895085D01*
X132954780Y-150514133D01*
X133002400Y-150418895D01*
X133050019Y-150371276D01*
X133145257Y-150323657D01*
X133288114Y-150323657D01*
X133383352Y-150371276D01*
X133430971Y-150418895D01*
X133478590Y-150514133D01*
X133478590Y-150895085D01*
X133954780Y-149371276D02*
X133954780Y-149942704D01*
X133954780Y-149656990D02*
X132954780Y-149656990D01*
X133097638Y-149752228D01*
X133192876Y-149847466D01*
X133240495Y-149942704D01*
X132954780Y-148514133D02*
X132954780Y-148704609D01*
X133002400Y-148799847D01*
X133050019Y-148847466D01*
X133192876Y-148942704D01*
X133383352Y-148990323D01*
X133764304Y-148990323D01*
X133859542Y-148942704D01*
X133907161Y-148895085D01*
X133954780Y-148799847D01*
X133954780Y-148609371D01*
X133907161Y-148514133D01*
X133859542Y-148466514D01*
X133764304Y-148418895D01*
X133526209Y-148418895D01*
X133430971Y-148466514D01*
X133383352Y-148514133D01*
X133335733Y-148609371D01*
X133335733Y-148799847D01*
X133383352Y-148895085D01*
X133430971Y-148942704D01*
X133526209Y-148990323D01*
X133954780Y-112325257D02*
X133478590Y-112658590D01*
X133954780Y-112896685D02*
X132954780Y-112896685D01*
X132954780Y-112515733D01*
X133002400Y-112420495D01*
X133050019Y-112372876D01*
X133145257Y-112325257D01*
X133288114Y-112325257D01*
X133383352Y-112372876D01*
X133430971Y-112420495D01*
X133478590Y-112515733D01*
X133478590Y-112896685D01*
X133954780Y-111372876D02*
X133954780Y-111944304D01*
X133954780Y-111658590D02*
X132954780Y-111658590D01*
X133097638Y-111753828D01*
X133192876Y-111849066D01*
X133240495Y-111944304D01*
X132954780Y-111039542D02*
X132954780Y-110372876D01*
X133954780Y-110801447D01*
X136393180Y-112325257D02*
X135916990Y-112658590D01*
X136393180Y-112896685D02*
X135393180Y-112896685D01*
X135393180Y-112515733D01*
X135440800Y-112420495D01*
X135488419Y-112372876D01*
X135583657Y-112325257D01*
X135726514Y-112325257D01*
X135821752Y-112372876D01*
X135869371Y-112420495D01*
X135916990Y-112515733D01*
X135916990Y-112896685D01*
X136393180Y-111372876D02*
X136393180Y-111944304D01*
X136393180Y-111658590D02*
X135393180Y-111658590D01*
X135536038Y-111753828D01*
X135631276Y-111849066D01*
X135678895Y-111944304D01*
X136393180Y-110896685D02*
X136393180Y-110706209D01*
X136345561Y-110610971D01*
X136297942Y-110563352D01*
X136155085Y-110468114D01*
X135964609Y-110420495D01*
X135583657Y-110420495D01*
X135488419Y-110468114D01*
X135440800Y-110515733D01*
X135393180Y-110610971D01*
X135393180Y-110801447D01*
X135440800Y-110896685D01*
X135488419Y-110944304D01*
X135583657Y-110991923D01*
X135821752Y-110991923D01*
X135916990Y-110944304D01*
X135964609Y-110896685D01*
X136012228Y-110801447D01*
X136012228Y-110610971D01*
X135964609Y-110515733D01*
X135916990Y-110468114D01*
X135821752Y-110420495D01*
X141473180Y-150323657D02*
X140996990Y-150656990D01*
X141473180Y-150895085D02*
X140473180Y-150895085D01*
X140473180Y-150514133D01*
X140520800Y-150418895D01*
X140568419Y-150371276D01*
X140663657Y-150323657D01*
X140806514Y-150323657D01*
X140901752Y-150371276D01*
X140949371Y-150418895D01*
X140996990Y-150514133D01*
X140996990Y-150895085D01*
X140568419Y-149942704D02*
X140520800Y-149895085D01*
X140473180Y-149799847D01*
X140473180Y-149561752D01*
X140520800Y-149466514D01*
X140568419Y-149418895D01*
X140663657Y-149371276D01*
X140758895Y-149371276D01*
X140901752Y-149418895D01*
X141473180Y-149990323D01*
X141473180Y-149371276D01*
X140473180Y-148752228D02*
X140473180Y-148656990D01*
X140520800Y-148561752D01*
X140568419Y-148514133D01*
X140663657Y-148466514D01*
X140854133Y-148418895D01*
X141092228Y-148418895D01*
X141282704Y-148466514D01*
X141377942Y-148514133D01*
X141425561Y-148561752D01*
X141473180Y-148656990D01*
X141473180Y-148752228D01*
X141425561Y-148847466D01*
X141377942Y-148895085D01*
X141282704Y-148942704D01*
X141092228Y-148990323D01*
X140854133Y-148990323D01*
X140663657Y-148942704D01*
X140568419Y-148895085D01*
X140520800Y-148847466D01*
X140473180Y-148752228D01*
X151429980Y-112325257D02*
X150953790Y-112658590D01*
X151429980Y-112896685D02*
X150429980Y-112896685D01*
X150429980Y-112515733D01*
X150477600Y-112420495D01*
X150525219Y-112372876D01*
X150620457Y-112325257D01*
X150763314Y-112325257D01*
X150858552Y-112372876D01*
X150906171Y-112420495D01*
X150953790Y-112515733D01*
X150953790Y-112896685D01*
X150525219Y-111944304D02*
X150477600Y-111896685D01*
X150429980Y-111801447D01*
X150429980Y-111563352D01*
X150477600Y-111468114D01*
X150525219Y-111420495D01*
X150620457Y-111372876D01*
X150715695Y-111372876D01*
X150858552Y-111420495D01*
X151429980Y-111991923D01*
X151429980Y-111372876D01*
X151429980Y-110420495D02*
X151429980Y-110991923D01*
X151429980Y-110706209D02*
X150429980Y-110706209D01*
X150572838Y-110801447D01*
X150668076Y-110896685D01*
X150715695Y-110991923D01*
X154071580Y-112325257D02*
X153595390Y-112658590D01*
X154071580Y-112896685D02*
X153071580Y-112896685D01*
X153071580Y-112515733D01*
X153119200Y-112420495D01*
X153166819Y-112372876D01*
X153262057Y-112325257D01*
X153404914Y-112325257D01*
X153500152Y-112372876D01*
X153547771Y-112420495D01*
X153595390Y-112515733D01*
X153595390Y-112896685D01*
X153166819Y-111944304D02*
X153119200Y-111896685D01*
X153071580Y-111801447D01*
X153071580Y-111563352D01*
X153119200Y-111468114D01*
X153166819Y-111420495D01*
X153262057Y-111372876D01*
X153357295Y-111372876D01*
X153500152Y-111420495D01*
X154071580Y-111991923D01*
X154071580Y-111372876D01*
X153166819Y-110991923D02*
X153119200Y-110944304D01*
X153071580Y-110849066D01*
X153071580Y-110610971D01*
X153119200Y-110515733D01*
X153166819Y-110468114D01*
X153262057Y-110420495D01*
X153357295Y-110420495D01*
X153500152Y-110468114D01*
X154071580Y-111039542D01*
X154071580Y-110420495D01*
X151633180Y-150323657D02*
X151156990Y-150656990D01*
X151633180Y-150895085D02*
X150633180Y-150895085D01*
X150633180Y-150514133D01*
X150680800Y-150418895D01*
X150728419Y-150371276D01*
X150823657Y-150323657D01*
X150966514Y-150323657D01*
X151061752Y-150371276D01*
X151109371Y-150418895D01*
X151156990Y-150514133D01*
X151156990Y-150895085D01*
X150728419Y-149942704D02*
X150680800Y-149895085D01*
X150633180Y-149799847D01*
X150633180Y-149561752D01*
X150680800Y-149466514D01*
X150728419Y-149418895D01*
X150823657Y-149371276D01*
X150918895Y-149371276D01*
X151061752Y-149418895D01*
X151633180Y-149990323D01*
X151633180Y-149371276D01*
X150633180Y-149037942D02*
X150633180Y-148418895D01*
X151014133Y-148752228D01*
X151014133Y-148609371D01*
X151061752Y-148514133D01*
X151109371Y-148466514D01*
X151204609Y-148418895D01*
X151442704Y-148418895D01*
X151537942Y-148466514D01*
X151585561Y-148514133D01*
X151633180Y-148609371D01*
X151633180Y-148895085D01*
X151585561Y-148990323D01*
X151537942Y-149037942D01*
X146553180Y-150323657D02*
X146076990Y-150656990D01*
X146553180Y-150895085D02*
X145553180Y-150895085D01*
X145553180Y-150514133D01*
X145600800Y-150418895D01*
X145648419Y-150371276D01*
X145743657Y-150323657D01*
X145886514Y-150323657D01*
X145981752Y-150371276D01*
X146029371Y-150418895D01*
X146076990Y-150514133D01*
X146076990Y-150895085D01*
X145648419Y-149942704D02*
X145600800Y-149895085D01*
X145553180Y-149799847D01*
X145553180Y-149561752D01*
X145600800Y-149466514D01*
X145648419Y-149418895D01*
X145743657Y-149371276D01*
X145838895Y-149371276D01*
X145981752Y-149418895D01*
X146553180Y-149990323D01*
X146553180Y-149371276D01*
X145886514Y-148514133D02*
X146553180Y-148514133D01*
X145505561Y-148752228D02*
X146219847Y-148990323D01*
X146219847Y-148371276D01*
X143911580Y-150323657D02*
X143435390Y-150656990D01*
X143911580Y-150895085D02*
X142911580Y-150895085D01*
X142911580Y-150514133D01*
X142959200Y-150418895D01*
X143006819Y-150371276D01*
X143102057Y-150323657D01*
X143244914Y-150323657D01*
X143340152Y-150371276D01*
X143387771Y-150418895D01*
X143435390Y-150514133D01*
X143435390Y-150895085D01*
X143006819Y-149942704D02*
X142959200Y-149895085D01*
X142911580Y-149799847D01*
X142911580Y-149561752D01*
X142959200Y-149466514D01*
X143006819Y-149418895D01*
X143102057Y-149371276D01*
X143197295Y-149371276D01*
X143340152Y-149418895D01*
X143911580Y-149990323D01*
X143911580Y-149371276D01*
X142911580Y-148466514D02*
X142911580Y-148942704D01*
X143387771Y-148990323D01*
X143340152Y-148942704D01*
X143292533Y-148847466D01*
X143292533Y-148609371D01*
X143340152Y-148514133D01*
X143387771Y-148466514D01*
X143483009Y-148418895D01*
X143721104Y-148418895D01*
X143816342Y-148466514D01*
X143863961Y-148514133D01*
X143911580Y-148609371D01*
X143911580Y-148847466D01*
X143863961Y-148942704D01*
X143816342Y-148990323D01*
X149194780Y-112325257D02*
X148718590Y-112658590D01*
X149194780Y-112896685D02*
X148194780Y-112896685D01*
X148194780Y-112515733D01*
X148242400Y-112420495D01*
X148290019Y-112372876D01*
X148385257Y-112325257D01*
X148528114Y-112325257D01*
X148623352Y-112372876D01*
X148670971Y-112420495D01*
X148718590Y-112515733D01*
X148718590Y-112896685D01*
X148290019Y-111944304D02*
X148242400Y-111896685D01*
X148194780Y-111801447D01*
X148194780Y-111563352D01*
X148242400Y-111468114D01*
X148290019Y-111420495D01*
X148385257Y-111372876D01*
X148480495Y-111372876D01*
X148623352Y-111420495D01*
X149194780Y-111991923D01*
X149194780Y-111372876D01*
X148194780Y-110515733D02*
X148194780Y-110706209D01*
X148242400Y-110801447D01*
X148290019Y-110849066D01*
X148432876Y-110944304D01*
X148623352Y-110991923D01*
X149004304Y-110991923D01*
X149099542Y-110944304D01*
X149147161Y-110896685D01*
X149194780Y-110801447D01*
X149194780Y-110610971D01*
X149147161Y-110515733D01*
X149099542Y-110468114D01*
X149004304Y-110420495D01*
X148766209Y-110420495D01*
X148670971Y-110468114D01*
X148623352Y-110515733D01*
X148575733Y-110610971D01*
X148575733Y-110801447D01*
X148623352Y-110896685D01*
X148670971Y-110944304D01*
X148766209Y-110991923D01*
X149194780Y-150323657D02*
X148718590Y-150656990D01*
X149194780Y-150895085D02*
X148194780Y-150895085D01*
X148194780Y-150514133D01*
X148242400Y-150418895D01*
X148290019Y-150371276D01*
X148385257Y-150323657D01*
X148528114Y-150323657D01*
X148623352Y-150371276D01*
X148670971Y-150418895D01*
X148718590Y-150514133D01*
X148718590Y-150895085D01*
X148290019Y-149942704D02*
X148242400Y-149895085D01*
X148194780Y-149799847D01*
X148194780Y-149561752D01*
X148242400Y-149466514D01*
X148290019Y-149418895D01*
X148385257Y-149371276D01*
X148480495Y-149371276D01*
X148623352Y-149418895D01*
X149194780Y-149990323D01*
X149194780Y-149371276D01*
X148194780Y-149037942D02*
X148194780Y-148371276D01*
X149194780Y-148799847D01*
X154071580Y-150323657D02*
X153595390Y-150656990D01*
X154071580Y-150895085D02*
X153071580Y-150895085D01*
X153071580Y-150514133D01*
X153119200Y-150418895D01*
X153166819Y-150371276D01*
X153262057Y-150323657D01*
X153404914Y-150323657D01*
X153500152Y-150371276D01*
X153547771Y-150418895D01*
X153595390Y-150514133D01*
X153595390Y-150895085D01*
X153166819Y-149942704D02*
X153119200Y-149895085D01*
X153071580Y-149799847D01*
X153071580Y-149561752D01*
X153119200Y-149466514D01*
X153166819Y-149418895D01*
X153262057Y-149371276D01*
X153357295Y-149371276D01*
X153500152Y-149418895D01*
X154071580Y-149990323D01*
X154071580Y-149371276D01*
X153500152Y-148799847D02*
X153452533Y-148895085D01*
X153404914Y-148942704D01*
X153309676Y-148990323D01*
X153262057Y-148990323D01*
X153166819Y-148942704D01*
X153119200Y-148895085D01*
X153071580Y-148799847D01*
X153071580Y-148609371D01*
X153119200Y-148514133D01*
X153166819Y-148466514D01*
X153262057Y-148418895D01*
X153309676Y-148418895D01*
X153404914Y-148466514D01*
X153452533Y-148514133D01*
X153500152Y-148609371D01*
X153500152Y-148799847D01*
X153547771Y-148895085D01*
X153595390Y-148942704D01*
X153690628Y-148990323D01*
X153881104Y-148990323D01*
X153976342Y-148942704D01*
X154023961Y-148895085D01*
X154071580Y-148799847D01*
X154071580Y-148609371D01*
X154023961Y-148514133D01*
X153976342Y-148466514D01*
X153881104Y-148418895D01*
X153690628Y-148418895D01*
X153595390Y-148466514D01*
X153547771Y-148514133D01*
X153500152Y-148609371D01*
X32963104Y-58742780D02*
X32963104Y-59552304D01*
X33010723Y-59647542D01*
X33058342Y-59695161D01*
X33153580Y-59742780D01*
X33344057Y-59742780D01*
X33439295Y-59695161D01*
X33486914Y-59647542D01*
X33534533Y-59552304D01*
X33534533Y-58742780D01*
X34534533Y-59742780D02*
X33963104Y-59742780D01*
X34248819Y-59742780D02*
X34248819Y-58742780D01*
X34153580Y-58885638D01*
X34058342Y-58980876D01*
X33963104Y-59028495D01*
X34867866Y-58742780D02*
X35534533Y-58742780D01*
X35105961Y-59742780D01*
X22606076Y-48394780D02*
X23272742Y-49394780D01*
X23272742Y-48394780D02*
X22606076Y-49394780D01*
X23606076Y-48490019D02*
X23653695Y-48442400D01*
X23748933Y-48394780D01*
X23987028Y-48394780D01*
X24082266Y-48442400D01*
X24129885Y-48490019D01*
X24177504Y-48585257D01*
X24177504Y-48680495D01*
X24129885Y-48823352D01*
X23558457Y-49394780D01*
X24177504Y-49394780D01*
X77675714Y-32767161D02*
X77818571Y-32814780D01*
X78056666Y-32814780D01*
X78151904Y-32767161D01*
X78199523Y-32719542D01*
X78247142Y-32624304D01*
X78247142Y-32529066D01*
X78199523Y-32433828D01*
X78151904Y-32386209D01*
X78056666Y-32338590D01*
X77866190Y-32290971D01*
X77770952Y-32243352D01*
X77723333Y-32195733D01*
X77675714Y-32100495D01*
X77675714Y-32005257D01*
X77723333Y-31910019D01*
X77770952Y-31862400D01*
X77866190Y-31814780D01*
X78104285Y-31814780D01*
X78247142Y-31862400D01*
X78675714Y-32290971D02*
X79009047Y-32290971D01*
X79151904Y-32814780D02*
X78675714Y-32814780D01*
X78675714Y-31814780D01*
X79151904Y-31814780D01*
X80151904Y-32814780D02*
X79818571Y-32338590D01*
X79580476Y-32814780D02*
X79580476Y-31814780D01*
X79961428Y-31814780D01*
X80056666Y-31862400D01*
X80104285Y-31910019D01*
X80151904Y-32005257D01*
X80151904Y-32148114D01*
X80104285Y-32243352D01*
X80056666Y-32290971D01*
X79961428Y-32338590D01*
X79580476Y-32338590D01*
X81104285Y-32814780D02*
X80532857Y-32814780D01*
X80818571Y-32814780D02*
X80818571Y-31814780D01*
X80723333Y-31957638D01*
X80628095Y-32052876D01*
X80532857Y-32100495D01*
X111059314Y-32767161D02*
X111202171Y-32814780D01*
X111440266Y-32814780D01*
X111535504Y-32767161D01*
X111583123Y-32719542D01*
X111630742Y-32624304D01*
X111630742Y-32529066D01*
X111583123Y-32433828D01*
X111535504Y-32386209D01*
X111440266Y-32338590D01*
X111249790Y-32290971D01*
X111154552Y-32243352D01*
X111106933Y-32195733D01*
X111059314Y-32100495D01*
X111059314Y-32005257D01*
X111106933Y-31910019D01*
X111154552Y-31862400D01*
X111249790Y-31814780D01*
X111487885Y-31814780D01*
X111630742Y-31862400D01*
X112059314Y-32290971D02*
X112392647Y-32290971D01*
X112535504Y-32814780D02*
X112059314Y-32814780D01*
X112059314Y-31814780D01*
X112535504Y-31814780D01*
X113535504Y-32814780D02*
X113202171Y-32338590D01*
X112964076Y-32814780D02*
X112964076Y-31814780D01*
X113345028Y-31814780D01*
X113440266Y-31862400D01*
X113487885Y-31910019D01*
X113535504Y-32005257D01*
X113535504Y-32148114D01*
X113487885Y-32243352D01*
X113440266Y-32290971D01*
X113345028Y-32338590D01*
X112964076Y-32338590D01*
X113916457Y-31910019D02*
X113964076Y-31862400D01*
X114059314Y-31814780D01*
X114297409Y-31814780D01*
X114392647Y-31862400D01*
X114440266Y-31910019D01*
X114487885Y-32005257D01*
X114487885Y-32100495D01*
X114440266Y-32243352D01*
X113868838Y-32814780D01*
X114487885Y-32814780D01*
X63214285Y-166152380D02*
X63214285Y-166866666D01*
X63166666Y-167009523D01*
X63071428Y-167104761D01*
X62928571Y-167152380D01*
X62833333Y-167152380D01*
X63880952Y-166152380D02*
X64071428Y-166152380D01*
X64166666Y-166200000D01*
X64261904Y-166295238D01*
X64309523Y-166485714D01*
X64309523Y-166819047D01*
X64261904Y-167009523D01*
X64166666Y-167104761D01*
X64071428Y-167152380D01*
X63880952Y-167152380D01*
X63785714Y-167104761D01*
X63690476Y-167009523D01*
X63642857Y-166819047D01*
X63642857Y-166485714D01*
X63690476Y-166295238D01*
X63785714Y-166200000D01*
X63880952Y-166152380D01*
X64928571Y-166676190D02*
X64928571Y-167152380D01*
X64595238Y-166152380D02*
X64928571Y-166676190D01*
X65261904Y-166152380D01*
X65547619Y-166247619D02*
X65595238Y-166200000D01*
X65690476Y-166152380D01*
X65928571Y-166152380D01*
X66023809Y-166200000D01*
X66071428Y-166247619D01*
X66119047Y-166342857D01*
X66119047Y-166438095D01*
X66071428Y-166580952D01*
X65500000Y-167152380D01*
X66119047Y-167152380D01*
X29664285Y-166152380D02*
X29664285Y-166866666D01*
X29616666Y-167009523D01*
X29521428Y-167104761D01*
X29378571Y-167152380D01*
X29283333Y-167152380D01*
X30330952Y-166152380D02*
X30521428Y-166152380D01*
X30616666Y-166200000D01*
X30711904Y-166295238D01*
X30759523Y-166485714D01*
X30759523Y-166819047D01*
X30711904Y-167009523D01*
X30616666Y-167104761D01*
X30521428Y-167152380D01*
X30330952Y-167152380D01*
X30235714Y-167104761D01*
X30140476Y-167009523D01*
X30092857Y-166819047D01*
X30092857Y-166485714D01*
X30140476Y-166295238D01*
X30235714Y-166200000D01*
X30330952Y-166152380D01*
X31378571Y-166676190D02*
X31378571Y-167152380D01*
X31045238Y-166152380D02*
X31378571Y-166676190D01*
X31711904Y-166152380D01*
X32569047Y-167152380D02*
X31997619Y-167152380D01*
X32283333Y-167152380D02*
X32283333Y-166152380D01*
X32188095Y-166295238D01*
X32092857Y-166390476D01*
X31997619Y-166438095D01*
X51196666Y-28764780D02*
X51196666Y-29479066D01*
X51149047Y-29621923D01*
X51053809Y-29717161D01*
X50910952Y-29764780D01*
X50815714Y-29764780D01*
X51625238Y-28860019D02*
X51672857Y-28812400D01*
X51768095Y-28764780D01*
X52006190Y-28764780D01*
X52101428Y-28812400D01*
X52149047Y-28860019D01*
X52196666Y-28955257D01*
X52196666Y-29050495D01*
X52149047Y-29193352D01*
X51577619Y-29764780D01*
X52196666Y-29764780D01*
M02*
