%TF.GenerationSoftware,KiCad,Pcbnew,(5.1.0-0)*%
%TF.CreationDate,2019-04-15T22:40:15-04:00*%
%TF.ProjectId,zed-80,7a65642d-3830-42e6-9b69-6361645f7063,1*%
%TF.SameCoordinates,Original*%
%TF.FileFunction,Soldermask,Top*%
%TF.FilePolarity,Negative*%
%FSLAX46Y46*%
G04 Gerber Fmt 4.6, Leading zero omitted, Abs format (unit mm)*
G04 Created by KiCad (PCBNEW (5.1.0-0)) date 2019-04-15 22:40:15*
%MOMM*%
%LPD*%
G04 APERTURE LIST*
%ADD10R,2.400000X1.600000*%
%ADD11R,1.600000X2.400000*%
%ADD12C,1.600000*%
%ADD13C,6.800000*%
%ADD14R,2.000000X2.000000*%
%ADD15C,2.000000*%
%ADD16R,1.850000X0.850000*%
%ADD17O,2.000000X2.000000*%
%ADD18R,1.900000X0.850000*%
%ADD19R,1.900000X1.000000*%
%ADD20R,0.850000X1.850000*%
%ADD21R,0.800000X1.500000*%
%ADD22R,4.200000X2.400000*%
%ADD23R,1.900000X2.400000*%
%ADD24R,2.400000X1.000000*%
%ADD25C,2.400000*%
%ADD26R,1.900000X1.700000*%
%ADD27R,1.700000X1.900000*%
%ADD28C,1.800000*%
%ADD29O,1.800000X1.800000*%
%ADD30R,2.100000X2.100000*%
%ADD31O,2.100000X2.100000*%
%ADD32R,2.700000X3.400000*%
%ADD33R,1.600000X2.000000*%
%ADD34R,1.350000X2.000000*%
%ADD35R,1.100000X2.000000*%
%ADD36C,2.020000*%
%ADD37C,3.500000*%
%ADD38R,1.300000X1.200000*%
%ADD39R,2.200000X2.200000*%
%ADD40C,2.200000*%
%ADD41R,1.900000X1.650000*%
%ADD42R,2.432000X2.432000*%
%ADD43C,2.432000*%
%ADD44R,2.150000X2.150000*%
%ADD45C,2.150000*%
%ADD46C,5.600000*%
%ADD47C,4.700000*%
%ADD48C,2.300000*%
G04 APERTURE END LIST*
D10*
X142300000Y-19500000D03*
D11*
X137300000Y-24500000D03*
X139800000Y-24500000D03*
X147300000Y-24500000D03*
X144800000Y-24500000D03*
D12*
X137300000Y-17000000D03*
X147300000Y-17000000D03*
X137300000Y-19500000D03*
X147300000Y-19500000D03*
X142300000Y-24500000D03*
D13*
X155000000Y-20000000D03*
X155000000Y-179000000D03*
X20000000Y-179000000D03*
X20000000Y-20000000D03*
D14*
X19250000Y-67800000D03*
D15*
X26870000Y-67800000D03*
X26870000Y-75420000D03*
X19250000Y-75420000D03*
D16*
X59000000Y-53025000D03*
X59000000Y-53675000D03*
X59000000Y-54325000D03*
X59000000Y-54975000D03*
X59000000Y-55625000D03*
X59000000Y-56275000D03*
X59000000Y-56925000D03*
X59000000Y-57575000D03*
X59000000Y-58225000D03*
X59000000Y-58875000D03*
X64900000Y-58875000D03*
X64900000Y-58225000D03*
X64900000Y-57575000D03*
X64900000Y-56925000D03*
X64900000Y-56275000D03*
X64900000Y-55625000D03*
X64900000Y-54975000D03*
X64900000Y-54325000D03*
X64900000Y-53675000D03*
X64900000Y-53025000D03*
D14*
X148950000Y-78500000D03*
D17*
X133710000Y-30240000D03*
X148950000Y-75960000D03*
X133710000Y-32780000D03*
X148950000Y-73420000D03*
X133710000Y-35320000D03*
X148950000Y-70880000D03*
X133710000Y-37860000D03*
X148950000Y-68340000D03*
X133710000Y-40400000D03*
X148950000Y-65800000D03*
X133710000Y-42940000D03*
X148950000Y-63260000D03*
X133710000Y-45480000D03*
X148950000Y-60720000D03*
X133710000Y-48020000D03*
X148950000Y-58180000D03*
X133710000Y-50560000D03*
X148950000Y-55640000D03*
X133710000Y-53100000D03*
X148950000Y-53100000D03*
X133710000Y-55640000D03*
X148950000Y-50560000D03*
X133710000Y-58180000D03*
X148950000Y-48020000D03*
X133710000Y-60720000D03*
X148950000Y-45480000D03*
X133710000Y-63260000D03*
X148950000Y-42940000D03*
X133710000Y-65800000D03*
X148950000Y-40400000D03*
X133710000Y-68340000D03*
X148950000Y-37860000D03*
X133710000Y-70880000D03*
X148950000Y-35320000D03*
X133710000Y-73420000D03*
X148950000Y-32780000D03*
X133710000Y-75960000D03*
X148950000Y-30240000D03*
X133710000Y-78500000D03*
D18*
X21650000Y-80275000D03*
X21650000Y-80925000D03*
X21650000Y-81575000D03*
X21650000Y-82225000D03*
X21650000Y-82875000D03*
X21650000Y-83525000D03*
X21650000Y-84175000D03*
X21650000Y-84825000D03*
X27550000Y-84825000D03*
X27550000Y-84175000D03*
X27550000Y-83525000D03*
X27550000Y-82875000D03*
X27550000Y-82225000D03*
X27550000Y-81575000D03*
X27550000Y-80925000D03*
X27550000Y-80275000D03*
X118700000Y-147325000D03*
X118700000Y-147975000D03*
X118700000Y-148625000D03*
X118700000Y-149275000D03*
X118700000Y-149925000D03*
X118700000Y-150575000D03*
X118700000Y-151225000D03*
X118700000Y-151875000D03*
X124600000Y-151875000D03*
X124600000Y-151225000D03*
X124600000Y-150575000D03*
X124600000Y-149925000D03*
X124600000Y-149275000D03*
X124600000Y-148625000D03*
X124600000Y-147975000D03*
X124600000Y-147325000D03*
D16*
X122300000Y-137325000D03*
X122300000Y-137975000D03*
X122300000Y-138625000D03*
X122300000Y-139275000D03*
X122300000Y-139925000D03*
X122300000Y-140575000D03*
X122300000Y-141225000D03*
X122300000Y-141875000D03*
X122300000Y-142525000D03*
X122300000Y-143175000D03*
X128200000Y-143175000D03*
X128200000Y-142525000D03*
X128200000Y-141875000D03*
X128200000Y-141225000D03*
X128200000Y-140575000D03*
X128200000Y-139925000D03*
X128200000Y-139275000D03*
X128200000Y-138625000D03*
X128200000Y-137975000D03*
X128200000Y-137325000D03*
X113150000Y-137500000D03*
X113150000Y-138150000D03*
X113150000Y-138800000D03*
X113150000Y-139450000D03*
X113150000Y-140100000D03*
X113150000Y-140750000D03*
X113150000Y-141400000D03*
X119050000Y-141400000D03*
X119050000Y-140750000D03*
X119050000Y-140100000D03*
X119050000Y-139450000D03*
X119050000Y-138800000D03*
X119050000Y-138150000D03*
X119050000Y-137500000D03*
D19*
X42400000Y-138805000D03*
X42400000Y-140075000D03*
X42400000Y-141345000D03*
X42400000Y-142615000D03*
X42400000Y-143885000D03*
X42400000Y-145155000D03*
X42400000Y-146425000D03*
X42400000Y-147695000D03*
X47800000Y-147695000D03*
X47800000Y-146425000D03*
X47800000Y-145155000D03*
X47800000Y-143885000D03*
X47800000Y-142615000D03*
X47800000Y-141345000D03*
X47800000Y-140075000D03*
X47800000Y-138805000D03*
D16*
X72150000Y-136425000D03*
X72150000Y-137075000D03*
X72150000Y-137725000D03*
X72150000Y-138375000D03*
X72150000Y-139025000D03*
X72150000Y-139675000D03*
X72150000Y-140325000D03*
X72150000Y-140975000D03*
X72150000Y-141625000D03*
X72150000Y-142275000D03*
X78050000Y-142275000D03*
X78050000Y-141625000D03*
X78050000Y-140975000D03*
X78050000Y-140325000D03*
X78050000Y-139675000D03*
X78050000Y-139025000D03*
X78050000Y-138375000D03*
X78050000Y-137725000D03*
X78050000Y-137075000D03*
X78050000Y-136425000D03*
D20*
X84125000Y-147050000D03*
X83475000Y-147050000D03*
X82825000Y-147050000D03*
X82175000Y-147050000D03*
X81525000Y-147050000D03*
X80875000Y-147050000D03*
X80225000Y-147050000D03*
X79575000Y-147050000D03*
X78925000Y-147050000D03*
X78275000Y-147050000D03*
X78275000Y-152950000D03*
X78925000Y-152950000D03*
X79575000Y-152950000D03*
X80225000Y-152950000D03*
X80875000Y-152950000D03*
X81525000Y-152950000D03*
X82175000Y-152950000D03*
X82825000Y-152950000D03*
X83475000Y-152950000D03*
X84125000Y-152950000D03*
D21*
X66825000Y-146750000D03*
X66175000Y-146750000D03*
X65525000Y-146750000D03*
X64875000Y-146750000D03*
X64225000Y-146750000D03*
X63575000Y-146750000D03*
X62925000Y-146750000D03*
X62275000Y-146750000D03*
X61625000Y-146750000D03*
X60975000Y-146750000D03*
X60325000Y-146750000D03*
X59675000Y-146750000D03*
X59675000Y-152450000D03*
X60325000Y-152450000D03*
X60975000Y-152450000D03*
X61625000Y-152450000D03*
X62275000Y-152450000D03*
X62925000Y-152450000D03*
X63575000Y-152450000D03*
X64225000Y-152450000D03*
X64875000Y-152450000D03*
X65525000Y-152450000D03*
X66175000Y-152450000D03*
X66825000Y-152450000D03*
D22*
X20600000Y-36950000D03*
D23*
X20600000Y-43250000D03*
X22900000Y-43250000D03*
X18300000Y-43250000D03*
D16*
X52550000Y-34450000D03*
X52550000Y-35100000D03*
X52550000Y-35750000D03*
X52550000Y-36400000D03*
X52550000Y-37050000D03*
X52550000Y-37700000D03*
X52550000Y-38350000D03*
X58450000Y-38350000D03*
X58450000Y-37700000D03*
X58450000Y-37050000D03*
X58450000Y-36400000D03*
X58450000Y-35750000D03*
X58450000Y-35100000D03*
X58450000Y-34450000D03*
X52600000Y-42850000D03*
X52600000Y-43500000D03*
X52600000Y-44150000D03*
X52600000Y-44800000D03*
X52600000Y-45450000D03*
X52600000Y-46100000D03*
X52600000Y-46750000D03*
X58500000Y-46750000D03*
X58500000Y-46100000D03*
X58500000Y-45450000D03*
X58500000Y-44800000D03*
X58500000Y-44150000D03*
X58500000Y-43500000D03*
X58500000Y-42850000D03*
D14*
X60960000Y-68350000D03*
D17*
X68580000Y-83590000D03*
X60960000Y-70890000D03*
X68580000Y-81050000D03*
X60960000Y-73430000D03*
X68580000Y-78510000D03*
X60960000Y-75970000D03*
X68580000Y-75970000D03*
X60960000Y-78510000D03*
X68580000Y-73430000D03*
X60960000Y-81050000D03*
X68580000Y-70890000D03*
X60960000Y-83590000D03*
X68580000Y-68350000D03*
D14*
X76200000Y-92480000D03*
D17*
X124460000Y-77240000D03*
X78740000Y-92480000D03*
X121920000Y-77240000D03*
X81280000Y-92480000D03*
X119380000Y-77240000D03*
X83820000Y-92480000D03*
X116840000Y-77240000D03*
X86360000Y-92480000D03*
X114300000Y-77240000D03*
X88900000Y-92480000D03*
X111760000Y-77240000D03*
X91440000Y-92480000D03*
X109220000Y-77240000D03*
X93980000Y-92480000D03*
X106680000Y-77240000D03*
X96520000Y-92480000D03*
X104140000Y-77240000D03*
X99060000Y-92480000D03*
X101600000Y-77240000D03*
X101600000Y-92480000D03*
X99060000Y-77240000D03*
X104140000Y-92480000D03*
X96520000Y-77240000D03*
X106680000Y-92480000D03*
X93980000Y-77240000D03*
X109220000Y-92480000D03*
X91440000Y-77240000D03*
X111760000Y-92480000D03*
X88900000Y-77240000D03*
X114300000Y-92480000D03*
X86360000Y-77240000D03*
X116840000Y-92480000D03*
X83820000Y-77240000D03*
X119380000Y-92480000D03*
X81280000Y-77240000D03*
X121920000Y-92480000D03*
X78740000Y-77240000D03*
X124460000Y-92480000D03*
X76200000Y-77240000D03*
D20*
X94725000Y-172550000D03*
X95375000Y-172550000D03*
X96025000Y-172550000D03*
X96675000Y-172550000D03*
X97325000Y-172550000D03*
X97975000Y-172550000D03*
X98625000Y-172550000D03*
X99275000Y-172550000D03*
X99925000Y-172550000D03*
X100575000Y-172550000D03*
X100575000Y-166650000D03*
X99925000Y-166650000D03*
X99275000Y-166650000D03*
X98625000Y-166650000D03*
X97975000Y-166650000D03*
X97325000Y-166650000D03*
X96675000Y-166650000D03*
X96025000Y-166650000D03*
X95375000Y-166650000D03*
X94725000Y-166650000D03*
X20375000Y-172650000D03*
X21025000Y-172650000D03*
X21675000Y-172650000D03*
X22325000Y-172650000D03*
X22975000Y-172650000D03*
X23625000Y-172650000D03*
X24275000Y-172650000D03*
X24925000Y-172650000D03*
X25575000Y-172650000D03*
X26225000Y-172650000D03*
X26225000Y-166750000D03*
X25575000Y-166750000D03*
X24925000Y-166750000D03*
X24275000Y-166750000D03*
X23625000Y-166750000D03*
X22975000Y-166750000D03*
X22325000Y-166750000D03*
X21675000Y-166750000D03*
X21025000Y-166750000D03*
X20375000Y-166750000D03*
D14*
X100088800Y-44474000D03*
D17*
X117868800Y-36854000D03*
X102628800Y-44474000D03*
X115328800Y-36854000D03*
X105168800Y-44474000D03*
X112788800Y-36854000D03*
X107708800Y-44474000D03*
X110248800Y-36854000D03*
X110248800Y-44474000D03*
X107708800Y-36854000D03*
X112788800Y-44474000D03*
X105168800Y-36854000D03*
X115328800Y-44474000D03*
X102628800Y-36854000D03*
X117868800Y-44474000D03*
X100088800Y-36854000D03*
D14*
X69850000Y-44474000D03*
D17*
X87630000Y-36854000D03*
X72390000Y-44474000D03*
X85090000Y-36854000D03*
X74930000Y-44474000D03*
X82550000Y-36854000D03*
X77470000Y-44474000D03*
X80010000Y-36854000D03*
X80010000Y-44474000D03*
X77470000Y-36854000D03*
X82550000Y-44474000D03*
X74930000Y-36854000D03*
X85090000Y-44474000D03*
X72390000Y-36854000D03*
X87630000Y-44474000D03*
X69850000Y-36854000D03*
D14*
X76200000Y-68350000D03*
D17*
X124460000Y-53110000D03*
X78740000Y-68350000D03*
X121920000Y-53110000D03*
X81280000Y-68350000D03*
X119380000Y-53110000D03*
X83820000Y-68350000D03*
X116840000Y-53110000D03*
X86360000Y-68350000D03*
X114300000Y-53110000D03*
X88900000Y-68350000D03*
X111760000Y-53110000D03*
X91440000Y-68350000D03*
X109220000Y-53110000D03*
X93980000Y-68350000D03*
X106680000Y-53110000D03*
X96520000Y-68350000D03*
X104140000Y-53110000D03*
X99060000Y-68350000D03*
X101600000Y-53110000D03*
X101600000Y-68350000D03*
X99060000Y-53110000D03*
X104140000Y-68350000D03*
X96520000Y-53110000D03*
X106680000Y-68350000D03*
X93980000Y-53110000D03*
X109220000Y-68350000D03*
X91440000Y-53110000D03*
X111760000Y-68350000D03*
X88900000Y-53110000D03*
X114300000Y-68350000D03*
X86360000Y-53110000D03*
X116840000Y-68350000D03*
X83820000Y-53110000D03*
X119380000Y-68350000D03*
X81280000Y-53110000D03*
X121920000Y-68350000D03*
X78740000Y-53110000D03*
X124460000Y-68350000D03*
X76200000Y-53110000D03*
D14*
X138100000Y-91600000D03*
D17*
X153340000Y-83980000D03*
X140640000Y-91600000D03*
X150800000Y-83980000D03*
X143180000Y-91600000D03*
X148260000Y-83980000D03*
X145720000Y-91600000D03*
X145720000Y-83980000D03*
X148260000Y-91600000D03*
X143180000Y-83980000D03*
X150800000Y-91600000D03*
X140640000Y-83980000D03*
X153340000Y-91600000D03*
X138100000Y-83980000D03*
D16*
X148100000Y-95275000D03*
X148100000Y-95925000D03*
X148100000Y-96575000D03*
X148100000Y-97225000D03*
X148100000Y-97875000D03*
X148100000Y-98525000D03*
X148100000Y-99175000D03*
X148100000Y-99825000D03*
X148100000Y-100475000D03*
X148100000Y-101125000D03*
X154000000Y-101125000D03*
X154000000Y-100475000D03*
X154000000Y-99825000D03*
X154000000Y-99175000D03*
X154000000Y-98525000D03*
X154000000Y-97875000D03*
X154000000Y-97225000D03*
X154000000Y-96575000D03*
X154000000Y-95925000D03*
X154000000Y-95275000D03*
X134400000Y-95275000D03*
X134400000Y-95925000D03*
X134400000Y-96575000D03*
X134400000Y-97225000D03*
X134400000Y-97875000D03*
X134400000Y-98525000D03*
X134400000Y-99175000D03*
X134400000Y-99825000D03*
X134400000Y-100475000D03*
X134400000Y-101125000D03*
X140300000Y-101125000D03*
X140300000Y-100475000D03*
X140300000Y-99825000D03*
X140300000Y-99175000D03*
X140300000Y-98525000D03*
X140300000Y-97875000D03*
X140300000Y-97225000D03*
X140300000Y-96575000D03*
X140300000Y-95925000D03*
X140300000Y-95275000D03*
D24*
X96450000Y-139365000D03*
X96450000Y-140635000D03*
X96450000Y-141905000D03*
X96450000Y-143175000D03*
X96450000Y-144445000D03*
X96450000Y-145715000D03*
X96450000Y-146985000D03*
X96450000Y-148255000D03*
X96450000Y-149525000D03*
X96450000Y-150795000D03*
X96450000Y-152065000D03*
X96450000Y-153335000D03*
X105850000Y-153335000D03*
X105850000Y-152065000D03*
X105850000Y-150795000D03*
X105850000Y-149525000D03*
X105850000Y-148255000D03*
X105850000Y-146985000D03*
X105850000Y-145715000D03*
X105850000Y-144445000D03*
X105850000Y-143175000D03*
X105850000Y-141905000D03*
X105850000Y-140635000D03*
X105850000Y-139365000D03*
D14*
X49530000Y-95020000D03*
D17*
X64770000Y-133120000D03*
X49530000Y-97560000D03*
X64770000Y-130580000D03*
X49530000Y-100100000D03*
X64770000Y-128040000D03*
X49530000Y-102640000D03*
X64770000Y-125500000D03*
X49530000Y-105180000D03*
X64770000Y-122960000D03*
X49530000Y-107720000D03*
X64770000Y-120420000D03*
X49530000Y-110260000D03*
X64770000Y-117880000D03*
X49530000Y-112800000D03*
X64770000Y-115340000D03*
X49530000Y-115340000D03*
X64770000Y-112800000D03*
X49530000Y-117880000D03*
X64770000Y-110260000D03*
X49530000Y-120420000D03*
X64770000Y-107720000D03*
X49530000Y-122960000D03*
X64770000Y-105180000D03*
X49530000Y-125500000D03*
X64770000Y-102640000D03*
X49530000Y-128040000D03*
X64770000Y-100100000D03*
X49530000Y-130580000D03*
X64770000Y-97560000D03*
X49530000Y-133120000D03*
X64770000Y-95020000D03*
D14*
X24000000Y-145450000D03*
D17*
X31620000Y-160690000D03*
X24000000Y-147990000D03*
X31620000Y-158150000D03*
X24000000Y-150530000D03*
X31620000Y-155610000D03*
X24000000Y-153070000D03*
X31620000Y-153070000D03*
X24000000Y-155610000D03*
X31620000Y-150530000D03*
X24000000Y-158150000D03*
X31620000Y-147990000D03*
X24000000Y-160690000D03*
X31620000Y-145450000D03*
D14*
X24130000Y-95020000D03*
D17*
X39370000Y-133120000D03*
X24130000Y-97560000D03*
X39370000Y-130580000D03*
X24130000Y-100100000D03*
X39370000Y-128040000D03*
X24130000Y-102640000D03*
X39370000Y-125500000D03*
X24130000Y-105180000D03*
X39370000Y-122960000D03*
X24130000Y-107720000D03*
X39370000Y-120420000D03*
X24130000Y-110260000D03*
X39370000Y-117880000D03*
X24130000Y-112800000D03*
X39370000Y-115340000D03*
X24130000Y-115340000D03*
X39370000Y-112800000D03*
X24130000Y-117880000D03*
X39370000Y-110260000D03*
X24130000Y-120420000D03*
X39370000Y-107720000D03*
X24130000Y-122960000D03*
X39370000Y-105180000D03*
X24130000Y-125500000D03*
X39370000Y-102640000D03*
X24130000Y-128040000D03*
X39370000Y-100100000D03*
X24130000Y-130580000D03*
X39370000Y-97560000D03*
X24130000Y-133120000D03*
X39370000Y-95020000D03*
D14*
X39950000Y-33950000D03*
D17*
X47570000Y-49190000D03*
X39950000Y-36490000D03*
X47570000Y-46650000D03*
X39950000Y-39030000D03*
X47570000Y-44110000D03*
X39950000Y-41570000D03*
X47570000Y-41570000D03*
X39950000Y-44110000D03*
X47570000Y-39030000D03*
X39950000Y-46650000D03*
X47570000Y-36490000D03*
X39950000Y-49190000D03*
X47570000Y-33950000D03*
D14*
X76200000Y-116610000D03*
D17*
X124460000Y-101370000D03*
X78740000Y-116610000D03*
X121920000Y-101370000D03*
X81280000Y-116610000D03*
X119380000Y-101370000D03*
X83820000Y-116610000D03*
X116840000Y-101370000D03*
X86360000Y-116610000D03*
X114300000Y-101370000D03*
X88900000Y-116610000D03*
X111760000Y-101370000D03*
X91440000Y-116610000D03*
X109220000Y-101370000D03*
X93980000Y-116610000D03*
X106680000Y-101370000D03*
X96520000Y-116610000D03*
X104140000Y-101370000D03*
X99060000Y-116610000D03*
X101600000Y-101370000D03*
X101600000Y-116610000D03*
X99060000Y-101370000D03*
X104140000Y-116610000D03*
X96520000Y-101370000D03*
X106680000Y-116610000D03*
X93980000Y-101370000D03*
X109220000Y-116610000D03*
X91440000Y-101370000D03*
X111760000Y-116610000D03*
X88900000Y-101370000D03*
X114300000Y-116610000D03*
X86360000Y-101370000D03*
X116840000Y-116610000D03*
X83820000Y-101370000D03*
X119380000Y-116610000D03*
X81280000Y-101370000D03*
X121920000Y-116610000D03*
X78740000Y-101370000D03*
X124460000Y-116610000D03*
X76200000Y-101370000D03*
D25*
X29300000Y-37200000D03*
X34300000Y-37200000D03*
X29300000Y-42200000D03*
X34300000Y-42200000D03*
D26*
X131400000Y-18700000D03*
X134100000Y-18700000D03*
X131400000Y-22450000D03*
X134100000Y-22450000D03*
X131400000Y-26300000D03*
X134100000Y-26300000D03*
D27*
X121600000Y-35450000D03*
X121600000Y-32750000D03*
D26*
X154400000Y-159850000D03*
X151700000Y-159850000D03*
X154450000Y-166700000D03*
X151750000Y-166700000D03*
X151750000Y-163250000D03*
X154450000Y-163250000D03*
D27*
X74000000Y-153700000D03*
X74000000Y-151000000D03*
D26*
X56850000Y-29900000D03*
X54150000Y-29900000D03*
X46050000Y-29900000D03*
X48750000Y-29900000D03*
D27*
X128270000Y-112880000D03*
X128270000Y-110180000D03*
X17550000Y-32750000D03*
X17550000Y-30050000D03*
X69350000Y-163650000D03*
X69350000Y-166350000D03*
X46450000Y-163650000D03*
X46450000Y-166350000D03*
X79913200Y-163664760D03*
X79913200Y-166364760D03*
X49100000Y-163650000D03*
X49100000Y-166350000D03*
X77271600Y-163642000D03*
X77271600Y-166342000D03*
X43764400Y-163635664D03*
X43764400Y-166335664D03*
X74630000Y-163664760D03*
X74630000Y-166364760D03*
X41122800Y-163631200D03*
X41122800Y-166331200D03*
X71988400Y-163642000D03*
X71988400Y-166342000D03*
X38481200Y-163631200D03*
X38481200Y-166331200D03*
D28*
X42300000Y-24250000D03*
D29*
X42300000Y-29330000D03*
D30*
X152850000Y-27750000D03*
D31*
X155390000Y-27750000D03*
X152850000Y-30290000D03*
X155390000Y-30290000D03*
X152850000Y-32830000D03*
X155390000Y-32830000D03*
X152850000Y-35370000D03*
X155390000Y-35370000D03*
X152850000Y-37910000D03*
X155390000Y-37910000D03*
X152850000Y-40450000D03*
X155390000Y-40450000D03*
X152850000Y-42990000D03*
X155390000Y-42990000D03*
X152850000Y-45530000D03*
X155390000Y-45530000D03*
X152850000Y-48070000D03*
X155390000Y-48070000D03*
D32*
X147150000Y-178600000D03*
X118850000Y-178600000D03*
D33*
X120445000Y-155700000D03*
D34*
X138000000Y-155700000D03*
D35*
X139375000Y-155700000D03*
X136875000Y-155700000D03*
X134375000Y-155700000D03*
X131875000Y-155700000D03*
X129375000Y-155700000D03*
X126875000Y-155700000D03*
X124450000Y-155700000D03*
X122750000Y-155700000D03*
X141875000Y-155700000D03*
D12*
X145300000Y-157700000D03*
X120700000Y-157700000D03*
D30*
X18750000Y-27150000D03*
D31*
X21290000Y-27150000D03*
D36*
X33900000Y-30000000D03*
X31400000Y-30000000D03*
X31400000Y-28000000D03*
X33900000Y-28000000D03*
D37*
X38670000Y-25290000D03*
X26630000Y-25290000D03*
D30*
X83950000Y-156600000D03*
D31*
X83950000Y-159140000D03*
X81410000Y-156600000D03*
X81410000Y-159140000D03*
X78870000Y-156600000D03*
X78870000Y-159140000D03*
X76330000Y-156600000D03*
X76330000Y-159140000D03*
X73790000Y-156600000D03*
X73790000Y-159140000D03*
X71250000Y-156600000D03*
X71250000Y-159140000D03*
X68710000Y-156600000D03*
X68710000Y-159140000D03*
X66170000Y-156600000D03*
X66170000Y-159140000D03*
X63630000Y-156600000D03*
X63630000Y-159140000D03*
X61090000Y-156600000D03*
X61090000Y-159140000D03*
X58550000Y-156600000D03*
X58550000Y-159140000D03*
X56010000Y-156600000D03*
X56010000Y-159140000D03*
X53470000Y-156600000D03*
X53470000Y-159140000D03*
X50930000Y-156600000D03*
X50930000Y-159140000D03*
X48390000Y-156600000D03*
X48390000Y-159140000D03*
X45850000Y-156600000D03*
X45850000Y-159140000D03*
X43310000Y-156600000D03*
X43310000Y-159140000D03*
X40770000Y-156600000D03*
X40770000Y-159140000D03*
X38230000Y-156600000D03*
X38230000Y-159140000D03*
X35690000Y-156600000D03*
X35690000Y-159140000D03*
D38*
X51350000Y-138100000D03*
X51350000Y-140000000D03*
X53350000Y-139050000D03*
X52900000Y-141650000D03*
X52900000Y-143550000D03*
X54900000Y-142600000D03*
X51300000Y-145200000D03*
X51300000Y-147100000D03*
X53300000Y-146150000D03*
X54750000Y-148750000D03*
X54750000Y-150650000D03*
X56750000Y-149700000D03*
D39*
X20500000Y-32350000D03*
D40*
X23040000Y-32350000D03*
D41*
X17050000Y-45500000D03*
X19550000Y-45500000D03*
D14*
X126550000Y-36300000D03*
D15*
X126550000Y-33800000D03*
X64450000Y-50950000D03*
X59450000Y-50950000D03*
X138800000Y-81500000D03*
X143800000Y-81500000D03*
X19150000Y-79950000D03*
X19150000Y-84950000D03*
X127750000Y-134350000D03*
X122750000Y-134350000D03*
X118600000Y-135250000D03*
X113600000Y-135250000D03*
X77600000Y-144300000D03*
X72600000Y-144300000D03*
X47600000Y-149950000D03*
X42600000Y-149950000D03*
X128100000Y-147200000D03*
X128100000Y-152200000D03*
X86150000Y-152500000D03*
X86150000Y-147500000D03*
D14*
X87600000Y-162950000D03*
D15*
X87600000Y-165450000D03*
X87150000Y-160150000D03*
X87150000Y-155150000D03*
X71550000Y-152050000D03*
X71550000Y-147050000D03*
X68850000Y-147050000D03*
X68850000Y-152050000D03*
D41*
X24200000Y-45500000D03*
X21700000Y-45500000D03*
D15*
X34300000Y-47950000D03*
X29300000Y-47950000D03*
D42*
X133350000Y-138200000D03*
D43*
X135890000Y-138200000D03*
X138430000Y-138200000D03*
X140970000Y-138200000D03*
X140970000Y-122960000D03*
X138430000Y-122960000D03*
X135890000Y-122960000D03*
X133350000Y-122960000D03*
X143510000Y-138200000D03*
X146050000Y-138200000D03*
X148590000Y-138200000D03*
X151130000Y-138200000D03*
X143510000Y-122960000D03*
X146050000Y-122960000D03*
X148590000Y-122960000D03*
X151130000Y-122960000D03*
X153670000Y-138200000D03*
X153670000Y-122960000D03*
D15*
X72390000Y-111530000D03*
X72390000Y-106530000D03*
X46450000Y-52100000D03*
X41450000Y-52100000D03*
X34290000Y-91210000D03*
X29290000Y-91210000D03*
X30350000Y-142500000D03*
X25350000Y-142500000D03*
X59690000Y-91210000D03*
X54690000Y-91210000D03*
X103750000Y-155800000D03*
X98750000Y-155800000D03*
X18350000Y-167150000D03*
X18350000Y-172150000D03*
X102600000Y-167100000D03*
X102600000Y-172100000D03*
X139700000Y-105180000D03*
X134700000Y-105180000D03*
X153670000Y-105180000D03*
X148670000Y-105180000D03*
X69850000Y-48284000D03*
X74850000Y-48284000D03*
X100088800Y-48284000D03*
X105088800Y-48284000D03*
X77470000Y-48284000D03*
X82470000Y-48284000D03*
X107708800Y-48284000D03*
X112708800Y-48284000D03*
X66040000Y-38124000D03*
X66040000Y-43124000D03*
X85090000Y-48284000D03*
X90090000Y-48284000D03*
X96278800Y-38124000D03*
X96278800Y-43124000D03*
X115328800Y-48284000D03*
X120328800Y-48284000D03*
X156300000Y-85500000D03*
X156300000Y-90500000D03*
X72390000Y-63270000D03*
X72390000Y-58270000D03*
X68580000Y-33044000D03*
X73580000Y-33044000D03*
X98818800Y-33044000D03*
X103818800Y-33044000D03*
X129540000Y-82400000D03*
X129540000Y-87400000D03*
X67310000Y-87095200D03*
X62310000Y-87095200D03*
X44750000Y-58900000D03*
X39750000Y-58900000D03*
X58000000Y-40600000D03*
X53000000Y-40600000D03*
X58000000Y-32200000D03*
X53000000Y-32200000D03*
D30*
X124460000Y-124230000D03*
D31*
X124460000Y-126770000D03*
X121920000Y-124230000D03*
X121920000Y-126770000D03*
X119380000Y-124230000D03*
X119380000Y-126770000D03*
X116840000Y-124230000D03*
X116840000Y-126770000D03*
X114300000Y-124230000D03*
X114300000Y-126770000D03*
X111760000Y-124230000D03*
X111760000Y-126770000D03*
X109220000Y-124230000D03*
X109220000Y-126770000D03*
X106680000Y-124230000D03*
X106680000Y-126770000D03*
X104140000Y-124230000D03*
X104140000Y-126770000D03*
X101600000Y-124230000D03*
X101600000Y-126770000D03*
X99060000Y-124230000D03*
X99060000Y-126770000D03*
X96520000Y-124230000D03*
X96520000Y-126770000D03*
X93980000Y-124230000D03*
X93980000Y-126770000D03*
X91440000Y-124230000D03*
X91440000Y-126770000D03*
X88900000Y-124230000D03*
X88900000Y-126770000D03*
X86360000Y-124230000D03*
X86360000Y-126770000D03*
X83820000Y-124230000D03*
X83820000Y-126770000D03*
X81280000Y-124230000D03*
X81280000Y-126770000D03*
X78740000Y-124230000D03*
X78740000Y-126770000D03*
X76200000Y-124230000D03*
X76200000Y-126770000D03*
D28*
X138430000Y-119150000D03*
D29*
X138430000Y-114070000D03*
D28*
X140970000Y-119150000D03*
D29*
X140970000Y-114070000D03*
D28*
X138430000Y-142010000D03*
D29*
X138430000Y-147090000D03*
D28*
X135890000Y-142010000D03*
D29*
X135890000Y-147090000D03*
D28*
X133350000Y-142010000D03*
D29*
X133350000Y-147090000D03*
D28*
X133350000Y-119150000D03*
D29*
X133350000Y-114070000D03*
D28*
X135890000Y-119150000D03*
D29*
X135890000Y-114070000D03*
D28*
X140970000Y-142010000D03*
D29*
X140970000Y-147090000D03*
D28*
X151130000Y-119150000D03*
D29*
X151130000Y-114070000D03*
D28*
X153670000Y-119150000D03*
D29*
X153670000Y-114070000D03*
D28*
X151130000Y-142010000D03*
D29*
X151130000Y-147090000D03*
D28*
X146050000Y-142010000D03*
D29*
X146050000Y-147090000D03*
D28*
X143510000Y-142010000D03*
D29*
X143510000Y-147090000D03*
D28*
X148590000Y-119150000D03*
D29*
X148590000Y-114070000D03*
D28*
X148590000Y-142010000D03*
D29*
X148590000Y-147090000D03*
D28*
X153670000Y-142010000D03*
D29*
X153670000Y-147090000D03*
D44*
X43650000Y-66250000D03*
D45*
X41110000Y-66250000D03*
X38570000Y-66250000D03*
X46190000Y-66250000D03*
X48730000Y-66250000D03*
X41110000Y-63710000D03*
X38570000Y-63710000D03*
X36030000Y-63710000D03*
X43650000Y-63710000D03*
X46190000Y-63710000D03*
X36030000Y-66250000D03*
X36030000Y-68790000D03*
X36030000Y-71330000D03*
X36030000Y-73870000D03*
X36030000Y-76410000D03*
X33490000Y-66250000D03*
X33490000Y-68790000D03*
X33490000Y-71330000D03*
X33490000Y-73870000D03*
X33490000Y-76410000D03*
X33490000Y-78950000D03*
X36030000Y-78950000D03*
X38570000Y-78950000D03*
X41110000Y-78950000D03*
X43650000Y-78950000D03*
X46190000Y-78950000D03*
X48730000Y-78950000D03*
X36030000Y-81490000D03*
X38570000Y-81490000D03*
X41110000Y-81490000D03*
X43650000Y-81490000D03*
X46190000Y-81490000D03*
X48730000Y-81490000D03*
X48730000Y-76410000D03*
X48730000Y-73870000D03*
X48730000Y-71330000D03*
X48730000Y-68790000D03*
X48730000Y-63710000D03*
X51270000Y-78950000D03*
X51270000Y-76410000D03*
X51270000Y-73870000D03*
X51270000Y-71330000D03*
X51270000Y-68790000D03*
X51270000Y-66250000D03*
D14*
X19250000Y-52600000D03*
D15*
X26870000Y-52600000D03*
X26870000Y-60220000D03*
X19250000Y-60220000D03*
D46*
X67115000Y-26592400D03*
D40*
X75500000Y-25322400D03*
X78240000Y-25322400D03*
X80980000Y-25322400D03*
X83720000Y-25322400D03*
X74130000Y-27862400D03*
X76870000Y-27862400D03*
X79610000Y-27862400D03*
X82350000Y-27862400D03*
X85090000Y-27862400D03*
D46*
X92105000Y-26592400D03*
X100498600Y-26592400D03*
D40*
X108883600Y-25322400D03*
X111623600Y-25322400D03*
X114363600Y-25322400D03*
X117103600Y-25322400D03*
X107513600Y-27862400D03*
X110253600Y-27862400D03*
X112993600Y-27862400D03*
X115733600Y-27862400D03*
X118473600Y-27862400D03*
D46*
X125488600Y-26592400D03*
X89875000Y-172370000D03*
D40*
X81490000Y-173640000D03*
X78750000Y-173640000D03*
X76010000Y-173640000D03*
X73270000Y-173640000D03*
X82860000Y-171100000D03*
X80120000Y-171100000D03*
X77380000Y-171100000D03*
X74640000Y-171100000D03*
X71900000Y-171100000D03*
D46*
X64885000Y-172370000D03*
X56340200Y-172370000D03*
D40*
X47955200Y-173640000D03*
X45215200Y-173640000D03*
X42475200Y-173640000D03*
X39735200Y-173640000D03*
X49325200Y-171100000D03*
X46585200Y-171100000D03*
X43845200Y-171100000D03*
X41105200Y-171100000D03*
X38365200Y-171100000D03*
D46*
X31350200Y-172370000D03*
D47*
X44780000Y-20512400D03*
X58280000Y-20512400D03*
D39*
X50230000Y-23512400D03*
D40*
X52830000Y-23512400D03*
X48130000Y-23512400D03*
X54930000Y-23512400D03*
D48*
X54930000Y-26012400D03*
X48130000Y-26012400D03*
D47*
X51530000Y-19712400D03*
M02*
