%TF.GenerationSoftware,KiCad,Pcbnew,(5.1.0-0)*%
%TF.CreationDate,2019-04-15T22:40:15-04:00*%
%TF.ProjectId,zed-80,7a65642d-3830-42e6-9b69-6361645f7063,1*%
%TF.SameCoordinates,Original*%
%TF.FileFunction,Soldermask,Bot*%
%TF.FilePolarity,Negative*%
%FSLAX46Y46*%
G04 Gerber Fmt 4.6, Leading zero omitted, Abs format (unit mm)*
G04 Created by KiCad (PCBNEW (5.1.0-0)) date 2019-04-15 22:40:15*
%MOMM*%
%LPD*%
G04 APERTURE LIST*
%ADD10R,2.400000X1.600000*%
%ADD11R,1.600000X2.400000*%
%ADD12C,1.600000*%
%ADD13C,6.800000*%
%ADD14R,2.000000X2.000000*%
%ADD15C,2.000000*%
%ADD16O,2.000000X2.000000*%
%ADD17C,2.400000*%
%ADD18C,1.800000*%
%ADD19O,1.800000X1.800000*%
%ADD20R,2.100000X2.100000*%
%ADD21O,2.100000X2.100000*%
%ADD22C,2.020000*%
%ADD23C,3.500000*%
%ADD24R,2.200000X2.200000*%
%ADD25C,2.200000*%
%ADD26R,2.432000X2.432000*%
%ADD27C,2.432000*%
%ADD28R,2.150000X2.150000*%
%ADD29C,2.150000*%
%ADD30C,5.600000*%
%ADD31C,4.700000*%
%ADD32C,2.300000*%
G04 APERTURE END LIST*
D10*
X142300000Y-19500000D03*
D11*
X137300000Y-24500000D03*
X139800000Y-24500000D03*
X147300000Y-24500000D03*
X144800000Y-24500000D03*
D12*
X137300000Y-17000000D03*
X147300000Y-17000000D03*
X137300000Y-19500000D03*
X147300000Y-19500000D03*
X142300000Y-24500000D03*
D13*
X155000000Y-20000000D03*
X155000000Y-179000000D03*
X20000000Y-179000000D03*
X20000000Y-20000000D03*
D14*
X19250000Y-67800000D03*
D15*
X26870000Y-67800000D03*
X26870000Y-75420000D03*
X19250000Y-75420000D03*
D14*
X148950000Y-78500000D03*
D16*
X133710000Y-30240000D03*
X148950000Y-75960000D03*
X133710000Y-32780000D03*
X148950000Y-73420000D03*
X133710000Y-35320000D03*
X148950000Y-70880000D03*
X133710000Y-37860000D03*
X148950000Y-68340000D03*
X133710000Y-40400000D03*
X148950000Y-65800000D03*
X133710000Y-42940000D03*
X148950000Y-63260000D03*
X133710000Y-45480000D03*
X148950000Y-60720000D03*
X133710000Y-48020000D03*
X148950000Y-58180000D03*
X133710000Y-50560000D03*
X148950000Y-55640000D03*
X133710000Y-53100000D03*
X148950000Y-53100000D03*
X133710000Y-55640000D03*
X148950000Y-50560000D03*
X133710000Y-58180000D03*
X148950000Y-48020000D03*
X133710000Y-60720000D03*
X148950000Y-45480000D03*
X133710000Y-63260000D03*
X148950000Y-42940000D03*
X133710000Y-65800000D03*
X148950000Y-40400000D03*
X133710000Y-68340000D03*
X148950000Y-37860000D03*
X133710000Y-70880000D03*
X148950000Y-35320000D03*
X133710000Y-73420000D03*
X148950000Y-32780000D03*
X133710000Y-75960000D03*
X148950000Y-30240000D03*
X133710000Y-78500000D03*
D14*
X60960000Y-68350000D03*
D16*
X68580000Y-83590000D03*
X60960000Y-70890000D03*
X68580000Y-81050000D03*
X60960000Y-73430000D03*
X68580000Y-78510000D03*
X60960000Y-75970000D03*
X68580000Y-75970000D03*
X60960000Y-78510000D03*
X68580000Y-73430000D03*
X60960000Y-81050000D03*
X68580000Y-70890000D03*
X60960000Y-83590000D03*
X68580000Y-68350000D03*
D14*
X76200000Y-92480000D03*
D16*
X124460000Y-77240000D03*
X78740000Y-92480000D03*
X121920000Y-77240000D03*
X81280000Y-92480000D03*
X119380000Y-77240000D03*
X83820000Y-92480000D03*
X116840000Y-77240000D03*
X86360000Y-92480000D03*
X114300000Y-77240000D03*
X88900000Y-92480000D03*
X111760000Y-77240000D03*
X91440000Y-92480000D03*
X109220000Y-77240000D03*
X93980000Y-92480000D03*
X106680000Y-77240000D03*
X96520000Y-92480000D03*
X104140000Y-77240000D03*
X99060000Y-92480000D03*
X101600000Y-77240000D03*
X101600000Y-92480000D03*
X99060000Y-77240000D03*
X104140000Y-92480000D03*
X96520000Y-77240000D03*
X106680000Y-92480000D03*
X93980000Y-77240000D03*
X109220000Y-92480000D03*
X91440000Y-77240000D03*
X111760000Y-92480000D03*
X88900000Y-77240000D03*
X114300000Y-92480000D03*
X86360000Y-77240000D03*
X116840000Y-92480000D03*
X83820000Y-77240000D03*
X119380000Y-92480000D03*
X81280000Y-77240000D03*
X121920000Y-92480000D03*
X78740000Y-77240000D03*
X124460000Y-92480000D03*
X76200000Y-77240000D03*
D14*
X100088800Y-44474000D03*
D16*
X117868800Y-36854000D03*
X102628800Y-44474000D03*
X115328800Y-36854000D03*
X105168800Y-44474000D03*
X112788800Y-36854000D03*
X107708800Y-44474000D03*
X110248800Y-36854000D03*
X110248800Y-44474000D03*
X107708800Y-36854000D03*
X112788800Y-44474000D03*
X105168800Y-36854000D03*
X115328800Y-44474000D03*
X102628800Y-36854000D03*
X117868800Y-44474000D03*
X100088800Y-36854000D03*
D14*
X69850000Y-44474000D03*
D16*
X87630000Y-36854000D03*
X72390000Y-44474000D03*
X85090000Y-36854000D03*
X74930000Y-44474000D03*
X82550000Y-36854000D03*
X77470000Y-44474000D03*
X80010000Y-36854000D03*
X80010000Y-44474000D03*
X77470000Y-36854000D03*
X82550000Y-44474000D03*
X74930000Y-36854000D03*
X85090000Y-44474000D03*
X72390000Y-36854000D03*
X87630000Y-44474000D03*
X69850000Y-36854000D03*
D14*
X76200000Y-68350000D03*
D16*
X124460000Y-53110000D03*
X78740000Y-68350000D03*
X121920000Y-53110000D03*
X81280000Y-68350000D03*
X119380000Y-53110000D03*
X83820000Y-68350000D03*
X116840000Y-53110000D03*
X86360000Y-68350000D03*
X114300000Y-53110000D03*
X88900000Y-68350000D03*
X111760000Y-53110000D03*
X91440000Y-68350000D03*
X109220000Y-53110000D03*
X93980000Y-68350000D03*
X106680000Y-53110000D03*
X96520000Y-68350000D03*
X104140000Y-53110000D03*
X99060000Y-68350000D03*
X101600000Y-53110000D03*
X101600000Y-68350000D03*
X99060000Y-53110000D03*
X104140000Y-68350000D03*
X96520000Y-53110000D03*
X106680000Y-68350000D03*
X93980000Y-53110000D03*
X109220000Y-68350000D03*
X91440000Y-53110000D03*
X111760000Y-68350000D03*
X88900000Y-53110000D03*
X114300000Y-68350000D03*
X86360000Y-53110000D03*
X116840000Y-68350000D03*
X83820000Y-53110000D03*
X119380000Y-68350000D03*
X81280000Y-53110000D03*
X121920000Y-68350000D03*
X78740000Y-53110000D03*
X124460000Y-68350000D03*
X76200000Y-53110000D03*
D14*
X138100000Y-91600000D03*
D16*
X153340000Y-83980000D03*
X140640000Y-91600000D03*
X150800000Y-83980000D03*
X143180000Y-91600000D03*
X148260000Y-83980000D03*
X145720000Y-91600000D03*
X145720000Y-83980000D03*
X148260000Y-91600000D03*
X143180000Y-83980000D03*
X150800000Y-91600000D03*
X140640000Y-83980000D03*
X153340000Y-91600000D03*
X138100000Y-83980000D03*
D14*
X49530000Y-95020000D03*
D16*
X64770000Y-133120000D03*
X49530000Y-97560000D03*
X64770000Y-130580000D03*
X49530000Y-100100000D03*
X64770000Y-128040000D03*
X49530000Y-102640000D03*
X64770000Y-125500000D03*
X49530000Y-105180000D03*
X64770000Y-122960000D03*
X49530000Y-107720000D03*
X64770000Y-120420000D03*
X49530000Y-110260000D03*
X64770000Y-117880000D03*
X49530000Y-112800000D03*
X64770000Y-115340000D03*
X49530000Y-115340000D03*
X64770000Y-112800000D03*
X49530000Y-117880000D03*
X64770000Y-110260000D03*
X49530000Y-120420000D03*
X64770000Y-107720000D03*
X49530000Y-122960000D03*
X64770000Y-105180000D03*
X49530000Y-125500000D03*
X64770000Y-102640000D03*
X49530000Y-128040000D03*
X64770000Y-100100000D03*
X49530000Y-130580000D03*
X64770000Y-97560000D03*
X49530000Y-133120000D03*
X64770000Y-95020000D03*
D14*
X24000000Y-145450000D03*
D16*
X31620000Y-160690000D03*
X24000000Y-147990000D03*
X31620000Y-158150000D03*
X24000000Y-150530000D03*
X31620000Y-155610000D03*
X24000000Y-153070000D03*
X31620000Y-153070000D03*
X24000000Y-155610000D03*
X31620000Y-150530000D03*
X24000000Y-158150000D03*
X31620000Y-147990000D03*
X24000000Y-160690000D03*
X31620000Y-145450000D03*
D14*
X24130000Y-95020000D03*
D16*
X39370000Y-133120000D03*
X24130000Y-97560000D03*
X39370000Y-130580000D03*
X24130000Y-100100000D03*
X39370000Y-128040000D03*
X24130000Y-102640000D03*
X39370000Y-125500000D03*
X24130000Y-105180000D03*
X39370000Y-122960000D03*
X24130000Y-107720000D03*
X39370000Y-120420000D03*
X24130000Y-110260000D03*
X39370000Y-117880000D03*
X24130000Y-112800000D03*
X39370000Y-115340000D03*
X24130000Y-115340000D03*
X39370000Y-112800000D03*
X24130000Y-117880000D03*
X39370000Y-110260000D03*
X24130000Y-120420000D03*
X39370000Y-107720000D03*
X24130000Y-122960000D03*
X39370000Y-105180000D03*
X24130000Y-125500000D03*
X39370000Y-102640000D03*
X24130000Y-128040000D03*
X39370000Y-100100000D03*
X24130000Y-130580000D03*
X39370000Y-97560000D03*
X24130000Y-133120000D03*
X39370000Y-95020000D03*
D14*
X39950000Y-33950000D03*
D16*
X47570000Y-49190000D03*
X39950000Y-36490000D03*
X47570000Y-46650000D03*
X39950000Y-39030000D03*
X47570000Y-44110000D03*
X39950000Y-41570000D03*
X47570000Y-41570000D03*
X39950000Y-44110000D03*
X47570000Y-39030000D03*
X39950000Y-46650000D03*
X47570000Y-36490000D03*
X39950000Y-49190000D03*
X47570000Y-33950000D03*
D14*
X76200000Y-116610000D03*
D16*
X124460000Y-101370000D03*
X78740000Y-116610000D03*
X121920000Y-101370000D03*
X81280000Y-116610000D03*
X119380000Y-101370000D03*
X83820000Y-116610000D03*
X116840000Y-101370000D03*
X86360000Y-116610000D03*
X114300000Y-101370000D03*
X88900000Y-116610000D03*
X111760000Y-101370000D03*
X91440000Y-116610000D03*
X109220000Y-101370000D03*
X93980000Y-116610000D03*
X106680000Y-101370000D03*
X96520000Y-116610000D03*
X104140000Y-101370000D03*
X99060000Y-116610000D03*
X101600000Y-101370000D03*
X101600000Y-116610000D03*
X99060000Y-101370000D03*
X104140000Y-116610000D03*
X96520000Y-101370000D03*
X106680000Y-116610000D03*
X93980000Y-101370000D03*
X109220000Y-116610000D03*
X91440000Y-101370000D03*
X111760000Y-116610000D03*
X88900000Y-101370000D03*
X114300000Y-116610000D03*
X86360000Y-101370000D03*
X116840000Y-116610000D03*
X83820000Y-101370000D03*
X119380000Y-116610000D03*
X81280000Y-101370000D03*
X121920000Y-116610000D03*
X78740000Y-101370000D03*
X124460000Y-116610000D03*
X76200000Y-101370000D03*
D17*
X29300000Y-37200000D03*
X34300000Y-37200000D03*
X29300000Y-42200000D03*
X34300000Y-42200000D03*
D18*
X42300000Y-24250000D03*
D19*
X42300000Y-29330000D03*
D20*
X152850000Y-27750000D03*
D21*
X155390000Y-27750000D03*
X152850000Y-30290000D03*
X155390000Y-30290000D03*
X152850000Y-32830000D03*
X155390000Y-32830000D03*
X152850000Y-35370000D03*
X155390000Y-35370000D03*
X152850000Y-37910000D03*
X155390000Y-37910000D03*
X152850000Y-40450000D03*
X155390000Y-40450000D03*
X152850000Y-42990000D03*
X155390000Y-42990000D03*
X152850000Y-45530000D03*
X155390000Y-45530000D03*
X152850000Y-48070000D03*
X155390000Y-48070000D03*
D12*
X145300000Y-157700000D03*
X120700000Y-157700000D03*
D20*
X18750000Y-27150000D03*
D21*
X21290000Y-27150000D03*
D22*
X33900000Y-30000000D03*
X31400000Y-30000000D03*
X31400000Y-28000000D03*
X33900000Y-28000000D03*
D23*
X38670000Y-25290000D03*
X26630000Y-25290000D03*
D20*
X83950000Y-156600000D03*
D21*
X83950000Y-159140000D03*
X81410000Y-156600000D03*
X81410000Y-159140000D03*
X78870000Y-156600000D03*
X78870000Y-159140000D03*
X76330000Y-156600000D03*
X76330000Y-159140000D03*
X73790000Y-156600000D03*
X73790000Y-159140000D03*
X71250000Y-156600000D03*
X71250000Y-159140000D03*
X68710000Y-156600000D03*
X68710000Y-159140000D03*
X66170000Y-156600000D03*
X66170000Y-159140000D03*
X63630000Y-156600000D03*
X63630000Y-159140000D03*
X61090000Y-156600000D03*
X61090000Y-159140000D03*
X58550000Y-156600000D03*
X58550000Y-159140000D03*
X56010000Y-156600000D03*
X56010000Y-159140000D03*
X53470000Y-156600000D03*
X53470000Y-159140000D03*
X50930000Y-156600000D03*
X50930000Y-159140000D03*
X48390000Y-156600000D03*
X48390000Y-159140000D03*
X45850000Y-156600000D03*
X45850000Y-159140000D03*
X43310000Y-156600000D03*
X43310000Y-159140000D03*
X40770000Y-156600000D03*
X40770000Y-159140000D03*
X38230000Y-156600000D03*
X38230000Y-159140000D03*
X35690000Y-156600000D03*
X35690000Y-159140000D03*
D24*
X20500000Y-32350000D03*
D25*
X23040000Y-32350000D03*
D14*
X126550000Y-36300000D03*
D15*
X126550000Y-33800000D03*
X64450000Y-50950000D03*
X59450000Y-50950000D03*
X138800000Y-81500000D03*
X143800000Y-81500000D03*
X19150000Y-79950000D03*
X19150000Y-84950000D03*
X127750000Y-134350000D03*
X122750000Y-134350000D03*
X118600000Y-135250000D03*
X113600000Y-135250000D03*
X77600000Y-144300000D03*
X72600000Y-144300000D03*
X47600000Y-149950000D03*
X42600000Y-149950000D03*
X128100000Y-147200000D03*
X128100000Y-152200000D03*
X86150000Y-152500000D03*
X86150000Y-147500000D03*
D14*
X87600000Y-162950000D03*
D15*
X87600000Y-165450000D03*
X87150000Y-160150000D03*
X87150000Y-155150000D03*
X71550000Y-152050000D03*
X71550000Y-147050000D03*
X68850000Y-147050000D03*
X68850000Y-152050000D03*
X34300000Y-47950000D03*
X29300000Y-47950000D03*
D26*
X133350000Y-138200000D03*
D27*
X135890000Y-138200000D03*
X138430000Y-138200000D03*
X140970000Y-138200000D03*
X140970000Y-122960000D03*
X138430000Y-122960000D03*
X135890000Y-122960000D03*
X133350000Y-122960000D03*
X143510000Y-138200000D03*
X146050000Y-138200000D03*
X148590000Y-138200000D03*
X151130000Y-138200000D03*
X143510000Y-122960000D03*
X146050000Y-122960000D03*
X148590000Y-122960000D03*
X151130000Y-122960000D03*
X153670000Y-138200000D03*
X153670000Y-122960000D03*
D15*
X72390000Y-111530000D03*
X72390000Y-106530000D03*
X46450000Y-52100000D03*
X41450000Y-52100000D03*
X34290000Y-91210000D03*
X29290000Y-91210000D03*
X30350000Y-142500000D03*
X25350000Y-142500000D03*
X59690000Y-91210000D03*
X54690000Y-91210000D03*
X103750000Y-155800000D03*
X98750000Y-155800000D03*
X18350000Y-167150000D03*
X18350000Y-172150000D03*
X102600000Y-167100000D03*
X102600000Y-172100000D03*
X139700000Y-105180000D03*
X134700000Y-105180000D03*
X153670000Y-105180000D03*
X148670000Y-105180000D03*
X69850000Y-48284000D03*
X74850000Y-48284000D03*
X100088800Y-48284000D03*
X105088800Y-48284000D03*
X77470000Y-48284000D03*
X82470000Y-48284000D03*
X107708800Y-48284000D03*
X112708800Y-48284000D03*
X66040000Y-38124000D03*
X66040000Y-43124000D03*
X85090000Y-48284000D03*
X90090000Y-48284000D03*
X96278800Y-38124000D03*
X96278800Y-43124000D03*
X115328800Y-48284000D03*
X120328800Y-48284000D03*
X156300000Y-85500000D03*
X156300000Y-90500000D03*
X72390000Y-63270000D03*
X72390000Y-58270000D03*
X68580000Y-33044000D03*
X73580000Y-33044000D03*
X98818800Y-33044000D03*
X103818800Y-33044000D03*
X129540000Y-82400000D03*
X129540000Y-87400000D03*
X67310000Y-87095200D03*
X62310000Y-87095200D03*
X44750000Y-58900000D03*
X39750000Y-58900000D03*
X58000000Y-40600000D03*
X53000000Y-40600000D03*
X58000000Y-32200000D03*
X53000000Y-32200000D03*
D20*
X124460000Y-124230000D03*
D21*
X124460000Y-126770000D03*
X121920000Y-124230000D03*
X121920000Y-126770000D03*
X119380000Y-124230000D03*
X119380000Y-126770000D03*
X116840000Y-124230000D03*
X116840000Y-126770000D03*
X114300000Y-124230000D03*
X114300000Y-126770000D03*
X111760000Y-124230000D03*
X111760000Y-126770000D03*
X109220000Y-124230000D03*
X109220000Y-126770000D03*
X106680000Y-124230000D03*
X106680000Y-126770000D03*
X104140000Y-124230000D03*
X104140000Y-126770000D03*
X101600000Y-124230000D03*
X101600000Y-126770000D03*
X99060000Y-124230000D03*
X99060000Y-126770000D03*
X96520000Y-124230000D03*
X96520000Y-126770000D03*
X93980000Y-124230000D03*
X93980000Y-126770000D03*
X91440000Y-124230000D03*
X91440000Y-126770000D03*
X88900000Y-124230000D03*
X88900000Y-126770000D03*
X86360000Y-124230000D03*
X86360000Y-126770000D03*
X83820000Y-124230000D03*
X83820000Y-126770000D03*
X81280000Y-124230000D03*
X81280000Y-126770000D03*
X78740000Y-124230000D03*
X78740000Y-126770000D03*
X76200000Y-124230000D03*
X76200000Y-126770000D03*
D18*
X138430000Y-119150000D03*
D19*
X138430000Y-114070000D03*
D18*
X140970000Y-119150000D03*
D19*
X140970000Y-114070000D03*
D18*
X138430000Y-142010000D03*
D19*
X138430000Y-147090000D03*
D18*
X135890000Y-142010000D03*
D19*
X135890000Y-147090000D03*
D18*
X133350000Y-142010000D03*
D19*
X133350000Y-147090000D03*
D18*
X133350000Y-119150000D03*
D19*
X133350000Y-114070000D03*
D18*
X135890000Y-119150000D03*
D19*
X135890000Y-114070000D03*
D18*
X140970000Y-142010000D03*
D19*
X140970000Y-147090000D03*
D18*
X151130000Y-119150000D03*
D19*
X151130000Y-114070000D03*
D18*
X153670000Y-119150000D03*
D19*
X153670000Y-114070000D03*
D18*
X151130000Y-142010000D03*
D19*
X151130000Y-147090000D03*
D18*
X146050000Y-142010000D03*
D19*
X146050000Y-147090000D03*
D18*
X143510000Y-142010000D03*
D19*
X143510000Y-147090000D03*
D18*
X148590000Y-119150000D03*
D19*
X148590000Y-114070000D03*
D18*
X148590000Y-142010000D03*
D19*
X148590000Y-147090000D03*
D18*
X153670000Y-142010000D03*
D19*
X153670000Y-147090000D03*
D28*
X43650000Y-66250000D03*
D29*
X41110000Y-66250000D03*
X38570000Y-66250000D03*
X46190000Y-66250000D03*
X48730000Y-66250000D03*
X41110000Y-63710000D03*
X38570000Y-63710000D03*
X36030000Y-63710000D03*
X43650000Y-63710000D03*
X46190000Y-63710000D03*
X36030000Y-66250000D03*
X36030000Y-68790000D03*
X36030000Y-71330000D03*
X36030000Y-73870000D03*
X36030000Y-76410000D03*
X33490000Y-66250000D03*
X33490000Y-68790000D03*
X33490000Y-71330000D03*
X33490000Y-73870000D03*
X33490000Y-76410000D03*
X33490000Y-78950000D03*
X36030000Y-78950000D03*
X38570000Y-78950000D03*
X41110000Y-78950000D03*
X43650000Y-78950000D03*
X46190000Y-78950000D03*
X48730000Y-78950000D03*
X36030000Y-81490000D03*
X38570000Y-81490000D03*
X41110000Y-81490000D03*
X43650000Y-81490000D03*
X46190000Y-81490000D03*
X48730000Y-81490000D03*
X48730000Y-76410000D03*
X48730000Y-73870000D03*
X48730000Y-71330000D03*
X48730000Y-68790000D03*
X48730000Y-63710000D03*
X51270000Y-78950000D03*
X51270000Y-76410000D03*
X51270000Y-73870000D03*
X51270000Y-71330000D03*
X51270000Y-68790000D03*
X51270000Y-66250000D03*
D14*
X19250000Y-52600000D03*
D15*
X26870000Y-52600000D03*
X26870000Y-60220000D03*
X19250000Y-60220000D03*
D30*
X67115000Y-26592400D03*
D25*
X75500000Y-25322400D03*
X78240000Y-25322400D03*
X80980000Y-25322400D03*
X83720000Y-25322400D03*
X74130000Y-27862400D03*
X76870000Y-27862400D03*
X79610000Y-27862400D03*
X82350000Y-27862400D03*
X85090000Y-27862400D03*
D30*
X92105000Y-26592400D03*
X100498600Y-26592400D03*
D25*
X108883600Y-25322400D03*
X111623600Y-25322400D03*
X114363600Y-25322400D03*
X117103600Y-25322400D03*
X107513600Y-27862400D03*
X110253600Y-27862400D03*
X112993600Y-27862400D03*
X115733600Y-27862400D03*
X118473600Y-27862400D03*
D30*
X125488600Y-26592400D03*
X89875000Y-172370000D03*
D25*
X81490000Y-173640000D03*
X78750000Y-173640000D03*
X76010000Y-173640000D03*
X73270000Y-173640000D03*
X82860000Y-171100000D03*
X80120000Y-171100000D03*
X77380000Y-171100000D03*
X74640000Y-171100000D03*
X71900000Y-171100000D03*
D30*
X64885000Y-172370000D03*
X56340200Y-172370000D03*
D25*
X47955200Y-173640000D03*
X45215200Y-173640000D03*
X42475200Y-173640000D03*
X39735200Y-173640000D03*
X49325200Y-171100000D03*
X46585200Y-171100000D03*
X43845200Y-171100000D03*
X41105200Y-171100000D03*
X38365200Y-171100000D03*
D30*
X31350200Y-172370000D03*
D31*
X44780000Y-20512400D03*
X58280000Y-20512400D03*
D24*
X50230000Y-23512400D03*
D25*
X52830000Y-23512400D03*
X48130000Y-23512400D03*
X54930000Y-23512400D03*
D32*
X54930000Y-26012400D03*
X48130000Y-26012400D03*
D31*
X51530000Y-19712400D03*
M02*
