%TF.GenerationSoftware,KiCad,Pcbnew,4.0.7*%
%TF.CreationDate,2018-05-30T14:50:17-04:00*%
%TF.ProjectId,z80,7A38302E6B696361645F706362000000,1*%
%TF.FileFunction,Legend,Top*%
%FSLAX46Y46*%
G04 Gerber Fmt 4.6, Leading zero omitted, Abs format (unit mm)*
G04 Created by KiCad (PCBNEW 4.0.7) date Wednesday, May 30, 2018 'PMt' 02:50:17 PM*
%MOMM*%
%LPD*%
G01*
G04 APERTURE LIST*
%ADD10C,0.150000*%
%ADD11C,0.300000*%
%ADD12C,0.120000*%
G04 APERTURE END LIST*
D10*
D11*
X130070059Y-158094971D02*
X131070059Y-158094971D01*
X130070059Y-159594971D01*
X131070059Y-159594971D01*
X131855773Y-158737829D02*
X131712915Y-158666400D01*
X131641487Y-158594971D01*
X131570058Y-158452114D01*
X131570058Y-158380686D01*
X131641487Y-158237829D01*
X131712915Y-158166400D01*
X131855773Y-158094971D01*
X132141487Y-158094971D01*
X132284344Y-158166400D01*
X132355773Y-158237829D01*
X132427201Y-158380686D01*
X132427201Y-158452114D01*
X132355773Y-158594971D01*
X132284344Y-158666400D01*
X132141487Y-158737829D01*
X131855773Y-158737829D01*
X131712915Y-158809257D01*
X131641487Y-158880686D01*
X131570058Y-159023543D01*
X131570058Y-159309257D01*
X131641487Y-159452114D01*
X131712915Y-159523543D01*
X131855773Y-159594971D01*
X132141487Y-159594971D01*
X132284344Y-159523543D01*
X132355773Y-159452114D01*
X132427201Y-159309257D01*
X132427201Y-159023543D01*
X132355773Y-158880686D01*
X132284344Y-158809257D01*
X132141487Y-158737829D01*
X133355772Y-158094971D02*
X133498629Y-158094971D01*
X133641486Y-158166400D01*
X133712915Y-158237829D01*
X133784344Y-158380686D01*
X133855772Y-158666400D01*
X133855772Y-159023543D01*
X133784344Y-159309257D01*
X133712915Y-159452114D01*
X133641486Y-159523543D01*
X133498629Y-159594971D01*
X133355772Y-159594971D01*
X133212915Y-159523543D01*
X133141486Y-159452114D01*
X133070058Y-159309257D01*
X132998629Y-159023543D01*
X132998629Y-158666400D01*
X133070058Y-158380686D01*
X133141486Y-158237829D01*
X133212915Y-158166400D01*
X133355772Y-158094971D01*
X135641486Y-159594971D02*
X135641486Y-158094971D01*
X136212914Y-158094971D01*
X136355772Y-158166400D01*
X136427200Y-158237829D01*
X136498629Y-158380686D01*
X136498629Y-158594971D01*
X136427200Y-158737829D01*
X136355772Y-158809257D01*
X136212914Y-158880686D01*
X135641486Y-158880686D01*
X137141486Y-159594971D02*
X137141486Y-158594971D01*
X137141486Y-158880686D02*
X137212914Y-158737829D01*
X137284343Y-158666400D01*
X137427200Y-158594971D01*
X137570057Y-158594971D01*
X138284343Y-159594971D02*
X138141485Y-159523543D01*
X138070057Y-159452114D01*
X137998628Y-159309257D01*
X137998628Y-158880686D01*
X138070057Y-158737829D01*
X138141485Y-158666400D01*
X138284343Y-158594971D01*
X138498628Y-158594971D01*
X138641485Y-158666400D01*
X138712914Y-158737829D01*
X138784343Y-158880686D01*
X138784343Y-159309257D01*
X138712914Y-159452114D01*
X138641485Y-159523543D01*
X138498628Y-159594971D01*
X138284343Y-159594971D01*
X139212914Y-158594971D02*
X139784343Y-158594971D01*
X139427200Y-158094971D02*
X139427200Y-159380686D01*
X139498628Y-159523543D01*
X139641486Y-159594971D01*
X139784343Y-159594971D01*
X140498629Y-159594971D02*
X140355771Y-159523543D01*
X140284343Y-159452114D01*
X140212914Y-159309257D01*
X140212914Y-158880686D01*
X140284343Y-158737829D01*
X140355771Y-158666400D01*
X140498629Y-158594971D01*
X140712914Y-158594971D01*
X140855771Y-158666400D01*
X140927200Y-158737829D01*
X140998629Y-158880686D01*
X140998629Y-159309257D01*
X140927200Y-159452114D01*
X140855771Y-159523543D01*
X140712914Y-159594971D01*
X140498629Y-159594971D01*
X141427200Y-158594971D02*
X141998629Y-158594971D01*
X141641486Y-158094971D02*
X141641486Y-159380686D01*
X141712914Y-159523543D01*
X141855772Y-159594971D01*
X141998629Y-159594971D01*
X142355772Y-158594971D02*
X142712915Y-159594971D01*
X143070057Y-158594971D02*
X142712915Y-159594971D01*
X142570057Y-159952114D01*
X142498629Y-160023543D01*
X142355772Y-160094971D01*
X143641486Y-158594971D02*
X143641486Y-160094971D01*
X143641486Y-158666400D02*
X143784343Y-158594971D01*
X144070057Y-158594971D01*
X144212914Y-158666400D01*
X144284343Y-158737829D01*
X144355772Y-158880686D01*
X144355772Y-159309257D01*
X144284343Y-159452114D01*
X144212914Y-159523543D01*
X144070057Y-159594971D01*
X143784343Y-159594971D01*
X143641486Y-159523543D01*
X145570057Y-159523543D02*
X145427200Y-159594971D01*
X145141486Y-159594971D01*
X144998629Y-159523543D01*
X144927200Y-159380686D01*
X144927200Y-158809257D01*
X144998629Y-158666400D01*
X145141486Y-158594971D01*
X145427200Y-158594971D01*
X145570057Y-158666400D01*
X145641486Y-158809257D01*
X145641486Y-158952114D01*
X144927200Y-159094971D01*
X147427200Y-159594971D02*
X147427200Y-158594971D01*
X147427200Y-158880686D02*
X147498628Y-158737829D01*
X147570057Y-158666400D01*
X147712914Y-158594971D01*
X147855771Y-158594971D01*
X148927199Y-159523543D02*
X148784342Y-159594971D01*
X148498628Y-159594971D01*
X148355771Y-159523543D01*
X148284342Y-159380686D01*
X148284342Y-158809257D01*
X148355771Y-158666400D01*
X148498628Y-158594971D01*
X148784342Y-158594971D01*
X148927199Y-158666400D01*
X148998628Y-158809257D01*
X148998628Y-158952114D01*
X148284342Y-159094971D01*
X149498628Y-158594971D02*
X149855771Y-159594971D01*
X150212913Y-158594971D01*
X152141485Y-158737829D02*
X151998627Y-158666400D01*
X151927199Y-158594971D01*
X151855770Y-158452114D01*
X151855770Y-158380686D01*
X151927199Y-158237829D01*
X151998627Y-158166400D01*
X152141485Y-158094971D01*
X152427199Y-158094971D01*
X152570056Y-158166400D01*
X152641485Y-158237829D01*
X152712913Y-158380686D01*
X152712913Y-158452114D01*
X152641485Y-158594971D01*
X152570056Y-158666400D01*
X152427199Y-158737829D01*
X152141485Y-158737829D01*
X151998627Y-158809257D01*
X151927199Y-158880686D01*
X151855770Y-159023543D01*
X151855770Y-159309257D01*
X151927199Y-159452114D01*
X151998627Y-159523543D01*
X152141485Y-159594971D01*
X152427199Y-159594971D01*
X152570056Y-159523543D01*
X152641485Y-159452114D01*
X152712913Y-159309257D01*
X152712913Y-159023543D01*
X152641485Y-158880686D01*
X152570056Y-158809257D01*
X152427199Y-158737829D01*
X134427201Y-160787829D02*
X134498630Y-160716400D01*
X134641487Y-160644971D01*
X134998630Y-160644971D01*
X135141487Y-160716400D01*
X135212916Y-160787829D01*
X135284344Y-160930686D01*
X135284344Y-161073543D01*
X135212916Y-161287829D01*
X134355773Y-162144971D01*
X135284344Y-162144971D01*
X136212915Y-160644971D02*
X136355772Y-160644971D01*
X136498629Y-160716400D01*
X136570058Y-160787829D01*
X136641487Y-160930686D01*
X136712915Y-161216400D01*
X136712915Y-161573543D01*
X136641487Y-161859257D01*
X136570058Y-162002114D01*
X136498629Y-162073543D01*
X136355772Y-162144971D01*
X136212915Y-162144971D01*
X136070058Y-162073543D01*
X135998629Y-162002114D01*
X135927201Y-161859257D01*
X135855772Y-161573543D01*
X135855772Y-161216400D01*
X135927201Y-160930686D01*
X135998629Y-160787829D01*
X136070058Y-160716400D01*
X136212915Y-160644971D01*
X138141486Y-162144971D02*
X137284343Y-162144971D01*
X137712915Y-162144971D02*
X137712915Y-160644971D01*
X137570058Y-160859257D01*
X137427200Y-161002114D01*
X137284343Y-161073543D01*
X138998629Y-161287829D02*
X138855771Y-161216400D01*
X138784343Y-161144971D01*
X138712914Y-161002114D01*
X138712914Y-160930686D01*
X138784343Y-160787829D01*
X138855771Y-160716400D01*
X138998629Y-160644971D01*
X139284343Y-160644971D01*
X139427200Y-160716400D01*
X139498629Y-160787829D01*
X139570057Y-160930686D01*
X139570057Y-161002114D01*
X139498629Y-161144971D01*
X139427200Y-161216400D01*
X139284343Y-161287829D01*
X138998629Y-161287829D01*
X138855771Y-161359257D01*
X138784343Y-161430686D01*
X138712914Y-161573543D01*
X138712914Y-161859257D01*
X138784343Y-162002114D01*
X138855771Y-162073543D01*
X138998629Y-162144971D01*
X139284343Y-162144971D01*
X139427200Y-162073543D01*
X139498629Y-162002114D01*
X139570057Y-161859257D01*
X139570057Y-161573543D01*
X139498629Y-161430686D01*
X139427200Y-161359257D01*
X139284343Y-161287829D01*
X141284342Y-160573543D02*
X139998628Y-162502114D01*
X142070057Y-160644971D02*
X142212914Y-160644971D01*
X142355771Y-160716400D01*
X142427200Y-160787829D01*
X142498629Y-160930686D01*
X142570057Y-161216400D01*
X142570057Y-161573543D01*
X142498629Y-161859257D01*
X142427200Y-162002114D01*
X142355771Y-162073543D01*
X142212914Y-162144971D01*
X142070057Y-162144971D01*
X141927200Y-162073543D01*
X141855771Y-162002114D01*
X141784343Y-161859257D01*
X141712914Y-161573543D01*
X141712914Y-161216400D01*
X141784343Y-160930686D01*
X141855771Y-160787829D01*
X141927200Y-160716400D01*
X142070057Y-160644971D01*
X143927200Y-160644971D02*
X143212914Y-160644971D01*
X143141485Y-161359257D01*
X143212914Y-161287829D01*
X143355771Y-161216400D01*
X143712914Y-161216400D01*
X143855771Y-161287829D01*
X143927200Y-161359257D01*
X143998628Y-161502114D01*
X143998628Y-161859257D01*
X143927200Y-162002114D01*
X143855771Y-162073543D01*
X143712914Y-162144971D01*
X143355771Y-162144971D01*
X143212914Y-162073543D01*
X143141485Y-162002114D01*
X145712913Y-160573543D02*
X144427199Y-162502114D01*
X146070057Y-160644971D02*
X146998628Y-160644971D01*
X146498628Y-161216400D01*
X146712914Y-161216400D01*
X146855771Y-161287829D01*
X146927200Y-161359257D01*
X146998628Y-161502114D01*
X146998628Y-161859257D01*
X146927200Y-162002114D01*
X146855771Y-162073543D01*
X146712914Y-162144971D01*
X146284342Y-162144971D01*
X146141485Y-162073543D01*
X146070057Y-162002114D01*
X147927199Y-160644971D02*
X148070056Y-160644971D01*
X148212913Y-160716400D01*
X148284342Y-160787829D01*
X148355771Y-160930686D01*
X148427199Y-161216400D01*
X148427199Y-161573543D01*
X148355771Y-161859257D01*
X148284342Y-162002114D01*
X148212913Y-162073543D01*
X148070056Y-162144971D01*
X147927199Y-162144971D01*
X147784342Y-162073543D01*
X147712913Y-162002114D01*
X147641485Y-161859257D01*
X147570056Y-161573543D01*
X147570056Y-161216400D01*
X147641485Y-160930686D01*
X147712913Y-160787829D01*
X147784342Y-160716400D01*
X147927199Y-160644971D01*
X129248629Y-164694971D02*
X129248629Y-163194971D01*
X129248629Y-164623543D02*
X129105772Y-164694971D01*
X128820058Y-164694971D01*
X128677200Y-164623543D01*
X128605772Y-164552114D01*
X128534343Y-164409257D01*
X128534343Y-163980686D01*
X128605772Y-163837829D01*
X128677200Y-163766400D01*
X128820058Y-163694971D01*
X129105772Y-163694971D01*
X129248629Y-163766400D01*
X130605772Y-164694971D02*
X130605772Y-163909257D01*
X130534343Y-163766400D01*
X130391486Y-163694971D01*
X130105772Y-163694971D01*
X129962915Y-163766400D01*
X130605772Y-164623543D02*
X130462915Y-164694971D01*
X130105772Y-164694971D01*
X129962915Y-164623543D01*
X129891486Y-164480686D01*
X129891486Y-164337829D01*
X129962915Y-164194971D01*
X130105772Y-164123543D01*
X130462915Y-164123543D01*
X130605772Y-164052114D01*
X131320058Y-163694971D02*
X131320058Y-164694971D01*
X131320058Y-163837829D02*
X131391486Y-163766400D01*
X131534344Y-163694971D01*
X131748629Y-163694971D01*
X131891486Y-163766400D01*
X131962915Y-163909257D01*
X131962915Y-164694971D01*
X132677201Y-164552114D02*
X132748629Y-164623543D01*
X132677201Y-164694971D01*
X132605772Y-164623543D01*
X132677201Y-164552114D01*
X132677201Y-164694971D01*
X134034344Y-164623543D02*
X133891487Y-164694971D01*
X133605773Y-164694971D01*
X133462915Y-164623543D01*
X133391487Y-164552114D01*
X133320058Y-164409257D01*
X133320058Y-163980686D01*
X133391487Y-163837829D01*
X133462915Y-163766400D01*
X133605773Y-163694971D01*
X133891487Y-163694971D01*
X134034344Y-163766400D01*
X134891487Y-164694971D02*
X134748629Y-164623543D01*
X134677201Y-164552114D01*
X134605772Y-164409257D01*
X134605772Y-163980686D01*
X134677201Y-163837829D01*
X134748629Y-163766400D01*
X134891487Y-163694971D01*
X135105772Y-163694971D01*
X135248629Y-163766400D01*
X135320058Y-163837829D01*
X135391487Y-163980686D01*
X135391487Y-164409257D01*
X135320058Y-164552114D01*
X135248629Y-164623543D01*
X135105772Y-164694971D01*
X134891487Y-164694971D01*
X136248630Y-164694971D02*
X136105772Y-164623543D01*
X136034344Y-164480686D01*
X136034344Y-163194971D01*
X137034344Y-164694971D02*
X136891486Y-164623543D01*
X136820058Y-164480686D01*
X136820058Y-163194971D01*
X138177200Y-164623543D02*
X138034343Y-164694971D01*
X137748629Y-164694971D01*
X137605772Y-164623543D01*
X137534343Y-164480686D01*
X137534343Y-163909257D01*
X137605772Y-163766400D01*
X137748629Y-163694971D01*
X138034343Y-163694971D01*
X138177200Y-163766400D01*
X138248629Y-163909257D01*
X138248629Y-164052114D01*
X137534343Y-164194971D01*
X138891486Y-163694971D02*
X138891486Y-164694971D01*
X138891486Y-163837829D02*
X138962914Y-163766400D01*
X139105772Y-163694971D01*
X139320057Y-163694971D01*
X139462914Y-163766400D01*
X139534343Y-163909257D01*
X139534343Y-164694971D01*
X140177200Y-164623543D02*
X140320057Y-164694971D01*
X140605772Y-164694971D01*
X140748629Y-164623543D01*
X140820057Y-164480686D01*
X140820057Y-164409257D01*
X140748629Y-164266400D01*
X140605772Y-164194971D01*
X140391486Y-164194971D01*
X140248629Y-164123543D01*
X140177200Y-163980686D01*
X140177200Y-163909257D01*
X140248629Y-163766400D01*
X140391486Y-163694971D01*
X140605772Y-163694971D01*
X140748629Y-163766400D01*
X142391486Y-163980686D02*
X142320058Y-163909257D01*
X142177201Y-163837829D01*
X142034343Y-163837829D01*
X141891486Y-163909257D01*
X141820058Y-163980686D01*
X141748629Y-164123543D01*
X141748629Y-164266400D01*
X141820058Y-164409257D01*
X141891486Y-164480686D01*
X142034343Y-164552114D01*
X142177201Y-164552114D01*
X142320058Y-164480686D01*
X142391486Y-164409257D01*
X142391486Y-163837829D02*
X142391486Y-164409257D01*
X142462915Y-164480686D01*
X142534343Y-164480686D01*
X142677201Y-164409257D01*
X142748629Y-164266400D01*
X142748629Y-163909257D01*
X142605772Y-163694971D01*
X142391486Y-163552114D01*
X142105772Y-163480686D01*
X141820058Y-163552114D01*
X141605772Y-163694971D01*
X141462915Y-163909257D01*
X141391486Y-164194971D01*
X141462915Y-164480686D01*
X141605772Y-164694971D01*
X141820058Y-164837829D01*
X142105772Y-164909257D01*
X142391486Y-164837829D01*
X142605772Y-164694971D01*
X144034343Y-163694971D02*
X144034343Y-164909257D01*
X143962914Y-165052114D01*
X143891486Y-165123543D01*
X143748629Y-165194971D01*
X143534343Y-165194971D01*
X143391486Y-165123543D01*
X144034343Y-164623543D02*
X143891486Y-164694971D01*
X143605772Y-164694971D01*
X143462914Y-164623543D01*
X143391486Y-164552114D01*
X143320057Y-164409257D01*
X143320057Y-163980686D01*
X143391486Y-163837829D01*
X143462914Y-163766400D01*
X143605772Y-163694971D01*
X143891486Y-163694971D01*
X144034343Y-163766400D01*
X144748629Y-164694971D02*
X144748629Y-163694971D01*
X144748629Y-163837829D02*
X144820057Y-163766400D01*
X144962915Y-163694971D01*
X145177200Y-163694971D01*
X145320057Y-163766400D01*
X145391486Y-163909257D01*
X145391486Y-164694971D01*
X145391486Y-163909257D02*
X145462915Y-163766400D01*
X145605772Y-163694971D01*
X145820057Y-163694971D01*
X145962915Y-163766400D01*
X146034343Y-163909257D01*
X146034343Y-164694971D01*
X147391486Y-164694971D02*
X147391486Y-163909257D01*
X147320057Y-163766400D01*
X147177200Y-163694971D01*
X146891486Y-163694971D01*
X146748629Y-163766400D01*
X147391486Y-164623543D02*
X147248629Y-164694971D01*
X146891486Y-164694971D01*
X146748629Y-164623543D01*
X146677200Y-164480686D01*
X146677200Y-164337829D01*
X146748629Y-164194971D01*
X146891486Y-164123543D01*
X147248629Y-164123543D01*
X147391486Y-164052114D01*
X148105772Y-164694971D02*
X148105772Y-163694971D01*
X148105772Y-163194971D02*
X148034343Y-163266400D01*
X148105772Y-163337829D01*
X148177200Y-163266400D01*
X148105772Y-163194971D01*
X148105772Y-163337829D01*
X149034344Y-164694971D02*
X148891486Y-164623543D01*
X148820058Y-164480686D01*
X148820058Y-163194971D01*
X149605772Y-164552114D02*
X149677200Y-164623543D01*
X149605772Y-164694971D01*
X149534343Y-164623543D01*
X149605772Y-164552114D01*
X149605772Y-164694971D01*
X150962915Y-164623543D02*
X150820058Y-164694971D01*
X150534344Y-164694971D01*
X150391486Y-164623543D01*
X150320058Y-164552114D01*
X150248629Y-164409257D01*
X150248629Y-163980686D01*
X150320058Y-163837829D01*
X150391486Y-163766400D01*
X150534344Y-163694971D01*
X150820058Y-163694971D01*
X150962915Y-163766400D01*
X151820058Y-164694971D02*
X151677200Y-164623543D01*
X151605772Y-164552114D01*
X151534343Y-164409257D01*
X151534343Y-163980686D01*
X151605772Y-163837829D01*
X151677200Y-163766400D01*
X151820058Y-163694971D01*
X152034343Y-163694971D01*
X152177200Y-163766400D01*
X152248629Y-163837829D01*
X152320058Y-163980686D01*
X152320058Y-164409257D01*
X152248629Y-164552114D01*
X152177200Y-164623543D01*
X152034343Y-164694971D01*
X151820058Y-164694971D01*
X152962915Y-164694971D02*
X152962915Y-163694971D01*
X152962915Y-163837829D02*
X153034343Y-163766400D01*
X153177201Y-163694971D01*
X153391486Y-163694971D01*
X153534343Y-163766400D01*
X153605772Y-163909257D01*
X153605772Y-164694971D01*
X153605772Y-163909257D02*
X153677201Y-163766400D01*
X153820058Y-163694971D01*
X154034343Y-163694971D01*
X154177201Y-163766400D01*
X154248629Y-163909257D01*
X154248629Y-164694971D01*
D10*
X137160000Y-124865000D02*
X141605000Y-124865000D01*
X140970000Y-129945000D02*
X142240000Y-124865000D01*
X135255000Y-129945000D02*
X136525000Y-124865000D01*
X134620000Y-136295000D02*
X139065000Y-136295000D01*
X135255000Y-131215000D02*
X133985000Y-136295000D01*
X140970000Y-131215000D02*
X139700000Y-136295000D01*
X153035000Y-135660000D02*
G75*
G03X153035000Y-135660000I-635000J0D01*
G01*
X147320000Y-124865000D02*
X151765000Y-124865000D01*
X144780000Y-136295000D02*
X149225000Y-136295000D01*
X151130000Y-131215000D02*
X149860000Y-136295000D01*
X144145000Y-136295000D02*
X145415000Y-131215000D01*
X151130000Y-129945000D02*
X152400000Y-124865000D01*
X145415000Y-129945000D02*
X146685000Y-124865000D01*
X146050000Y-130580000D02*
X150495000Y-130580000D01*
X143510000Y-121055000D02*
X156210000Y-121055000D01*
X156210000Y-121055000D02*
X156210000Y-140105000D01*
X156210000Y-140105000D02*
X143510000Y-140105000D01*
X136144000Y-130580000D02*
X140208000Y-130580000D01*
X142875000Y-135660000D02*
G75*
G03X142875000Y-135660000I-635000J0D01*
G01*
X132080000Y-121055000D02*
X130810000Y-121055000D01*
X130810000Y-121055000D02*
X130810000Y-140105000D01*
X130810000Y-140105000D02*
X132080000Y-140105000D01*
X142240000Y-140105000D02*
X143510000Y-140105000D01*
X143510000Y-121055000D02*
X142240000Y-121055000D01*
X132080000Y-140105000D02*
X142240000Y-140105000D01*
X142240000Y-121055000D02*
X132080000Y-121055000D01*
X136017000Y-130580000D02*
X140335000Y-130580000D01*
D12*
X39050800Y-61079600D02*
X34630800Y-61079600D01*
X39050800Y-59059600D02*
X34630800Y-59059600D01*
X39050800Y-61079600D02*
X39050800Y-61065600D01*
X39050800Y-59073600D02*
X39050800Y-59059600D01*
X34630800Y-61079600D02*
X34630800Y-61065600D01*
X34630800Y-59073600D02*
X34630800Y-59059600D01*
X71380000Y-111240000D02*
X71380000Y-106820000D01*
X73400000Y-111240000D02*
X73400000Y-106820000D01*
X71380000Y-111240000D02*
X71394000Y-111240000D01*
X73386000Y-111240000D02*
X73400000Y-111240000D01*
X71380000Y-106820000D02*
X71394000Y-106820000D01*
X73386000Y-106820000D02*
X73400000Y-106820000D01*
X55590000Y-61740000D02*
X51170000Y-61740000D01*
X55590000Y-59720000D02*
X51170000Y-59720000D01*
X55590000Y-61740000D02*
X55590000Y-61726000D01*
X55590000Y-59734000D02*
X55590000Y-59720000D01*
X51170000Y-61740000D02*
X51170000Y-61726000D01*
X51170000Y-59734000D02*
X51170000Y-59720000D01*
X34000000Y-92220000D02*
X29580000Y-92220000D01*
X34000000Y-90200000D02*
X29580000Y-90200000D01*
X34000000Y-92220000D02*
X34000000Y-92206000D01*
X34000000Y-90214000D02*
X34000000Y-90200000D01*
X29580000Y-92220000D02*
X29580000Y-92206000D01*
X29580000Y-90214000D02*
X29580000Y-90200000D01*
X42170000Y-146800000D02*
X42170000Y-142380000D01*
X44190000Y-146800000D02*
X44190000Y-142380000D01*
X42170000Y-146800000D02*
X42184000Y-146800000D01*
X44176000Y-146800000D02*
X44190000Y-146800000D01*
X42170000Y-142380000D02*
X42184000Y-142380000D01*
X44176000Y-142380000D02*
X44190000Y-142380000D01*
X59400000Y-92220000D02*
X54980000Y-92220000D01*
X59400000Y-90200000D02*
X54980000Y-90200000D01*
X59400000Y-92220000D02*
X59400000Y-92206000D01*
X59400000Y-90214000D02*
X59400000Y-90200000D01*
X54980000Y-92220000D02*
X54980000Y-92206000D01*
X54980000Y-90214000D02*
X54980000Y-90200000D01*
X111562800Y-142808400D02*
X111562800Y-138388400D01*
X113582800Y-142808400D02*
X113582800Y-138388400D01*
X111562800Y-142808400D02*
X111576800Y-142808400D01*
X113568800Y-142808400D02*
X113582800Y-142808400D01*
X111562800Y-138388400D02*
X111576800Y-138388400D01*
X113568800Y-138388400D02*
X113582800Y-138388400D01*
X27680000Y-155000000D02*
X27680000Y-159420000D01*
X25660000Y-155000000D02*
X25660000Y-159420000D01*
X27680000Y-155000000D02*
X27666000Y-155000000D01*
X25674000Y-155000000D02*
X25660000Y-155000000D01*
X27680000Y-159420000D02*
X27666000Y-159420000D01*
X25674000Y-159420000D02*
X25660000Y-159420000D01*
X75940000Y-155000000D02*
X75940000Y-159420000D01*
X73920000Y-155000000D02*
X73920000Y-159420000D01*
X75940000Y-155000000D02*
X75926000Y-155000000D01*
X73934000Y-155000000D02*
X73920000Y-155000000D01*
X75940000Y-159420000D02*
X75926000Y-159420000D01*
X73934000Y-159420000D02*
X73920000Y-159420000D01*
X139410000Y-106190000D02*
X134990000Y-106190000D01*
X139410000Y-104170000D02*
X134990000Y-104170000D01*
X139410000Y-106190000D02*
X139410000Y-106176000D01*
X139410000Y-104184000D02*
X139410000Y-104170000D01*
X134990000Y-106190000D02*
X134990000Y-106176000D01*
X134990000Y-104184000D02*
X134990000Y-104170000D01*
X153380000Y-106190000D02*
X148960000Y-106190000D01*
X153380000Y-104170000D02*
X148960000Y-104170000D01*
X153380000Y-106190000D02*
X153380000Y-106176000D01*
X153380000Y-104184000D02*
X153380000Y-104170000D01*
X148960000Y-106190000D02*
X148960000Y-106176000D01*
X148960000Y-104184000D02*
X148960000Y-104170000D01*
X70140000Y-47274000D02*
X74560000Y-47274000D01*
X70140000Y-49294000D02*
X74560000Y-49294000D01*
X70140000Y-47274000D02*
X70140000Y-47288000D01*
X70140000Y-49280000D02*
X70140000Y-49294000D01*
X74560000Y-47274000D02*
X74560000Y-47288000D01*
X74560000Y-49280000D02*
X74560000Y-49294000D01*
X107528800Y-47274000D02*
X111948800Y-47274000D01*
X107528800Y-49294000D02*
X111948800Y-49294000D01*
X107528800Y-47274000D02*
X107528800Y-47288000D01*
X107528800Y-49280000D02*
X107528800Y-49294000D01*
X111948800Y-47274000D02*
X111948800Y-47288000D01*
X111948800Y-49280000D02*
X111948800Y-49294000D01*
X77760000Y-47274000D02*
X82180000Y-47274000D01*
X77760000Y-49294000D02*
X82180000Y-49294000D01*
X77760000Y-47274000D02*
X77760000Y-47288000D01*
X77760000Y-49280000D02*
X77760000Y-49294000D01*
X82180000Y-47274000D02*
X82180000Y-47288000D01*
X82180000Y-49280000D02*
X82180000Y-49294000D01*
X115148800Y-47274000D02*
X119568800Y-47274000D01*
X115148800Y-49294000D02*
X119568800Y-49294000D01*
X115148800Y-47274000D02*
X115148800Y-47288000D01*
X115148800Y-49280000D02*
X115148800Y-49294000D01*
X119568800Y-47274000D02*
X119568800Y-47288000D01*
X119568800Y-49280000D02*
X119568800Y-49294000D01*
X67050000Y-38414000D02*
X67050000Y-42834000D01*
X65030000Y-38414000D02*
X65030000Y-42834000D01*
X67050000Y-38414000D02*
X67036000Y-38414000D01*
X65044000Y-38414000D02*
X65030000Y-38414000D01*
X67050000Y-42834000D02*
X67036000Y-42834000D01*
X65044000Y-42834000D02*
X65030000Y-42834000D01*
X85380000Y-47274000D02*
X89800000Y-47274000D01*
X85380000Y-49294000D02*
X89800000Y-49294000D01*
X85380000Y-47274000D02*
X85380000Y-47288000D01*
X85380000Y-49280000D02*
X85380000Y-49294000D01*
X89800000Y-47274000D02*
X89800000Y-47288000D01*
X89800000Y-49280000D02*
X89800000Y-49294000D01*
X104438800Y-38414000D02*
X104438800Y-42834000D01*
X102418800Y-38414000D02*
X102418800Y-42834000D01*
X104438800Y-38414000D02*
X104424800Y-38414000D01*
X102432800Y-38414000D02*
X102418800Y-38414000D01*
X104438800Y-42834000D02*
X104424800Y-42834000D01*
X102432800Y-42834000D02*
X102418800Y-42834000D01*
X122768800Y-47274000D02*
X127188800Y-47274000D01*
X122768800Y-49294000D02*
X127188800Y-49294000D01*
X122768800Y-47274000D02*
X122768800Y-47288000D01*
X122768800Y-49280000D02*
X122768800Y-49294000D01*
X127188800Y-47274000D02*
X127188800Y-47288000D01*
X127188800Y-49280000D02*
X127188800Y-49294000D01*
X120940000Y-152430000D02*
X125360000Y-152430000D01*
X120940000Y-154450000D02*
X125360000Y-154450000D01*
X120940000Y-152430000D02*
X120940000Y-152444000D01*
X120940000Y-154436000D02*
X120940000Y-154450000D01*
X125360000Y-152430000D02*
X125360000Y-152444000D01*
X125360000Y-154436000D02*
X125360000Y-154450000D01*
X71380000Y-62980000D02*
X71380000Y-58560000D01*
X73400000Y-62980000D02*
X73400000Y-58560000D01*
X71380000Y-62980000D02*
X71394000Y-62980000D01*
X73386000Y-62980000D02*
X73400000Y-62980000D01*
X71380000Y-58560000D02*
X71394000Y-58560000D01*
X73386000Y-58560000D02*
X73400000Y-58560000D01*
X68870000Y-32034000D02*
X73290000Y-32034000D01*
X68870000Y-34054000D02*
X73290000Y-34054000D01*
X68870000Y-32034000D02*
X68870000Y-32048000D01*
X68870000Y-34040000D02*
X68870000Y-34054000D01*
X73290000Y-32034000D02*
X73290000Y-32048000D01*
X73290000Y-34040000D02*
X73290000Y-34054000D01*
X106258800Y-32034000D02*
X110678800Y-32034000D01*
X106258800Y-34054000D02*
X110678800Y-34054000D01*
X106258800Y-32034000D02*
X106258800Y-32048000D01*
X106258800Y-34040000D02*
X106258800Y-34054000D01*
X110678800Y-32034000D02*
X110678800Y-32048000D01*
X110678800Y-34040000D02*
X110678800Y-34054000D01*
X29500000Y-36860000D02*
X33920000Y-36860000D01*
X29500000Y-38880000D02*
X33920000Y-38880000D01*
X29500000Y-36860000D02*
X29500000Y-36874000D01*
X29500000Y-38866000D02*
X29500000Y-38880000D01*
X33920000Y-36860000D02*
X33920000Y-36874000D01*
X33920000Y-38866000D02*
X33920000Y-38880000D01*
X130550000Y-82690000D02*
X130550000Y-87110000D01*
X128530000Y-82690000D02*
X128530000Y-87110000D01*
X130550000Y-82690000D02*
X130536000Y-82690000D01*
X128544000Y-82690000D02*
X128530000Y-82690000D01*
X130550000Y-87110000D02*
X130536000Y-87110000D01*
X128544000Y-87110000D02*
X128530000Y-87110000D01*
X67020000Y-88105200D02*
X62600000Y-88105200D01*
X67020000Y-86085200D02*
X62600000Y-86085200D01*
X67020000Y-88105200D02*
X67020000Y-88091200D01*
X67020000Y-86099200D02*
X67020000Y-86085200D01*
X62600000Y-88105200D02*
X62600000Y-88091200D01*
X62600000Y-86099200D02*
X62600000Y-86085200D01*
X145760000Y-49040000D02*
X141340000Y-49040000D01*
X145760000Y-47020000D02*
X141340000Y-47020000D01*
X145760000Y-49040000D02*
X145760000Y-49026000D01*
X145760000Y-47034000D02*
X145760000Y-47020000D01*
X141340000Y-49040000D02*
X141340000Y-49026000D01*
X141340000Y-47034000D02*
X141340000Y-47020000D01*
X39080000Y-88105200D02*
X34660000Y-88105200D01*
X39080000Y-86085200D02*
X34660000Y-86085200D01*
X39080000Y-88105200D02*
X39080000Y-88091200D01*
X39080000Y-86099200D02*
X39080000Y-86085200D01*
X34660000Y-88105200D02*
X34660000Y-88091200D01*
X34660000Y-86099200D02*
X34660000Y-86085200D01*
X53151600Y-88105200D02*
X48731600Y-88105200D01*
X53151600Y-86085200D02*
X48731600Y-86085200D01*
X53151600Y-88105200D02*
X53151600Y-88091200D01*
X53151600Y-86099200D02*
X53151600Y-86085200D01*
X48731600Y-88105200D02*
X48731600Y-88091200D01*
X48731600Y-86099200D02*
X48731600Y-86085200D01*
X24129538Y-47210000D02*
G75*
G03X25674830Y-41660000I462J2990000D01*
G01*
X24130462Y-47210000D02*
G75*
G02X22585170Y-41660000I-462J2990000D01*
G01*
X26630000Y-44220000D02*
G75*
G03X26630000Y-44220000I-2500000J0D01*
G01*
X25675000Y-41660000D02*
X22585000Y-41660000D01*
X21530000Y-86190000D02*
X26730000Y-86190000D01*
X21530000Y-68350000D02*
X21530000Y-86190000D01*
X26730000Y-65750000D02*
X26730000Y-86190000D01*
X21530000Y-68350000D02*
X24130000Y-68350000D01*
X24130000Y-68350000D02*
X24130000Y-65750000D01*
X24130000Y-65750000D02*
X26730000Y-65750000D01*
X21530000Y-67080000D02*
X21530000Y-65750000D01*
X21530000Y-65750000D02*
X22860000Y-65750000D01*
X74870000Y-122900000D02*
X74870000Y-128100000D01*
X123190000Y-122900000D02*
X74870000Y-122900000D01*
X125790000Y-128100000D02*
X74870000Y-128100000D01*
X123190000Y-122900000D02*
X123190000Y-125500000D01*
X123190000Y-125500000D02*
X125790000Y-125500000D01*
X125790000Y-125500000D02*
X125790000Y-128100000D01*
X124460000Y-122900000D02*
X125790000Y-122900000D01*
X125790000Y-122900000D02*
X125790000Y-124230000D01*
X26730000Y-55590000D02*
X21530000Y-55590000D01*
X26730000Y-55650000D02*
X26730000Y-55590000D01*
X21530000Y-58250000D02*
X21530000Y-55590000D01*
X26730000Y-55650000D02*
X24130000Y-55650000D01*
X24130000Y-55650000D02*
X24130000Y-58250000D01*
X24130000Y-58250000D02*
X21530000Y-58250000D01*
X26730000Y-56920000D02*
X26730000Y-58250000D01*
X26730000Y-58250000D02*
X25400000Y-58250000D01*
X38780000Y-37010000D02*
X42500000Y-37010000D01*
X38780000Y-38730000D02*
X42500000Y-38730000D01*
X67188800Y-160091200D02*
X63468800Y-160091200D01*
X67188800Y-158371200D02*
X63468800Y-158371200D01*
X114128000Y-154198400D02*
X110408000Y-154198400D01*
X114128000Y-152478400D02*
X110408000Y-152478400D01*
X67188800Y-162732800D02*
X63468800Y-162732800D01*
X67188800Y-161012800D02*
X63468800Y-161012800D01*
X114105240Y-156840000D02*
X110385240Y-156840000D01*
X114105240Y-155120000D02*
X110385240Y-155120000D01*
X67184336Y-165374400D02*
X63464336Y-165374400D01*
X67184336Y-163654400D02*
X63464336Y-163654400D01*
X114128000Y-159481600D02*
X110408000Y-159481600D01*
X114128000Y-157761600D02*
X110408000Y-157761600D01*
X67184336Y-168016000D02*
X63464336Y-168016000D01*
X67184336Y-166296000D02*
X63464336Y-166296000D01*
X114105240Y-162123200D02*
X110385240Y-162123200D01*
X114105240Y-160403200D02*
X110385240Y-160403200D01*
X67188800Y-170657600D02*
X63468800Y-170657600D01*
X67188800Y-168937600D02*
X63468800Y-168937600D01*
X114105240Y-164679306D02*
X110385240Y-164679306D01*
X114105240Y-162959306D02*
X110385240Y-162959306D01*
X137570000Y-118470000D02*
X137570000Y-114750000D01*
X139290000Y-118470000D02*
X139290000Y-114750000D01*
X140110000Y-118470000D02*
X140110000Y-114750000D01*
X141830000Y-118470000D02*
X141830000Y-114750000D01*
X139290000Y-142690000D02*
X139290000Y-146410000D01*
X137570000Y-142690000D02*
X137570000Y-146410000D01*
X136750000Y-142690000D02*
X136750000Y-146410000D01*
X135030000Y-142690000D02*
X135030000Y-146410000D01*
X134210000Y-142690000D02*
X134210000Y-146410000D01*
X132490000Y-142690000D02*
X132490000Y-146410000D01*
X132490000Y-118470000D02*
X132490000Y-114750000D01*
X134210000Y-118470000D02*
X134210000Y-114750000D01*
X24720000Y-38730000D02*
X21000000Y-38730000D01*
X24720000Y-37010000D02*
X21000000Y-37010000D01*
X135030000Y-118470000D02*
X135030000Y-114750000D01*
X136750000Y-118470000D02*
X136750000Y-114750000D01*
X141830000Y-142690000D02*
X141830000Y-146410000D01*
X140110000Y-142690000D02*
X140110000Y-146410000D01*
X150270000Y-118470000D02*
X150270000Y-114750000D01*
X151990000Y-118470000D02*
X151990000Y-114750000D01*
X152810000Y-118470000D02*
X152810000Y-114750000D01*
X154530000Y-118470000D02*
X154530000Y-114750000D01*
X151990000Y-142690000D02*
X151990000Y-146410000D01*
X150270000Y-142690000D02*
X150270000Y-146410000D01*
X146910000Y-142690000D02*
X146910000Y-146410000D01*
X145190000Y-142690000D02*
X145190000Y-146410000D01*
X144370000Y-142690000D02*
X144370000Y-146410000D01*
X142650000Y-142690000D02*
X142650000Y-146410000D01*
X147730000Y-118470000D02*
X147730000Y-114750000D01*
X149450000Y-118470000D02*
X149450000Y-114750000D01*
X149450000Y-142690000D02*
X149450000Y-146410000D01*
X147730000Y-142690000D02*
X147730000Y-146410000D01*
X154530000Y-142690000D02*
X154530000Y-146410000D01*
X152810000Y-142690000D02*
X152810000Y-146410000D01*
X127410000Y-110850000D02*
X127410000Y-107130000D01*
X129130000Y-110850000D02*
X129130000Y-107130000D01*
X57560000Y-34650000D02*
X57560000Y-30930000D01*
X59280000Y-34650000D02*
X59280000Y-30930000D01*
X53930000Y-36190000D02*
X50210000Y-36190000D01*
X53930000Y-34470000D02*
X50210000Y-34470000D01*
D10*
X33830000Y-43300000D02*
X39830000Y-43300000D01*
X33843632Y-43293203D02*
G75*
G03X39830000Y-43300000I2986368J-6006797D01*
G01*
D12*
X74870000Y-107990000D02*
G75*
G02X74870000Y-109990000I0J-1000000D01*
G01*
X74870000Y-109990000D02*
X74870000Y-115050000D01*
X74870000Y-115050000D02*
X125790000Y-115050000D01*
X125790000Y-115050000D02*
X125790000Y-102930000D01*
X125790000Y-102930000D02*
X74870000Y-102930000D01*
X74870000Y-102930000D02*
X74870000Y-107990000D01*
X74810000Y-118050000D02*
X125850000Y-118050000D01*
X125850000Y-118050000D02*
X125850000Y-99930000D01*
X125850000Y-99930000D02*
X74810000Y-99930000D01*
X74810000Y-99930000D02*
X74810000Y-118050000D01*
X54340000Y-40350000D02*
G75*
G02X52340000Y-40350000I-1000000J0D01*
G01*
X52340000Y-40350000D02*
X51090000Y-40350000D01*
X51090000Y-40350000D02*
X51090000Y-58250000D01*
X51090000Y-58250000D02*
X55590000Y-58250000D01*
X55590000Y-58250000D02*
X55590000Y-40350000D01*
X55590000Y-40350000D02*
X54340000Y-40350000D01*
X32750000Y-93690000D02*
G75*
G02X30750000Y-93690000I-1000000J0D01*
G01*
X30750000Y-93690000D02*
X25690000Y-93690000D01*
X25690000Y-93690000D02*
X25690000Y-134450000D01*
X25690000Y-134450000D02*
X37810000Y-134450000D01*
X37810000Y-134450000D02*
X37810000Y-93690000D01*
X37810000Y-93690000D02*
X32750000Y-93690000D01*
X22690000Y-93630000D02*
X22690000Y-134510000D01*
X22690000Y-134510000D02*
X40810000Y-134510000D01*
X40810000Y-134510000D02*
X40810000Y-93630000D01*
X40810000Y-93630000D02*
X22690000Y-93630000D01*
X40700000Y-145550000D02*
G75*
G02X40700000Y-143550000I0J1000000D01*
G01*
X40700000Y-143550000D02*
X40700000Y-142300000D01*
X40700000Y-142300000D02*
X22800000Y-142300000D01*
X22800000Y-142300000D02*
X22800000Y-146800000D01*
X22800000Y-146800000D02*
X40700000Y-146800000D01*
X40700000Y-146800000D02*
X40700000Y-145550000D01*
X58150000Y-93690000D02*
G75*
G02X56150000Y-93690000I-1000000J0D01*
G01*
X56150000Y-93690000D02*
X51090000Y-93690000D01*
X51090000Y-93690000D02*
X51090000Y-134450000D01*
X51090000Y-134450000D02*
X63210000Y-134450000D01*
X63210000Y-134450000D02*
X63210000Y-93690000D01*
X63210000Y-93690000D02*
X58150000Y-93690000D01*
X48090000Y-93630000D02*
X48090000Y-134510000D01*
X48090000Y-134510000D02*
X66210000Y-134510000D01*
X66210000Y-134510000D02*
X66210000Y-93630000D01*
X66210000Y-93630000D02*
X48090000Y-93630000D01*
X110550000Y-141486000D02*
G75*
G02X110550000Y-139486000I0J1000000D01*
G01*
X110550000Y-139486000D02*
X110550000Y-138236000D01*
X110550000Y-138236000D02*
X90110000Y-138236000D01*
X90110000Y-138236000D02*
X90110000Y-142736000D01*
X90110000Y-142736000D02*
X110550000Y-142736000D01*
X110550000Y-142736000D02*
X110550000Y-141486000D01*
X138160000Y-77180000D02*
G75*
G02X136160000Y-77180000I-1000000J0D01*
G01*
X136160000Y-77180000D02*
X134910000Y-77180000D01*
X134910000Y-77180000D02*
X134910000Y-102700000D01*
X134910000Y-102700000D02*
X139410000Y-102700000D01*
X139410000Y-102700000D02*
X139410000Y-77180000D01*
X139410000Y-77180000D02*
X138160000Y-77180000D01*
X152130000Y-77180000D02*
G75*
G02X150130000Y-77180000I-1000000J0D01*
G01*
X150130000Y-77180000D02*
X148880000Y-77180000D01*
X148880000Y-77180000D02*
X148880000Y-102700000D01*
X148880000Y-102700000D02*
X153380000Y-102700000D01*
X153380000Y-102700000D02*
X153380000Y-77180000D01*
X153380000Y-77180000D02*
X152130000Y-77180000D01*
X122190000Y-150960000D02*
G75*
G02X124190000Y-150960000I1000000J0D01*
G01*
X124190000Y-150960000D02*
X125440000Y-150960000D01*
X125440000Y-150960000D02*
X125440000Y-133060000D01*
X125440000Y-133060000D02*
X120940000Y-133060000D01*
X120940000Y-133060000D02*
X120940000Y-150960000D01*
X120940000Y-150960000D02*
X122190000Y-150960000D01*
X74870000Y-59730000D02*
G75*
G02X74870000Y-61730000I0J-1000000D01*
G01*
X74870000Y-61730000D02*
X74870000Y-66790000D01*
X74870000Y-66790000D02*
X125790000Y-66790000D01*
X125790000Y-66790000D02*
X125790000Y-54670000D01*
X125790000Y-54670000D02*
X74870000Y-54670000D01*
X74870000Y-54670000D02*
X74870000Y-59730000D01*
X74810000Y-69790000D02*
X125850000Y-69790000D01*
X125850000Y-69790000D02*
X125850000Y-51670000D01*
X125850000Y-51670000D02*
X74810000Y-51670000D01*
X74810000Y-51670000D02*
X74810000Y-69790000D01*
X68520000Y-39664000D02*
G75*
G02X68520000Y-41664000I0J-1000000D01*
G01*
X68520000Y-41664000D02*
X68520000Y-42914000D01*
X68520000Y-42914000D02*
X88960000Y-42914000D01*
X88960000Y-42914000D02*
X88960000Y-38414000D01*
X88960000Y-38414000D02*
X68520000Y-38414000D01*
X68520000Y-38414000D02*
X68520000Y-39664000D01*
X105908800Y-39664000D02*
G75*
G02X105908800Y-41664000I0J-1000000D01*
G01*
X105908800Y-41664000D02*
X105908800Y-42914000D01*
X105908800Y-42914000D02*
X126348800Y-42914000D01*
X126348800Y-42914000D02*
X126348800Y-38414000D01*
X126348800Y-38414000D02*
X105908800Y-38414000D01*
X105908800Y-38414000D02*
X105908800Y-39664000D01*
X29150000Y-156250000D02*
G75*
G02X29150000Y-158250000I0J-1000000D01*
G01*
X29150000Y-158250000D02*
X29150000Y-159500000D01*
X29150000Y-159500000D02*
X54670000Y-159500000D01*
X54670000Y-159500000D02*
X54670000Y-155000000D01*
X54670000Y-155000000D02*
X29150000Y-155000000D01*
X29150000Y-155000000D02*
X29150000Y-156250000D01*
X77410000Y-156250000D02*
G75*
G02X77410000Y-158250000I0J-1000000D01*
G01*
X77410000Y-158250000D02*
X77410000Y-159500000D01*
X77410000Y-159500000D02*
X102930000Y-159500000D01*
X102930000Y-159500000D02*
X102930000Y-155000000D01*
X102930000Y-155000000D02*
X77410000Y-155000000D01*
X77410000Y-155000000D02*
X77410000Y-156250000D01*
X74870000Y-83860000D02*
G75*
G02X74870000Y-85860000I0J-1000000D01*
G01*
X74870000Y-85860000D02*
X74870000Y-90920000D01*
X74870000Y-90920000D02*
X125790000Y-90920000D01*
X125790000Y-90920000D02*
X125790000Y-78800000D01*
X125790000Y-78800000D02*
X74870000Y-78800000D01*
X74870000Y-78800000D02*
X74870000Y-83860000D01*
X74810000Y-93920000D02*
X125850000Y-93920000D01*
X125850000Y-93920000D02*
X125850000Y-75800000D01*
X125850000Y-75800000D02*
X74810000Y-75800000D01*
X74810000Y-75800000D02*
X74810000Y-93920000D01*
X65770000Y-67020000D02*
G75*
G02X63770000Y-67020000I-1000000J0D01*
G01*
X63770000Y-67020000D02*
X62520000Y-67020000D01*
X62520000Y-67020000D02*
X62520000Y-84920000D01*
X62520000Y-84920000D02*
X67020000Y-84920000D01*
X67020000Y-84920000D02*
X67020000Y-67020000D01*
X67020000Y-67020000D02*
X65770000Y-67020000D01*
X142510000Y-50150000D02*
X132660000Y-50150000D01*
X132660000Y-50150000D02*
X131660000Y-51150000D01*
X131660000Y-51150000D02*
X131660000Y-73850000D01*
X131660000Y-73850000D02*
X155360000Y-73850000D01*
X155360000Y-73850000D02*
X155360000Y-50150000D01*
X155360000Y-50150000D02*
X144510000Y-50150000D01*
X37830000Y-67020000D02*
G75*
G02X35830000Y-67020000I-1000000J0D01*
G01*
X35830000Y-67020000D02*
X34580000Y-67020000D01*
X34580000Y-67020000D02*
X34580000Y-84920000D01*
X34580000Y-84920000D02*
X39080000Y-84920000D01*
X39080000Y-84920000D02*
X39080000Y-67020000D01*
X39080000Y-67020000D02*
X37830000Y-67020000D01*
X51800000Y-67020000D02*
G75*
G02X49800000Y-67020000I-1000000J0D01*
G01*
X49800000Y-67020000D02*
X48550000Y-67020000D01*
X48550000Y-67020000D02*
X48550000Y-84920000D01*
X48550000Y-84920000D02*
X53050000Y-84920000D01*
X53050000Y-84920000D02*
X53050000Y-67020000D01*
X53050000Y-67020000D02*
X51800000Y-67020000D01*
X72290000Y-133770000D02*
X72290000Y-145920000D01*
X84440000Y-133020000D02*
X73040000Y-133020000D01*
X85190000Y-145170000D02*
X85190000Y-133770000D01*
X72290000Y-145920000D02*
X84440000Y-145920000D01*
X84440000Y-145920000D02*
G75*
G03X85190000Y-145170000I0J750000D01*
G01*
X85190000Y-133770000D02*
G75*
G03X84440000Y-133020000I-750000J0D01*
G01*
X73040000Y-133020000D02*
G75*
G03X72290000Y-133770000I0J-750000D01*
G01*
X149819600Y-32232800D02*
X137669600Y-32232800D01*
X150569600Y-44382800D02*
X150569600Y-32982800D01*
X138419600Y-45132800D02*
X149819600Y-45132800D01*
X137669600Y-32232800D02*
X137669600Y-44382800D01*
X137669600Y-44382800D02*
G75*
G03X138419600Y-45132800I750000J0D01*
G01*
X149819600Y-45132800D02*
G75*
G03X150569600Y-44382800I0J750000D01*
G01*
X150569600Y-32982800D02*
G75*
G03X149819600Y-32232800I-750000J0D01*
G01*
D10*
X96090000Y-31362400D02*
X63130000Y-31362400D01*
X63130000Y-31362400D02*
X63130000Y-22862400D01*
X96090000Y-31362400D02*
X96090000Y-22862400D01*
X136623600Y-31362400D02*
X103663600Y-31362400D01*
X103663600Y-31362400D02*
X103663600Y-22862400D01*
X136623600Y-31362400D02*
X136623600Y-22862400D01*
X72731200Y-167618400D02*
X105691200Y-167618400D01*
X105691200Y-167618400D02*
X105691200Y-176118400D01*
X72731200Y-167618400D02*
X72731200Y-176118400D01*
X27365200Y-167600000D02*
X60325200Y-167600000D01*
X60325200Y-167600000D02*
X60325200Y-176100000D01*
X27365200Y-167600000D02*
X27365200Y-176100000D01*
D12*
X38540000Y-23679200D02*
X38540000Y-15039200D01*
X38540000Y-32059200D02*
X38540000Y-26979200D01*
X26340000Y-23679200D02*
X26340000Y-15039200D01*
X26340000Y-32059200D02*
X26340000Y-26979200D01*
X26340000Y-15039200D02*
X38540000Y-15039200D01*
X38540000Y-32059200D02*
X26340000Y-32059200D01*
X58930000Y-14612400D02*
X58930000Y-28312400D01*
X44130000Y-14612400D02*
X44130000Y-28312400D01*
X44130000Y-14612400D02*
X58930000Y-14612400D01*
X44130000Y-28312400D02*
X58930000Y-28312400D01*
D10*
X143310171Y-119977067D02*
X143786362Y-119977067D01*
X143214933Y-120262781D02*
X143548266Y-119262781D01*
X143881600Y-120262781D01*
X144548267Y-119738971D02*
X144214933Y-119738971D01*
X144214933Y-120262781D02*
X144214933Y-119262781D01*
X144691124Y-119262781D01*
X145405410Y-119738971D02*
X145072076Y-119738971D01*
X145072076Y-120262781D02*
X145072076Y-119262781D01*
X145548267Y-119262781D01*
X146453029Y-120262781D02*
X145881600Y-120262781D01*
X146167314Y-120262781D02*
X146167314Y-119262781D01*
X146072076Y-119405638D01*
X145976838Y-119500876D01*
X145881600Y-119548495D01*
X36674134Y-62686743D02*
X36626515Y-62734362D01*
X36483658Y-62781981D01*
X36388420Y-62781981D01*
X36245562Y-62734362D01*
X36150324Y-62639124D01*
X36102705Y-62543886D01*
X36055086Y-62353410D01*
X36055086Y-62210552D01*
X36102705Y-62020076D01*
X36150324Y-61924838D01*
X36245562Y-61829600D01*
X36388420Y-61781981D01*
X36483658Y-61781981D01*
X36626515Y-61829600D01*
X36674134Y-61877219D01*
X37626515Y-62781981D02*
X37055086Y-62781981D01*
X37340800Y-62781981D02*
X37340800Y-61781981D01*
X37245562Y-61924838D01*
X37150324Y-62020076D01*
X37055086Y-62067695D01*
X70487143Y-109196666D02*
X70534762Y-109244285D01*
X70582381Y-109387142D01*
X70582381Y-109482380D01*
X70534762Y-109625238D01*
X70439524Y-109720476D01*
X70344286Y-109768095D01*
X70153810Y-109815714D01*
X70010952Y-109815714D01*
X69820476Y-109768095D01*
X69725238Y-109720476D01*
X69630000Y-109625238D01*
X69582381Y-109482380D01*
X69582381Y-109387142D01*
X69630000Y-109244285D01*
X69677619Y-109196666D01*
X69677619Y-108815714D02*
X69630000Y-108768095D01*
X69582381Y-108672857D01*
X69582381Y-108434761D01*
X69630000Y-108339523D01*
X69677619Y-108291904D01*
X69772857Y-108244285D01*
X69868095Y-108244285D01*
X70010952Y-108291904D01*
X70582381Y-108863333D01*
X70582381Y-108244285D01*
X53213334Y-63347143D02*
X53165715Y-63394762D01*
X53022858Y-63442381D01*
X52927620Y-63442381D01*
X52784762Y-63394762D01*
X52689524Y-63299524D01*
X52641905Y-63204286D01*
X52594286Y-63013810D01*
X52594286Y-62870952D01*
X52641905Y-62680476D01*
X52689524Y-62585238D01*
X52784762Y-62490000D01*
X52927620Y-62442381D01*
X53022858Y-62442381D01*
X53165715Y-62490000D01*
X53213334Y-62537619D01*
X53546667Y-62442381D02*
X54165715Y-62442381D01*
X53832381Y-62823333D01*
X53975239Y-62823333D01*
X54070477Y-62870952D01*
X54118096Y-62918571D01*
X54165715Y-63013810D01*
X54165715Y-63251905D01*
X54118096Y-63347143D01*
X54070477Y-63394762D01*
X53975239Y-63442381D01*
X53689524Y-63442381D01*
X53594286Y-63394762D01*
X53546667Y-63347143D01*
X31623334Y-89484343D02*
X31575715Y-89531962D01*
X31432858Y-89579581D01*
X31337620Y-89579581D01*
X31194762Y-89531962D01*
X31099524Y-89436724D01*
X31051905Y-89341486D01*
X31004286Y-89151010D01*
X31004286Y-89008152D01*
X31051905Y-88817676D01*
X31099524Y-88722438D01*
X31194762Y-88627200D01*
X31337620Y-88579581D01*
X31432858Y-88579581D01*
X31575715Y-88627200D01*
X31623334Y-88674819D01*
X32480477Y-88912914D02*
X32480477Y-89579581D01*
X32242381Y-88531962D02*
X32004286Y-89246248D01*
X32623334Y-89246248D01*
X45873943Y-144756666D02*
X45921562Y-144804285D01*
X45969181Y-144947142D01*
X45969181Y-145042380D01*
X45921562Y-145185238D01*
X45826324Y-145280476D01*
X45731086Y-145328095D01*
X45540610Y-145375714D01*
X45397752Y-145375714D01*
X45207276Y-145328095D01*
X45112038Y-145280476D01*
X45016800Y-145185238D01*
X44969181Y-145042380D01*
X44969181Y-144947142D01*
X45016800Y-144804285D01*
X45064419Y-144756666D01*
X44969181Y-143851904D02*
X44969181Y-144328095D01*
X45445371Y-144375714D01*
X45397752Y-144328095D01*
X45350133Y-144232857D01*
X45350133Y-143994761D01*
X45397752Y-143899523D01*
X45445371Y-143851904D01*
X45540610Y-143804285D01*
X45778705Y-143804285D01*
X45873943Y-143851904D01*
X45921562Y-143899523D01*
X45969181Y-143994761D01*
X45969181Y-144232857D01*
X45921562Y-144328095D01*
X45873943Y-144375714D01*
X57023334Y-89484343D02*
X56975715Y-89531962D01*
X56832858Y-89579581D01*
X56737620Y-89579581D01*
X56594762Y-89531962D01*
X56499524Y-89436724D01*
X56451905Y-89341486D01*
X56404286Y-89151010D01*
X56404286Y-89008152D01*
X56451905Y-88817676D01*
X56499524Y-88722438D01*
X56594762Y-88627200D01*
X56737620Y-88579581D01*
X56832858Y-88579581D01*
X56975715Y-88627200D01*
X57023334Y-88674819D01*
X57880477Y-88579581D02*
X57690000Y-88579581D01*
X57594762Y-88627200D01*
X57547143Y-88674819D01*
X57451905Y-88817676D01*
X57404286Y-89008152D01*
X57404286Y-89389105D01*
X57451905Y-89484343D01*
X57499524Y-89531962D01*
X57594762Y-89579581D01*
X57785239Y-89579581D01*
X57880477Y-89531962D01*
X57928096Y-89484343D01*
X57975715Y-89389105D01*
X57975715Y-89151010D01*
X57928096Y-89055771D01*
X57880477Y-89008152D01*
X57785239Y-88960533D01*
X57594762Y-88960533D01*
X57499524Y-89008152D01*
X57451905Y-89055771D01*
X57404286Y-89151010D01*
X114961943Y-140765066D02*
X115009562Y-140812685D01*
X115057181Y-140955542D01*
X115057181Y-141050780D01*
X115009562Y-141193638D01*
X114914324Y-141288876D01*
X114819086Y-141336495D01*
X114628610Y-141384114D01*
X114485752Y-141384114D01*
X114295276Y-141336495D01*
X114200038Y-141288876D01*
X114104800Y-141193638D01*
X114057181Y-141050780D01*
X114057181Y-140955542D01*
X114104800Y-140812685D01*
X114152419Y-140765066D01*
X114057181Y-140431733D02*
X114057181Y-139765066D01*
X115057181Y-140193638D01*
X24944343Y-157365866D02*
X24991962Y-157413485D01*
X25039581Y-157556342D01*
X25039581Y-157651580D01*
X24991962Y-157794438D01*
X24896724Y-157889676D01*
X24801486Y-157937295D01*
X24611010Y-157984914D01*
X24468152Y-157984914D01*
X24277676Y-157937295D01*
X24182438Y-157889676D01*
X24087200Y-157794438D01*
X24039581Y-157651580D01*
X24039581Y-157556342D01*
X24087200Y-157413485D01*
X24134819Y-157365866D01*
X24468152Y-156794438D02*
X24420533Y-156889676D01*
X24372914Y-156937295D01*
X24277676Y-156984914D01*
X24230057Y-156984914D01*
X24134819Y-156937295D01*
X24087200Y-156889676D01*
X24039581Y-156794438D01*
X24039581Y-156603961D01*
X24087200Y-156508723D01*
X24134819Y-156461104D01*
X24230057Y-156413485D01*
X24277676Y-156413485D01*
X24372914Y-156461104D01*
X24420533Y-156508723D01*
X24468152Y-156603961D01*
X24468152Y-156794438D01*
X24515771Y-156889676D01*
X24563390Y-156937295D01*
X24658629Y-156984914D01*
X24849105Y-156984914D01*
X24944343Y-156937295D01*
X24991962Y-156889676D01*
X25039581Y-156794438D01*
X25039581Y-156603961D01*
X24991962Y-156508723D01*
X24944343Y-156461104D01*
X24849105Y-156413485D01*
X24658629Y-156413485D01*
X24563390Y-156461104D01*
X24515771Y-156508723D01*
X24468152Y-156603961D01*
X73102743Y-157365866D02*
X73150362Y-157413485D01*
X73197981Y-157556342D01*
X73197981Y-157651580D01*
X73150362Y-157794438D01*
X73055124Y-157889676D01*
X72959886Y-157937295D01*
X72769410Y-157984914D01*
X72626552Y-157984914D01*
X72436076Y-157937295D01*
X72340838Y-157889676D01*
X72245600Y-157794438D01*
X72197981Y-157651580D01*
X72197981Y-157556342D01*
X72245600Y-157413485D01*
X72293219Y-157365866D01*
X73197981Y-156889676D02*
X73197981Y-156699200D01*
X73150362Y-156603961D01*
X73102743Y-156556342D01*
X72959886Y-156461104D01*
X72769410Y-156413485D01*
X72388457Y-156413485D01*
X72293219Y-156461104D01*
X72245600Y-156508723D01*
X72197981Y-156603961D01*
X72197981Y-156794438D01*
X72245600Y-156889676D01*
X72293219Y-156937295D01*
X72388457Y-156984914D01*
X72626552Y-156984914D01*
X72721790Y-156937295D01*
X72769410Y-156889676D01*
X72817029Y-156794438D01*
X72817029Y-156603961D01*
X72769410Y-156508723D01*
X72721790Y-156461104D01*
X72626552Y-156413485D01*
X136557143Y-107797143D02*
X136509524Y-107844762D01*
X136366667Y-107892381D01*
X136271429Y-107892381D01*
X136128571Y-107844762D01*
X136033333Y-107749524D01*
X135985714Y-107654286D01*
X135938095Y-107463810D01*
X135938095Y-107320952D01*
X135985714Y-107130476D01*
X136033333Y-107035238D01*
X136128571Y-106940000D01*
X136271429Y-106892381D01*
X136366667Y-106892381D01*
X136509524Y-106940000D01*
X136557143Y-106987619D01*
X137509524Y-107892381D02*
X136938095Y-107892381D01*
X137223809Y-107892381D02*
X137223809Y-106892381D01*
X137128571Y-107035238D01*
X137033333Y-107130476D01*
X136938095Y-107178095D01*
X138128571Y-106892381D02*
X138223810Y-106892381D01*
X138319048Y-106940000D01*
X138366667Y-106987619D01*
X138414286Y-107082857D01*
X138461905Y-107273333D01*
X138461905Y-107511429D01*
X138414286Y-107701905D01*
X138366667Y-107797143D01*
X138319048Y-107844762D01*
X138223810Y-107892381D01*
X138128571Y-107892381D01*
X138033333Y-107844762D01*
X137985714Y-107797143D01*
X137938095Y-107701905D01*
X137890476Y-107511429D01*
X137890476Y-107273333D01*
X137938095Y-107082857D01*
X137985714Y-106987619D01*
X138033333Y-106940000D01*
X138128571Y-106892381D01*
X150527143Y-107797143D02*
X150479524Y-107844762D01*
X150336667Y-107892381D01*
X150241429Y-107892381D01*
X150098571Y-107844762D01*
X150003333Y-107749524D01*
X149955714Y-107654286D01*
X149908095Y-107463810D01*
X149908095Y-107320952D01*
X149955714Y-107130476D01*
X150003333Y-107035238D01*
X150098571Y-106940000D01*
X150241429Y-106892381D01*
X150336667Y-106892381D01*
X150479524Y-106940000D01*
X150527143Y-106987619D01*
X151479524Y-107892381D02*
X150908095Y-107892381D01*
X151193809Y-107892381D02*
X151193809Y-106892381D01*
X151098571Y-107035238D01*
X151003333Y-107130476D01*
X150908095Y-107178095D01*
X152431905Y-107892381D02*
X151860476Y-107892381D01*
X152146190Y-107892381D02*
X152146190Y-106892381D01*
X152050952Y-107035238D01*
X151955714Y-107130476D01*
X151860476Y-107178095D01*
X71696343Y-50876343D02*
X71648724Y-50923962D01*
X71505867Y-50971581D01*
X71410629Y-50971581D01*
X71267771Y-50923962D01*
X71172533Y-50828724D01*
X71124914Y-50733486D01*
X71077295Y-50543010D01*
X71077295Y-50400152D01*
X71124914Y-50209676D01*
X71172533Y-50114438D01*
X71267771Y-50019200D01*
X71410629Y-49971581D01*
X71505867Y-49971581D01*
X71648724Y-50019200D01*
X71696343Y-50066819D01*
X72648724Y-50971581D02*
X72077295Y-50971581D01*
X72363009Y-50971581D02*
X72363009Y-49971581D01*
X72267771Y-50114438D01*
X72172533Y-50209676D01*
X72077295Y-50257295D01*
X73029676Y-50066819D02*
X73077295Y-50019200D01*
X73172533Y-49971581D01*
X73410629Y-49971581D01*
X73505867Y-50019200D01*
X73553486Y-50066819D01*
X73601105Y-50162057D01*
X73601105Y-50257295D01*
X73553486Y-50400152D01*
X72982057Y-50971581D01*
X73601105Y-50971581D01*
X109085143Y-50876343D02*
X109037524Y-50923962D01*
X108894667Y-50971581D01*
X108799429Y-50971581D01*
X108656571Y-50923962D01*
X108561333Y-50828724D01*
X108513714Y-50733486D01*
X108466095Y-50543010D01*
X108466095Y-50400152D01*
X108513714Y-50209676D01*
X108561333Y-50114438D01*
X108656571Y-50019200D01*
X108799429Y-49971581D01*
X108894667Y-49971581D01*
X109037524Y-50019200D01*
X109085143Y-50066819D01*
X110037524Y-50971581D02*
X109466095Y-50971581D01*
X109751809Y-50971581D02*
X109751809Y-49971581D01*
X109656571Y-50114438D01*
X109561333Y-50209676D01*
X109466095Y-50257295D01*
X110370857Y-49971581D02*
X110989905Y-49971581D01*
X110656571Y-50352533D01*
X110799429Y-50352533D01*
X110894667Y-50400152D01*
X110942286Y-50447771D01*
X110989905Y-50543010D01*
X110989905Y-50781105D01*
X110942286Y-50876343D01*
X110894667Y-50923962D01*
X110799429Y-50971581D01*
X110513714Y-50971581D01*
X110418476Y-50923962D01*
X110370857Y-50876343D01*
X79214743Y-50876343D02*
X79167124Y-50923962D01*
X79024267Y-50971581D01*
X78929029Y-50971581D01*
X78786171Y-50923962D01*
X78690933Y-50828724D01*
X78643314Y-50733486D01*
X78595695Y-50543010D01*
X78595695Y-50400152D01*
X78643314Y-50209676D01*
X78690933Y-50114438D01*
X78786171Y-50019200D01*
X78929029Y-49971581D01*
X79024267Y-49971581D01*
X79167124Y-50019200D01*
X79214743Y-50066819D01*
X80167124Y-50971581D02*
X79595695Y-50971581D01*
X79881409Y-50971581D02*
X79881409Y-49971581D01*
X79786171Y-50114438D01*
X79690933Y-50209676D01*
X79595695Y-50257295D01*
X81024267Y-50304914D02*
X81024267Y-50971581D01*
X80786171Y-49923962D02*
X80548076Y-50638248D01*
X81167124Y-50638248D01*
X116806743Y-50876343D02*
X116759124Y-50923962D01*
X116616267Y-50971581D01*
X116521029Y-50971581D01*
X116378171Y-50923962D01*
X116282933Y-50828724D01*
X116235314Y-50733486D01*
X116187695Y-50543010D01*
X116187695Y-50400152D01*
X116235314Y-50209676D01*
X116282933Y-50114438D01*
X116378171Y-50019200D01*
X116521029Y-49971581D01*
X116616267Y-49971581D01*
X116759124Y-50019200D01*
X116806743Y-50066819D01*
X117759124Y-50971581D02*
X117187695Y-50971581D01*
X117473409Y-50971581D02*
X117473409Y-49971581D01*
X117378171Y-50114438D01*
X117282933Y-50209676D01*
X117187695Y-50257295D01*
X118663886Y-49971581D02*
X118187695Y-49971581D01*
X118140076Y-50447771D01*
X118187695Y-50400152D01*
X118282933Y-50352533D01*
X118521029Y-50352533D01*
X118616267Y-50400152D01*
X118663886Y-50447771D01*
X118711505Y-50543010D01*
X118711505Y-50781105D01*
X118663886Y-50876343D01*
X118616267Y-50923962D01*
X118521029Y-50971581D01*
X118282933Y-50971581D01*
X118187695Y-50923962D01*
X118140076Y-50876343D01*
X64365143Y-41205257D02*
X64412762Y-41252876D01*
X64460381Y-41395733D01*
X64460381Y-41490971D01*
X64412762Y-41633829D01*
X64317524Y-41729067D01*
X64222286Y-41776686D01*
X64031810Y-41824305D01*
X63888952Y-41824305D01*
X63698476Y-41776686D01*
X63603238Y-41729067D01*
X63508000Y-41633829D01*
X63460381Y-41490971D01*
X63460381Y-41395733D01*
X63508000Y-41252876D01*
X63555619Y-41205257D01*
X64460381Y-40252876D02*
X64460381Y-40824305D01*
X64460381Y-40538591D02*
X63460381Y-40538591D01*
X63603238Y-40633829D01*
X63698476Y-40729067D01*
X63746095Y-40824305D01*
X63460381Y-39395733D02*
X63460381Y-39586210D01*
X63508000Y-39681448D01*
X63555619Y-39729067D01*
X63698476Y-39824305D01*
X63888952Y-39871924D01*
X64269905Y-39871924D01*
X64365143Y-39824305D01*
X64412762Y-39776686D01*
X64460381Y-39681448D01*
X64460381Y-39490971D01*
X64412762Y-39395733D01*
X64365143Y-39348114D01*
X64269905Y-39300495D01*
X64031810Y-39300495D01*
X63936571Y-39348114D01*
X63888952Y-39395733D01*
X63841333Y-39490971D01*
X63841333Y-39681448D01*
X63888952Y-39776686D01*
X63936571Y-39824305D01*
X64031810Y-39871924D01*
X86936343Y-50876343D02*
X86888724Y-50923962D01*
X86745867Y-50971581D01*
X86650629Y-50971581D01*
X86507771Y-50923962D01*
X86412533Y-50828724D01*
X86364914Y-50733486D01*
X86317295Y-50543010D01*
X86317295Y-50400152D01*
X86364914Y-50209676D01*
X86412533Y-50114438D01*
X86507771Y-50019200D01*
X86650629Y-49971581D01*
X86745867Y-49971581D01*
X86888724Y-50019200D01*
X86936343Y-50066819D01*
X87888724Y-50971581D02*
X87317295Y-50971581D01*
X87603009Y-50971581D02*
X87603009Y-49971581D01*
X87507771Y-50114438D01*
X87412533Y-50209676D01*
X87317295Y-50257295D01*
X88222057Y-49971581D02*
X88888724Y-49971581D01*
X88460152Y-50971581D01*
X101753943Y-41205257D02*
X101801562Y-41252876D01*
X101849181Y-41395733D01*
X101849181Y-41490971D01*
X101801562Y-41633829D01*
X101706324Y-41729067D01*
X101611086Y-41776686D01*
X101420610Y-41824305D01*
X101277752Y-41824305D01*
X101087276Y-41776686D01*
X100992038Y-41729067D01*
X100896800Y-41633829D01*
X100849181Y-41490971D01*
X100849181Y-41395733D01*
X100896800Y-41252876D01*
X100944419Y-41205257D01*
X101849181Y-40252876D02*
X101849181Y-40824305D01*
X101849181Y-40538591D02*
X100849181Y-40538591D01*
X100992038Y-40633829D01*
X101087276Y-40729067D01*
X101134895Y-40824305D01*
X101277752Y-39681448D02*
X101230133Y-39776686D01*
X101182514Y-39824305D01*
X101087276Y-39871924D01*
X101039657Y-39871924D01*
X100944419Y-39824305D01*
X100896800Y-39776686D01*
X100849181Y-39681448D01*
X100849181Y-39490971D01*
X100896800Y-39395733D01*
X100944419Y-39348114D01*
X101039657Y-39300495D01*
X101087276Y-39300495D01*
X101182514Y-39348114D01*
X101230133Y-39395733D01*
X101277752Y-39490971D01*
X101277752Y-39681448D01*
X101325371Y-39776686D01*
X101372990Y-39824305D01*
X101468229Y-39871924D01*
X101658705Y-39871924D01*
X101753943Y-39824305D01*
X101801562Y-39776686D01*
X101849181Y-39681448D01*
X101849181Y-39490971D01*
X101801562Y-39395733D01*
X101753943Y-39348114D01*
X101658705Y-39300495D01*
X101468229Y-39300495D01*
X101372990Y-39348114D01*
X101325371Y-39395733D01*
X101277752Y-39490971D01*
X124325143Y-50876343D02*
X124277524Y-50923962D01*
X124134667Y-50971581D01*
X124039429Y-50971581D01*
X123896571Y-50923962D01*
X123801333Y-50828724D01*
X123753714Y-50733486D01*
X123706095Y-50543010D01*
X123706095Y-50400152D01*
X123753714Y-50209676D01*
X123801333Y-50114438D01*
X123896571Y-50019200D01*
X124039429Y-49971581D01*
X124134667Y-49971581D01*
X124277524Y-50019200D01*
X124325143Y-50066819D01*
X125277524Y-50971581D02*
X124706095Y-50971581D01*
X124991809Y-50971581D02*
X124991809Y-49971581D01*
X124896571Y-50114438D01*
X124801333Y-50209676D01*
X124706095Y-50257295D01*
X125753714Y-50971581D02*
X125944190Y-50971581D01*
X126039429Y-50923962D01*
X126087048Y-50876343D01*
X126182286Y-50733486D01*
X126229905Y-50543010D01*
X126229905Y-50162057D01*
X126182286Y-50066819D01*
X126134667Y-50019200D01*
X126039429Y-49971581D01*
X125848952Y-49971581D01*
X125753714Y-50019200D01*
X125706095Y-50066819D01*
X125658476Y-50162057D01*
X125658476Y-50400152D01*
X125706095Y-50495390D01*
X125753714Y-50543010D01*
X125848952Y-50590629D01*
X126039429Y-50590629D01*
X126134667Y-50543010D01*
X126182286Y-50495390D01*
X126229905Y-50400152D01*
X122496343Y-156133943D02*
X122448724Y-156181562D01*
X122305867Y-156229181D01*
X122210629Y-156229181D01*
X122067771Y-156181562D01*
X121972533Y-156086324D01*
X121924914Y-155991086D01*
X121877295Y-155800610D01*
X121877295Y-155657752D01*
X121924914Y-155467276D01*
X121972533Y-155372038D01*
X122067771Y-155276800D01*
X122210629Y-155229181D01*
X122305867Y-155229181D01*
X122448724Y-155276800D01*
X122496343Y-155324419D01*
X122877295Y-155324419D02*
X122924914Y-155276800D01*
X123020152Y-155229181D01*
X123258248Y-155229181D01*
X123353486Y-155276800D01*
X123401105Y-155324419D01*
X123448724Y-155419657D01*
X123448724Y-155514895D01*
X123401105Y-155657752D01*
X122829676Y-156229181D01*
X123448724Y-156229181D01*
X124067771Y-155229181D02*
X124163010Y-155229181D01*
X124258248Y-155276800D01*
X124305867Y-155324419D01*
X124353486Y-155419657D01*
X124401105Y-155610133D01*
X124401105Y-155848229D01*
X124353486Y-156038705D01*
X124305867Y-156133943D01*
X124258248Y-156181562D01*
X124163010Y-156229181D01*
X124067771Y-156229181D01*
X123972533Y-156181562D01*
X123924914Y-156133943D01*
X123877295Y-156038705D01*
X123829676Y-155848229D01*
X123829676Y-155610133D01*
X123877295Y-155419657D01*
X123924914Y-155324419D01*
X123972533Y-155276800D01*
X124067771Y-155229181D01*
X70487143Y-61412857D02*
X70534762Y-61460476D01*
X70582381Y-61603333D01*
X70582381Y-61698571D01*
X70534762Y-61841429D01*
X70439524Y-61936667D01*
X70344286Y-61984286D01*
X70153810Y-62031905D01*
X70010952Y-62031905D01*
X69820476Y-61984286D01*
X69725238Y-61936667D01*
X69630000Y-61841429D01*
X69582381Y-61698571D01*
X69582381Y-61603333D01*
X69630000Y-61460476D01*
X69677619Y-61412857D01*
X69677619Y-61031905D02*
X69630000Y-60984286D01*
X69582381Y-60889048D01*
X69582381Y-60650952D01*
X69630000Y-60555714D01*
X69677619Y-60508095D01*
X69772857Y-60460476D01*
X69868095Y-60460476D01*
X70010952Y-60508095D01*
X70582381Y-61079524D01*
X70582381Y-60460476D01*
X70582381Y-59508095D02*
X70582381Y-60079524D01*
X70582381Y-59793810D02*
X69582381Y-59793810D01*
X69725238Y-59889048D01*
X69820476Y-59984286D01*
X69868095Y-60079524D01*
X65193943Y-33401143D02*
X65146324Y-33448762D01*
X65003467Y-33496381D01*
X64908229Y-33496381D01*
X64765371Y-33448762D01*
X64670133Y-33353524D01*
X64622514Y-33258286D01*
X64574895Y-33067810D01*
X64574895Y-32924952D01*
X64622514Y-32734476D01*
X64670133Y-32639238D01*
X64765371Y-32544000D01*
X64908229Y-32496381D01*
X65003467Y-32496381D01*
X65146324Y-32544000D01*
X65193943Y-32591619D01*
X65574895Y-32591619D02*
X65622514Y-32544000D01*
X65717752Y-32496381D01*
X65955848Y-32496381D01*
X66051086Y-32544000D01*
X66098705Y-32591619D01*
X66146324Y-32686857D01*
X66146324Y-32782095D01*
X66098705Y-32924952D01*
X65527276Y-33496381D01*
X66146324Y-33496381D01*
X66527276Y-32591619D02*
X66574895Y-32544000D01*
X66670133Y-32496381D01*
X66908229Y-32496381D01*
X67003467Y-32544000D01*
X67051086Y-32591619D01*
X67098705Y-32686857D01*
X67098705Y-32782095D01*
X67051086Y-32924952D01*
X66479657Y-33496381D01*
X67098705Y-33496381D01*
X102582743Y-33401143D02*
X102535124Y-33448762D01*
X102392267Y-33496381D01*
X102297029Y-33496381D01*
X102154171Y-33448762D01*
X102058933Y-33353524D01*
X102011314Y-33258286D01*
X101963695Y-33067810D01*
X101963695Y-32924952D01*
X102011314Y-32734476D01*
X102058933Y-32639238D01*
X102154171Y-32544000D01*
X102297029Y-32496381D01*
X102392267Y-32496381D01*
X102535124Y-32544000D01*
X102582743Y-32591619D01*
X102963695Y-32591619D02*
X103011314Y-32544000D01*
X103106552Y-32496381D01*
X103344648Y-32496381D01*
X103439886Y-32544000D01*
X103487505Y-32591619D01*
X103535124Y-32686857D01*
X103535124Y-32782095D01*
X103487505Y-32924952D01*
X102916076Y-33496381D01*
X103535124Y-33496381D01*
X103868457Y-32496381D02*
X104487505Y-32496381D01*
X104154171Y-32877333D01*
X104297029Y-32877333D01*
X104392267Y-32924952D01*
X104439886Y-32972571D01*
X104487505Y-33067810D01*
X104487505Y-33305905D01*
X104439886Y-33401143D01*
X104392267Y-33448762D01*
X104297029Y-33496381D01*
X104011314Y-33496381D01*
X103916076Y-33448762D01*
X103868457Y-33401143D01*
X31067143Y-35967143D02*
X31019524Y-36014762D01*
X30876667Y-36062381D01*
X30781429Y-36062381D01*
X30638571Y-36014762D01*
X30543333Y-35919524D01*
X30495714Y-35824286D01*
X30448095Y-35633810D01*
X30448095Y-35490952D01*
X30495714Y-35300476D01*
X30543333Y-35205238D01*
X30638571Y-35110000D01*
X30781429Y-35062381D01*
X30876667Y-35062381D01*
X31019524Y-35110000D01*
X31067143Y-35157619D01*
X31448095Y-35157619D02*
X31495714Y-35110000D01*
X31590952Y-35062381D01*
X31829048Y-35062381D01*
X31924286Y-35110000D01*
X31971905Y-35157619D01*
X32019524Y-35252857D01*
X32019524Y-35348095D01*
X31971905Y-35490952D01*
X31400476Y-36062381D01*
X32019524Y-36062381D01*
X32876667Y-35395714D02*
X32876667Y-36062381D01*
X32638571Y-35014762D02*
X32400476Y-35729048D01*
X33019524Y-35729048D01*
X127966743Y-85502857D02*
X128014362Y-85550476D01*
X128061981Y-85693333D01*
X128061981Y-85788571D01*
X128014362Y-85931429D01*
X127919124Y-86026667D01*
X127823886Y-86074286D01*
X127633410Y-86121905D01*
X127490552Y-86121905D01*
X127300076Y-86074286D01*
X127204838Y-86026667D01*
X127109600Y-85931429D01*
X127061981Y-85788571D01*
X127061981Y-85693333D01*
X127109600Y-85550476D01*
X127157219Y-85502857D01*
X127157219Y-85121905D02*
X127109600Y-85074286D01*
X127061981Y-84979048D01*
X127061981Y-84740952D01*
X127109600Y-84645714D01*
X127157219Y-84598095D01*
X127252457Y-84550476D01*
X127347695Y-84550476D01*
X127490552Y-84598095D01*
X128061981Y-85169524D01*
X128061981Y-84550476D01*
X127061981Y-83645714D02*
X127061981Y-84121905D01*
X127538171Y-84169524D01*
X127490552Y-84121905D01*
X127442933Y-84026667D01*
X127442933Y-83788571D01*
X127490552Y-83693333D01*
X127538171Y-83645714D01*
X127633410Y-83598095D01*
X127871505Y-83598095D01*
X127966743Y-83645714D01*
X128014362Y-83693333D01*
X128061981Y-83788571D01*
X128061981Y-84026667D01*
X128014362Y-84121905D01*
X127966743Y-84169524D01*
X64167143Y-89712343D02*
X64119524Y-89759962D01*
X63976667Y-89807581D01*
X63881429Y-89807581D01*
X63738571Y-89759962D01*
X63643333Y-89664724D01*
X63595714Y-89569486D01*
X63548095Y-89379010D01*
X63548095Y-89236152D01*
X63595714Y-89045676D01*
X63643333Y-88950438D01*
X63738571Y-88855200D01*
X63881429Y-88807581D01*
X63976667Y-88807581D01*
X64119524Y-88855200D01*
X64167143Y-88902819D01*
X64548095Y-88902819D02*
X64595714Y-88855200D01*
X64690952Y-88807581D01*
X64929048Y-88807581D01*
X65024286Y-88855200D01*
X65071905Y-88902819D01*
X65119524Y-88998057D01*
X65119524Y-89093295D01*
X65071905Y-89236152D01*
X64500476Y-89807581D01*
X65119524Y-89807581D01*
X65976667Y-88807581D02*
X65786190Y-88807581D01*
X65690952Y-88855200D01*
X65643333Y-88902819D01*
X65548095Y-89045676D01*
X65500476Y-89236152D01*
X65500476Y-89617105D01*
X65548095Y-89712343D01*
X65595714Y-89759962D01*
X65690952Y-89807581D01*
X65881429Y-89807581D01*
X65976667Y-89759962D01*
X66024286Y-89712343D01*
X66071905Y-89617105D01*
X66071905Y-89379010D01*
X66024286Y-89283771D01*
X65976667Y-89236152D01*
X65881429Y-89188533D01*
X65690952Y-89188533D01*
X65595714Y-89236152D01*
X65548095Y-89283771D01*
X65500476Y-89379010D01*
X148099543Y-48437943D02*
X148051924Y-48485562D01*
X147909067Y-48533181D01*
X147813829Y-48533181D01*
X147670971Y-48485562D01*
X147575733Y-48390324D01*
X147528114Y-48295086D01*
X147480495Y-48104610D01*
X147480495Y-47961752D01*
X147528114Y-47771276D01*
X147575733Y-47676038D01*
X147670971Y-47580800D01*
X147813829Y-47533181D01*
X147909067Y-47533181D01*
X148051924Y-47580800D01*
X148099543Y-47628419D01*
X148480495Y-47628419D02*
X148528114Y-47580800D01*
X148623352Y-47533181D01*
X148861448Y-47533181D01*
X148956686Y-47580800D01*
X149004305Y-47628419D01*
X149051924Y-47723657D01*
X149051924Y-47818895D01*
X149004305Y-47961752D01*
X148432876Y-48533181D01*
X149051924Y-48533181D01*
X149385257Y-47533181D02*
X150051924Y-47533181D01*
X149623352Y-48533181D01*
X36227143Y-89712343D02*
X36179524Y-89759962D01*
X36036667Y-89807581D01*
X35941429Y-89807581D01*
X35798571Y-89759962D01*
X35703333Y-89664724D01*
X35655714Y-89569486D01*
X35608095Y-89379010D01*
X35608095Y-89236152D01*
X35655714Y-89045676D01*
X35703333Y-88950438D01*
X35798571Y-88855200D01*
X35941429Y-88807581D01*
X36036667Y-88807581D01*
X36179524Y-88855200D01*
X36227143Y-88902819D01*
X36608095Y-88902819D02*
X36655714Y-88855200D01*
X36750952Y-88807581D01*
X36989048Y-88807581D01*
X37084286Y-88855200D01*
X37131905Y-88902819D01*
X37179524Y-88998057D01*
X37179524Y-89093295D01*
X37131905Y-89236152D01*
X36560476Y-89807581D01*
X37179524Y-89807581D01*
X37750952Y-89236152D02*
X37655714Y-89188533D01*
X37608095Y-89140914D01*
X37560476Y-89045676D01*
X37560476Y-88998057D01*
X37608095Y-88902819D01*
X37655714Y-88855200D01*
X37750952Y-88807581D01*
X37941429Y-88807581D01*
X38036667Y-88855200D01*
X38084286Y-88902819D01*
X38131905Y-88998057D01*
X38131905Y-89045676D01*
X38084286Y-89140914D01*
X38036667Y-89188533D01*
X37941429Y-89236152D01*
X37750952Y-89236152D01*
X37655714Y-89283771D01*
X37608095Y-89331390D01*
X37560476Y-89426629D01*
X37560476Y-89617105D01*
X37608095Y-89712343D01*
X37655714Y-89759962D01*
X37750952Y-89807581D01*
X37941429Y-89807581D01*
X38036667Y-89759962D01*
X38084286Y-89712343D01*
X38131905Y-89617105D01*
X38131905Y-89426629D01*
X38084286Y-89331390D01*
X38036667Y-89283771D01*
X37941429Y-89236152D01*
X50298743Y-89712343D02*
X50251124Y-89759962D01*
X50108267Y-89807581D01*
X50013029Y-89807581D01*
X49870171Y-89759962D01*
X49774933Y-89664724D01*
X49727314Y-89569486D01*
X49679695Y-89379010D01*
X49679695Y-89236152D01*
X49727314Y-89045676D01*
X49774933Y-88950438D01*
X49870171Y-88855200D01*
X50013029Y-88807581D01*
X50108267Y-88807581D01*
X50251124Y-88855200D01*
X50298743Y-88902819D01*
X50679695Y-88902819D02*
X50727314Y-88855200D01*
X50822552Y-88807581D01*
X51060648Y-88807581D01*
X51155886Y-88855200D01*
X51203505Y-88902819D01*
X51251124Y-88998057D01*
X51251124Y-89093295D01*
X51203505Y-89236152D01*
X50632076Y-89807581D01*
X51251124Y-89807581D01*
X51727314Y-89807581D02*
X51917790Y-89807581D01*
X52013029Y-89759962D01*
X52060648Y-89712343D01*
X52155886Y-89569486D01*
X52203505Y-89379010D01*
X52203505Y-88998057D01*
X52155886Y-88902819D01*
X52108267Y-88855200D01*
X52013029Y-88807581D01*
X51822552Y-88807581D01*
X51727314Y-88855200D01*
X51679695Y-88902819D01*
X51632076Y-88998057D01*
X51632076Y-89236152D01*
X51679695Y-89331390D01*
X51727314Y-89379010D01*
X51822552Y-89426629D01*
X52013029Y-89426629D01*
X52108267Y-89379010D01*
X52155886Y-89331390D01*
X52203505Y-89236152D01*
X28542381Y-44958095D02*
X27542381Y-44958095D01*
X27542381Y-44720000D01*
X27590000Y-44577142D01*
X27685238Y-44481904D01*
X27780476Y-44434285D01*
X27970952Y-44386666D01*
X28113810Y-44386666D01*
X28304286Y-44434285D01*
X28399524Y-44481904D01*
X28494762Y-44577142D01*
X28542381Y-44720000D01*
X28542381Y-44958095D01*
X28542381Y-43434285D02*
X28542381Y-44005714D01*
X28542381Y-43720000D02*
X27542381Y-43720000D01*
X27685238Y-43815238D01*
X27780476Y-43910476D01*
X27828095Y-44005714D01*
X23796667Y-64202381D02*
X23796667Y-64916667D01*
X23749047Y-65059524D01*
X23653809Y-65154762D01*
X23510952Y-65202381D01*
X23415714Y-65202381D01*
X24796667Y-65202381D02*
X24225238Y-65202381D01*
X24510952Y-65202381D02*
X24510952Y-64202381D01*
X24415714Y-64345238D01*
X24320476Y-64440476D01*
X24225238Y-64488095D01*
X126242381Y-125833333D02*
X126956667Y-125833333D01*
X127099524Y-125880953D01*
X127194762Y-125976191D01*
X127242381Y-126119048D01*
X127242381Y-126214286D01*
X126242381Y-125452381D02*
X126242381Y-124833333D01*
X126623333Y-125166667D01*
X126623333Y-125023809D01*
X126670952Y-124928571D01*
X126718571Y-124880952D01*
X126813810Y-124833333D01*
X127051905Y-124833333D01*
X127147143Y-124880952D01*
X127194762Y-124928571D01*
X127242381Y-125023809D01*
X127242381Y-125309524D01*
X127194762Y-125404762D01*
X127147143Y-125452381D01*
X23847467Y-59115581D02*
X23847467Y-59829867D01*
X23799847Y-59972724D01*
X23704609Y-60067962D01*
X23561752Y-60115581D01*
X23466514Y-60115581D01*
X24752229Y-59115581D02*
X24561752Y-59115581D01*
X24466514Y-59163200D01*
X24418895Y-59210819D01*
X24323657Y-59353676D01*
X24276038Y-59544152D01*
X24276038Y-59925105D01*
X24323657Y-60020343D01*
X24371276Y-60067962D01*
X24466514Y-60115581D01*
X24656991Y-60115581D01*
X24752229Y-60067962D01*
X24799848Y-60020343D01*
X24847467Y-59925105D01*
X24847467Y-59687010D01*
X24799848Y-59591771D01*
X24752229Y-59544152D01*
X24656991Y-59496533D01*
X24466514Y-59496533D01*
X24371276Y-59544152D01*
X24323657Y-59591771D01*
X24276038Y-59687010D01*
X40473334Y-36462381D02*
X40140000Y-35986190D01*
X39901905Y-36462381D02*
X39901905Y-35462381D01*
X40282858Y-35462381D01*
X40378096Y-35510000D01*
X40425715Y-35557619D01*
X40473334Y-35652857D01*
X40473334Y-35795714D01*
X40425715Y-35890952D01*
X40378096Y-35938571D01*
X40282858Y-35986190D01*
X39901905Y-35986190D01*
X41425715Y-36462381D02*
X40854286Y-36462381D01*
X41140000Y-36462381D02*
X41140000Y-35462381D01*
X41044762Y-35605238D01*
X40949524Y-35700476D01*
X40854286Y-35748095D01*
X69530934Y-159886781D02*
X69197600Y-159410590D01*
X68959505Y-159886781D02*
X68959505Y-158886781D01*
X69340458Y-158886781D01*
X69435696Y-158934400D01*
X69483315Y-158982019D01*
X69530934Y-159077257D01*
X69530934Y-159220114D01*
X69483315Y-159315352D01*
X69435696Y-159362971D01*
X69340458Y-159410590D01*
X68959505Y-159410590D01*
X69911886Y-158982019D02*
X69959505Y-158934400D01*
X70054743Y-158886781D01*
X70292839Y-158886781D01*
X70388077Y-158934400D01*
X70435696Y-158982019D01*
X70483315Y-159077257D01*
X70483315Y-159172495D01*
X70435696Y-159315352D01*
X69864267Y-159886781D01*
X70483315Y-159886781D01*
X116673334Y-153993981D02*
X116340000Y-153517790D01*
X116101905Y-153993981D02*
X116101905Y-152993981D01*
X116482858Y-152993981D01*
X116578096Y-153041600D01*
X116625715Y-153089219D01*
X116673334Y-153184457D01*
X116673334Y-153327314D01*
X116625715Y-153422552D01*
X116578096Y-153470171D01*
X116482858Y-153517790D01*
X116101905Y-153517790D01*
X117006667Y-152993981D02*
X117625715Y-152993981D01*
X117292381Y-153374933D01*
X117435239Y-153374933D01*
X117530477Y-153422552D01*
X117578096Y-153470171D01*
X117625715Y-153565410D01*
X117625715Y-153803505D01*
X117578096Y-153898743D01*
X117530477Y-153946362D01*
X117435239Y-153993981D01*
X117149524Y-153993981D01*
X117054286Y-153946362D01*
X117006667Y-153898743D01*
X69530934Y-162325181D02*
X69197600Y-161848990D01*
X68959505Y-162325181D02*
X68959505Y-161325181D01*
X69340458Y-161325181D01*
X69435696Y-161372800D01*
X69483315Y-161420419D01*
X69530934Y-161515657D01*
X69530934Y-161658514D01*
X69483315Y-161753752D01*
X69435696Y-161801371D01*
X69340458Y-161848990D01*
X68959505Y-161848990D01*
X70388077Y-161658514D02*
X70388077Y-162325181D01*
X70149981Y-161277562D02*
X69911886Y-161991848D01*
X70530934Y-161991848D01*
X116673334Y-156432381D02*
X116340000Y-155956190D01*
X116101905Y-156432381D02*
X116101905Y-155432381D01*
X116482858Y-155432381D01*
X116578096Y-155480000D01*
X116625715Y-155527619D01*
X116673334Y-155622857D01*
X116673334Y-155765714D01*
X116625715Y-155860952D01*
X116578096Y-155908571D01*
X116482858Y-155956190D01*
X116101905Y-155956190D01*
X117578096Y-155432381D02*
X117101905Y-155432381D01*
X117054286Y-155908571D01*
X117101905Y-155860952D01*
X117197143Y-155813333D01*
X117435239Y-155813333D01*
X117530477Y-155860952D01*
X117578096Y-155908571D01*
X117625715Y-156003810D01*
X117625715Y-156241905D01*
X117578096Y-156337143D01*
X117530477Y-156384762D01*
X117435239Y-156432381D01*
X117197143Y-156432381D01*
X117101905Y-156384762D01*
X117054286Y-156337143D01*
X69530934Y-164966781D02*
X69197600Y-164490590D01*
X68959505Y-164966781D02*
X68959505Y-163966781D01*
X69340458Y-163966781D01*
X69435696Y-164014400D01*
X69483315Y-164062019D01*
X69530934Y-164157257D01*
X69530934Y-164300114D01*
X69483315Y-164395352D01*
X69435696Y-164442971D01*
X69340458Y-164490590D01*
X68959505Y-164490590D01*
X70388077Y-163966781D02*
X70197600Y-163966781D01*
X70102362Y-164014400D01*
X70054743Y-164062019D01*
X69959505Y-164204876D01*
X69911886Y-164395352D01*
X69911886Y-164776305D01*
X69959505Y-164871543D01*
X70007124Y-164919162D01*
X70102362Y-164966781D01*
X70292839Y-164966781D01*
X70388077Y-164919162D01*
X70435696Y-164871543D01*
X70483315Y-164776305D01*
X70483315Y-164538210D01*
X70435696Y-164442971D01*
X70388077Y-164395352D01*
X70292839Y-164347733D01*
X70102362Y-164347733D01*
X70007124Y-164395352D01*
X69959505Y-164442971D01*
X69911886Y-164538210D01*
X116673334Y-159073981D02*
X116340000Y-158597790D01*
X116101905Y-159073981D02*
X116101905Y-158073981D01*
X116482858Y-158073981D01*
X116578096Y-158121600D01*
X116625715Y-158169219D01*
X116673334Y-158264457D01*
X116673334Y-158407314D01*
X116625715Y-158502552D01*
X116578096Y-158550171D01*
X116482858Y-158597790D01*
X116101905Y-158597790D01*
X117006667Y-158073981D02*
X117673334Y-158073981D01*
X117244762Y-159073981D01*
X69530934Y-167608381D02*
X69197600Y-167132190D01*
X68959505Y-167608381D02*
X68959505Y-166608381D01*
X69340458Y-166608381D01*
X69435696Y-166656000D01*
X69483315Y-166703619D01*
X69530934Y-166798857D01*
X69530934Y-166941714D01*
X69483315Y-167036952D01*
X69435696Y-167084571D01*
X69340458Y-167132190D01*
X68959505Y-167132190D01*
X70102362Y-167036952D02*
X70007124Y-166989333D01*
X69959505Y-166941714D01*
X69911886Y-166846476D01*
X69911886Y-166798857D01*
X69959505Y-166703619D01*
X70007124Y-166656000D01*
X70102362Y-166608381D01*
X70292839Y-166608381D01*
X70388077Y-166656000D01*
X70435696Y-166703619D01*
X70483315Y-166798857D01*
X70483315Y-166846476D01*
X70435696Y-166941714D01*
X70388077Y-166989333D01*
X70292839Y-167036952D01*
X70102362Y-167036952D01*
X70007124Y-167084571D01*
X69959505Y-167132190D01*
X69911886Y-167227429D01*
X69911886Y-167417905D01*
X69959505Y-167513143D01*
X70007124Y-167560762D01*
X70102362Y-167608381D01*
X70292839Y-167608381D01*
X70388077Y-167560762D01*
X70435696Y-167513143D01*
X70483315Y-167417905D01*
X70483315Y-167227429D01*
X70435696Y-167132190D01*
X70388077Y-167084571D01*
X70292839Y-167036952D01*
X116673334Y-161715581D02*
X116340000Y-161239390D01*
X116101905Y-161715581D02*
X116101905Y-160715581D01*
X116482858Y-160715581D01*
X116578096Y-160763200D01*
X116625715Y-160810819D01*
X116673334Y-160906057D01*
X116673334Y-161048914D01*
X116625715Y-161144152D01*
X116578096Y-161191771D01*
X116482858Y-161239390D01*
X116101905Y-161239390D01*
X117149524Y-161715581D02*
X117340000Y-161715581D01*
X117435239Y-161667962D01*
X117482858Y-161620343D01*
X117578096Y-161477486D01*
X117625715Y-161287010D01*
X117625715Y-160906057D01*
X117578096Y-160810819D01*
X117530477Y-160763200D01*
X117435239Y-160715581D01*
X117244762Y-160715581D01*
X117149524Y-160763200D01*
X117101905Y-160810819D01*
X117054286Y-160906057D01*
X117054286Y-161144152D01*
X117101905Y-161239390D01*
X117149524Y-161287010D01*
X117244762Y-161334629D01*
X117435239Y-161334629D01*
X117530477Y-161287010D01*
X117578096Y-161239390D01*
X117625715Y-161144152D01*
X69664343Y-170249981D02*
X69331009Y-169773790D01*
X69092914Y-170249981D02*
X69092914Y-169249981D01*
X69473867Y-169249981D01*
X69569105Y-169297600D01*
X69616724Y-169345219D01*
X69664343Y-169440457D01*
X69664343Y-169583314D01*
X69616724Y-169678552D01*
X69569105Y-169726171D01*
X69473867Y-169773790D01*
X69092914Y-169773790D01*
X70616724Y-170249981D02*
X70045295Y-170249981D01*
X70331009Y-170249981D02*
X70331009Y-169249981D01*
X70235771Y-169392838D01*
X70140533Y-169488076D01*
X70045295Y-169535695D01*
X71235771Y-169249981D02*
X71331010Y-169249981D01*
X71426248Y-169297600D01*
X71473867Y-169345219D01*
X71521486Y-169440457D01*
X71569105Y-169630933D01*
X71569105Y-169869029D01*
X71521486Y-170059505D01*
X71473867Y-170154743D01*
X71426248Y-170202362D01*
X71331010Y-170249981D01*
X71235771Y-170249981D01*
X71140533Y-170202362D01*
X71092914Y-170154743D01*
X71045295Y-170059505D01*
X70997676Y-169869029D01*
X70997676Y-169630933D01*
X71045295Y-169440457D01*
X71092914Y-169345219D01*
X71140533Y-169297600D01*
X71235771Y-169249981D01*
X116603543Y-164153981D02*
X116270209Y-163677790D01*
X116032114Y-164153981D02*
X116032114Y-163153981D01*
X116413067Y-163153981D01*
X116508305Y-163201600D01*
X116555924Y-163249219D01*
X116603543Y-163344457D01*
X116603543Y-163487314D01*
X116555924Y-163582552D01*
X116508305Y-163630171D01*
X116413067Y-163677790D01*
X116032114Y-163677790D01*
X117555924Y-164153981D02*
X116984495Y-164153981D01*
X117270209Y-164153981D02*
X117270209Y-163153981D01*
X117174971Y-163296838D01*
X117079733Y-163392076D01*
X116984495Y-163439695D01*
X118508305Y-164153981D02*
X117936876Y-164153981D01*
X118222590Y-164153981D02*
X118222590Y-163153981D01*
X118127352Y-163296838D01*
X118032114Y-163392076D01*
X117936876Y-163439695D01*
X138831581Y-112325257D02*
X138355390Y-112658591D01*
X138831581Y-112896686D02*
X137831581Y-112896686D01*
X137831581Y-112515733D01*
X137879200Y-112420495D01*
X137926819Y-112372876D01*
X138022057Y-112325257D01*
X138164914Y-112325257D01*
X138260152Y-112372876D01*
X138307771Y-112420495D01*
X138355390Y-112515733D01*
X138355390Y-112896686D01*
X138831581Y-111372876D02*
X138831581Y-111944305D01*
X138831581Y-111658591D02*
X137831581Y-111658591D01*
X137974438Y-111753829D01*
X138069676Y-111849067D01*
X138117295Y-111944305D01*
X137926819Y-110991924D02*
X137879200Y-110944305D01*
X137831581Y-110849067D01*
X137831581Y-110610971D01*
X137879200Y-110515733D01*
X137926819Y-110468114D01*
X138022057Y-110420495D01*
X138117295Y-110420495D01*
X138260152Y-110468114D01*
X138831581Y-111039543D01*
X138831581Y-110420495D01*
X141269981Y-112325257D02*
X140793790Y-112658591D01*
X141269981Y-112896686D02*
X140269981Y-112896686D01*
X140269981Y-112515733D01*
X140317600Y-112420495D01*
X140365219Y-112372876D01*
X140460457Y-112325257D01*
X140603314Y-112325257D01*
X140698552Y-112372876D01*
X140746171Y-112420495D01*
X140793790Y-112515733D01*
X140793790Y-112896686D01*
X141269981Y-111372876D02*
X141269981Y-111944305D01*
X141269981Y-111658591D02*
X140269981Y-111658591D01*
X140412838Y-111753829D01*
X140508076Y-111849067D01*
X140555695Y-111944305D01*
X140269981Y-111039543D02*
X140269981Y-110420495D01*
X140650933Y-110753829D01*
X140650933Y-110610971D01*
X140698552Y-110515733D01*
X140746171Y-110468114D01*
X140841410Y-110420495D01*
X141079505Y-110420495D01*
X141174743Y-110468114D01*
X141222362Y-110515733D01*
X141269981Y-110610971D01*
X141269981Y-110896686D01*
X141222362Y-110991924D01*
X141174743Y-111039543D01*
X138831581Y-150323657D02*
X138355390Y-150656991D01*
X138831581Y-150895086D02*
X137831581Y-150895086D01*
X137831581Y-150514133D01*
X137879200Y-150418895D01*
X137926819Y-150371276D01*
X138022057Y-150323657D01*
X138164914Y-150323657D01*
X138260152Y-150371276D01*
X138307771Y-150418895D01*
X138355390Y-150514133D01*
X138355390Y-150895086D01*
X138831581Y-149371276D02*
X138831581Y-149942705D01*
X138831581Y-149656991D02*
X137831581Y-149656991D01*
X137974438Y-149752229D01*
X138069676Y-149847467D01*
X138117295Y-149942705D01*
X138164914Y-148514133D02*
X138831581Y-148514133D01*
X137783962Y-148752229D02*
X138498248Y-148990324D01*
X138498248Y-148371276D01*
X136393181Y-150323657D02*
X135916990Y-150656991D01*
X136393181Y-150895086D02*
X135393181Y-150895086D01*
X135393181Y-150514133D01*
X135440800Y-150418895D01*
X135488419Y-150371276D01*
X135583657Y-150323657D01*
X135726514Y-150323657D01*
X135821752Y-150371276D01*
X135869371Y-150418895D01*
X135916990Y-150514133D01*
X135916990Y-150895086D01*
X136393181Y-149371276D02*
X136393181Y-149942705D01*
X136393181Y-149656991D02*
X135393181Y-149656991D01*
X135536038Y-149752229D01*
X135631276Y-149847467D01*
X135678895Y-149942705D01*
X135393181Y-148466514D02*
X135393181Y-148942705D01*
X135869371Y-148990324D01*
X135821752Y-148942705D01*
X135774133Y-148847467D01*
X135774133Y-148609371D01*
X135821752Y-148514133D01*
X135869371Y-148466514D01*
X135964610Y-148418895D01*
X136202705Y-148418895D01*
X136297943Y-148466514D01*
X136345562Y-148514133D01*
X136393181Y-148609371D01*
X136393181Y-148847467D01*
X136345562Y-148942705D01*
X136297943Y-148990324D01*
X133954781Y-150323657D02*
X133478590Y-150656991D01*
X133954781Y-150895086D02*
X132954781Y-150895086D01*
X132954781Y-150514133D01*
X133002400Y-150418895D01*
X133050019Y-150371276D01*
X133145257Y-150323657D01*
X133288114Y-150323657D01*
X133383352Y-150371276D01*
X133430971Y-150418895D01*
X133478590Y-150514133D01*
X133478590Y-150895086D01*
X133954781Y-149371276D02*
X133954781Y-149942705D01*
X133954781Y-149656991D02*
X132954781Y-149656991D01*
X133097638Y-149752229D01*
X133192876Y-149847467D01*
X133240495Y-149942705D01*
X132954781Y-148514133D02*
X132954781Y-148704610D01*
X133002400Y-148799848D01*
X133050019Y-148847467D01*
X133192876Y-148942705D01*
X133383352Y-148990324D01*
X133764305Y-148990324D01*
X133859543Y-148942705D01*
X133907162Y-148895086D01*
X133954781Y-148799848D01*
X133954781Y-148609371D01*
X133907162Y-148514133D01*
X133859543Y-148466514D01*
X133764305Y-148418895D01*
X133526210Y-148418895D01*
X133430971Y-148466514D01*
X133383352Y-148514133D01*
X133335733Y-148609371D01*
X133335733Y-148799848D01*
X133383352Y-148895086D01*
X133430971Y-148942705D01*
X133526210Y-148990324D01*
X133954781Y-112325257D02*
X133478590Y-112658591D01*
X133954781Y-112896686D02*
X132954781Y-112896686D01*
X132954781Y-112515733D01*
X133002400Y-112420495D01*
X133050019Y-112372876D01*
X133145257Y-112325257D01*
X133288114Y-112325257D01*
X133383352Y-112372876D01*
X133430971Y-112420495D01*
X133478590Y-112515733D01*
X133478590Y-112896686D01*
X133954781Y-111372876D02*
X133954781Y-111944305D01*
X133954781Y-111658591D02*
X132954781Y-111658591D01*
X133097638Y-111753829D01*
X133192876Y-111849067D01*
X133240495Y-111944305D01*
X132954781Y-111039543D02*
X132954781Y-110372876D01*
X133954781Y-110801448D01*
X22318743Y-36341181D02*
X21985409Y-35864990D01*
X21747314Y-36341181D02*
X21747314Y-35341181D01*
X22128267Y-35341181D01*
X22223505Y-35388800D01*
X22271124Y-35436419D01*
X22318743Y-35531657D01*
X22318743Y-35674514D01*
X22271124Y-35769752D01*
X22223505Y-35817371D01*
X22128267Y-35864990D01*
X21747314Y-35864990D01*
X23271124Y-36341181D02*
X22699695Y-36341181D01*
X22985409Y-36341181D02*
X22985409Y-35341181D01*
X22890171Y-35484038D01*
X22794933Y-35579276D01*
X22699695Y-35626895D01*
X23842552Y-35769752D02*
X23747314Y-35722133D01*
X23699695Y-35674514D01*
X23652076Y-35579276D01*
X23652076Y-35531657D01*
X23699695Y-35436419D01*
X23747314Y-35388800D01*
X23842552Y-35341181D01*
X24033029Y-35341181D01*
X24128267Y-35388800D01*
X24175886Y-35436419D01*
X24223505Y-35531657D01*
X24223505Y-35579276D01*
X24175886Y-35674514D01*
X24128267Y-35722133D01*
X24033029Y-35769752D01*
X23842552Y-35769752D01*
X23747314Y-35817371D01*
X23699695Y-35864990D01*
X23652076Y-35960229D01*
X23652076Y-36150705D01*
X23699695Y-36245943D01*
X23747314Y-36293562D01*
X23842552Y-36341181D01*
X24033029Y-36341181D01*
X24128267Y-36293562D01*
X24175886Y-36245943D01*
X24223505Y-36150705D01*
X24223505Y-35960229D01*
X24175886Y-35864990D01*
X24128267Y-35817371D01*
X24033029Y-35769752D01*
X136393181Y-112325257D02*
X135916990Y-112658591D01*
X136393181Y-112896686D02*
X135393181Y-112896686D01*
X135393181Y-112515733D01*
X135440800Y-112420495D01*
X135488419Y-112372876D01*
X135583657Y-112325257D01*
X135726514Y-112325257D01*
X135821752Y-112372876D01*
X135869371Y-112420495D01*
X135916990Y-112515733D01*
X135916990Y-112896686D01*
X136393181Y-111372876D02*
X136393181Y-111944305D01*
X136393181Y-111658591D02*
X135393181Y-111658591D01*
X135536038Y-111753829D01*
X135631276Y-111849067D01*
X135678895Y-111944305D01*
X136393181Y-110896686D02*
X136393181Y-110706210D01*
X136345562Y-110610971D01*
X136297943Y-110563352D01*
X136155086Y-110468114D01*
X135964610Y-110420495D01*
X135583657Y-110420495D01*
X135488419Y-110468114D01*
X135440800Y-110515733D01*
X135393181Y-110610971D01*
X135393181Y-110801448D01*
X135440800Y-110896686D01*
X135488419Y-110944305D01*
X135583657Y-110991924D01*
X135821752Y-110991924D01*
X135916990Y-110944305D01*
X135964610Y-110896686D01*
X136012229Y-110801448D01*
X136012229Y-110610971D01*
X135964610Y-110515733D01*
X135916990Y-110468114D01*
X135821752Y-110420495D01*
X141473181Y-150323657D02*
X140996990Y-150656991D01*
X141473181Y-150895086D02*
X140473181Y-150895086D01*
X140473181Y-150514133D01*
X140520800Y-150418895D01*
X140568419Y-150371276D01*
X140663657Y-150323657D01*
X140806514Y-150323657D01*
X140901752Y-150371276D01*
X140949371Y-150418895D01*
X140996990Y-150514133D01*
X140996990Y-150895086D01*
X140568419Y-149942705D02*
X140520800Y-149895086D01*
X140473181Y-149799848D01*
X140473181Y-149561752D01*
X140520800Y-149466514D01*
X140568419Y-149418895D01*
X140663657Y-149371276D01*
X140758895Y-149371276D01*
X140901752Y-149418895D01*
X141473181Y-149990324D01*
X141473181Y-149371276D01*
X140473181Y-148752229D02*
X140473181Y-148656990D01*
X140520800Y-148561752D01*
X140568419Y-148514133D01*
X140663657Y-148466514D01*
X140854133Y-148418895D01*
X141092229Y-148418895D01*
X141282705Y-148466514D01*
X141377943Y-148514133D01*
X141425562Y-148561752D01*
X141473181Y-148656990D01*
X141473181Y-148752229D01*
X141425562Y-148847467D01*
X141377943Y-148895086D01*
X141282705Y-148942705D01*
X141092229Y-148990324D01*
X140854133Y-148990324D01*
X140663657Y-148942705D01*
X140568419Y-148895086D01*
X140520800Y-148847467D01*
X140473181Y-148752229D01*
X151429981Y-112325257D02*
X150953790Y-112658591D01*
X151429981Y-112896686D02*
X150429981Y-112896686D01*
X150429981Y-112515733D01*
X150477600Y-112420495D01*
X150525219Y-112372876D01*
X150620457Y-112325257D01*
X150763314Y-112325257D01*
X150858552Y-112372876D01*
X150906171Y-112420495D01*
X150953790Y-112515733D01*
X150953790Y-112896686D01*
X150525219Y-111944305D02*
X150477600Y-111896686D01*
X150429981Y-111801448D01*
X150429981Y-111563352D01*
X150477600Y-111468114D01*
X150525219Y-111420495D01*
X150620457Y-111372876D01*
X150715695Y-111372876D01*
X150858552Y-111420495D01*
X151429981Y-111991924D01*
X151429981Y-111372876D01*
X151429981Y-110420495D02*
X151429981Y-110991924D01*
X151429981Y-110706210D02*
X150429981Y-110706210D01*
X150572838Y-110801448D01*
X150668076Y-110896686D01*
X150715695Y-110991924D01*
X154071581Y-112325257D02*
X153595390Y-112658591D01*
X154071581Y-112896686D02*
X153071581Y-112896686D01*
X153071581Y-112515733D01*
X153119200Y-112420495D01*
X153166819Y-112372876D01*
X153262057Y-112325257D01*
X153404914Y-112325257D01*
X153500152Y-112372876D01*
X153547771Y-112420495D01*
X153595390Y-112515733D01*
X153595390Y-112896686D01*
X153166819Y-111944305D02*
X153119200Y-111896686D01*
X153071581Y-111801448D01*
X153071581Y-111563352D01*
X153119200Y-111468114D01*
X153166819Y-111420495D01*
X153262057Y-111372876D01*
X153357295Y-111372876D01*
X153500152Y-111420495D01*
X154071581Y-111991924D01*
X154071581Y-111372876D01*
X153166819Y-110991924D02*
X153119200Y-110944305D01*
X153071581Y-110849067D01*
X153071581Y-110610971D01*
X153119200Y-110515733D01*
X153166819Y-110468114D01*
X153262057Y-110420495D01*
X153357295Y-110420495D01*
X153500152Y-110468114D01*
X154071581Y-111039543D01*
X154071581Y-110420495D01*
X151633181Y-150323657D02*
X151156990Y-150656991D01*
X151633181Y-150895086D02*
X150633181Y-150895086D01*
X150633181Y-150514133D01*
X150680800Y-150418895D01*
X150728419Y-150371276D01*
X150823657Y-150323657D01*
X150966514Y-150323657D01*
X151061752Y-150371276D01*
X151109371Y-150418895D01*
X151156990Y-150514133D01*
X151156990Y-150895086D01*
X150728419Y-149942705D02*
X150680800Y-149895086D01*
X150633181Y-149799848D01*
X150633181Y-149561752D01*
X150680800Y-149466514D01*
X150728419Y-149418895D01*
X150823657Y-149371276D01*
X150918895Y-149371276D01*
X151061752Y-149418895D01*
X151633181Y-149990324D01*
X151633181Y-149371276D01*
X150633181Y-149037943D02*
X150633181Y-148418895D01*
X151014133Y-148752229D01*
X151014133Y-148609371D01*
X151061752Y-148514133D01*
X151109371Y-148466514D01*
X151204610Y-148418895D01*
X151442705Y-148418895D01*
X151537943Y-148466514D01*
X151585562Y-148514133D01*
X151633181Y-148609371D01*
X151633181Y-148895086D01*
X151585562Y-148990324D01*
X151537943Y-149037943D01*
X146553181Y-150323657D02*
X146076990Y-150656991D01*
X146553181Y-150895086D02*
X145553181Y-150895086D01*
X145553181Y-150514133D01*
X145600800Y-150418895D01*
X145648419Y-150371276D01*
X145743657Y-150323657D01*
X145886514Y-150323657D01*
X145981752Y-150371276D01*
X146029371Y-150418895D01*
X146076990Y-150514133D01*
X146076990Y-150895086D01*
X145648419Y-149942705D02*
X145600800Y-149895086D01*
X145553181Y-149799848D01*
X145553181Y-149561752D01*
X145600800Y-149466514D01*
X145648419Y-149418895D01*
X145743657Y-149371276D01*
X145838895Y-149371276D01*
X145981752Y-149418895D01*
X146553181Y-149990324D01*
X146553181Y-149371276D01*
X145886514Y-148514133D02*
X146553181Y-148514133D01*
X145505562Y-148752229D02*
X146219848Y-148990324D01*
X146219848Y-148371276D01*
X143911581Y-150323657D02*
X143435390Y-150656991D01*
X143911581Y-150895086D02*
X142911581Y-150895086D01*
X142911581Y-150514133D01*
X142959200Y-150418895D01*
X143006819Y-150371276D01*
X143102057Y-150323657D01*
X143244914Y-150323657D01*
X143340152Y-150371276D01*
X143387771Y-150418895D01*
X143435390Y-150514133D01*
X143435390Y-150895086D01*
X143006819Y-149942705D02*
X142959200Y-149895086D01*
X142911581Y-149799848D01*
X142911581Y-149561752D01*
X142959200Y-149466514D01*
X143006819Y-149418895D01*
X143102057Y-149371276D01*
X143197295Y-149371276D01*
X143340152Y-149418895D01*
X143911581Y-149990324D01*
X143911581Y-149371276D01*
X142911581Y-148466514D02*
X142911581Y-148942705D01*
X143387771Y-148990324D01*
X143340152Y-148942705D01*
X143292533Y-148847467D01*
X143292533Y-148609371D01*
X143340152Y-148514133D01*
X143387771Y-148466514D01*
X143483010Y-148418895D01*
X143721105Y-148418895D01*
X143816343Y-148466514D01*
X143863962Y-148514133D01*
X143911581Y-148609371D01*
X143911581Y-148847467D01*
X143863962Y-148942705D01*
X143816343Y-148990324D01*
X149194781Y-112325257D02*
X148718590Y-112658591D01*
X149194781Y-112896686D02*
X148194781Y-112896686D01*
X148194781Y-112515733D01*
X148242400Y-112420495D01*
X148290019Y-112372876D01*
X148385257Y-112325257D01*
X148528114Y-112325257D01*
X148623352Y-112372876D01*
X148670971Y-112420495D01*
X148718590Y-112515733D01*
X148718590Y-112896686D01*
X148290019Y-111944305D02*
X148242400Y-111896686D01*
X148194781Y-111801448D01*
X148194781Y-111563352D01*
X148242400Y-111468114D01*
X148290019Y-111420495D01*
X148385257Y-111372876D01*
X148480495Y-111372876D01*
X148623352Y-111420495D01*
X149194781Y-111991924D01*
X149194781Y-111372876D01*
X148194781Y-110515733D02*
X148194781Y-110706210D01*
X148242400Y-110801448D01*
X148290019Y-110849067D01*
X148432876Y-110944305D01*
X148623352Y-110991924D01*
X149004305Y-110991924D01*
X149099543Y-110944305D01*
X149147162Y-110896686D01*
X149194781Y-110801448D01*
X149194781Y-110610971D01*
X149147162Y-110515733D01*
X149099543Y-110468114D01*
X149004305Y-110420495D01*
X148766210Y-110420495D01*
X148670971Y-110468114D01*
X148623352Y-110515733D01*
X148575733Y-110610971D01*
X148575733Y-110801448D01*
X148623352Y-110896686D01*
X148670971Y-110944305D01*
X148766210Y-110991924D01*
X149194781Y-150323657D02*
X148718590Y-150656991D01*
X149194781Y-150895086D02*
X148194781Y-150895086D01*
X148194781Y-150514133D01*
X148242400Y-150418895D01*
X148290019Y-150371276D01*
X148385257Y-150323657D01*
X148528114Y-150323657D01*
X148623352Y-150371276D01*
X148670971Y-150418895D01*
X148718590Y-150514133D01*
X148718590Y-150895086D01*
X148290019Y-149942705D02*
X148242400Y-149895086D01*
X148194781Y-149799848D01*
X148194781Y-149561752D01*
X148242400Y-149466514D01*
X148290019Y-149418895D01*
X148385257Y-149371276D01*
X148480495Y-149371276D01*
X148623352Y-149418895D01*
X149194781Y-149990324D01*
X149194781Y-149371276D01*
X148194781Y-149037943D02*
X148194781Y-148371276D01*
X149194781Y-148799848D01*
X154071581Y-150323657D02*
X153595390Y-150656991D01*
X154071581Y-150895086D02*
X153071581Y-150895086D01*
X153071581Y-150514133D01*
X153119200Y-150418895D01*
X153166819Y-150371276D01*
X153262057Y-150323657D01*
X153404914Y-150323657D01*
X153500152Y-150371276D01*
X153547771Y-150418895D01*
X153595390Y-150514133D01*
X153595390Y-150895086D01*
X153166819Y-149942705D02*
X153119200Y-149895086D01*
X153071581Y-149799848D01*
X153071581Y-149561752D01*
X153119200Y-149466514D01*
X153166819Y-149418895D01*
X153262057Y-149371276D01*
X153357295Y-149371276D01*
X153500152Y-149418895D01*
X154071581Y-149990324D01*
X154071581Y-149371276D01*
X153500152Y-148799848D02*
X153452533Y-148895086D01*
X153404914Y-148942705D01*
X153309676Y-148990324D01*
X153262057Y-148990324D01*
X153166819Y-148942705D01*
X153119200Y-148895086D01*
X153071581Y-148799848D01*
X153071581Y-148609371D01*
X153119200Y-148514133D01*
X153166819Y-148466514D01*
X153262057Y-148418895D01*
X153309676Y-148418895D01*
X153404914Y-148466514D01*
X153452533Y-148514133D01*
X153500152Y-148609371D01*
X153500152Y-148799848D01*
X153547771Y-148895086D01*
X153595390Y-148942705D01*
X153690629Y-148990324D01*
X153881105Y-148990324D01*
X153976343Y-148942705D01*
X154023962Y-148895086D01*
X154071581Y-148799848D01*
X154071581Y-148609371D01*
X154023962Y-148514133D01*
X153976343Y-148466514D01*
X153881105Y-148418895D01*
X153690629Y-148418895D01*
X153595390Y-148466514D01*
X153547771Y-148514133D01*
X153500152Y-148609371D01*
X130703581Y-109683657D02*
X130227390Y-110016991D01*
X130703581Y-110255086D02*
X129703581Y-110255086D01*
X129703581Y-109874133D01*
X129751200Y-109778895D01*
X129798819Y-109731276D01*
X129894057Y-109683657D01*
X130036914Y-109683657D01*
X130132152Y-109731276D01*
X130179771Y-109778895D01*
X130227390Y-109874133D01*
X130227390Y-110255086D01*
X129798819Y-109302705D02*
X129751200Y-109255086D01*
X129703581Y-109159848D01*
X129703581Y-108921752D01*
X129751200Y-108826514D01*
X129798819Y-108778895D01*
X129894057Y-108731276D01*
X129989295Y-108731276D01*
X130132152Y-108778895D01*
X130703581Y-109350324D01*
X130703581Y-108731276D01*
X130703581Y-108255086D02*
X130703581Y-108064610D01*
X130655962Y-107969371D01*
X130608343Y-107921752D01*
X130465486Y-107826514D01*
X130275010Y-107778895D01*
X129894057Y-107778895D01*
X129798819Y-107826514D01*
X129751200Y-107874133D01*
X129703581Y-107969371D01*
X129703581Y-108159848D01*
X129751200Y-108255086D01*
X129798819Y-108302705D01*
X129894057Y-108350324D01*
X130132152Y-108350324D01*
X130227390Y-108302705D01*
X130275010Y-108255086D01*
X130322629Y-108159848D01*
X130322629Y-107969371D01*
X130275010Y-107874133D01*
X130227390Y-107826514D01*
X130132152Y-107778895D01*
X57012381Y-33432857D02*
X56536190Y-33766191D01*
X57012381Y-34004286D02*
X56012381Y-34004286D01*
X56012381Y-33623333D01*
X56060000Y-33528095D01*
X56107619Y-33480476D01*
X56202857Y-33432857D01*
X56345714Y-33432857D01*
X56440952Y-33480476D01*
X56488571Y-33528095D01*
X56536190Y-33623333D01*
X56536190Y-34004286D01*
X56012381Y-33099524D02*
X56012381Y-32480476D01*
X56393333Y-32813810D01*
X56393333Y-32670952D01*
X56440952Y-32575714D01*
X56488571Y-32528095D01*
X56583810Y-32480476D01*
X56821905Y-32480476D01*
X56917143Y-32528095D01*
X56964762Y-32575714D01*
X57012381Y-32670952D01*
X57012381Y-32956667D01*
X56964762Y-33051905D01*
X56917143Y-33099524D01*
X56012381Y-31861429D02*
X56012381Y-31766190D01*
X56060000Y-31670952D01*
X56107619Y-31623333D01*
X56202857Y-31575714D01*
X56393333Y-31528095D01*
X56631429Y-31528095D01*
X56821905Y-31575714D01*
X56917143Y-31623333D01*
X56964762Y-31670952D01*
X57012381Y-31766190D01*
X57012381Y-31861429D01*
X56964762Y-31956667D01*
X56917143Y-32004286D01*
X56821905Y-32051905D01*
X56631429Y-32099524D01*
X56393333Y-32099524D01*
X56202857Y-32051905D01*
X56107619Y-32004286D01*
X56060000Y-31956667D01*
X56012381Y-31861429D01*
X51579543Y-33699581D02*
X51246209Y-33223390D01*
X51008114Y-33699581D02*
X51008114Y-32699581D01*
X51389067Y-32699581D01*
X51484305Y-32747200D01*
X51531924Y-32794819D01*
X51579543Y-32890057D01*
X51579543Y-33032914D01*
X51531924Y-33128152D01*
X51484305Y-33175771D01*
X51389067Y-33223390D01*
X51008114Y-33223390D01*
X51912876Y-32699581D02*
X52531924Y-32699581D01*
X52198590Y-33080533D01*
X52341448Y-33080533D01*
X52436686Y-33128152D01*
X52484305Y-33175771D01*
X52531924Y-33271010D01*
X52531924Y-33509105D01*
X52484305Y-33604343D01*
X52436686Y-33651962D01*
X52341448Y-33699581D01*
X52055733Y-33699581D01*
X51960495Y-33651962D01*
X51912876Y-33604343D01*
X53484305Y-33699581D02*
X52912876Y-33699581D01*
X53198590Y-33699581D02*
X53198590Y-32699581D01*
X53103352Y-32842438D01*
X53008114Y-32937676D01*
X52912876Y-32985295D01*
X35496667Y-42404762D02*
X35639524Y-42452381D01*
X35877620Y-42452381D01*
X35972858Y-42404762D01*
X36020477Y-42357143D01*
X36068096Y-42261905D01*
X36068096Y-42166667D01*
X36020477Y-42071429D01*
X35972858Y-42023810D01*
X35877620Y-41976190D01*
X35687143Y-41928571D01*
X35591905Y-41880952D01*
X35544286Y-41833333D01*
X35496667Y-41738095D01*
X35496667Y-41642857D01*
X35544286Y-41547619D01*
X35591905Y-41500000D01*
X35687143Y-41452381D01*
X35925239Y-41452381D01*
X36068096Y-41500000D01*
X36401429Y-41452381D02*
X36639524Y-42452381D01*
X36830001Y-41738095D01*
X37020477Y-42452381D01*
X37258572Y-41452381D01*
X38163334Y-42452381D02*
X37591905Y-42452381D01*
X37877619Y-42452381D02*
X37877619Y-41452381D01*
X37782381Y-41595238D01*
X37687143Y-41690476D01*
X37591905Y-41738095D01*
X73213981Y-115085905D02*
X74023505Y-115085905D01*
X74118743Y-115038286D01*
X74166362Y-114990667D01*
X74213981Y-114895429D01*
X74213981Y-114704952D01*
X74166362Y-114609714D01*
X74118743Y-114562095D01*
X74023505Y-114514476D01*
X73213981Y-114514476D01*
X74213981Y-113514476D02*
X74213981Y-114085905D01*
X74213981Y-113800191D02*
X73213981Y-113800191D01*
X73356838Y-113895429D01*
X73452076Y-113990667D01*
X73499695Y-114085905D01*
X52578095Y-38802381D02*
X52578095Y-39611905D01*
X52625714Y-39707143D01*
X52673333Y-39754762D01*
X52768571Y-39802381D01*
X52959048Y-39802381D01*
X53054286Y-39754762D01*
X53101905Y-39707143D01*
X53149524Y-39611905D01*
X53149524Y-38802381D01*
X53578095Y-38897619D02*
X53625714Y-38850000D01*
X53720952Y-38802381D01*
X53959048Y-38802381D01*
X54054286Y-38850000D01*
X54101905Y-38897619D01*
X54149524Y-38992857D01*
X54149524Y-39088095D01*
X54101905Y-39230952D01*
X53530476Y-39802381D01*
X54149524Y-39802381D01*
X24841295Y-91830781D02*
X24841295Y-92640305D01*
X24888914Y-92735543D01*
X24936533Y-92783162D01*
X25031771Y-92830781D01*
X25222248Y-92830781D01*
X25317486Y-92783162D01*
X25365105Y-92735543D01*
X25412724Y-92640305D01*
X25412724Y-91830781D01*
X25793676Y-91830781D02*
X26412724Y-91830781D01*
X26079390Y-92211733D01*
X26222248Y-92211733D01*
X26317486Y-92259352D01*
X26365105Y-92306971D01*
X26412724Y-92402210D01*
X26412724Y-92640305D01*
X26365105Y-92735543D01*
X26317486Y-92783162D01*
X26222248Y-92830781D01*
X25936533Y-92830781D01*
X25841295Y-92783162D01*
X25793676Y-92735543D01*
X21194781Y-145159505D02*
X22004305Y-145159505D01*
X22099543Y-145111886D01*
X22147162Y-145064267D01*
X22194781Y-144969029D01*
X22194781Y-144778552D01*
X22147162Y-144683314D01*
X22099543Y-144635695D01*
X22004305Y-144588076D01*
X21194781Y-144588076D01*
X21528114Y-143683314D02*
X22194781Y-143683314D01*
X21147162Y-143921410D02*
X21861448Y-144159505D01*
X21861448Y-143540457D01*
X50647695Y-92033981D02*
X50647695Y-92843505D01*
X50695314Y-92938743D01*
X50742933Y-92986362D01*
X50838171Y-93033981D01*
X51028648Y-93033981D01*
X51123886Y-92986362D01*
X51171505Y-92938743D01*
X51219124Y-92843505D01*
X51219124Y-92033981D01*
X52171505Y-92033981D02*
X51695314Y-92033981D01*
X51647695Y-92510171D01*
X51695314Y-92462552D01*
X51790552Y-92414933D01*
X52028648Y-92414933D01*
X52123886Y-92462552D01*
X52171505Y-92510171D01*
X52219124Y-92605410D01*
X52219124Y-92843505D01*
X52171505Y-92938743D01*
X52123886Y-92986362D01*
X52028648Y-93033981D01*
X51790552Y-93033981D01*
X51695314Y-92986362D01*
X51647695Y-92938743D01*
X88657181Y-141298705D02*
X89466705Y-141298705D01*
X89561943Y-141251086D01*
X89609562Y-141203467D01*
X89657181Y-141108229D01*
X89657181Y-140917752D01*
X89609562Y-140822514D01*
X89561943Y-140774895D01*
X89466705Y-140727276D01*
X88657181Y-140727276D01*
X88657181Y-139822514D02*
X88657181Y-140012991D01*
X88704800Y-140108229D01*
X88752419Y-140155848D01*
X88895276Y-140251086D01*
X89085752Y-140298705D01*
X89466705Y-140298705D01*
X89561943Y-140251086D01*
X89609562Y-140203467D01*
X89657181Y-140108229D01*
X89657181Y-139917752D01*
X89609562Y-139822514D01*
X89561943Y-139774895D01*
X89466705Y-139727276D01*
X89228610Y-139727276D01*
X89133371Y-139774895D01*
X89085752Y-139822514D01*
X89038133Y-139917752D01*
X89038133Y-140108229D01*
X89085752Y-140203467D01*
X89133371Y-140251086D01*
X89228610Y-140298705D01*
X136398095Y-75632381D02*
X136398095Y-76441905D01*
X136445714Y-76537143D01*
X136493333Y-76584762D01*
X136588571Y-76632381D01*
X136779048Y-76632381D01*
X136874286Y-76584762D01*
X136921905Y-76537143D01*
X136969524Y-76441905D01*
X136969524Y-75632381D01*
X137350476Y-75632381D02*
X138017143Y-75632381D01*
X137588571Y-76632381D01*
X150368095Y-75632381D02*
X150368095Y-76441905D01*
X150415714Y-76537143D01*
X150463333Y-76584762D01*
X150558571Y-76632381D01*
X150749048Y-76632381D01*
X150844286Y-76584762D01*
X150891905Y-76537143D01*
X150939524Y-76441905D01*
X150939524Y-75632381D01*
X151558571Y-76060952D02*
X151463333Y-76013333D01*
X151415714Y-75965714D01*
X151368095Y-75870476D01*
X151368095Y-75822857D01*
X151415714Y-75727619D01*
X151463333Y-75680000D01*
X151558571Y-75632381D01*
X151749048Y-75632381D01*
X151844286Y-75680000D01*
X151891905Y-75727619D01*
X151939524Y-75822857D01*
X151939524Y-75870476D01*
X151891905Y-75965714D01*
X151844286Y-76013333D01*
X151749048Y-76060952D01*
X151558571Y-76060952D01*
X151463333Y-76108571D01*
X151415714Y-76156190D01*
X151368095Y-76251429D01*
X151368095Y-76441905D01*
X151415714Y-76537143D01*
X151463333Y-76584762D01*
X151558571Y-76632381D01*
X151749048Y-76632381D01*
X151844286Y-76584762D01*
X151891905Y-76537143D01*
X151939524Y-76441905D01*
X151939524Y-76251429D01*
X151891905Y-76156190D01*
X151844286Y-76108571D01*
X151749048Y-76060952D01*
X122580495Y-131454781D02*
X122580495Y-132264305D01*
X122628114Y-132359543D01*
X122675733Y-132407162D01*
X122770971Y-132454781D01*
X122961448Y-132454781D01*
X123056686Y-132407162D01*
X123104305Y-132359543D01*
X123151924Y-132264305D01*
X123151924Y-131454781D01*
X123675733Y-132454781D02*
X123866209Y-132454781D01*
X123961448Y-132407162D01*
X124009067Y-132359543D01*
X124104305Y-132216686D01*
X124151924Y-132026210D01*
X124151924Y-131645257D01*
X124104305Y-131550019D01*
X124056686Y-131502400D01*
X123961448Y-131454781D01*
X123770971Y-131454781D01*
X123675733Y-131502400D01*
X123628114Y-131550019D01*
X123580495Y-131645257D01*
X123580495Y-131883352D01*
X123628114Y-131978590D01*
X123675733Y-132026210D01*
X123770971Y-132073829D01*
X123961448Y-132073829D01*
X124056686Y-132026210D01*
X124104305Y-131978590D01*
X124151924Y-131883352D01*
X73213981Y-68216495D02*
X74023505Y-68216495D01*
X74118743Y-68168876D01*
X74166362Y-68121257D01*
X74213981Y-68026019D01*
X74213981Y-67835542D01*
X74166362Y-67740304D01*
X74118743Y-67692685D01*
X74023505Y-67645066D01*
X73213981Y-67645066D01*
X74213981Y-66645066D02*
X74213981Y-67216495D01*
X74213981Y-66930781D02*
X73213981Y-66930781D01*
X73356838Y-67026019D01*
X73452076Y-67121257D01*
X73499695Y-67216495D01*
X73213981Y-66026019D02*
X73213981Y-65930780D01*
X73261600Y-65835542D01*
X73309219Y-65787923D01*
X73404457Y-65740304D01*
X73594933Y-65692685D01*
X73833029Y-65692685D01*
X74023505Y-65740304D01*
X74118743Y-65787923D01*
X74166362Y-65835542D01*
X74213981Y-65930780D01*
X74213981Y-66026019D01*
X74166362Y-66121257D01*
X74118743Y-66168876D01*
X74023505Y-66216495D01*
X73833029Y-66264114D01*
X73594933Y-66264114D01*
X73404457Y-66216495D01*
X73309219Y-66168876D01*
X73261600Y-66121257D01*
X73213981Y-66026019D01*
X89469981Y-41800495D02*
X90279505Y-41800495D01*
X90374743Y-41752876D01*
X90422362Y-41705257D01*
X90469981Y-41610019D01*
X90469981Y-41419542D01*
X90422362Y-41324304D01*
X90374743Y-41276685D01*
X90279505Y-41229066D01*
X89469981Y-41229066D01*
X90469981Y-40229066D02*
X90469981Y-40800495D01*
X90469981Y-40514781D02*
X89469981Y-40514781D01*
X89612838Y-40610019D01*
X89708076Y-40705257D01*
X89755695Y-40800495D01*
X90469981Y-39276685D02*
X90469981Y-39848114D01*
X90469981Y-39562400D02*
X89469981Y-39562400D01*
X89612838Y-39657638D01*
X89708076Y-39752876D01*
X89755695Y-39848114D01*
X126858781Y-41800495D02*
X127668305Y-41800495D01*
X127763543Y-41752876D01*
X127811162Y-41705257D01*
X127858781Y-41610019D01*
X127858781Y-41419542D01*
X127811162Y-41324304D01*
X127763543Y-41276685D01*
X127668305Y-41229066D01*
X126858781Y-41229066D01*
X127858781Y-40229066D02*
X127858781Y-40800495D01*
X127858781Y-40514781D02*
X126858781Y-40514781D01*
X127001638Y-40610019D01*
X127096876Y-40705257D01*
X127144495Y-40800495D01*
X126954019Y-39848114D02*
X126906400Y-39800495D01*
X126858781Y-39705257D01*
X126858781Y-39467161D01*
X126906400Y-39371923D01*
X126954019Y-39324304D01*
X127049257Y-39276685D01*
X127144495Y-39276685D01*
X127287352Y-39324304D01*
X127858781Y-39895733D01*
X127858781Y-39276685D01*
X55332381Y-158488095D02*
X56141905Y-158488095D01*
X56237143Y-158440476D01*
X56284762Y-158392857D01*
X56332381Y-158297619D01*
X56332381Y-158107142D01*
X56284762Y-158011904D01*
X56237143Y-157964285D01*
X56141905Y-157916666D01*
X55332381Y-157916666D01*
X56332381Y-156916666D02*
X56332381Y-157488095D01*
X56332381Y-157202381D02*
X55332381Y-157202381D01*
X55475238Y-157297619D01*
X55570476Y-157392857D01*
X55618095Y-157488095D01*
X55332381Y-156583333D02*
X55332381Y-155964285D01*
X55713333Y-156297619D01*
X55713333Y-156154761D01*
X55760952Y-156059523D01*
X55808571Y-156011904D01*
X55903810Y-155964285D01*
X56141905Y-155964285D01*
X56237143Y-156011904D01*
X56284762Y-156059523D01*
X56332381Y-156154761D01*
X56332381Y-156440476D01*
X56284762Y-156535714D01*
X56237143Y-156583333D01*
X103490781Y-158437295D02*
X104300305Y-158437295D01*
X104395543Y-158389676D01*
X104443162Y-158342057D01*
X104490781Y-158246819D01*
X104490781Y-158056342D01*
X104443162Y-157961104D01*
X104395543Y-157913485D01*
X104300305Y-157865866D01*
X103490781Y-157865866D01*
X104490781Y-156865866D02*
X104490781Y-157437295D01*
X104490781Y-157151581D02*
X103490781Y-157151581D01*
X103633638Y-157246819D01*
X103728876Y-157342057D01*
X103776495Y-157437295D01*
X103824114Y-156008723D02*
X104490781Y-156008723D01*
X103443162Y-156246819D02*
X104157448Y-156484914D01*
X104157448Y-155865866D01*
X73322381Y-86098095D02*
X74131905Y-86098095D01*
X74227143Y-86050476D01*
X74274762Y-86002857D01*
X74322381Y-85907619D01*
X74322381Y-85717142D01*
X74274762Y-85621904D01*
X74227143Y-85574285D01*
X74131905Y-85526666D01*
X73322381Y-85526666D01*
X74322381Y-84526666D02*
X74322381Y-85098095D01*
X74322381Y-84812381D02*
X73322381Y-84812381D01*
X73465238Y-84907619D01*
X73560476Y-85002857D01*
X73608095Y-85098095D01*
X73322381Y-83621904D02*
X73322381Y-84098095D01*
X73798571Y-84145714D01*
X73750952Y-84098095D01*
X73703333Y-84002857D01*
X73703333Y-83764761D01*
X73750952Y-83669523D01*
X73798571Y-83621904D01*
X73893810Y-83574285D01*
X74131905Y-83574285D01*
X74227143Y-83621904D01*
X74274762Y-83669523D01*
X74322381Y-83764761D01*
X74322381Y-84002857D01*
X74274762Y-84098095D01*
X74227143Y-84145714D01*
X63531905Y-65472381D02*
X63531905Y-66281905D01*
X63579524Y-66377143D01*
X63627143Y-66424762D01*
X63722381Y-66472381D01*
X63912858Y-66472381D01*
X64008096Y-66424762D01*
X64055715Y-66377143D01*
X64103334Y-66281905D01*
X64103334Y-65472381D01*
X65103334Y-66472381D02*
X64531905Y-66472381D01*
X64817619Y-66472381D02*
X64817619Y-65472381D01*
X64722381Y-65615238D01*
X64627143Y-65710476D01*
X64531905Y-65758095D01*
X65960477Y-65472381D02*
X65770000Y-65472381D01*
X65674762Y-65520000D01*
X65627143Y-65567619D01*
X65531905Y-65710476D01*
X65484286Y-65900952D01*
X65484286Y-66281905D01*
X65531905Y-66377143D01*
X65579524Y-66424762D01*
X65674762Y-66472381D01*
X65865239Y-66472381D01*
X65960477Y-66424762D01*
X66008096Y-66377143D01*
X66055715Y-66281905D01*
X66055715Y-66043810D01*
X66008096Y-65948571D01*
X65960477Y-65900952D01*
X65865239Y-65853333D01*
X65674762Y-65853333D01*
X65579524Y-65900952D01*
X65531905Y-65948571D01*
X65484286Y-66043810D01*
X134093105Y-48142781D02*
X134093105Y-48952305D01*
X134140724Y-49047543D01*
X134188343Y-49095162D01*
X134283581Y-49142781D01*
X134474058Y-49142781D01*
X134569296Y-49095162D01*
X134616915Y-49047543D01*
X134664534Y-48952305D01*
X134664534Y-48142781D01*
X135664534Y-49142781D02*
X135093105Y-49142781D01*
X135378819Y-49142781D02*
X135378819Y-48142781D01*
X135283581Y-48285638D01*
X135188343Y-48380876D01*
X135093105Y-48428495D01*
X135997867Y-48142781D02*
X136664534Y-48142781D01*
X136235962Y-49142781D01*
X35591905Y-65472381D02*
X35591905Y-66281905D01*
X35639524Y-66377143D01*
X35687143Y-66424762D01*
X35782381Y-66472381D01*
X35972858Y-66472381D01*
X36068096Y-66424762D01*
X36115715Y-66377143D01*
X36163334Y-66281905D01*
X36163334Y-65472381D01*
X37163334Y-66472381D02*
X36591905Y-66472381D01*
X36877619Y-66472381D02*
X36877619Y-65472381D01*
X36782381Y-65615238D01*
X36687143Y-65710476D01*
X36591905Y-65758095D01*
X37734762Y-65900952D02*
X37639524Y-65853333D01*
X37591905Y-65805714D01*
X37544286Y-65710476D01*
X37544286Y-65662857D01*
X37591905Y-65567619D01*
X37639524Y-65520000D01*
X37734762Y-65472381D01*
X37925239Y-65472381D01*
X38020477Y-65520000D01*
X38068096Y-65567619D01*
X38115715Y-65662857D01*
X38115715Y-65710476D01*
X38068096Y-65805714D01*
X38020477Y-65853333D01*
X37925239Y-65900952D01*
X37734762Y-65900952D01*
X37639524Y-65948571D01*
X37591905Y-65996190D01*
X37544286Y-66091429D01*
X37544286Y-66281905D01*
X37591905Y-66377143D01*
X37639524Y-66424762D01*
X37734762Y-66472381D01*
X37925239Y-66472381D01*
X38020477Y-66424762D01*
X38068096Y-66377143D01*
X38115715Y-66281905D01*
X38115715Y-66091429D01*
X38068096Y-65996190D01*
X38020477Y-65948571D01*
X37925239Y-65900952D01*
X49561905Y-65472381D02*
X49561905Y-66281905D01*
X49609524Y-66377143D01*
X49657143Y-66424762D01*
X49752381Y-66472381D01*
X49942858Y-66472381D01*
X50038096Y-66424762D01*
X50085715Y-66377143D01*
X50133334Y-66281905D01*
X50133334Y-65472381D01*
X51133334Y-66472381D02*
X50561905Y-66472381D01*
X50847619Y-66472381D02*
X50847619Y-65472381D01*
X50752381Y-65615238D01*
X50657143Y-65710476D01*
X50561905Y-65758095D01*
X51609524Y-66472381D02*
X51800000Y-66472381D01*
X51895239Y-66424762D01*
X51942858Y-66377143D01*
X52038096Y-66234286D01*
X52085715Y-66043810D01*
X52085715Y-65662857D01*
X52038096Y-65567619D01*
X51990477Y-65520000D01*
X51895239Y-65472381D01*
X51704762Y-65472381D01*
X51609524Y-65520000D01*
X51561905Y-65567619D01*
X51514286Y-65662857D01*
X51514286Y-65900952D01*
X51561905Y-65996190D01*
X51609524Y-66043810D01*
X51704762Y-66091429D01*
X51895239Y-66091429D01*
X51990477Y-66043810D01*
X52038096Y-65996190D01*
X52085715Y-65900952D01*
X77930476Y-131472381D02*
X78597143Y-132472381D01*
X78597143Y-131472381D02*
X77930476Y-132472381D01*
X79501905Y-132472381D02*
X78930476Y-132472381D01*
X79216190Y-132472381D02*
X79216190Y-131472381D01*
X79120952Y-131615238D01*
X79025714Y-131710476D01*
X78930476Y-131758095D01*
X143665676Y-30667581D02*
X144332343Y-31667581D01*
X144332343Y-30667581D02*
X143665676Y-31667581D01*
X144665676Y-30762819D02*
X144713295Y-30715200D01*
X144808533Y-30667581D01*
X145046629Y-30667581D01*
X145141867Y-30715200D01*
X145189486Y-30762819D01*
X145237105Y-30858057D01*
X145237105Y-30953295D01*
X145189486Y-31096152D01*
X144618057Y-31667581D01*
X145237105Y-31667581D01*
X77675714Y-32767162D02*
X77818571Y-32814781D01*
X78056667Y-32814781D01*
X78151905Y-32767162D01*
X78199524Y-32719543D01*
X78247143Y-32624305D01*
X78247143Y-32529067D01*
X78199524Y-32433829D01*
X78151905Y-32386210D01*
X78056667Y-32338590D01*
X77866190Y-32290971D01*
X77770952Y-32243352D01*
X77723333Y-32195733D01*
X77675714Y-32100495D01*
X77675714Y-32005257D01*
X77723333Y-31910019D01*
X77770952Y-31862400D01*
X77866190Y-31814781D01*
X78104286Y-31814781D01*
X78247143Y-31862400D01*
X78675714Y-32290971D02*
X79009048Y-32290971D01*
X79151905Y-32814781D02*
X78675714Y-32814781D01*
X78675714Y-31814781D01*
X79151905Y-31814781D01*
X80151905Y-32814781D02*
X79818571Y-32338590D01*
X79580476Y-32814781D02*
X79580476Y-31814781D01*
X79961429Y-31814781D01*
X80056667Y-31862400D01*
X80104286Y-31910019D01*
X80151905Y-32005257D01*
X80151905Y-32148114D01*
X80104286Y-32243352D01*
X80056667Y-32290971D01*
X79961429Y-32338590D01*
X79580476Y-32338590D01*
X81104286Y-32814781D02*
X80532857Y-32814781D01*
X80818571Y-32814781D02*
X80818571Y-31814781D01*
X80723333Y-31957638D01*
X80628095Y-32052876D01*
X80532857Y-32100495D01*
X118209314Y-32767162D02*
X118352171Y-32814781D01*
X118590267Y-32814781D01*
X118685505Y-32767162D01*
X118733124Y-32719543D01*
X118780743Y-32624305D01*
X118780743Y-32529067D01*
X118733124Y-32433829D01*
X118685505Y-32386210D01*
X118590267Y-32338590D01*
X118399790Y-32290971D01*
X118304552Y-32243352D01*
X118256933Y-32195733D01*
X118209314Y-32100495D01*
X118209314Y-32005257D01*
X118256933Y-31910019D01*
X118304552Y-31862400D01*
X118399790Y-31814781D01*
X118637886Y-31814781D01*
X118780743Y-31862400D01*
X119209314Y-32290971D02*
X119542648Y-32290971D01*
X119685505Y-32814781D02*
X119209314Y-32814781D01*
X119209314Y-31814781D01*
X119685505Y-31814781D01*
X120685505Y-32814781D02*
X120352171Y-32338590D01*
X120114076Y-32814781D02*
X120114076Y-31814781D01*
X120495029Y-31814781D01*
X120590267Y-31862400D01*
X120637886Y-31910019D01*
X120685505Y-32005257D01*
X120685505Y-32148114D01*
X120637886Y-32243352D01*
X120590267Y-32290971D01*
X120495029Y-32338590D01*
X120114076Y-32338590D01*
X121066457Y-31910019D02*
X121114076Y-31862400D01*
X121209314Y-31814781D01*
X121447410Y-31814781D01*
X121542648Y-31862400D01*
X121590267Y-31910019D01*
X121637886Y-32005257D01*
X121637886Y-32100495D01*
X121590267Y-32243352D01*
X121018838Y-32814781D01*
X121637886Y-32814781D01*
X88145486Y-166070781D02*
X88145486Y-166785067D01*
X88097866Y-166927924D01*
X88002628Y-167023162D01*
X87859771Y-167070781D01*
X87764533Y-167070781D01*
X88812152Y-166070781D02*
X89002629Y-166070781D01*
X89097867Y-166118400D01*
X89193105Y-166213638D01*
X89240724Y-166404114D01*
X89240724Y-166737448D01*
X89193105Y-166927924D01*
X89097867Y-167023162D01*
X89002629Y-167070781D01*
X88812152Y-167070781D01*
X88716914Y-167023162D01*
X88621676Y-166927924D01*
X88574057Y-166737448D01*
X88574057Y-166404114D01*
X88621676Y-166213638D01*
X88716914Y-166118400D01*
X88812152Y-166070781D01*
X89859771Y-166594590D02*
X89859771Y-167070781D01*
X89526438Y-166070781D02*
X89859771Y-166594590D01*
X90193105Y-166070781D01*
X90478819Y-166166019D02*
X90526438Y-166118400D01*
X90621676Y-166070781D01*
X90859772Y-166070781D01*
X90955010Y-166118400D01*
X91002629Y-166166019D01*
X91050248Y-166261257D01*
X91050248Y-166356495D01*
X91002629Y-166499352D01*
X90431200Y-167070781D01*
X91050248Y-167070781D01*
X42779486Y-166052381D02*
X42779486Y-166766667D01*
X42731866Y-166909524D01*
X42636628Y-167004762D01*
X42493771Y-167052381D01*
X42398533Y-167052381D01*
X43446152Y-166052381D02*
X43636629Y-166052381D01*
X43731867Y-166100000D01*
X43827105Y-166195238D01*
X43874724Y-166385714D01*
X43874724Y-166719048D01*
X43827105Y-166909524D01*
X43731867Y-167004762D01*
X43636629Y-167052381D01*
X43446152Y-167052381D01*
X43350914Y-167004762D01*
X43255676Y-166909524D01*
X43208057Y-166719048D01*
X43208057Y-166385714D01*
X43255676Y-166195238D01*
X43350914Y-166100000D01*
X43446152Y-166052381D01*
X44493771Y-166576190D02*
X44493771Y-167052381D01*
X44160438Y-166052381D02*
X44493771Y-166576190D01*
X44827105Y-166052381D01*
X45684248Y-167052381D02*
X45112819Y-167052381D01*
X45398533Y-167052381D02*
X45398533Y-166052381D01*
X45303295Y-166195238D01*
X45208057Y-166290476D01*
X45112819Y-166338095D01*
X32106667Y-32481581D02*
X32106667Y-33195867D01*
X32059047Y-33338724D01*
X31963809Y-33433962D01*
X31820952Y-33481581D01*
X31725714Y-33481581D01*
X33059048Y-32481581D02*
X32582857Y-32481581D01*
X32535238Y-32957771D01*
X32582857Y-32910152D01*
X32678095Y-32862533D01*
X32916191Y-32862533D01*
X33011429Y-32910152D01*
X33059048Y-32957771D01*
X33106667Y-33053010D01*
X33106667Y-33291105D01*
X33059048Y-33386343D01*
X33011429Y-33433962D01*
X32916191Y-33481581D01*
X32678095Y-33481581D01*
X32582857Y-33433962D01*
X32535238Y-33386343D01*
X51196667Y-28764781D02*
X51196667Y-29479067D01*
X51149047Y-29621924D01*
X51053809Y-29717162D01*
X50910952Y-29764781D01*
X50815714Y-29764781D01*
X51625238Y-28860019D02*
X51672857Y-28812400D01*
X51768095Y-28764781D01*
X52006191Y-28764781D01*
X52101429Y-28812400D01*
X52149048Y-28860019D01*
X52196667Y-28955257D01*
X52196667Y-29050495D01*
X52149048Y-29193352D01*
X51577619Y-29764781D01*
X52196667Y-29764781D01*
M02*
